<svg xmlns="http://www.w3.org/2000/svg" viewBox="0 0 361.9 111.5" width="108.5" height="35"><path d="M10.8,99.2H60.3v9.6H0V2.7H10.8Z" style="fill: rgb(255, 255, 255);"></path><path d="M197.9,94.9h.3L232.7,2.7h11.5L203.6,108.8H192.2L151.7,2.6h11.7Z" style="fill: rgb(255, 255, 255);"></path><path d="M362,55.7a58.4,58.4,0,0,1-4.2,22.4,53.43,53.43,0,0,1-11.6,17.6,52.48,52.48,0,0,1-17.5,11.6,59.72,59.72,0,0,1-44,0,53,53,0,0,1-17.5-11.6,51.91,51.91,0,0,1-11.6-17.6,58,58,0,0,1-4.2-22.4,57.89,57.89,0,0,1,4.2-22.3,53.43,53.43,0,0,1,11.6-17.6A54,54,0,0,1,284.7,4.2a59.72,59.72,0,0,1,44,0,53,53,0,0,1,17.5,11.6,51.91,51.91,0,0,1,11.6,17.6A58.25,58.25,0,0,1,362,55.7Zm-11.4.1a52.23,52.23,0,0,0-3-17.7,43.41,43.41,0,0,0-8.7-14.7A41.88,41.88,0,0,0,325,13.3a47.6,47.6,0,0,0-36.8,0,41.88,41.88,0,0,0-13.9,10.1,44.4,44.4,0,0,0-8.7,14.7,53.72,53.72,0,0,0,0,35.4,43.41,43.41,0,0,0,8.7,14.7,41.62,41.62,0,0,0,13.9,10,47.6,47.6,0,0,0,36.8,0,42.66,42.66,0,0,0,13.9-10,43.41,43.41,0,0,0,8.7-14.7A52.23,52.23,0,0,0,350.6,55.8Z" style="fill: rgb(255, 255, 255);"></path><polygon points="87.3 12.3 87.3 12.3 142.4 12.3 142.4 2.7 76.5 2.7 76.5 12.3 87.3 12.3" style="fill: rgb(255, 153, 31);"></polygon><polygon points="87.3 99.2 87.3 58.3 138.8 58.3 138.8 48.7 98.2 48.7 87.3 48.7 76.5 48.7 76.5 108.8 144.2 108.8 144.2 99.2 87.3 99.2" style="fill: rgb(255, 255, 255);"></polygon></svg>