<?xml version="1.0" encoding="UTF-8"?>
<svg xmlns="http://www.w3.org/2000/svg" xmlns:xlink="http://www.w3.org/1999/xlink" width="251px" height="150px" viewBox="0 0 92 55" version="1.1">
<g id="surface1">
<path style=" stroke:none;fill-rule:evenodd;fill:rgb(29.411765%,62.745098%,25.882353%);fill-opacity:1;" d="M 15.8125 0 L 88.125 0 C 90.105469 0 91.738281 1.652344 91.738281 3.636719 L 91.738281 26.519531 C 91.738281 28.5 90.09375 30.152344 88.125 30.152344 L 32.460938 30.152344 C 31.820312 29.792969 31.066406 29.523438 30.171875 29.371094 C 30.0625 29.34375 29.949219 29.320312 29.832031 29.304688 L 29.792969 29.296875 C 29.59375 28.929688 29.347656 28.585938 29.054688 28.261719 C 28.238281 27.339844 27.121094 26.6875 25.601562 26.410156 C 25.449219 26.371094 25.324219 26.347656 25.21875 26.339844 L 25.199219 26.339844 C 25.046875 26.324219 24.90625 26.3125 24.789062 26.3125 L 24.734375 26.3125 C 24.542969 26.019531 24.320312 25.742188 24.058594 25.476562 C 23.304688 24.71875 22.335938 24.164062 21.078125 23.886719 L 21.078125 22.027344 C 21.078125 20.382812 20.699219 18.964844 20.074219 17.789062 C 19.328125 16.378906 18.234375 15.355469 16.996094 14.726562 C 16.535156 14.488281 16.027344 14.308594 15.507812 14.179688 C 14.964844 14.042969 14.433594 13.984375 13.9375 13.984375 C 13.40625 13.984375 12.878906 14.042969 12.355469 14.171875 C 12.304688 14.1875 12.253906 14.195312 12.199219 14.210938 L 12.199219 3.636719 C 12.199219 1.636719 13.832031 0 15.8125 0 Z M 36.882812 5.515625 L 45.71875 5.515625 L 45.71875 9.332031 L 42.113281 9.332031 L 42.113281 12.988281 L 45.308594 12.988281 L 45.308594 16.609375 L 42.113281 16.609375 L 42.113281 24.636719 L 36.882812 24.636719 Z M 46.984375 5.515625 L 50.675781 5.515625 C 53.144531 5.515625 54.804688 5.605469 55.675781 5.785156 C 56.546875 5.964844 57.253906 6.429688 57.804688 7.171875 C 58.355469 7.914062 58.632812 9.101562 58.632812 10.726562 C 58.632812 12.214844 58.4375 13.210938 58.050781 13.730469 C 57.664062 14.238281 56.902344 14.546875 55.757812 14.644531 C 56.792969 14.890625 57.484375 15.214844 57.84375 15.628906 C 58.199219 16.03125 58.414062 16.414062 58.503906 16.753906 C 58.59375 17.097656 58.640625 18.035156 58.640625 19.582031 L 58.640625 24.628906 L 53.789062 24.628906 L 53.789062 18.269531 C 53.789062 17.246094 53.707031 16.609375 53.539062 16.371094 C 53.375 16.121094 52.933594 16.003906 52.21875 16.003906 L 52.21875 24.628906 L 46.992188 24.628906 L 46.992188 5.515625 Z M 52.210938 8.777344 L 52.210938 13.03125 C 52.792969 13.03125 53.203125 12.957031 53.433594 12.800781 C 53.664062 12.648438 53.785156 12.144531 53.785156 11.304688 L 53.785156 10.253906 C 53.785156 9.648438 53.671875 9.25 53.449219 9.054688 C 53.222656 8.867188 52.808594 8.777344 52.210938 8.777344 Z M 60.648438 5.515625 L 69.355469 5.515625 L 69.355469 9.332031 L 65.878906 9.332031 L 65.878906 12.988281 L 69.125 12.988281 L 69.125 16.609375 L 65.878906 16.609375 L 65.878906 20.820312 L 69.714844 20.820312 L 69.714844 24.636719 L 60.648438 24.636719 Z M 71.195312 5.515625 L 79.902344 5.515625 L 79.902344 9.332031 L 76.425781 9.332031 L 76.425781 12.988281 L 79.671875 12.988281 L 79.671875 16.609375 L 76.425781 16.609375 L 76.425781 20.820312 L 80.261719 20.820312 L 80.261719 24.636719 L 71.195312 24.636719 Z M 71.195312 5.515625 "/>
<path style=" stroke:none;fill-rule:nonzero;fill:rgb(22.352941%,22.352941%,22.352941%);fill-opacity:1;" d="M 9.570312 37.617188 C 9.519531 37.585938 9.476562 37.558594 9.421875 37.519531 C 8.8125 37.03125 8.148438 36.484375 7.566406 36.011719 C 6.742188 35.3125 5.773438 34.511719 5.09375 33.957031 C 4.632812 33.574219 4.105469 33.304688 3.613281 33.207031 C 3.292969 33.144531 3.003906 33.144531 2.777344 33.242188 C 2.59375 33.316406 2.4375 33.46875 2.324219 33.707031 C 2.183594 34.015625 2.117188 34.464844 2.152344 35.066406 C 2.191406 35.597656 2.371094 36.175781 2.613281 36.738281 C 2.980469 37.5625 3.464844 38.320312 3.828125 38.808594 C 3.851562 38.839844 3.867188 38.871094 3.890625 38.898438 L 11.15625 49.359375 C 11.253906 49.492188 11.308594 49.644531 11.320312 49.800781 C 11.464844 51.007812 11.722656 51.917969 12.097656 52.480469 C 12.371094 52.890625 12.722656 53.101562 13.160156 53.085938 L 24.519531 53.085938 C 24.550781 53.085938 24.570312 53.085938 24.601562 53.085938 C 25.308594 53.078125 25.957031 52.863281 26.546875 52.449219 C 27.195312 52 27.789062 51.292969 28.324219 50.347656 C 28.332031 50.332031 28.347656 50.3125 28.355469 50.296875 C 28.5625 49.9375 28.839844 49.476562 29.109375 49.035156 C 30.269531 47.113281 31.273438 45.441406 31.402344 43.054688 L 31.335938 39.761719 C 31.328125 39.71875 31.328125 39.664062 31.328125 39.621094 C 31.328125 39.574219 31.335938 39.265625 31.335938 38.847656 C 31.363281 36.679688 31.394531 33.984375 29.421875 33.648438 L 28.148438 33.648438 C 28.140625 34.261719 28.101562 34.878906 28.066406 35.484375 C 28.027344 36.027344 28 36.542969 28 37.039062 C 28 37.570312 27.566406 38.007812 27.039062 38.007812 C 26.507812 38.007812 26.078125 37.570312 26.078125 37.039062 C 26.078125 36.542969 26.113281 35.964844 26.152344 35.367188 C 26.277344 33.324219 26.425781 30.976562 24.804688 30.675781 L 23.542969 30.675781 C 23.46875 30.675781 23.402344 30.667969 23.335938 30.65625 C 23.351562 31.398438 23.296875 32.164062 23.253906 32.90625 C 23.214844 33.445312 23.1875 33.964844 23.1875 34.457031 C 23.1875 34.992188 22.753906 35.425781 22.226562 35.425781 C 21.695312 35.425781 21.265625 34.992188 21.265625 34.457031 C 21.265625 33.964844 21.300781 33.386719 21.339844 32.785156 C 21.464844 30.746094 21.613281 28.398438 19.992188 28.097656 L 18.734375 28.097656 C 18.644531 28.097656 18.5625 28.082031 18.488281 28.058594 L 18.488281 31.796875 C 18.488281 32.328125 18.054688 32.761719 17.527344 32.761719 C 16.996094 32.761719 16.566406 32.328125 16.566406 31.796875 L 16.566406 21.785156 C 16.566406 20.105469 15.886719 19.046875 15.015625 18.605469 C 14.695312 18.441406 14.351562 18.359375 14.019531 18.359375 C 13.683594 18.359375 13.339844 18.441406 13.027344 18.597656 C 12.171875 19.042969 11.492188 20.097656 11.492188 21.824219 L 11.492188 39.402344 C 11.492188 39.933594 11.0625 40.371094 10.53125 40.371094 C 10.003906 40.371094 9.570312 39.933594 9.570312 39.402344 Z M 88.664062 32.933594 L 88.664062 48 L 91.761719 48 L 91.761719 51.757812 L 83.515625 51.757812 L 83.515625 32.933594 Z M 79.472656 32.933594 L 82.414062 51.765625 L 77.164062 51.765625 L 76.886719 48.382812 L 75.03125 48.382812 L 74.757812 51.765625 L 69.4375 51.765625 L 72.046875 32.933594 Z M 76.738281 45.050781 C 76.492188 42.914062 76.230469 40.273438 75.957031 37.121094 C 75.449219 40.738281 75.128906 43.378906 74.988281 45.050781 Z M 68.328125 32.933594 L 68.328125 51.765625 L 63.183594 51.765625 L 63.183594 32.933594 Z M 49.5 32.933594 L 53.136719 32.933594 C 55.554688 32.933594 57.203125 33.027344 58.058594 33.199219 C 58.914062 33.378906 59.613281 33.835938 60.160156 34.5625 C 60.703125 35.292969 60.96875 36.460938 60.96875 38.066406 C 60.96875 39.53125 60.777344 40.511719 60.398438 41.015625 C 60.015625 41.519531 59.265625 41.816406 58.140625 41.921875 C 59.152344 42.164062 59.847656 42.484375 60.195312 42.890625 C 60.546875 43.289062 60.761719 43.664062 60.84375 44 C 60.933594 44.339844 60.96875 45.269531 60.96875 46.785156 L 60.96875 51.757812 L 56.195312 51.757812 L 56.195312 45.496094 C 56.195312 44.488281 56.113281 43.867188 55.941406 43.617188 C 55.777344 43.378906 55.347656 43.257812 54.648438 43.257812 L 54.648438 51.757812 L 49.5 51.757812 Z M 54.648438 36.148438 L 54.648438 40.332031 C 55.21875 40.332031 55.621094 40.257812 55.855469 40.109375 C 56.085938 39.957031 56.195312 39.460938 56.195312 38.636719 L 56.195312 37.601562 C 56.195312 37 56.085938 36.613281 55.859375 36.425781 C 55.644531 36.238281 55.234375 36.148438 54.648438 36.148438 Z M 48.109375 32.933594 L 48.109375 36.695312 L 45.082031 36.695312 L 45.082031 51.757812 L 39.9375 51.757812 L 39.9375 36.695312 L 36.882812 36.695312 L 36.882812 32.933594 Z M 18.488281 26.207031 C 18.570312 26.183594 18.652344 26.167969 18.734375 26.167969 L 20.050781 26.167969 C 20.125 26.167969 20.199219 26.175781 20.265625 26.191406 C 22.023438 26.46875 22.8125 27.503906 23.132812 28.839844 C 23.253906 28.777344 23.394531 28.75 23.535156 28.75 L 24.855469 28.75 C 24.929688 28.75 25.003906 28.757812 25.070312 28.773438 C 26.960938 29.0625 27.730469 30.242188 28.003906 31.726562 C 28.050781 31.71875 28.101562 31.710938 28.15625 31.710938 L 29.472656 31.710938 C 29.546875 31.710938 29.621094 31.71875 29.6875 31.734375 C 33.316406 32.296875 33.269531 35.929688 33.234375 38.863281 C 33.234375 38.96875 33.234375 39.074219 33.234375 39.597656 L 33.234375 39.621094 L 33.308594 43.003906 C 33.308594 43.042969 33.308594 43.078125 33.308594 43.109375 C 33.167969 45.980469 32.042969 47.859375 30.738281 50.011719 C 30.523438 50.371094 30.300781 50.738281 30.007812 51.242188 C 30 51.257812 29.996094 51.265625 29.988281 51.277344 C 29.308594 52.472656 28.519531 53.386719 27.625 54.007812 C 26.71875 54.648438 25.703125 54.96875 24.601562 54.984375 C 24.570312 54.984375 24.542969 54.984375 24.511719 54.984375 L 13.191406 54.984375 C 12.050781 55.007812 11.164062 54.503906 10.515625 53.523438 C 9.996094 52.734375 9.644531 51.632812 9.460938 50.234375 L 2.339844 39.996094 C 2.332031 39.980469 2.316406 39.972656 2.308594 39.957031 C 1.878906 39.386719 1.304688 38.496094 0.871094 37.511719 C 0.542969 36.769531 0.296875 35.964844 0.253906 35.1875 C 0.195312 34.257812 0.320312 33.503906 0.582031 32.921875 C 0.910156 32.191406 1.429688 31.71875 2.054688 31.457031 C 2.644531 31.21875 3.308594 31.179688 3.976562 31.316406 C 4.78125 31.472656 5.601562 31.886719 6.308594 32.46875 C 6.890625 32.949219 7.851562 33.746094 8.789062 34.519531 L 9.570312 35.164062 L 9.570312 21.824219 C 9.570312 19.265625 10.703125 17.625 12.148438 16.878906 C 12.730469 16.582031 13.371094 16.4375 14.011719 16.4375 C 14.652344 16.4375 15.292969 16.585938 15.871094 16.886719 C 17.332031 17.628906 18.480469 19.28125 18.480469 21.785156 L 18.480469 26.207031 Z M 18.488281 26.207031 "/>
</g>
</svg>
