<svg width="298" height="212" viewBox="0 0 298 212" fill="none" xmlns="http://www.w3.org/2000/svg">
<g clip-path="url(#clip0_209_952)">
<path opacity="0.52" d="M115.561 67.3758C105.134 67.3758 96.6813 75.8305 96.6813 86.2584V115.676H105.086V86.2584C105.086 80.4747 109.776 75.782 115.561 75.782H166.284V67.3758H115.561V67.3758Z" fill="#FFC25F"/>
<path d="M221.117 67.377H191.944V75.7833H221.117C226.902 75.7833 231.594 80.4734 231.594 86.2596V146.219C231.594 152.006 226.902 156.695 221.117 156.695H212.731V177.417C212.731 178.045 211.946 178.329 211.543 177.846L193.919 156.695H115.563C109.775 156.695 105.086 152.005 105.086 146.219V141.352H96.6801V146.219C96.6801 156.647 105.135 165.102 115.563 165.102H189.982L208.501 187.325C212.78 192.459 221.137 189.433 221.137 182.75V165.102C231.539 165.09 240 156.625 240 146.219V86.2596C240 75.8318 231.545 67.377 221.117 67.377V67.377Z" fill="#5DBFA2"/>
<path d="M151.654 94.3175L149.207 91.8704C150.801 89.5564 151.735 86.756 151.735 83.7404C151.735 75.8181 145.29 69.3726 137.367 69.3726C129.445 69.3726 123 75.8181 123 83.7404C123 91.6627 129.445 98.1082 137.367 98.1082C140.383 98.1082 143.184 97.1739 145.497 95.5802L147.945 98.0273C148.457 98.5399 149.128 98.7962 149.8 98.7962C150.471 98.7962 151.142 98.5399 151.654 98.0273C152.678 97.0035 152.678 95.3426 151.654 94.3175V94.3175ZM137.367 92.8619C132.338 92.8619 128.246 88.7702 128.246 83.7404C128.246 78.7106 132.338 74.6188 137.367 74.6188C142.397 74.6188 146.489 78.7106 146.489 83.7404C146.489 85.3029 146.093 86.7747 145.398 88.0611L143.19 85.8528C142.166 84.8289 140.505 84.8289 139.48 85.8528C138.456 86.8767 138.456 88.5375 139.48 89.5627L141.688 91.7709C140.402 92.4663 138.93 92.8619 137.367 92.8619V92.8619Z" fill="#344563"/>
<path d="M111.809 72.8286C111.045 70.8804 109.2 69.6214 107.108 69.6214C105.015 69.6214 103.169 70.8804 102.406 72.8286L93.9953 94.2926C93.4665 95.6412 94.1321 97.1639 95.4807 97.6914C96.8293 98.2202 98.352 97.5546 98.8807 96.206L101.952 88.3696C102.031 88.377 102.11 88.382 102.19 88.382H111.983C112.079 88.382 112.174 88.3758 112.267 88.3658L115.34 96.206C115.745 97.2411 116.734 97.8731 117.783 97.8731C118.102 97.8731 118.425 97.8146 118.74 97.6914C120.088 97.1627 120.754 95.6412 120.225 94.2926L111.814 72.8286H111.809ZM104 83.1358L107.107 75.2085L110.213 83.1358H104Z" fill="#344563"/>
<path d="M92.8781 74.8676C94.3262 74.8676 95.5006 73.6932 95.5006 72.2451C95.5006 70.797 94.3262 69.6226 92.8781 69.6226H79.1697C76.5148 69.6226 74.3551 71.7823 74.3551 74.4372V95.9249C74.3551 97.373 75.5295 98.5474 76.9776 98.5474C78.4257 98.5474 79.6001 97.373 79.6001 95.9249V86.7088H87.1815C88.6296 86.7088 89.804 85.5343 89.804 84.0862C89.804 82.6381 88.6296 81.4637 87.1815 81.4637H79.6001V74.8701H92.8769L92.8781 74.8676Z" fill="#344563"/>
<path d="M164.437 35H58.8801C48.4522 35 40 43.4547 40 53.8826V113.845C40 124.247 48.4585 132.713 58.8627 132.725V150.373C58.8627 153.494 60.6852 155.82 63.0627 156.886C63.3973 157.036 63.7444 157.162 64.0977 157.259C64.7372 157.441 65.4028 157.534 66.0708 157.534C68.0253 157.534 70.0071 156.735 71.495 154.948L90.0155 132.725H164.437C174.865 132.725 183.317 124.272 183.317 113.845V53.8826C183.317 43.4547 174.865 35 164.437 35ZM174.911 113.845C174.911 119.629 170.222 124.318 164.437 124.318H86.0793L68.4532 145.469C68.3139 145.637 68.1285 145.711 67.9444 145.711C67.5998 145.711 67.2676 145.449 67.2676 145.04V124.318H58.8801C53.0951 124.318 48.405 119.629 48.405 113.845V53.8826C48.405 48.0989 53.0951 43.4062 58.8801 43.4062H164.437C170.222 43.4062 174.911 48.0989 174.911 53.8826V113.845Z" fill="#65A8FF"/>
</g>
<defs>
<clipPath id="clip0_209_952">
<rect width="200" height="154.91" fill="white" transform="translate(40 35)"/>
</clipPath>
</defs>
</svg>
