<svg width="817" height="190" viewBox="0 0 817 190" fill="none" xmlns="http://www.w3.org/2000/svg">
<rect x="0.5" y="0.5" width="816" height="189" rx="7.5" fill="white"/>
<g filter="url(#filter0_d_36_75)">
<rect x="21" y="88" width="111" height="40" rx="4" fill="#FFFAEE"/>
<path d="M37.7926 103.609V101.909H47.924V103.609H43.8395V115H41.8707V103.609H37.7926ZM52.8171 115.198C51.8498 115.198 51.0167 114.991 50.3178 114.578C49.6232 114.161 49.0863 113.575 48.707 112.82C48.332 112.062 48.1445 111.173 48.1445 110.155C48.1445 109.149 48.332 108.263 48.707 107.496C49.0863 106.729 49.6147 106.13 50.2923 105.7C50.9741 105.269 51.771 105.054 52.6829 105.054C53.2369 105.054 53.7738 105.146 54.2937 105.329C54.8136 105.512 55.2802 105.8 55.6935 106.192C56.1069 106.584 56.4329 107.093 56.6715 107.719C56.9102 108.342 57.0295 109.098 57.0295 109.989V110.666H49.2248V109.234H55.1566C55.1566 108.732 55.0543 108.286 54.8498 107.898C54.6452 107.506 54.3576 107.197 53.9869 106.972C53.6204 106.746 53.19 106.633 52.6957 106.633C52.1587 106.633 51.69 106.765 51.2894 107.029C50.8931 107.289 50.5863 107.63 50.369 108.052C50.1559 108.469 50.0494 108.923 50.0494 109.413V110.532C50.0494 111.188 50.1644 111.746 50.3945 112.207C50.6289 112.667 50.9549 113.018 51.3725 113.261C51.7901 113.5 52.2781 113.619 52.8363 113.619C53.1985 113.619 53.5288 113.568 53.8271 113.466C54.1254 113.359 54.3832 113.202 54.6005 112.993C54.8178 112.784 54.984 112.526 55.0991 112.219L56.908 112.545C56.7631 113.078 56.5032 113.545 56.1282 113.945C55.7575 114.342 55.2908 114.651 54.7283 114.872C54.1701 115.089 53.533 115.198 52.8171 115.198ZM66.5073 107.579L64.775 107.886C64.7026 107.664 64.5875 107.453 64.4299 107.253C64.2765 107.053 64.0676 106.888 63.8034 106.761C63.5392 106.633 63.209 106.569 62.8127 106.569C62.2715 106.569 61.8198 106.69 61.4576 106.933C61.0953 107.172 60.9142 107.481 60.9142 107.86C60.9142 108.188 61.0357 108.452 61.2786 108.653C61.5215 108.853 61.9135 109.017 62.4547 109.145L64.0144 109.503C64.9178 109.712 65.5911 110.033 66.0343 110.468C66.4775 110.903 66.699 111.467 66.699 112.162C66.699 112.75 66.5286 113.274 66.1877 113.734C65.851 114.19 65.3801 114.548 64.775 114.808C64.1742 115.068 63.4775 115.198 62.6848 115.198C61.5854 115.198 60.6884 114.964 59.9938 114.495C59.2992 114.022 58.873 113.351 58.7154 112.482L60.5627 112.2C60.6777 112.682 60.9142 113.046 61.2722 113.293C61.6301 113.536 62.0968 113.658 62.6721 113.658C63.2985 113.658 63.7992 113.528 64.1742 113.268C64.5492 113.004 64.7367 112.682 64.7367 112.303C64.7367 111.996 64.6216 111.738 64.3915 111.529C64.1657 111.32 63.8184 111.163 63.3496 111.056L61.6877 110.692C60.7715 110.483 60.0939 110.151 59.655 109.695C59.2203 109.239 59.003 108.661 59.003 107.962C59.003 107.383 59.165 106.876 59.4888 106.441C59.8127 106.006 60.2601 105.668 60.8311 105.425C61.4022 105.178 62.0563 105.054 62.7935 105.054C63.8546 105.054 64.6898 105.284 65.2992 105.744C65.9086 106.2 66.3113 106.812 66.5073 107.579ZM73.3835 105.182V106.716H68.0206V105.182H73.3835ZM69.4588 102.83H71.37V112.117C71.37 112.488 71.4254 112.767 71.5362 112.955C71.647 113.138 71.7898 113.263 71.9645 113.332C72.1435 113.396 72.3374 113.428 72.5462 113.428C72.6996 113.428 72.8338 113.417 72.9489 113.396C73.0639 113.374 73.1534 113.357 73.2173 113.344L73.5625 114.923C73.4517 114.966 73.294 115.009 73.0895 115.051C72.8849 115.098 72.6293 115.124 72.3224 115.128C71.8196 115.136 71.3509 115.047 70.9162 114.859C70.4815 114.672 70.13 114.382 69.8615 113.99C69.593 113.598 69.4588 113.106 69.4588 112.513V102.83ZM80.4148 115V101.909H85.081C86.0994 101.909 86.9432 102.094 87.6122 102.465C88.2813 102.836 88.782 103.343 89.1143 103.987C89.4467 104.626 89.6129 105.346 89.6129 106.147C89.6129 106.952 89.4446 107.677 89.108 108.32C88.7756 108.96 88.2727 109.467 87.5994 109.842C86.9304 110.212 86.0888 110.398 85.0746 110.398H81.8658V108.723H84.8956C85.5391 108.723 86.0611 108.612 86.4616 108.391C86.8622 108.165 87.1562 107.858 87.3438 107.47C87.5312 107.082 87.625 106.641 87.625 106.147C87.625 105.653 87.5312 105.214 87.3438 104.83C87.1562 104.447 86.8601 104.146 86.4553 103.929C86.0547 103.712 85.5263 103.603 84.87 103.603H82.3899V115H80.4148ZM93.6863 101.909V115H91.775V101.909H93.6863ZM99.1147 115.217C98.4925 115.217 97.93 115.102 97.4272 114.872C96.9244 114.638 96.5259 114.299 96.2319 113.856C95.9421 113.413 95.7972 112.869 95.7972 112.226C95.7972 111.672 95.9038 111.216 96.1168 110.858C96.3299 110.5 96.6175 110.217 96.9798 110.008C97.342 109.799 97.7468 109.641 98.1942 109.535C98.6417 109.428 99.0977 109.347 99.5621 109.292C100.15 109.224 100.627 109.168 100.994 109.126C101.36 109.079 101.627 109.004 101.793 108.902C101.959 108.8 102.042 108.634 102.042 108.403V108.359C102.042 107.8 101.885 107.368 101.569 107.061C101.258 106.754 100.794 106.601 100.176 106.601C99.5323 106.601 99.0252 106.744 98.6545 107.029C98.288 107.31 98.0344 107.624 97.8938 107.969L96.0977 107.56C96.3107 106.963 96.6218 106.482 97.0309 106.115C97.4442 105.744 97.9194 105.476 98.4563 105.31C98.9933 105.139 99.5579 105.054 100.15 105.054C100.542 105.054 100.958 105.101 101.397 105.195C101.84 105.284 102.253 105.45 102.637 105.693C103.025 105.936 103.342 106.283 103.589 106.735C103.836 107.183 103.96 107.764 103.96 108.48V115H102.093V113.658H102.017C101.893 113.905 101.708 114.148 101.461 114.386C101.213 114.625 100.896 114.823 100.508 114.981C100.12 115.138 99.6559 115.217 99.1147 115.217ZM99.5302 113.683C100.059 113.683 100.51 113.579 100.885 113.37C101.265 113.161 101.552 112.888 101.748 112.552C101.949 112.211 102.049 111.847 102.049 111.459V110.193C101.98 110.261 101.848 110.325 101.652 110.385C101.461 110.44 101.241 110.489 100.994 110.532C100.747 110.57 100.506 110.607 100.272 110.641C100.037 110.67 99.8413 110.696 99.6836 110.717C99.3129 110.764 98.9741 110.843 98.6673 110.954C98.3647 111.065 98.1218 111.224 97.9386 111.433C97.7596 111.638 97.6701 111.911 97.6701 112.251C97.6701 112.724 97.8448 113.082 98.1942 113.325C98.5437 113.564 98.989 113.683 99.5302 113.683ZM108.417 109.17V115H106.506V105.182H108.34V106.78H108.461C108.687 106.26 109.041 105.842 109.523 105.527C110.008 105.212 110.62 105.054 111.357 105.054C112.026 105.054 112.612 105.195 113.115 105.476C113.618 105.753 114.008 106.166 114.285 106.716C114.562 107.266 114.7 107.945 114.7 108.755V115H112.789V108.985C112.789 108.273 112.604 107.717 112.233 107.317C111.862 106.912 111.353 106.71 110.705 106.71C110.262 106.71 109.868 106.805 109.523 106.997C109.182 107.189 108.911 107.47 108.711 107.841C108.515 108.207 108.417 108.651 108.417 109.17Z" fill="#344563"/>
</g>
<path d="M195.278 86V74.3636H202.574V75.875H197.034V79.4205H202.193V80.9261H197.034V84.4886H202.642V86H195.278ZM206.482 80.8182V86H204.783V77.2727H206.413V78.6932H206.521C206.722 78.2311 207.036 77.8598 207.464 77.5795C207.896 77.2992 208.44 77.1591 209.095 77.1591C209.69 77.1591 210.211 77.2841 210.658 77.5341C211.105 77.7803 211.451 78.1477 211.697 78.6364C211.944 79.125 212.067 79.7292 212.067 80.4489V86H210.368V80.6534C210.368 80.0208 210.203 79.5265 209.874 79.1705C209.544 78.8106 209.091 78.6307 208.516 78.6307C208.122 78.6307 207.771 78.7159 207.464 78.8864C207.161 79.0568 206.921 79.3068 206.743 79.6364C206.569 79.9621 206.482 80.3561 206.482 80.8182ZM217.612 86.1705C216.908 86.1705 216.279 85.9905 215.726 85.6307C215.177 85.267 214.745 84.75 214.43 84.0795C214.12 83.4053 213.964 82.5966 213.964 81.6534C213.964 80.7102 214.122 79.9034 214.436 79.233C214.754 78.5625 215.19 78.0492 215.743 77.6932C216.296 77.3371 216.923 77.1591 217.624 77.1591C218.165 77.1591 218.601 77.25 218.93 77.4318C219.264 77.6098 219.521 77.8182 219.703 78.0568C219.889 78.2955 220.033 78.5057 220.135 78.6875H220.237V74.3636H221.936V86H220.277V84.642H220.135C220.033 84.8277 219.885 85.0398 219.692 85.2784C219.502 85.517 219.241 85.7254 218.908 85.9034C218.574 86.0814 218.143 86.1705 217.612 86.1705ZM217.987 84.7216C218.476 84.7216 218.889 84.5928 219.226 84.3352C219.567 84.0739 219.824 83.7121 219.999 83.25C220.177 82.7879 220.266 82.25 220.266 81.6364C220.266 81.0303 220.179 80.5 220.004 80.0455C219.83 79.5909 219.574 79.2367 219.237 78.983C218.9 78.7292 218.483 78.6023 217.987 78.6023C217.476 78.6023 217.05 78.7348 216.709 79C216.368 79.2652 216.11 79.6269 215.936 80.0852C215.766 80.5436 215.68 81.0606 215.68 81.6364C215.68 82.2197 215.768 82.7443 215.942 83.2102C216.116 83.6761 216.374 84.0455 216.714 84.3182C217.059 84.5871 217.483 84.7216 217.987 84.7216ZM224.361 89.2727V77.2727H226.02V78.6875H226.162C226.26 78.5057 226.402 78.2955 226.588 78.0568C226.774 77.8182 227.031 77.6098 227.361 77.4318C227.69 77.25 228.126 77.1591 228.668 77.1591C229.372 77.1591 230.001 77.3371 230.554 77.6932C231.107 78.0492 231.541 78.5625 231.855 79.233C232.173 79.9034 232.332 80.7102 232.332 81.6534C232.332 82.5966 232.175 83.4053 231.861 84.0795C231.546 84.75 231.115 85.267 230.565 85.6307C230.016 85.9905 229.389 86.1705 228.685 86.1705C228.154 86.1705 227.721 86.0814 227.384 85.9034C227.05 85.7254 226.789 85.517 226.599 85.2784C226.41 85.0398 226.264 84.8277 226.162 84.642H226.06V89.2727H224.361ZM226.026 81.6364C226.026 82.25 226.115 82.7879 226.293 83.25C226.471 83.7121 226.728 84.0739 227.065 84.3352C227.402 84.5928 227.815 84.7216 228.304 84.7216C228.812 84.7216 229.236 84.5871 229.577 84.3182C229.918 84.0455 230.175 83.6761 230.349 83.2102C230.527 82.7443 230.616 82.2197 230.616 81.6364C230.616 81.0606 230.529 80.5436 230.355 80.0852C230.185 79.6269 229.927 79.2652 229.582 79C229.241 78.7348 228.815 78.6023 228.304 78.6023C227.812 78.6023 227.395 78.7292 227.054 78.983C226.717 79.2367 226.461 79.5909 226.287 80.0455C226.113 80.5 226.026 81.0303 226.026 81.6364ZM237.912 86.1761C237.094 86.1761 236.38 85.9886 235.77 85.6136C235.16 85.2386 234.687 84.714 234.349 84.0398C234.012 83.3655 233.844 82.5777 233.844 81.6761C233.844 80.7708 234.012 79.9792 234.349 79.3011C234.687 78.6231 235.16 78.0966 235.77 77.7216C236.38 77.3466 237.094 77.1591 237.912 77.1591C238.73 77.1591 239.444 77.3466 240.054 77.7216C240.664 78.0966 241.137 78.6231 241.474 79.3011C241.812 79.9792 241.98 80.7708 241.98 81.6761C241.98 82.5777 241.812 83.3655 241.474 84.0398C241.137 84.714 240.664 85.2386 240.054 85.6136C239.444 85.9886 238.73 86.1761 237.912 86.1761ZM237.918 84.75C238.448 84.75 238.887 84.6098 239.236 84.3295C239.584 84.0492 239.842 83.6761 240.009 83.2102C240.179 82.7443 240.264 82.2311 240.264 81.6705C240.264 81.1136 240.179 80.6023 240.009 80.1364C239.842 79.6667 239.584 79.2898 239.236 79.0057C238.887 78.7216 238.448 78.5795 237.918 78.5795C237.384 78.5795 236.94 78.7216 236.588 79.0057C236.24 79.2898 235.98 79.6667 235.81 80.1364C235.643 80.6023 235.56 81.1136 235.56 81.6705C235.56 82.2311 235.643 82.7443 235.81 83.2102C235.98 83.6761 236.24 84.0492 236.588 84.3295C236.94 84.6098 237.384 84.75 237.918 84.75ZM243.876 86V77.2727H245.575V86H243.876ZM244.734 75.9261C244.439 75.9261 244.185 75.8277 243.973 75.6307C243.765 75.4299 243.661 75.1913 243.661 74.9148C243.661 74.6345 243.765 74.3958 243.973 74.1989C244.185 73.9981 244.439 73.8977 244.734 73.8977C245.03 73.8977 245.282 73.9981 245.49 74.1989C245.702 74.3958 245.808 74.6345 245.808 74.9148C245.808 75.1913 245.702 75.4299 245.49 75.6307C245.282 75.8277 245.03 75.9261 244.734 75.9261ZM249.56 80.8182V86H247.861V77.2727H249.491V78.6932H249.599C249.8 78.2311 250.115 77.8598 250.543 77.5795C250.974 77.2992 251.518 77.1591 252.173 77.1591C252.768 77.1591 253.289 77.2841 253.736 77.5341C254.183 77.7803 254.529 78.1477 254.776 78.6364C255.022 79.125 255.145 79.7292 255.145 80.4489V86H253.446V80.6534C253.446 80.0208 253.281 79.5265 252.952 79.1705C252.622 78.8106 252.17 78.6307 251.594 78.6307C251.2 78.6307 250.849 78.7159 250.543 78.8864C250.24 79.0568 249.999 79.3068 249.821 79.6364C249.647 79.9621 249.56 80.3561 249.56 80.8182ZM261.497 77.2727V78.6364H256.73V77.2727H261.497ZM258.009 75.1818H259.707V83.4375C259.707 83.767 259.757 84.0152 259.855 84.1818C259.954 84.3447 260.08 84.4564 260.236 84.517C260.395 84.5739 260.567 84.6023 260.753 84.6023C260.889 84.6023 261.009 84.5928 261.111 84.5739C261.213 84.5549 261.293 84.5398 261.349 84.5284L261.656 85.9318C261.558 85.9697 261.418 86.0076 261.236 86.0455C261.054 86.0871 260.827 86.1098 260.554 86.1136C260.107 86.1212 259.69 86.0417 259.304 85.875C258.918 85.7083 258.605 85.4508 258.366 85.1023C258.128 84.7538 258.009 84.3163 258.009 83.7898V75.1818ZM267.173 75.875V74.3636H276.179V75.875H272.548V86H270.798V75.875H267.173ZM280.528 86.1761C279.669 86.1761 278.928 85.9924 278.307 85.625C277.689 85.2538 277.212 84.733 276.875 84.0625C276.542 83.3883 276.375 82.5985 276.375 81.6932C276.375 80.7992 276.542 80.0114 276.875 79.3295C277.212 78.6477 277.682 78.1155 278.284 77.733C278.89 77.3504 279.598 77.1591 280.409 77.1591C280.902 77.1591 281.379 77.2405 281.841 77.4034C282.303 77.5663 282.718 77.822 283.085 78.1705C283.453 78.5189 283.742 78.9716 283.955 79.5284C284.167 80.0814 284.273 80.7538 284.273 81.5455V82.1477H277.335V80.875H282.608C282.608 80.428 282.517 80.0322 282.335 79.6875C282.153 79.339 281.898 79.0644 281.568 78.8636C281.242 78.6629 280.86 78.5625 280.42 78.5625C279.943 78.5625 279.527 78.6799 279.17 78.9148C278.818 79.1458 278.545 79.4489 278.352 79.8239C278.163 80.1951 278.068 80.5985 278.068 81.0341V82.0284C278.068 82.6117 278.17 83.108 278.375 83.517C278.583 83.9261 278.873 84.2386 279.244 84.4545C279.616 84.6667 280.049 84.7727 280.545 84.7727C280.867 84.7727 281.161 84.7273 281.426 84.6364C281.691 84.5417 281.92 84.4015 282.114 84.2159C282.307 84.0303 282.455 83.8011 282.557 83.5284L284.165 83.8182C284.036 84.2917 283.805 84.7064 283.472 85.0625C283.142 85.4148 282.727 85.6894 282.227 85.8864C281.731 86.0795 281.165 86.1761 280.528 86.1761ZM292.697 79.4034L291.158 79.6761C291.093 79.4792 290.991 79.2917 290.851 79.1136C290.714 78.9356 290.529 78.7898 290.294 78.6761C290.059 78.5625 289.766 78.5057 289.413 78.5057C288.932 78.5057 288.531 78.6136 288.209 78.8295C287.887 79.0417 287.726 79.3163 287.726 79.6534C287.726 79.9451 287.834 80.1799 288.05 80.358C288.266 80.536 288.614 80.6818 289.095 80.7955L290.482 81.1136C291.285 81.2992 291.883 81.5852 292.277 81.9716C292.671 82.358 292.868 82.8598 292.868 83.4773C292.868 84 292.716 84.4659 292.413 84.875C292.114 85.2803 291.696 85.5985 291.158 85.8295C290.624 86.0606 290.004 86.1761 289.3 86.1761C288.322 86.1761 287.525 85.9678 286.908 85.5511C286.29 85.1307 285.911 84.5341 285.771 83.7614L287.413 83.5114C287.516 83.9394 287.726 84.2633 288.044 84.483C288.362 84.6989 288.777 84.8068 289.288 84.8068C289.845 84.8068 290.29 84.6913 290.624 84.4602C290.957 84.2254 291.124 83.9394 291.124 83.6023C291.124 83.3295 291.021 83.1004 290.817 82.9148C290.616 82.7292 290.307 82.589 289.891 82.4943L288.413 82.1705C287.599 81.9848 286.997 81.6894 286.607 81.2841C286.22 80.8788 286.027 80.3655 286.027 79.7443C286.027 79.2292 286.171 78.7784 286.459 78.392C286.747 78.0057 287.144 77.7045 287.652 77.4886C288.16 77.2689 288.741 77.1591 289.396 77.1591C290.339 77.1591 291.082 77.3636 291.624 77.7727C292.165 78.178 292.523 78.7216 292.697 79.4034ZM298.81 77.2727V78.6364H294.043V77.2727H298.81ZM295.321 75.1818H297.02V83.4375C297.02 83.767 297.069 84.0152 297.168 84.1818C297.266 84.3447 297.393 84.4564 297.548 84.517C297.707 84.5739 297.88 84.6023 298.065 84.6023C298.202 84.6023 298.321 84.5928 298.423 84.5739C298.526 84.5549 298.605 84.5398 298.662 84.5284L298.969 85.9318C298.87 85.9697 298.73 86.0076 298.548 86.0455C298.366 86.0871 298.139 86.1098 297.866 86.1136C297.42 86.1212 297.003 86.0417 296.616 85.875C296.23 85.7083 295.918 85.4508 295.679 85.1023C295.44 84.7538 295.321 84.3163 295.321 83.7898V75.1818ZM311.406 77.4205C311.346 76.8826 311.096 76.4659 310.656 76.1705C310.217 75.8712 309.664 75.7216 308.997 75.7216C308.52 75.7216 308.107 75.7973 307.759 75.9489C307.41 76.0966 307.139 76.3011 306.946 76.5625C306.757 76.8201 306.662 77.1136 306.662 77.4432C306.662 77.7197 306.726 77.9583 306.855 78.1591C306.988 78.3598 307.16 78.5284 307.372 78.6648C307.588 78.7973 307.819 78.9091 308.065 79C308.312 79.0871 308.548 79.1591 308.776 79.2159L309.912 79.5114C310.283 79.6023 310.664 79.7254 311.054 79.8807C311.444 80.036 311.806 80.2405 312.139 80.4943C312.473 80.7481 312.741 81.0625 312.946 81.4375C313.154 81.8125 313.259 82.2614 313.259 82.7841C313.259 83.4432 313.088 84.0284 312.747 84.5398C312.41 85.0511 311.92 85.4545 311.276 85.75C310.635 86.0455 309.861 86.1932 308.952 86.1932C308.08 86.1932 307.327 86.0549 306.69 85.7784C306.054 85.5019 305.556 85.1098 305.196 84.6023C304.836 84.0909 304.637 83.4848 304.599 82.7841H306.361C306.395 83.2045 306.531 83.5549 306.77 83.8352C307.012 84.1117 307.321 84.3182 307.696 84.4545C308.075 84.5871 308.49 84.6534 308.94 84.6534C309.437 84.6534 309.878 84.5758 310.264 84.4205C310.654 84.2614 310.961 84.0417 311.185 83.7614C311.408 83.4773 311.52 83.1458 311.52 82.767C311.52 82.4223 311.421 82.1402 311.224 81.9205C311.031 81.7008 310.768 81.5189 310.435 81.375C310.105 81.2311 309.732 81.1042 309.315 80.9943L307.94 80.6193C307.009 80.3655 306.27 79.9924 305.724 79.5C305.183 79.0076 304.912 78.3561 304.912 77.5455C304.912 76.875 305.094 76.2898 305.457 75.7898C305.821 75.2898 306.313 74.9015 306.935 74.625C307.556 74.3447 308.257 74.2045 309.037 74.2045C309.825 74.2045 310.52 74.3428 311.122 74.6193C311.728 74.8958 312.205 75.2765 312.554 75.7614C312.902 76.2424 313.084 76.7955 313.099 77.4205H311.406ZM320.749 82.3807V77.2727H322.453V86H320.783V84.4886H320.692C320.491 84.9545 320.169 85.3428 319.726 85.6534C319.286 85.9602 318.739 86.1136 318.084 86.1136C317.523 86.1136 317.027 85.9905 316.595 85.7443C316.167 85.4943 315.83 85.125 315.584 84.6364C315.341 84.1477 315.22 83.5436 315.22 82.8239V77.2727H316.919V82.6193C316.919 83.214 317.084 83.6875 317.413 84.0398C317.743 84.392 318.171 84.5682 318.697 84.5682C319.016 84.5682 319.332 84.4886 319.646 84.3295C319.964 84.1705 320.228 83.9299 320.436 83.608C320.648 83.286 320.752 82.8769 320.749 82.3807ZM324.736 86V77.2727H326.435V86H324.736ZM325.594 75.9261C325.298 75.9261 325.045 75.8277 324.832 75.6307C324.624 75.4299 324.52 75.1913 324.52 74.9148C324.52 74.6345 324.624 74.3958 324.832 74.1989C325.045 73.9981 325.298 73.8977 325.594 73.8977C325.889 73.8977 326.141 73.9981 326.349 74.1989C326.562 74.3958 326.668 74.6345 326.668 74.9148C326.668 75.1913 326.562 75.4299 326.349 75.6307C326.141 75.8277 325.889 75.9261 325.594 75.9261ZM332.794 77.2727V78.6364H328.027V77.2727H332.794ZM329.305 75.1818H331.004V83.4375C331.004 83.767 331.054 84.0152 331.152 84.1818C331.25 84.3447 331.377 84.4564 331.533 84.517C331.692 84.5739 331.864 84.6023 332.05 84.6023C332.186 84.6023 332.305 84.5928 332.408 84.5739C332.51 84.5549 332.589 84.5398 332.646 84.5284L332.953 85.9318C332.855 85.9697 332.714 86.0076 332.533 86.0455C332.351 86.0871 332.124 86.1098 331.851 86.1136C331.404 86.1212 330.987 86.0417 330.601 85.875C330.214 85.7083 329.902 85.4508 329.663 85.1023C329.425 84.7538 329.305 84.3163 329.305 83.7898V75.1818ZM338.341 86.1761C337.481 86.1761 336.741 85.9924 336.119 85.625C335.502 85.2538 335.025 84.733 334.688 84.0625C334.354 83.3883 334.188 82.5985 334.188 81.6932C334.188 80.7992 334.354 80.0114 334.688 79.3295C335.025 78.6477 335.494 78.1155 336.097 77.733C336.703 77.3504 337.411 77.1591 338.222 77.1591C338.714 77.1591 339.191 77.2405 339.653 77.4034C340.116 77.5663 340.53 77.822 340.898 78.1705C341.265 78.5189 341.555 78.9716 341.767 79.5284C341.979 80.0814 342.085 80.7538 342.085 81.5455V82.1477H335.148V80.875H340.42C340.42 80.428 340.33 80.0322 340.148 79.6875C339.966 79.339 339.71 79.0644 339.381 78.8636C339.055 78.6629 338.672 78.5625 338.233 78.5625C337.756 78.5625 337.339 78.6799 336.983 78.9148C336.631 79.1458 336.358 79.4489 336.165 79.8239C335.975 80.1951 335.881 80.5985 335.881 81.0341V82.0284C335.881 82.6117 335.983 83.108 336.188 83.517C336.396 83.9261 336.686 84.2386 337.057 84.4545C337.428 84.6667 337.862 84.7727 338.358 84.7727C338.68 84.7727 338.973 84.7273 339.239 84.6364C339.504 84.5417 339.733 84.4015 339.926 84.2159C340.119 84.0303 340.267 83.8011 340.369 83.5284L341.977 83.8182C341.848 84.2917 341.617 84.7064 341.284 85.0625C340.955 85.4148 340.54 85.6894 340.04 85.8864C339.544 86.0795 338.977 86.1761 338.341 86.1761Z" fill="#344563"/>
<path d="M432.278 111V99.3636H439.574V100.875H434.034V104.42H439.193V105.926H434.034V109.489H439.642V111H432.278ZM443.482 105.818V111H441.783V102.273H443.413V103.693H443.521C443.722 103.231 444.036 102.86 444.464 102.58C444.896 102.299 445.44 102.159 446.095 102.159C446.69 102.159 447.211 102.284 447.658 102.534C448.105 102.78 448.451 103.148 448.697 103.636C448.944 104.125 449.067 104.729 449.067 105.449V111H447.368V105.653C447.368 105.021 447.203 104.527 446.874 104.17C446.544 103.811 446.091 103.631 445.516 103.631C445.122 103.631 444.771 103.716 444.464 103.886C444.161 104.057 443.921 104.307 443.743 104.636C443.569 104.962 443.482 105.356 443.482 105.818ZM454.612 111.17C453.908 111.17 453.279 110.991 452.726 110.631C452.177 110.267 451.745 109.75 451.43 109.08C451.12 108.405 450.964 107.597 450.964 106.653C450.964 105.71 451.122 104.903 451.436 104.233C451.754 103.562 452.19 103.049 452.743 102.693C453.296 102.337 453.923 102.159 454.624 102.159C455.165 102.159 455.601 102.25 455.93 102.432C456.264 102.61 456.521 102.818 456.703 103.057C456.889 103.295 457.033 103.506 457.135 103.688H457.237V99.3636H458.936V111H457.277V109.642H457.135C457.033 109.828 456.885 110.04 456.692 110.278C456.502 110.517 456.241 110.725 455.908 110.903C455.574 111.081 455.143 111.17 454.612 111.17ZM454.987 109.722C455.476 109.722 455.889 109.593 456.226 109.335C456.567 109.074 456.824 108.712 456.999 108.25C457.177 107.788 457.266 107.25 457.266 106.636C457.266 106.03 457.179 105.5 457.004 105.045C456.83 104.591 456.574 104.237 456.237 103.983C455.9 103.729 455.483 103.602 454.987 103.602C454.476 103.602 454.05 103.735 453.709 104C453.368 104.265 453.11 104.627 452.936 105.085C452.766 105.544 452.68 106.061 452.68 106.636C452.68 107.22 452.768 107.744 452.942 108.21C453.116 108.676 453.374 109.045 453.714 109.318C454.059 109.587 454.483 109.722 454.987 109.722ZM461.361 114.273V102.273H463.02V103.688H463.162C463.26 103.506 463.402 103.295 463.588 103.057C463.774 102.818 464.031 102.61 464.361 102.432C464.69 102.25 465.126 102.159 465.668 102.159C466.372 102.159 467.001 102.337 467.554 102.693C468.107 103.049 468.541 103.562 468.855 104.233C469.173 104.903 469.332 105.71 469.332 106.653C469.332 107.597 469.175 108.405 468.861 109.08C468.546 109.75 468.115 110.267 467.565 110.631C467.016 110.991 466.389 111.17 465.685 111.17C465.154 111.17 464.721 111.081 464.384 110.903C464.05 110.725 463.789 110.517 463.599 110.278C463.41 110.04 463.264 109.828 463.162 109.642H463.06V114.273H461.361ZM463.026 106.636C463.026 107.25 463.115 107.788 463.293 108.25C463.471 108.712 463.728 109.074 464.065 109.335C464.402 109.593 464.815 109.722 465.304 109.722C465.812 109.722 466.236 109.587 466.577 109.318C466.918 109.045 467.175 108.676 467.349 108.21C467.527 107.744 467.616 107.22 467.616 106.636C467.616 106.061 467.529 105.544 467.355 105.085C467.185 104.627 466.927 104.265 466.582 104C466.241 103.735 465.815 103.602 465.304 103.602C464.812 103.602 464.395 103.729 464.054 103.983C463.717 104.237 463.461 104.591 463.287 105.045C463.113 105.5 463.026 106.03 463.026 106.636ZM474.912 111.176C474.094 111.176 473.38 110.989 472.77 110.614C472.16 110.239 471.687 109.714 471.349 109.04C471.012 108.366 470.844 107.578 470.844 106.676C470.844 105.771 471.012 104.979 471.349 104.301C471.687 103.623 472.16 103.097 472.77 102.722C473.38 102.347 474.094 102.159 474.912 102.159C475.73 102.159 476.444 102.347 477.054 102.722C477.664 103.097 478.137 103.623 478.474 104.301C478.812 104.979 478.98 105.771 478.98 106.676C478.98 107.578 478.812 108.366 478.474 109.04C478.137 109.714 477.664 110.239 477.054 110.614C476.444 110.989 475.73 111.176 474.912 111.176ZM474.918 109.75C475.448 109.75 475.887 109.61 476.236 109.33C476.584 109.049 476.842 108.676 477.009 108.21C477.179 107.744 477.264 107.231 477.264 106.67C477.264 106.114 477.179 105.602 477.009 105.136C476.842 104.667 476.584 104.29 476.236 104.006C475.887 103.722 475.448 103.58 474.918 103.58C474.384 103.58 473.94 103.722 473.588 104.006C473.24 104.29 472.98 104.667 472.81 105.136C472.643 105.602 472.56 106.114 472.56 106.67C472.56 107.231 472.643 107.744 472.81 108.21C472.98 108.676 473.24 109.049 473.588 109.33C473.94 109.61 474.384 109.75 474.918 109.75ZM480.876 111V102.273H482.575V111H480.876ZM481.734 100.926C481.439 100.926 481.185 100.828 480.973 100.631C480.765 100.43 480.661 100.191 480.661 99.9148C480.661 99.6345 480.765 99.3958 480.973 99.1989C481.185 98.9981 481.439 98.8977 481.734 98.8977C482.03 98.8977 482.282 98.9981 482.49 99.1989C482.702 99.3958 482.808 99.6345 482.808 99.9148C482.808 100.191 482.702 100.43 482.49 100.631C482.282 100.828 482.03 100.926 481.734 100.926ZM486.56 105.818V111H484.861V102.273H486.491V103.693H486.599C486.8 103.231 487.115 102.86 487.543 102.58C487.974 102.299 488.518 102.159 489.173 102.159C489.768 102.159 490.289 102.284 490.736 102.534C491.183 102.78 491.529 103.148 491.776 103.636C492.022 104.125 492.145 104.729 492.145 105.449V111H490.446V105.653C490.446 105.021 490.281 104.527 489.952 104.17C489.622 103.811 489.17 103.631 488.594 103.631C488.2 103.631 487.849 103.716 487.543 103.886C487.24 104.057 486.999 104.307 486.821 104.636C486.647 104.962 486.56 105.356 486.56 105.818ZM498.497 102.273V103.636H493.73V102.273H498.497ZM495.009 100.182H496.707V108.438C496.707 108.767 496.757 109.015 496.855 109.182C496.954 109.345 497.08 109.456 497.236 109.517C497.395 109.574 497.567 109.602 497.753 109.602C497.889 109.602 498.009 109.593 498.111 109.574C498.213 109.555 498.293 109.54 498.349 109.528L498.656 110.932C498.558 110.97 498.418 111.008 498.236 111.045C498.054 111.087 497.827 111.11 497.554 111.114C497.107 111.121 496.69 111.042 496.304 110.875C495.918 110.708 495.605 110.451 495.366 110.102C495.128 109.754 495.009 109.316 495.009 108.79V100.182ZM504.173 100.875V99.3636H513.179V100.875H509.548V111H507.798V100.875H504.173ZM517.528 111.176C516.669 111.176 515.928 110.992 515.307 110.625C514.689 110.254 514.212 109.733 513.875 109.062C513.542 108.388 513.375 107.598 513.375 106.693C513.375 105.799 513.542 105.011 513.875 104.33C514.212 103.648 514.682 103.116 515.284 102.733C515.89 102.35 516.598 102.159 517.409 102.159C517.902 102.159 518.379 102.241 518.841 102.403C519.303 102.566 519.718 102.822 520.085 103.17C520.453 103.519 520.742 103.972 520.955 104.528C521.167 105.081 521.273 105.754 521.273 106.545V107.148H514.335V105.875H519.608C519.608 105.428 519.517 105.032 519.335 104.688C519.153 104.339 518.898 104.064 518.568 103.864C518.242 103.663 517.86 103.562 517.42 103.562C516.943 103.562 516.527 103.68 516.17 103.915C515.818 104.146 515.545 104.449 515.352 104.824C515.163 105.195 515.068 105.598 515.068 106.034V107.028C515.068 107.612 515.17 108.108 515.375 108.517C515.583 108.926 515.873 109.239 516.244 109.455C516.616 109.667 517.049 109.773 517.545 109.773C517.867 109.773 518.161 109.727 518.426 109.636C518.691 109.542 518.92 109.402 519.114 109.216C519.307 109.03 519.455 108.801 519.557 108.528L521.165 108.818C521.036 109.292 520.805 109.706 520.472 110.062C520.142 110.415 519.727 110.689 519.227 110.886C518.731 111.08 518.165 111.176 517.528 111.176ZM529.697 104.403L528.158 104.676C528.093 104.479 527.991 104.292 527.851 104.114C527.714 103.936 527.529 103.79 527.294 103.676C527.059 103.562 526.766 103.506 526.413 103.506C525.932 103.506 525.531 103.614 525.209 103.83C524.887 104.042 524.726 104.316 524.726 104.653C524.726 104.945 524.834 105.18 525.05 105.358C525.266 105.536 525.614 105.682 526.095 105.795L527.482 106.114C528.285 106.299 528.883 106.585 529.277 106.972C529.671 107.358 529.868 107.86 529.868 108.477C529.868 109 529.716 109.466 529.413 109.875C529.114 110.28 528.696 110.598 528.158 110.83C527.624 111.061 527.004 111.176 526.3 111.176C525.322 111.176 524.525 110.968 523.908 110.551C523.29 110.131 522.911 109.534 522.771 108.761L524.413 108.511C524.516 108.939 524.726 109.263 525.044 109.483C525.362 109.699 525.777 109.807 526.288 109.807C526.845 109.807 527.29 109.691 527.624 109.46C527.957 109.225 528.124 108.939 528.124 108.602C528.124 108.33 528.021 108.1 527.817 107.915C527.616 107.729 527.307 107.589 526.891 107.494L525.413 107.17C524.599 106.985 523.997 106.689 523.607 106.284C523.22 105.879 523.027 105.366 523.027 104.744C523.027 104.229 523.171 103.778 523.459 103.392C523.747 103.006 524.144 102.705 524.652 102.489C525.16 102.269 525.741 102.159 526.396 102.159C527.339 102.159 528.082 102.364 528.624 102.773C529.165 103.178 529.523 103.722 529.697 104.403ZM535.81 102.273V103.636H531.043V102.273H535.81ZM532.321 100.182H534.02V108.438C534.02 108.767 534.069 109.015 534.168 109.182C534.266 109.345 534.393 109.456 534.548 109.517C534.707 109.574 534.88 109.602 535.065 109.602C535.202 109.602 535.321 109.593 535.423 109.574C535.526 109.555 535.605 109.54 535.662 109.528L535.969 110.932C535.87 110.97 535.73 111.008 535.548 111.045C535.366 111.087 535.139 111.11 534.866 111.114C534.42 111.121 534.003 111.042 533.616 110.875C533.23 110.708 532.918 110.451 532.679 110.102C532.44 109.754 532.321 109.316 532.321 108.79V100.182ZM548.406 102.42C548.346 101.883 548.096 101.466 547.656 101.17C547.217 100.871 546.664 100.722 545.997 100.722C545.52 100.722 545.107 100.797 544.759 100.949C544.41 101.097 544.139 101.301 543.946 101.562C543.757 101.82 543.662 102.114 543.662 102.443C543.662 102.72 543.726 102.958 543.855 103.159C543.988 103.36 544.16 103.528 544.372 103.665C544.588 103.797 544.819 103.909 545.065 104C545.312 104.087 545.548 104.159 545.776 104.216L546.912 104.511C547.283 104.602 547.664 104.725 548.054 104.881C548.444 105.036 548.806 105.241 549.139 105.494C549.473 105.748 549.741 106.062 549.946 106.438C550.154 106.812 550.259 107.261 550.259 107.784C550.259 108.443 550.088 109.028 549.747 109.54C549.41 110.051 548.92 110.455 548.276 110.75C547.635 111.045 546.861 111.193 545.952 111.193C545.08 111.193 544.327 111.055 543.69 110.778C543.054 110.502 542.556 110.11 542.196 109.602C541.836 109.091 541.637 108.485 541.599 107.784H543.361C543.395 108.205 543.531 108.555 543.77 108.835C544.012 109.112 544.321 109.318 544.696 109.455C545.075 109.587 545.49 109.653 545.94 109.653C546.437 109.653 546.878 109.576 547.264 109.42C547.654 109.261 547.961 109.042 548.185 108.761C548.408 108.477 548.52 108.146 548.52 107.767C548.52 107.422 548.421 107.14 548.224 106.92C548.031 106.701 547.768 106.519 547.435 106.375C547.105 106.231 546.732 106.104 546.315 105.994L544.94 105.619C544.009 105.366 543.27 104.992 542.724 104.5C542.183 104.008 541.912 103.356 541.912 102.545C541.912 101.875 542.094 101.29 542.457 100.79C542.821 100.29 543.313 99.9015 543.935 99.625C544.556 99.3447 545.257 99.2045 546.037 99.2045C546.825 99.2045 547.52 99.3428 548.122 99.6193C548.728 99.8958 549.205 100.277 549.554 100.761C549.902 101.242 550.084 101.795 550.099 102.42H548.406ZM557.749 107.381V102.273H559.453V111H557.783V109.489H557.692C557.491 109.955 557.169 110.343 556.726 110.653C556.286 110.96 555.739 111.114 555.084 111.114C554.523 111.114 554.027 110.991 553.595 110.744C553.167 110.494 552.83 110.125 552.584 109.636C552.341 109.148 552.22 108.544 552.22 107.824V102.273H553.919V107.619C553.919 108.214 554.084 108.687 554.413 109.04C554.743 109.392 555.171 109.568 555.697 109.568C556.016 109.568 556.332 109.489 556.646 109.33C556.964 109.17 557.228 108.93 557.436 108.608C557.648 108.286 557.752 107.877 557.749 107.381ZM561.736 111V102.273H563.435V111H561.736ZM562.594 100.926C562.298 100.926 562.045 100.828 561.832 100.631C561.624 100.43 561.52 100.191 561.52 99.9148C561.52 99.6345 561.624 99.3958 561.832 99.1989C562.045 98.9981 562.298 98.8977 562.594 98.8977C562.889 98.8977 563.141 98.9981 563.349 99.1989C563.562 99.3958 563.668 99.6345 563.668 99.9148C563.668 100.191 563.562 100.43 563.349 100.631C563.141 100.828 562.889 100.926 562.594 100.926ZM569.794 102.273V103.636H565.027V102.273H569.794ZM566.305 100.182H568.004V108.438C568.004 108.767 568.054 109.015 568.152 109.182C568.25 109.345 568.377 109.456 568.533 109.517C568.692 109.574 568.864 109.602 569.05 109.602C569.186 109.602 569.305 109.593 569.408 109.574C569.51 109.555 569.589 109.54 569.646 109.528L569.953 110.932C569.855 110.97 569.714 111.008 569.533 111.045C569.351 111.087 569.124 111.11 568.851 111.114C568.404 111.121 567.987 111.042 567.601 110.875C567.214 110.708 566.902 110.451 566.663 110.102C566.425 109.754 566.305 109.316 566.305 108.79V100.182ZM575.341 111.176C574.481 111.176 573.741 110.992 573.119 110.625C572.502 110.254 572.025 109.733 571.688 109.062C571.354 108.388 571.188 107.598 571.188 106.693C571.188 105.799 571.354 105.011 571.688 104.33C572.025 103.648 572.494 103.116 573.097 102.733C573.703 102.35 574.411 102.159 575.222 102.159C575.714 102.159 576.191 102.241 576.653 102.403C577.116 102.566 577.53 102.822 577.898 103.17C578.265 103.519 578.555 103.972 578.767 104.528C578.979 105.081 579.085 105.754 579.085 106.545V107.148H572.148V105.875H577.42C577.42 105.428 577.33 105.032 577.148 104.688C576.966 104.339 576.71 104.064 576.381 103.864C576.055 103.663 575.672 103.562 575.233 103.562C574.756 103.562 574.339 103.68 573.983 103.915C573.631 104.146 573.358 104.449 573.165 104.824C572.975 105.195 572.881 105.598 572.881 106.034V107.028C572.881 107.612 572.983 108.108 573.188 108.517C573.396 108.926 573.686 109.239 574.057 109.455C574.428 109.667 574.862 109.773 575.358 109.773C575.68 109.773 575.973 109.727 576.239 109.636C576.504 109.542 576.733 109.402 576.926 109.216C577.119 109.03 577.267 108.801 577.369 108.528L578.977 108.818C578.848 109.292 578.617 109.706 578.284 110.062C577.955 110.415 577.54 110.689 577.04 110.886C576.544 111.08 575.977 111.176 575.341 111.176ZM585.341 111V99.3636H592.557V100.875H587.097V104.42H592.04V105.926H587.097V111H585.341ZM594.58 111V102.273H596.278V111H594.58ZM595.438 100.926C595.142 100.926 594.888 100.828 594.676 100.631C594.468 100.43 594.364 100.191 594.364 99.9148C594.364 99.6345 594.468 99.3958 594.676 99.1989C594.888 98.9981 595.142 98.8977 595.438 98.8977C595.733 98.8977 595.985 98.9981 596.193 99.1989C596.405 99.3958 596.511 99.6345 596.511 99.9148C596.511 100.191 596.405 100.43 596.193 100.631C595.985 100.828 595.733 100.926 595.438 100.926ZM599.905 102.273L601.831 105.67L603.774 102.273H605.632L602.911 106.636L605.655 111H603.797L601.831 107.739L599.871 111H598.007L600.723 106.636L598.041 102.273H599.905ZM611.45 102.273V103.636H606.683V102.273H611.45ZM607.962 100.182H609.661V108.438C609.661 108.767 609.71 109.015 609.808 109.182C609.907 109.345 610.034 109.456 610.189 109.517C610.348 109.574 610.52 109.602 610.706 109.602C610.842 109.602 610.962 109.593 611.064 109.574C611.166 109.555 611.246 109.54 611.303 109.528L611.609 110.932C611.511 110.97 611.371 111.008 611.189 111.045C611.007 111.087 610.78 111.11 610.507 111.114C610.06 111.121 609.643 111.042 609.257 110.875C608.871 110.708 608.558 110.451 608.32 110.102C608.081 109.754 607.962 109.316 607.962 108.79V100.182ZM618.858 107.381V102.273H620.562V111H618.892V109.489H618.801C618.6 109.955 618.278 110.343 617.835 110.653C617.396 110.96 616.848 111.114 616.193 111.114C615.633 111.114 615.136 110.991 614.705 110.744C614.277 110.494 613.939 110.125 613.693 109.636C613.451 109.148 613.33 108.544 613.33 107.824V102.273H615.028V107.619C615.028 108.214 615.193 108.687 615.523 109.04C615.852 109.392 616.28 109.568 616.807 109.568C617.125 109.568 617.441 109.489 617.756 109.33C618.074 109.17 618.337 108.93 618.545 108.608C618.758 108.286 618.862 107.877 618.858 107.381ZM622.845 111V102.273H624.487V103.659H624.578C624.737 103.189 625.018 102.82 625.419 102.551C625.824 102.278 626.283 102.142 626.794 102.142C626.9 102.142 627.025 102.146 627.169 102.153C627.317 102.161 627.432 102.17 627.516 102.182V103.807C627.447 103.788 627.326 103.767 627.152 103.744C626.978 103.718 626.804 103.705 626.629 103.705C626.228 103.705 625.87 103.79 625.555 103.96C625.245 104.127 624.999 104.36 624.817 104.659C624.635 104.955 624.544 105.292 624.544 105.67V111H622.845ZM632.435 111.176C631.575 111.176 630.834 110.992 630.213 110.625C629.596 110.254 629.118 109.733 628.781 109.062C628.448 108.388 628.281 107.598 628.281 106.693C628.281 105.799 628.448 105.011 628.781 104.33C629.118 103.648 629.588 103.116 630.19 102.733C630.796 102.35 631.505 102.159 632.315 102.159C632.808 102.159 633.285 102.241 633.747 102.403C634.209 102.566 634.624 102.822 634.991 103.17C635.359 103.519 635.649 103.972 635.861 104.528C636.073 105.081 636.179 105.754 636.179 106.545V107.148H629.241V105.875H634.514C634.514 105.428 634.423 105.032 634.241 104.688C634.06 104.339 633.804 104.064 633.474 103.864C633.149 103.663 632.766 103.562 632.327 103.562C631.849 103.562 631.433 103.68 631.077 103.915C630.724 104.146 630.452 104.449 630.259 104.824C630.069 105.195 629.974 105.598 629.974 106.034V107.028C629.974 107.612 630.077 108.108 630.281 108.517C630.49 108.926 630.779 109.239 631.151 109.455C631.522 109.667 631.955 109.773 632.452 109.773C632.774 109.773 633.067 109.727 633.332 109.636C633.598 109.542 633.827 109.402 634.02 109.216C634.213 109.03 634.361 108.801 634.463 108.528L636.071 108.818C635.942 109.292 635.711 109.706 635.378 110.062C635.048 110.415 634.634 110.689 634.134 110.886C633.637 111.08 633.071 111.176 632.435 111.176Z" fill="#344563"/>
<path d="M431.705 53.875V52.3636H440.71V53.875H437.08V64H435.33V53.875H431.705ZM445.06 64.1761C444.2 64.1761 443.459 63.9924 442.838 63.625C442.221 63.2538 441.743 62.733 441.406 62.0625C441.073 61.3883 440.906 60.5985 440.906 59.6932C440.906 58.7992 441.073 58.0114 441.406 57.3295C441.743 56.6477 442.213 56.1155 442.815 55.733C443.421 55.3504 444.13 55.1591 444.94 55.1591C445.433 55.1591 445.91 55.2405 446.372 55.4034C446.834 55.5663 447.249 55.822 447.616 56.1705C447.984 56.5189 448.274 56.9716 448.486 57.5284C448.698 58.0814 448.804 58.7538 448.804 59.5455V60.1477H441.866V58.875H447.139C447.139 58.428 447.048 58.0322 446.866 57.6875C446.685 57.339 446.429 57.0644 446.099 56.8636C445.774 56.6629 445.391 56.5625 444.952 56.5625C444.474 56.5625 444.058 56.6799 443.702 56.9148C443.349 57.1458 443.077 57.4489 442.884 57.8239C442.694 58.1951 442.599 58.5985 442.599 59.0341V60.0284C442.599 60.6117 442.702 61.108 442.906 61.517C443.115 61.9261 443.404 62.2386 443.776 62.4545C444.147 62.6667 444.58 62.7727 445.077 62.7727C445.399 62.7727 445.692 62.7273 445.957 62.6364C446.223 62.5417 446.452 62.4015 446.645 62.2159C446.838 62.0303 446.986 61.8011 447.088 61.5284L448.696 61.8182C448.567 62.2917 448.336 62.7064 448.003 63.0625C447.673 63.4148 447.259 63.6894 446.759 63.8864C446.262 64.0795 445.696 64.1761 445.06 64.1761ZM457.229 57.4034L455.689 57.6761C455.625 57.4792 455.522 57.2917 455.382 57.1136C455.246 56.9356 455.06 56.7898 454.825 56.6761C454.59 56.5625 454.297 56.5057 453.945 56.5057C453.464 56.5057 453.062 56.6136 452.74 56.8295C452.418 57.0417 452.257 57.3163 452.257 57.6534C452.257 57.9451 452.365 58.1799 452.581 58.358C452.797 58.536 453.145 58.6818 453.626 58.7955L455.013 59.1136C455.816 59.2992 456.414 59.5852 456.808 59.9716C457.202 60.358 457.399 60.8598 457.399 61.4773C457.399 62 457.248 62.4659 456.945 62.875C456.645 63.2803 456.227 63.5985 455.689 63.8295C455.155 64.0606 454.536 64.1761 453.831 64.1761C452.854 64.1761 452.056 63.9678 451.439 63.5511C450.821 63.1307 450.443 62.5341 450.303 61.7614L451.945 61.5114C452.047 61.9394 452.257 62.2633 452.575 62.483C452.893 62.6989 453.308 62.8068 453.82 62.8068C454.376 62.8068 454.821 62.6913 455.155 62.4602C455.488 62.2254 455.655 61.9394 455.655 61.6023C455.655 61.3295 455.553 61.1004 455.348 60.9148C455.147 60.7292 454.839 60.589 454.422 60.4943L452.945 60.1705C452.13 59.9848 451.528 59.6894 451.138 59.2841C450.751 58.8788 450.558 58.3655 450.558 57.7443C450.558 57.2292 450.702 56.7784 450.99 56.392C451.278 56.0057 451.676 55.7045 452.183 55.4886C452.691 55.2689 453.272 55.1591 453.928 55.1591C454.871 55.1591 455.613 55.3636 456.155 55.7727C456.696 56.178 457.054 56.7216 457.229 57.4034ZM463.341 55.2727V56.6364H458.574V55.2727H463.341ZM459.852 53.1818H461.551V61.4375C461.551 61.767 461.6 62.0152 461.699 62.1818C461.797 62.3447 461.924 62.4564 462.08 62.517C462.239 62.5739 462.411 62.6023 462.597 62.6023C462.733 62.6023 462.852 62.5928 462.955 62.5739C463.057 62.5549 463.136 62.5398 463.193 62.5284L463.5 63.9318C463.402 63.9697 463.261 64.0076 463.08 64.0455C462.898 64.0871 462.67 64.1098 462.398 64.1136C461.951 64.1212 461.534 64.0417 461.148 63.875C460.761 63.7083 460.449 63.4508 460.21 63.1023C459.972 62.7538 459.852 62.3163 459.852 61.7898V53.1818ZM479.256 56.1477H477.483C477.415 55.7689 477.288 55.4356 477.102 55.1477C476.917 54.8598 476.689 54.6155 476.42 54.4148C476.152 54.214 475.85 54.0625 475.517 53.9602C475.188 53.858 474.837 53.8068 474.466 53.8068C473.795 53.8068 473.195 53.9754 472.665 54.3125C472.138 54.6496 471.722 55.1439 471.415 55.7955C471.112 56.447 470.96 57.2424 470.96 58.1818C470.96 59.1288 471.112 59.928 471.415 60.5795C471.722 61.2311 472.14 61.7235 472.67 62.0568C473.201 62.3902 473.797 62.5568 474.46 62.5568C474.828 62.5568 475.176 62.5076 475.506 62.4091C475.839 62.3068 476.14 62.1572 476.409 61.9602C476.678 61.7633 476.905 61.5227 477.091 61.2386C477.28 60.9508 477.411 60.6212 477.483 60.25L479.256 60.2557C479.161 60.8277 478.977 61.3542 478.705 61.8352C478.436 62.3125 478.089 62.7254 477.665 63.0739C477.244 63.4186 476.763 63.6856 476.222 63.875C475.68 64.0644 475.089 64.1591 474.449 64.1591C473.441 64.1591 472.544 63.9205 471.756 63.4432C470.968 62.9621 470.347 62.2746 469.892 61.3807C469.441 60.4867 469.216 59.4205 469.216 58.1818C469.216 56.9394 469.443 55.8731 469.898 54.983C470.352 54.089 470.973 53.4034 471.761 52.9261C472.549 52.4451 473.445 52.2045 474.449 52.2045C475.066 52.2045 475.642 52.2936 476.176 52.4716C476.714 52.6458 477.197 52.9034 477.625 53.2443C478.053 53.5814 478.407 53.9943 478.688 54.483C478.968 54.9678 479.157 55.5227 479.256 56.1477ZM483.76 64.1932C483.207 64.1932 482.707 64.0909 482.26 63.8864C481.813 63.678 481.459 63.3769 481.197 62.983C480.94 62.589 480.811 62.1061 480.811 61.5341C480.811 61.0417 480.906 60.6364 481.095 60.3182C481.285 60 481.54 59.7481 481.862 59.5625C482.184 59.3769 482.544 59.2367 482.942 59.142C483.339 59.0473 483.745 58.9754 484.158 58.9261C484.68 58.8655 485.105 58.8163 485.43 58.7784C485.756 58.7367 485.993 58.6705 486.141 58.5795C486.288 58.4886 486.362 58.3409 486.362 58.1364V58.0966C486.362 57.6004 486.222 57.2159 485.942 56.9432C485.665 56.6705 485.252 56.5341 484.703 56.5341C484.131 56.5341 483.68 56.661 483.351 56.9148C483.025 57.1648 482.8 57.4432 482.675 57.75L481.078 57.3864C481.268 56.8561 481.544 56.428 481.908 56.1023C482.275 55.7727 482.697 55.5341 483.175 55.3864C483.652 55.2348 484.154 55.1591 484.68 55.1591C485.029 55.1591 485.398 55.2008 485.788 55.2841C486.182 55.3636 486.55 55.5114 486.891 55.7273C487.235 55.9432 487.518 56.2519 487.737 56.6534C487.957 57.0511 488.067 57.5682 488.067 58.2045V64H486.408V62.8068H486.339C486.23 63.0265 486.065 63.2424 485.845 63.4545C485.625 63.6667 485.343 63.8428 484.999 63.983C484.654 64.1231 484.241 64.1932 483.76 64.1932ZM484.129 62.8295C484.599 62.8295 485 62.7367 485.334 62.5511C485.671 62.3655 485.927 62.1231 486.101 61.8239C486.279 61.5208 486.368 61.197 486.368 60.8523V59.7273C486.307 59.7879 486.19 59.8447 486.016 59.8977C485.845 59.947 485.65 59.9905 485.43 60.0284C485.211 60.0625 484.997 60.0947 484.788 60.125C484.58 60.1515 484.406 60.1742 484.266 60.1932C483.936 60.2348 483.635 60.3049 483.362 60.4034C483.093 60.5019 482.877 60.6439 482.714 60.8295C482.555 61.0114 482.476 61.2538 482.476 61.5568C482.476 61.9773 482.631 62.2955 482.942 62.5114C483.252 62.7235 483.648 62.8295 484.129 62.8295ZM496.869 57.4034L495.33 57.6761C495.265 57.4792 495.163 57.2917 495.023 57.1136C494.886 56.9356 494.701 56.7898 494.466 56.6761C494.231 56.5625 493.938 56.5057 493.585 56.5057C493.104 56.5057 492.703 56.6136 492.381 56.8295C492.059 57.0417 491.898 57.3163 491.898 57.6534C491.898 57.9451 492.006 58.1799 492.222 58.358C492.438 58.536 492.786 58.6818 493.267 58.7955L494.653 59.1136C495.456 59.2992 496.055 59.5852 496.449 59.9716C496.843 60.358 497.04 60.8598 497.04 61.4773C497.04 62 496.888 62.4659 496.585 62.875C496.286 63.2803 495.867 63.5985 495.33 63.8295C494.795 64.0606 494.176 64.1761 493.472 64.1761C492.494 64.1761 491.697 63.9678 491.08 63.5511C490.462 63.1307 490.083 62.5341 489.943 61.7614L491.585 61.5114C491.688 61.9394 491.898 62.2633 492.216 62.483C492.534 62.6989 492.949 62.8068 493.46 62.8068C494.017 62.8068 494.462 62.6913 494.795 62.4602C495.129 62.2254 495.295 61.9394 495.295 61.6023C495.295 61.3295 495.193 61.1004 494.989 60.9148C494.788 60.7292 494.479 60.589 494.062 60.4943L492.585 60.1705C491.771 59.9848 491.169 59.6894 490.778 59.2841C490.392 58.8788 490.199 58.3655 490.199 57.7443C490.199 57.2292 490.343 56.7784 490.631 56.392C490.919 56.0057 491.316 55.7045 491.824 55.4886C492.331 55.2689 492.913 55.1591 493.568 55.1591C494.511 55.1591 495.254 55.3636 495.795 55.7727C496.337 56.178 496.695 56.7216 496.869 57.4034ZM502.669 64.1761C501.809 64.1761 501.069 63.9924 500.447 63.625C499.83 63.2538 499.353 62.733 499.016 62.0625C498.682 61.3883 498.516 60.5985 498.516 59.6932C498.516 58.7992 498.682 58.0114 499.016 57.3295C499.353 56.6477 499.822 56.1155 500.425 55.733C501.031 55.3504 501.739 55.1591 502.55 55.1591C503.042 55.1591 503.519 55.2405 503.982 55.4034C504.444 55.5663 504.858 55.822 505.226 56.1705C505.593 56.5189 505.883 56.9716 506.095 57.5284C506.307 58.0814 506.413 58.7538 506.413 59.5455V60.1477H499.476V58.875H504.749C504.749 58.428 504.658 58.0322 504.476 57.6875C504.294 57.339 504.038 57.0644 503.709 56.8636C503.383 56.6629 503 56.5625 502.561 56.5625C502.084 56.5625 501.667 56.6799 501.311 56.9148C500.959 57.1458 500.686 57.4489 500.493 57.8239C500.304 58.1951 500.209 58.5985 500.209 59.0341V60.0284C500.209 60.6117 500.311 61.108 500.516 61.517C500.724 61.9261 501.014 62.2386 501.385 62.4545C501.756 62.6667 502.19 62.7727 502.686 62.7727C503.008 62.7727 503.302 62.7273 503.567 62.6364C503.832 62.5417 504.061 62.4015 504.254 62.2159C504.447 62.0303 504.595 61.8011 504.697 61.5284L506.305 61.8182C506.177 62.2917 505.946 62.7064 505.612 63.0625C505.283 63.4148 504.868 63.6894 504.368 63.8864C503.872 64.0795 503.305 64.1761 502.669 64.1761Z" fill="#344563"/>
<path d="M644.705 53.875V52.3636H653.71V53.875H650.08V64H648.33V53.875H644.705ZM658.06 64.1761C657.2 64.1761 656.459 63.9924 655.838 63.625C655.221 63.2538 654.743 62.733 654.406 62.0625C654.073 61.3883 653.906 60.5985 653.906 59.6932C653.906 58.7992 654.073 58.0114 654.406 57.3295C654.743 56.6477 655.213 56.1155 655.815 55.733C656.421 55.3504 657.13 55.1591 657.94 55.1591C658.433 55.1591 658.91 55.2405 659.372 55.4034C659.834 55.5663 660.249 55.822 660.616 56.1705C660.984 56.5189 661.274 56.9716 661.486 57.5284C661.698 58.0814 661.804 58.7538 661.804 59.5455V60.1477H654.866V58.875H660.139C660.139 58.428 660.048 58.0322 659.866 57.6875C659.685 57.339 659.429 57.0644 659.099 56.8636C658.774 56.6629 658.391 56.5625 657.952 56.5625C657.474 56.5625 657.058 56.6799 656.702 56.9148C656.349 57.1458 656.077 57.4489 655.884 57.8239C655.694 58.1951 655.599 58.5985 655.599 59.0341V60.0284C655.599 60.6117 655.702 61.108 655.906 61.517C656.115 61.9261 656.404 62.2386 656.776 62.4545C657.147 62.6667 657.58 62.7727 658.077 62.7727C658.399 62.7727 658.692 62.7273 658.957 62.6364C659.223 62.5417 659.452 62.4015 659.645 62.2159C659.838 62.0303 659.986 61.8011 660.088 61.5284L661.696 61.8182C661.567 62.2917 661.336 62.7064 661.003 63.0625C660.673 63.4148 660.259 63.6894 659.759 63.8864C659.262 64.0795 658.696 64.1761 658.06 64.1761ZM670.229 57.4034L668.689 57.6761C668.625 57.4792 668.522 57.2917 668.382 57.1136C668.246 56.9356 668.06 56.7898 667.825 56.6761C667.59 56.5625 667.297 56.5057 666.945 56.5057C666.464 56.5057 666.062 56.6136 665.74 56.8295C665.418 57.0417 665.257 57.3163 665.257 57.6534C665.257 57.9451 665.365 58.1799 665.581 58.358C665.797 58.536 666.145 58.6818 666.626 58.7955L668.013 59.1136C668.816 59.2992 669.414 59.5852 669.808 59.9716C670.202 60.358 670.399 60.8598 670.399 61.4773C670.399 62 670.248 62.4659 669.945 62.875C669.645 63.2803 669.227 63.5985 668.689 63.8295C668.155 64.0606 667.536 64.1761 666.831 64.1761C665.854 64.1761 665.056 63.9678 664.439 63.5511C663.821 63.1307 663.443 62.5341 663.303 61.7614L664.945 61.5114C665.047 61.9394 665.257 62.2633 665.575 62.483C665.893 62.6989 666.308 62.8068 666.82 62.8068C667.376 62.8068 667.821 62.6913 668.155 62.4602C668.488 62.2254 668.655 61.9394 668.655 61.6023C668.655 61.3295 668.553 61.1004 668.348 60.9148C668.147 60.7292 667.839 60.589 667.422 60.4943L665.945 60.1705C665.13 59.9848 664.528 59.6894 664.138 59.2841C663.751 58.8788 663.558 58.3655 663.558 57.7443C663.558 57.2292 663.702 56.7784 663.99 56.392C664.278 56.0057 664.676 55.7045 665.183 55.4886C665.691 55.2689 666.272 55.1591 666.928 55.1591C667.871 55.1591 668.613 55.3636 669.155 55.7727C669.696 56.178 670.054 56.7216 670.229 57.4034ZM676.341 55.2727V56.6364H671.574V55.2727H676.341ZM672.852 53.1818H674.551V61.4375C674.551 61.767 674.6 62.0152 674.699 62.1818C674.797 62.3447 674.924 62.4564 675.08 62.517C675.239 62.5739 675.411 62.6023 675.597 62.6023C675.733 62.6023 675.852 62.5928 675.955 62.5739C676.057 62.5549 676.136 62.5398 676.193 62.5284L676.5 63.9318C676.402 63.9697 676.261 64.0076 676.08 64.0455C675.898 64.0871 675.67 64.1098 675.398 64.1136C674.951 64.1212 674.534 64.0417 674.148 63.875C673.761 63.7083 673.449 63.4508 673.21 63.1023C672.972 62.7538 672.852 62.3163 672.852 61.7898V53.1818ZM692.256 56.1477H690.483C690.415 55.7689 690.288 55.4356 690.102 55.1477C689.917 54.8598 689.689 54.6155 689.42 54.4148C689.152 54.214 688.85 54.0625 688.517 53.9602C688.188 53.858 687.837 53.8068 687.466 53.8068C686.795 53.8068 686.195 53.9754 685.665 54.3125C685.138 54.6496 684.722 55.1439 684.415 55.7955C684.112 56.447 683.96 57.2424 683.96 58.1818C683.96 59.1288 684.112 59.928 684.415 60.5795C684.722 61.2311 685.14 61.7235 685.67 62.0568C686.201 62.3902 686.797 62.5568 687.46 62.5568C687.828 62.5568 688.176 62.5076 688.506 62.4091C688.839 62.3068 689.14 62.1572 689.409 61.9602C689.678 61.7633 689.905 61.5227 690.091 61.2386C690.28 60.9508 690.411 60.6212 690.483 60.25L692.256 60.2557C692.161 60.8277 691.977 61.3542 691.705 61.8352C691.436 62.3125 691.089 62.7254 690.665 63.0739C690.244 63.4186 689.763 63.6856 689.222 63.875C688.68 64.0644 688.089 64.1591 687.449 64.1591C686.441 64.1591 685.544 63.9205 684.756 63.4432C683.968 62.9621 683.347 62.2746 682.892 61.3807C682.441 60.4867 682.216 59.4205 682.216 58.1818C682.216 56.9394 682.443 55.8731 682.898 54.983C683.352 54.089 683.973 53.4034 684.761 52.9261C685.549 52.4451 686.445 52.2045 687.449 52.2045C688.066 52.2045 688.642 52.2936 689.176 52.4716C689.714 52.6458 690.197 52.9034 690.625 53.2443C691.053 53.5814 691.407 53.9943 691.688 54.483C691.968 54.9678 692.157 55.5227 692.256 56.1477ZM696.76 64.1932C696.207 64.1932 695.707 64.0909 695.26 63.8864C694.813 63.678 694.459 63.3769 694.197 62.983C693.94 62.589 693.811 62.1061 693.811 61.5341C693.811 61.0417 693.906 60.6364 694.095 60.3182C694.285 60 694.54 59.7481 694.862 59.5625C695.184 59.3769 695.544 59.2367 695.942 59.142C696.339 59.0473 696.745 58.9754 697.158 58.9261C697.68 58.8655 698.105 58.8163 698.43 58.7784C698.756 58.7367 698.993 58.6705 699.141 58.5795C699.288 58.4886 699.362 58.3409 699.362 58.1364V58.0966C699.362 57.6004 699.222 57.2159 698.942 56.9432C698.665 56.6705 698.252 56.5341 697.703 56.5341C697.131 56.5341 696.68 56.661 696.351 56.9148C696.025 57.1648 695.8 57.4432 695.675 57.75L694.078 57.3864C694.268 56.8561 694.544 56.428 694.908 56.1023C695.275 55.7727 695.697 55.5341 696.175 55.3864C696.652 55.2348 697.154 55.1591 697.68 55.1591C698.029 55.1591 698.398 55.2008 698.788 55.2841C699.182 55.3636 699.55 55.5114 699.891 55.7273C700.235 55.9432 700.518 56.2519 700.737 56.6534C700.957 57.0511 701.067 57.5682 701.067 58.2045V64H699.408V62.8068H699.339C699.23 63.0265 699.065 63.2424 698.845 63.4545C698.625 63.6667 698.343 63.8428 697.999 63.983C697.654 64.1231 697.241 64.1932 696.76 64.1932ZM697.129 62.8295C697.599 62.8295 698 62.7367 698.334 62.5511C698.671 62.3655 698.927 62.1231 699.101 61.8239C699.279 61.5208 699.368 61.197 699.368 60.8523V59.7273C699.307 59.7879 699.19 59.8447 699.016 59.8977C698.845 59.947 698.65 59.9905 698.43 60.0284C698.211 60.0625 697.997 60.0947 697.788 60.125C697.58 60.1515 697.406 60.1742 697.266 60.1932C696.936 60.2348 696.635 60.3049 696.362 60.4034C696.093 60.5019 695.877 60.6439 695.714 60.8295C695.555 61.0114 695.476 61.2538 695.476 61.5568C695.476 61.9773 695.631 62.2955 695.942 62.5114C696.252 62.7235 696.648 62.8295 697.129 62.8295ZM709.869 57.4034L708.33 57.6761C708.265 57.4792 708.163 57.2917 708.023 57.1136C707.886 56.9356 707.701 56.7898 707.466 56.6761C707.231 56.5625 706.938 56.5057 706.585 56.5057C706.104 56.5057 705.703 56.6136 705.381 56.8295C705.059 57.0417 704.898 57.3163 704.898 57.6534C704.898 57.9451 705.006 58.1799 705.222 58.358C705.438 58.536 705.786 58.6818 706.267 58.7955L707.653 59.1136C708.456 59.2992 709.055 59.5852 709.449 59.9716C709.843 60.358 710.04 60.8598 710.04 61.4773C710.04 62 709.888 62.4659 709.585 62.875C709.286 63.2803 708.867 63.5985 708.33 63.8295C707.795 64.0606 707.176 64.1761 706.472 64.1761C705.494 64.1761 704.697 63.9678 704.08 63.5511C703.462 63.1307 703.083 62.5341 702.943 61.7614L704.585 61.5114C704.688 61.9394 704.898 62.2633 705.216 62.483C705.534 62.6989 705.949 62.8068 706.46 62.8068C707.017 62.8068 707.462 62.6913 707.795 62.4602C708.129 62.2254 708.295 61.9394 708.295 61.6023C708.295 61.3295 708.193 61.1004 707.989 60.9148C707.788 60.7292 707.479 60.589 707.062 60.4943L705.585 60.1705C704.771 59.9848 704.169 59.6894 703.778 59.2841C703.392 58.8788 703.199 58.3655 703.199 57.7443C703.199 57.2292 703.343 56.7784 703.631 56.392C703.919 56.0057 704.316 55.7045 704.824 55.4886C705.331 55.2689 705.913 55.1591 706.568 55.1591C707.511 55.1591 708.254 55.3636 708.795 55.7727C709.337 56.178 709.695 56.7216 709.869 57.4034ZM715.669 64.1761C714.809 64.1761 714.069 63.9924 713.447 63.625C712.83 63.2538 712.353 62.733 712.016 62.0625C711.682 61.3883 711.516 60.5985 711.516 59.6932C711.516 58.7992 711.682 58.0114 712.016 57.3295C712.353 56.6477 712.822 56.1155 713.425 55.733C714.031 55.3504 714.739 55.1591 715.55 55.1591C716.042 55.1591 716.519 55.2405 716.982 55.4034C717.444 55.5663 717.858 55.822 718.226 56.1705C718.593 56.5189 718.883 56.9716 719.095 57.5284C719.307 58.0814 719.413 58.7538 719.413 59.5455V60.1477H712.476V58.875H717.749C717.749 58.428 717.658 58.0322 717.476 57.6875C717.294 57.339 717.038 57.0644 716.709 56.8636C716.383 56.6629 716 56.5625 715.561 56.5625C715.084 56.5625 714.667 56.6799 714.311 56.9148C713.959 57.1458 713.686 57.4489 713.493 57.8239C713.304 58.1951 713.209 58.5985 713.209 59.0341V60.0284C713.209 60.6117 713.311 61.108 713.516 61.517C713.724 61.9261 714.014 62.2386 714.385 62.4545C714.756 62.6667 715.19 62.7727 715.686 62.7727C716.008 62.7727 716.302 62.7273 716.567 62.6364C716.832 62.5417 717.061 62.4015 717.254 62.2159C717.447 62.0303 717.595 61.8011 717.697 61.5284L719.305 61.8182C719.177 62.2917 718.946 62.7064 718.612 63.0625C718.283 63.4148 717.868 63.6894 717.368 63.8864C716.872 64.0795 716.305 64.1761 715.669 64.1761ZM725.669 64V52.3636H732.885V53.875H727.425V57.4205H732.368V58.9261H727.425V64H725.669ZM734.908 64V55.2727H736.607V64H734.908ZM735.766 53.9261C735.47 53.9261 735.216 53.8277 735.004 53.6307C734.796 53.4299 734.692 53.1913 734.692 52.9148C734.692 52.6345 734.796 52.3958 735.004 52.1989C735.216 51.9981 735.47 51.8977 735.766 51.8977C736.061 51.8977 736.313 51.9981 736.521 52.1989C736.733 52.3958 736.839 52.6345 736.839 52.9148C736.839 53.1913 736.733 53.4299 736.521 53.6307C736.313 53.8277 736.061 53.9261 735.766 53.9261ZM740.233 55.2727L742.159 58.6705L744.102 55.2727H745.96L743.239 59.6364L745.983 64H744.125L742.159 60.7386L740.199 64H738.335L741.051 59.6364L738.369 55.2727H740.233ZM751.778 55.2727V56.6364H747.011V55.2727H751.778ZM748.29 53.1818H749.989V61.4375C749.989 61.767 750.038 62.0152 750.136 62.1818C750.235 62.3447 750.362 62.4564 750.517 62.517C750.676 62.5739 750.848 62.6023 751.034 62.6023C751.17 62.6023 751.29 62.5928 751.392 62.5739C751.494 62.5549 751.574 62.5398 751.631 62.5284L751.938 63.9318C751.839 63.9697 751.699 64.0076 751.517 64.0455C751.335 64.0871 751.108 64.1098 750.835 64.1136C750.388 64.1212 749.972 64.0417 749.585 63.875C749.199 63.7083 748.886 63.4508 748.648 63.1023C748.409 62.7538 748.29 62.3163 748.29 61.7898V53.1818ZM759.186 60.3807V55.2727H760.891V64H759.22V62.4886H759.129C758.929 62.9545 758.607 63.3428 758.163 63.6534C757.724 63.9602 757.177 64.1136 756.521 64.1136C755.961 64.1136 755.464 63.9905 755.033 63.7443C754.605 63.4943 754.268 63.125 754.021 62.6364C753.779 62.1477 753.658 61.5436 753.658 60.8239V55.2727H755.357V60.6193C755.357 61.214 755.521 61.6875 755.851 62.0398C756.18 62.392 756.608 62.5682 757.135 62.5682C757.453 62.5682 757.769 62.4886 758.084 62.3295C758.402 62.1705 758.665 61.9299 758.874 61.608C759.086 61.286 759.19 60.8769 759.186 60.3807ZM763.173 64V55.2727H764.815V56.6591H764.906C765.065 56.1894 765.346 55.8201 765.747 55.5511C766.152 55.2784 766.611 55.142 767.122 55.142C767.228 55.142 767.353 55.1458 767.497 55.1534C767.645 55.161 767.76 55.1705 767.844 55.1818V56.8068C767.776 56.7879 767.654 56.767 767.48 56.7443C767.306 56.7178 767.132 56.7045 766.957 56.7045C766.556 56.7045 766.198 56.7898 765.884 56.9602C765.573 57.1269 765.327 57.3598 765.145 57.6591C764.963 57.9545 764.872 58.2917 764.872 58.6705V64H763.173ZM772.763 64.1761C771.903 64.1761 771.162 63.9924 770.541 63.625C769.924 63.2538 769.446 62.733 769.109 62.0625C768.776 61.3883 768.609 60.5985 768.609 59.6932C768.609 58.7992 768.776 58.0114 769.109 57.3295C769.446 56.6477 769.916 56.1155 770.518 55.733C771.125 55.3504 771.833 55.1591 772.643 55.1591C773.136 55.1591 773.613 55.2405 774.075 55.4034C774.537 55.5663 774.952 55.822 775.32 56.1705C775.687 56.5189 775.977 56.9716 776.189 57.5284C776.401 58.0814 776.507 58.7538 776.507 59.5455V60.1477H769.57V58.875H774.842C774.842 58.428 774.751 58.0322 774.57 57.6875C774.388 57.339 774.132 57.0644 773.803 56.8636C773.477 56.6629 773.094 56.5625 772.655 56.5625C772.178 56.5625 771.761 56.6799 771.405 56.9148C771.053 57.1458 770.78 57.4489 770.587 57.8239C770.397 58.1951 770.303 58.5985 770.303 59.0341V60.0284C770.303 60.6117 770.405 61.108 770.609 61.517C770.818 61.9261 771.107 62.2386 771.479 62.4545C771.85 62.6667 772.284 62.7727 772.78 62.7727C773.102 62.7727 773.395 62.7273 773.661 62.6364C773.926 62.5417 774.155 62.4015 774.348 62.2159C774.541 62.0303 774.689 61.8011 774.791 61.5284L776.399 61.8182C776.27 62.2917 776.039 62.7064 775.706 63.0625C775.376 63.4148 774.962 63.6894 774.462 63.8864C773.965 64.0795 773.399 64.1761 772.763 64.1761Z" fill="#344563"/>
<path d="M203.153 130.04C203.044 129.695 202.896 129.386 202.71 129.114C202.528 128.837 202.311 128.602 202.057 128.409C201.803 128.212 201.513 128.062 201.188 127.96C200.866 127.858 200.511 127.807 200.125 127.807C199.47 127.807 198.879 127.975 198.352 128.312C197.826 128.65 197.409 129.144 197.102 129.795C196.799 130.443 196.648 131.237 196.648 132.176C196.648 133.119 196.801 133.917 197.108 134.568C197.415 135.22 197.835 135.714 198.369 136.051C198.903 136.388 199.511 136.557 200.193 136.557C200.826 136.557 201.377 136.428 201.847 136.17C202.32 135.913 202.686 135.549 202.943 135.08C203.205 134.606 203.335 134.049 203.335 133.409L203.79 133.494H200.46V132.045H205.034V133.369C205.034 134.347 204.826 135.195 204.409 135.915C203.996 136.631 203.424 137.184 202.693 137.574C201.966 137.964 201.133 138.159 200.193 138.159C199.14 138.159 198.216 137.917 197.42 137.432C196.629 136.947 196.011 136.259 195.568 135.369C195.125 134.475 194.903 133.415 194.903 132.188C194.903 131.259 195.032 130.426 195.29 129.688C195.547 128.949 195.909 128.322 196.375 127.807C196.845 127.288 197.396 126.892 198.028 126.619C198.665 126.343 199.36 126.205 200.114 126.205C200.742 126.205 201.328 126.297 201.869 126.483C202.415 126.669 202.9 126.932 203.324 127.273C203.752 127.614 204.106 128.019 204.386 128.489C204.667 128.955 204.856 129.472 204.955 130.04H203.153ZM208.825 126.364V138H207.126V126.364H208.825ZM214.787 138.176C213.969 138.176 213.255 137.989 212.645 137.614C212.035 137.239 211.562 136.714 211.224 136.04C210.887 135.366 210.719 134.578 210.719 133.676C210.719 132.771 210.887 131.979 211.224 131.301C211.562 130.623 212.035 130.097 212.645 129.722C213.255 129.347 213.969 129.159 214.787 129.159C215.605 129.159 216.319 129.347 216.929 129.722C217.539 130.097 218.012 130.623 218.349 131.301C218.687 131.979 218.855 132.771 218.855 133.676C218.855 134.578 218.687 135.366 218.349 136.04C218.012 136.714 217.539 137.239 216.929 137.614C216.319 137.989 215.605 138.176 214.787 138.176ZM214.793 136.75C215.323 136.75 215.762 136.61 216.111 136.33C216.459 136.049 216.717 135.676 216.884 135.21C217.054 134.744 217.139 134.231 217.139 133.67C217.139 133.114 217.054 132.602 216.884 132.136C216.717 131.667 216.459 131.29 216.111 131.006C215.762 130.722 215.323 130.58 214.793 130.58C214.259 130.58 213.815 130.722 213.463 131.006C213.115 131.29 212.855 131.667 212.685 132.136C212.518 132.602 212.435 133.114 212.435 133.67C212.435 134.231 212.518 134.744 212.685 135.21C212.855 135.676 213.115 136.049 213.463 136.33C213.815 136.61 214.259 136.75 214.793 136.75ZM220.888 138V126.364H222.587V130.688H222.689C222.787 130.506 222.929 130.295 223.115 130.057C223.301 129.818 223.558 129.61 223.888 129.432C224.217 129.25 224.653 129.159 225.195 129.159C225.899 129.159 226.528 129.337 227.081 129.693C227.634 130.049 228.068 130.562 228.382 131.233C228.7 131.903 228.859 132.71 228.859 133.653C228.859 134.597 228.702 135.405 228.388 136.08C228.073 136.75 227.642 137.267 227.092 137.631C226.543 137.991 225.916 138.17 225.212 138.17C224.681 138.17 224.248 138.081 223.911 137.903C223.577 137.725 223.316 137.517 223.126 137.278C222.937 137.04 222.791 136.828 222.689 136.642H222.547V138H220.888ZM222.553 133.636C222.553 134.25 222.642 134.788 222.82 135.25C222.998 135.712 223.255 136.074 223.592 136.335C223.929 136.593 224.342 136.722 224.831 136.722C225.339 136.722 225.763 136.587 226.104 136.318C226.445 136.045 226.702 135.676 226.876 135.21C227.054 134.744 227.143 134.22 227.143 133.636C227.143 133.061 227.056 132.544 226.882 132.085C226.712 131.627 226.454 131.265 226.109 131C225.768 130.735 225.342 130.602 224.831 130.602C224.339 130.602 223.922 130.729 223.581 130.983C223.244 131.237 222.988 131.591 222.814 132.045C222.64 132.5 222.553 133.03 222.553 133.636ZM233.307 138.193C232.754 138.193 232.254 138.091 231.807 137.886C231.36 137.678 231.006 137.377 230.744 136.983C230.487 136.589 230.358 136.106 230.358 135.534C230.358 135.042 230.453 134.636 230.642 134.318C230.831 134 231.087 133.748 231.409 133.562C231.731 133.377 232.091 133.237 232.489 133.142C232.886 133.047 233.292 132.975 233.705 132.926C234.227 132.866 234.652 132.816 234.977 132.778C235.303 132.737 235.54 132.67 235.688 132.58C235.835 132.489 235.909 132.341 235.909 132.136V132.097C235.909 131.6 235.769 131.216 235.489 130.943C235.212 130.67 234.799 130.534 234.25 130.534C233.678 130.534 233.227 130.661 232.898 130.915C232.572 131.165 232.347 131.443 232.222 131.75L230.625 131.386C230.814 130.856 231.091 130.428 231.455 130.102C231.822 129.773 232.244 129.534 232.722 129.386C233.199 129.235 233.701 129.159 234.227 129.159C234.576 129.159 234.945 129.201 235.335 129.284C235.729 129.364 236.097 129.511 236.438 129.727C236.782 129.943 237.064 130.252 237.284 130.653C237.504 131.051 237.614 131.568 237.614 132.205V138H235.955V136.807H235.886C235.777 137.027 235.612 137.242 235.392 137.455C235.172 137.667 234.89 137.843 234.545 137.983C234.201 138.123 233.788 138.193 233.307 138.193ZM233.676 136.83C234.146 136.83 234.547 136.737 234.881 136.551C235.218 136.366 235.473 136.123 235.648 135.824C235.826 135.521 235.915 135.197 235.915 134.852V133.727C235.854 133.788 235.737 133.845 235.562 133.898C235.392 133.947 235.197 133.991 234.977 134.028C234.758 134.062 234.544 134.095 234.335 134.125C234.127 134.152 233.953 134.174 233.812 134.193C233.483 134.235 233.182 134.305 232.909 134.403C232.64 134.502 232.424 134.644 232.261 134.83C232.102 135.011 232.023 135.254 232.023 135.557C232.023 135.977 232.178 136.295 232.489 136.511C232.799 136.723 233.195 136.83 233.676 136.83ZM241.575 126.364V138H239.876V126.364H241.575ZM248.232 138V126.364H255.447V127.875H249.987V131.42H254.93V132.926H249.987V138H248.232ZM257.47 138V129.273H259.169V138H257.47ZM258.328 127.926C258.033 127.926 257.779 127.828 257.567 127.631C257.358 127.43 257.254 127.191 257.254 126.915C257.254 126.634 257.358 126.396 257.567 126.199C257.779 125.998 258.033 125.898 258.328 125.898C258.624 125.898 258.875 125.998 259.084 126.199C259.296 126.396 259.402 126.634 259.402 126.915C259.402 127.191 259.296 127.43 259.084 127.631C258.875 127.828 258.624 127.926 258.328 127.926ZM262.795 129.273L264.722 132.67L266.665 129.273H268.523L265.801 133.636L268.545 138H266.688L264.722 134.739L262.761 138H260.898L263.614 133.636L260.932 129.273H262.795ZM274.341 129.273V130.636H269.574V129.273H274.341ZM270.852 127.182H272.551V135.438C272.551 135.767 272.6 136.015 272.699 136.182C272.797 136.345 272.924 136.456 273.08 136.517C273.239 136.574 273.411 136.602 273.597 136.602C273.733 136.602 273.852 136.593 273.955 136.574C274.057 136.555 274.136 136.54 274.193 136.528L274.5 137.932C274.402 137.97 274.261 138.008 274.08 138.045C273.898 138.087 273.67 138.11 273.398 138.114C272.951 138.121 272.534 138.042 272.148 137.875C271.761 137.708 271.449 137.451 271.21 137.102C270.972 136.754 270.852 136.316 270.852 135.79V127.182ZM281.749 134.381V129.273H283.453V138H281.783V136.489H281.692C281.491 136.955 281.169 137.343 280.726 137.653C280.286 137.96 279.739 138.114 279.084 138.114C278.523 138.114 278.027 137.991 277.595 137.744C277.167 137.494 276.83 137.125 276.584 136.636C276.341 136.148 276.22 135.544 276.22 134.824V129.273H277.919V134.619C277.919 135.214 278.084 135.687 278.413 136.04C278.743 136.392 279.171 136.568 279.697 136.568C280.016 136.568 280.332 136.489 280.646 136.33C280.964 136.17 281.228 135.93 281.436 135.608C281.648 135.286 281.752 134.877 281.749 134.381ZM285.736 138V129.273H287.378V130.659H287.469C287.628 130.189 287.908 129.82 288.31 129.551C288.715 129.278 289.173 129.142 289.685 129.142C289.791 129.142 289.916 129.146 290.06 129.153C290.207 129.161 290.323 129.17 290.406 129.182V130.807C290.338 130.788 290.217 130.767 290.043 130.744C289.868 130.718 289.694 130.705 289.52 130.705C289.118 130.705 288.76 130.79 288.446 130.96C288.135 131.127 287.889 131.36 287.707 131.659C287.526 131.955 287.435 132.292 287.435 132.67V138H285.736ZM295.325 138.176C294.465 138.176 293.725 137.992 293.104 137.625C292.486 137.254 292.009 136.733 291.672 136.062C291.339 135.388 291.172 134.598 291.172 133.693C291.172 132.799 291.339 132.011 291.672 131.33C292.009 130.648 292.479 130.116 293.081 129.733C293.687 129.35 294.395 129.159 295.206 129.159C295.698 129.159 296.176 129.241 296.638 129.403C297.1 129.566 297.515 129.822 297.882 130.17C298.25 130.519 298.539 130.972 298.751 131.528C298.964 132.081 299.07 132.754 299.07 133.545V134.148H292.132V132.875H297.405C297.405 132.428 297.314 132.032 297.132 131.688C296.95 131.339 296.695 131.064 296.365 130.864C296.039 130.663 295.657 130.562 295.217 130.562C294.74 130.562 294.323 130.68 293.967 130.915C293.615 131.146 293.342 131.449 293.149 131.824C292.96 132.195 292.865 132.598 292.865 133.034V134.028C292.865 134.612 292.967 135.108 293.172 135.517C293.38 135.926 293.67 136.239 294.041 136.455C294.412 136.667 294.846 136.773 295.342 136.773C295.664 136.773 295.958 136.727 296.223 136.636C296.488 136.542 296.717 136.402 296.911 136.216C297.104 136.03 297.251 135.801 297.354 135.528L298.962 135.818C298.833 136.292 298.602 136.706 298.268 137.062C297.939 137.415 297.524 137.689 297.024 137.886C296.528 138.08 295.962 138.176 295.325 138.176Z" fill="#344563"/>
<path d="M132 99H156.236C160.655 99 164.236 95.4183 164.236 91V88C164.236 83.5817 167.818 80 172.236 80H185" stroke="#448CEA" stroke-width="2" stroke-linecap="round"/>
<path d="M370 77H394.236C398.655 77 402.236 73.4183 402.236 69V66C402.236 61.5817 405.818 58 410.236 58H423" stroke="#448CEA" stroke-width="2" stroke-linecap="round"/>
<path d="M132 115H156.098C160.517 115 164.098 118.582 164.098 123V127C164.098 131.418 167.68 135 172.098 135H185" stroke="#FF4FA3" stroke-width="2" stroke-linecap="round"/>
<path d="M370 84H394.098C398.517 84 402.098 87.5817 402.098 92V96C402.098 100.418 405.68 104 410.098 104H423" stroke="#FF4FA3" stroke-width="2" stroke-linecap="round"/>
<path d="M526 58H635" stroke="#FF4FA3" stroke-width="2" stroke-linecap="round"/>
<rect x="0.5" y="0.5" width="816" height="189" rx="7.5" stroke="#F4F5F7"/>
<defs>
<filter id="filter0_d_36_75" x="17" y="86" width="119" height="48" filterUnits="userSpaceOnUse" color-interpolation-filters="sRGB">
<feFlood flood-opacity="0" result="BackgroundImageFix"/>
<feColorMatrix in="SourceAlpha" type="matrix" values="0 0 0 0 0 0 0 0 0 0 0 0 0 0 0 0 0 0 127 0" result="hardAlpha"/>
<feOffset dy="2"/>
<feGaussianBlur stdDeviation="2"/>
<feComposite in2="hardAlpha" operator="out"/>
<feColorMatrix type="matrix" values="0 0 0 0 0 0 0 0 0 0 0 0 0 0 0 0 0 0 0.12 0"/>
<feBlend mode="normal" in2="BackgroundImageFix" result="effect1_dropShadow_36_75"/>
<feBlend mode="normal" in="SourceGraphic" in2="effect1_dropShadow_36_75" result="shape"/>
</filter>
</defs>
</svg>
