<svg width="304" height="286" viewBox="0 0 304 286" fill="none" xmlns="http://www.w3.org/2000/svg">
<circle cx="175" cy="143" r="93" fill="#F5F9FF"/>
<path d="M174.753 47.6863C139.153 47.6863 108.005 67.0103 91.3428 95.6737H59.8673C58.1723 95.6737 56.7982 97.0417 56.7982 98.7284C56.7982 100.417 58.1723 101.789 59.8673 101.789H88.0779C84.4451 109.224 81.7585 117.193 80.1603 125.544H38.2105C36.5154 125.544 35.1372 126.912 35.1372 128.603C35.1372 130.292 36.5134 131.662 38.2105 131.662H79.1892C78.7017 135.554 78.4487 139.518 78.4487 143.538C78.4487 147.563 78.7017 151.523 79.1892 155.419H65.1519C63.4527 155.419 62.0786 156.781 62.0786 158.468C62.0786 160.156 63.4527 161.526 65.1519 161.526H80.1603C81.7586 169.876 84.4451 177.847 88.0779 185.281H56.1726C54.4776 185.281 53.0994 186.649 53.0994 188.342C53.0994 190.029 54.4756 191.391 56.1726 191.391H91.3423C108.007 220.056 139.155 239.378 174.757 239.378C227.856 239.372 271.059 196.382 271.059 143.53C271.059 90.6845 227.856 47.6867 174.752 47.6867L174.753 47.6863ZM174.753 233.264C125.038 233.264 84.5917 193.013 84.5917 143.529C84.5917 94.0528 125.038 53.8002 174.753 53.8002C224.47 53.8002 264.914 94.0549 264.914 143.529C264.914 193.015 224.472 233.264 174.753 233.264Z" fill="#5E6C84" stroke="#5E6C84" stroke-width="0.6"/>
<path d="M174.749 68.4443C133.151 68.4443 99.3013 102.129 99.3013 143.529C99.3013 184.935 133.147 218.618 174.749 218.618C216.351 218.618 250.202 184.937 250.202 143.529C250.202 102.124 216.353 68.4443 174.749 68.4443ZM174.749 212.509C136.535 212.509 105.447 181.569 105.447 143.534C105.447 105.502 136.535 74.5583 174.749 74.5583C212.967 74.5583 244.056 105.503 244.056 143.534C244.056 181.567 212.968 212.509 174.749 212.509Z" fill="#5E6C84" stroke="#5E6C84" stroke-width="0.6"/>
<path d="M202.474 157.058L189.254 149.724C190.077 147.821 190.533 145.731 190.533 143.53C190.533 138.83 188.439 134.603 185.14 131.723L196.367 107.069C197.069 105.532 196.388 103.718 194.835 103.023C193.292 102.327 191.469 103.008 190.774 104.545L179.795 128.654C178.209 128.123 176.518 127.831 174.757 127.831C166.058 127.831 158.978 134.872 158.978 143.53C158.978 152.19 166.056 159.234 174.757 159.234C179.028 159.234 182.908 157.532 185.755 154.774L199.485 162.391C199.963 162.659 200.477 162.784 200.987 162.784C202.057 162.784 203.108 162.218 203.668 161.215C204.49 159.74 203.958 157.876 202.474 157.057V157.058ZM174.753 153.125C169.442 153.125 165.116 148.821 165.116 143.53C165.116 138.246 169.442 133.942 174.753 133.942C180.071 133.942 184.396 138.246 184.396 143.53C184.392 148.821 180.07 153.125 174.753 153.125Z" fill="#5E6C84" stroke="#5E6C84" stroke-width="0.6"/>
<path d="M174.754 90.8045C176.449 90.8045 177.827 89.4365 177.827 87.7517V82.4056C177.827 80.7188 176.451 79.3508 174.754 79.3508C173.061 79.3508 171.687 80.7188 171.687 82.4056V87.7517C171.687 89.4365 173.061 90.8045 174.754 90.8045Z" fill="#5E6C84" stroke="#5E6C84" stroke-width="0.6"/>
<path d="M174.754 196.254C173.061 196.254 171.687 197.62 171.687 199.307V204.651C171.687 206.34 173.061 207.71 174.754 207.71C176.449 207.71 177.827 206.342 177.827 204.651V199.307C177.827 197.62 176.449 196.254 174.754 196.254Z" fill="#5E6C84" stroke="#5E6C84" stroke-width="0.6"/>
<path d="M236.17 140.474H230.804C229.109 140.474 227.73 141.84 227.73 143.529C227.73 145.218 229.107 146.588 230.804 146.588H236.17C237.865 146.588 239.24 145.22 239.24 143.529C239.24 141.842 237.865 140.474 236.17 140.474V140.474Z" fill="#5E6C84" stroke="#5E6C84" stroke-width="0.6"/>
<path d="M118.709 140.474H113.338C111.643 140.474 110.265 141.84 110.265 143.529C110.265 145.218 111.641 146.588 113.338 146.588H118.709C120.402 146.588 121.778 145.22 121.778 143.529C121.78 141.842 120.406 140.474 118.709 140.474Z" fill="#5E6C84" stroke="#5E6C84" stroke-width="0.6"/>
<path d="M55.0127 158.459C55.0127 156.772 53.6386 155.41 51.9436 155.41H45.075C43.3799 155.41 42.0059 156.772 42.0059 158.459C42.0059 160.148 43.38 161.518 45.075 161.518H51.9436C53.6386 161.52 55.0127 160.152 55.0127 158.459Z" fill="#5E6C84" stroke="#5E6C84" stroke-width="0.6"/>
</svg>
