<svg xmlns="http://www.w3.org/2000/svg" width="590" height="304" viewBox="0 0 590 304" fill="none"><rect x="1" y="1" width="568" height="302" rx="10" fill="#F8FAFF" stroke="#2684FF" stroke-width="2"></rect><path d="M268.538 59.1477C268.141 56.6591 266.192 55.2045 263.732 55.2045C260.72 55.2045 258.499 57.4602 258.499 61.1818C258.499 64.9034 260.709 67.1591 263.732 67.1591C266.288 67.1591 268.158 65.5568 268.538 63.2557L266.766 63.25C266.465 64.7386 265.215 65.5568 263.743 65.5568C261.749 65.5568 260.243 64.0284 260.243 61.1818C260.243 58.358 261.743 56.8068 263.749 56.8068C265.232 56.8068 266.476 57.642 266.766 59.1477H268.538ZM276.031 63.3807C276.037 64.8636 274.935 65.5682 273.98 65.5682C272.929 65.5682 272.202 64.8068 272.202 63.6193V58.2727H270.503V63.8239C270.503 65.9886 271.69 67.1136 273.366 67.1136C274.679 67.1136 275.571 66.4205 275.974 65.4886H276.065V67H277.736V58.2727H276.031V63.3807ZM286.558 60.4034C286.206 59.0455 285.143 58.1591 283.257 58.1591C281.286 58.1591 279.888 59.1989 279.888 60.7443C279.888 61.983 280.638 62.8068 282.274 63.1705L283.751 63.4943C284.592 63.6818 284.984 64.0568 284.984 64.6023C284.984 65.2784 284.263 65.8068 283.149 65.8068C282.132 65.8068 281.479 65.3693 281.274 64.5114L279.632 64.7614C279.916 66.3068 281.2 67.1761 283.161 67.1761C285.268 67.1761 286.729 66.0568 286.729 64.4773C286.729 63.2443 285.945 62.483 284.342 62.1136L282.956 61.7955C281.996 61.5682 281.581 61.2443 281.587 60.6534C281.581 59.983 282.308 59.5057 283.274 59.5057C284.331 59.5057 284.82 60.0909 285.018 60.6761L286.558 60.4034ZM292.67 58.2727H290.881V56.1818H289.182V58.2727H287.903V59.6364H289.182V64.7898C289.176 66.375 290.386 67.142 291.727 67.1136C292.267 67.108 292.631 67.0057 292.83 66.9318L292.523 65.5284C292.409 65.5511 292.199 65.6023 291.926 65.6023C291.375 65.6023 290.881 65.4205 290.881 64.4375V59.6364H292.67V58.2727ZM298.132 67.1761C300.592 67.1761 302.2 65.375 302.2 62.6761C302.2 59.9602 300.592 58.1591 298.132 58.1591C295.672 58.1591 294.064 59.9602 294.064 62.6761C294.064 65.375 295.672 67.1761 298.132 67.1761ZM298.138 65.75C296.53 65.75 295.78 64.3466 295.78 62.6705C295.78 61 296.53 59.5795 298.138 59.5795C299.734 59.5795 300.484 61 300.484 62.6705C300.484 64.3466 299.734 65.75 298.138 65.75ZM304.097 67H305.795V61.6193C305.795 60.4432 306.619 59.625 307.585 59.625C308.528 59.625 309.182 60.25 309.182 61.1989V67H310.875V61.4375C310.875 60.3864 311.517 59.625 312.625 59.625C313.523 59.625 314.261 60.125 314.261 61.3068V67H315.96V61.1477C315.96 59.1534 314.847 58.1591 313.267 58.1591C312.011 58.1591 311.068 58.7614 310.648 59.6932H310.557C310.176 58.7386 309.375 58.1591 308.21 58.1591C307.057 58.1591 306.199 58.733 305.835 59.6932H305.727V58.2727H304.097V67ZM321.999 67.1761C323.902 67.1761 325.249 66.2386 325.635 64.8182L324.027 64.5284C323.72 65.3523 322.982 65.7727 322.016 65.7727C320.561 65.7727 319.584 64.8295 319.538 63.1477H325.743V62.5455C325.743 59.392 323.857 58.1591 321.879 58.1591C319.447 58.1591 317.845 60.0114 317.845 62.6932C317.845 65.4034 319.425 67.1761 321.999 67.1761ZM319.544 61.875C319.612 60.6364 320.51 59.5625 321.891 59.5625C323.209 59.5625 324.072 60.5398 324.078 61.875H319.544ZM327.628 67H329.327V61.6705C329.327 60.5284 330.207 59.7045 331.412 59.7045C331.764 59.7045 332.162 59.767 332.298 59.8068V58.1818C332.128 58.1591 331.793 58.142 331.577 58.142C330.554 58.142 329.679 58.7216 329.361 59.6591H329.27V58.2727H327.628V67ZM348.247 61.1818C348.247 57.4602 346.02 55.2045 343.009 55.2045C339.986 55.2045 337.764 57.4602 337.764 61.1818C337.764 64.8977 339.986 67.1591 343.009 67.1591C346.02 67.1591 348.247 64.9034 348.247 61.1818ZM346.509 61.1818C346.509 64.017 345.009 65.5568 343.009 65.5568C341.003 65.5568 339.509 64.017 339.509 61.1818C339.509 58.3466 341.003 56.8068 343.009 56.8068C345.009 56.8068 346.509 58.3466 346.509 61.1818ZM351.999 61.8182C351.999 60.4261 352.851 59.6307 354.033 59.6307C355.186 59.6307 355.885 60.3864 355.885 61.6534V67H357.584V61.4489C357.584 59.2898 356.396 58.1591 354.612 58.1591C353.3 58.1591 352.442 58.767 352.038 59.6932H351.93V58.2727H350.3V67H351.999V61.8182ZM365.004 61.3466H359.845V62.8182H365.004V61.3466ZM367.405 67H369.161V62.9091H371.547C374.246 62.9091 375.581 61.2784 375.581 59.1307C375.581 56.9886 374.257 55.3636 371.553 55.3636H367.405V67ZM369.161 61.4205V56.8693H371.365C373.104 56.8693 373.814 57.8125 373.814 59.1307C373.814 60.4489 373.104 61.4205 371.388 61.4205H369.161ZM377.503 67H379.202V61.6705C379.202 60.5284 380.082 59.7045 381.287 59.7045C381.639 59.7045 382.037 59.767 382.173 59.8068V58.1818C382.003 58.1591 381.668 58.142 381.452 58.142C380.429 58.142 379.554 58.7216 379.236 59.6591H379.145V58.2727H377.503V67ZM387.092 67.1761C388.996 67.1761 390.342 66.2386 390.729 64.8182L389.121 64.5284C388.814 65.3523 388.075 65.7727 387.109 65.7727C385.655 65.7727 384.678 64.8295 384.632 63.1477H390.837V62.5455C390.837 59.392 388.95 58.1591 386.973 58.1591C384.541 58.1591 382.939 60.0114 382.939 62.6932C382.939 65.4034 384.518 67.1761 387.092 67.1761ZM384.638 61.875C384.706 60.6364 385.604 59.5625 386.984 59.5625C388.303 59.5625 389.166 60.5398 389.172 61.875H384.638ZM392.722 67H394.42V61.6193C394.42 60.4432 395.244 59.625 396.21 59.625C397.153 59.625 397.807 60.25 397.807 61.1989V67H399.5V61.4375C399.5 60.3864 400.142 59.625 401.25 59.625C402.148 59.625 402.886 60.125 402.886 61.3068V67H404.585V61.1477C404.585 59.1534 403.472 58.1591 401.892 58.1591C400.636 58.1591 399.693 58.7614 399.273 59.6932H399.182C398.801 58.7386 398 58.1591 396.835 58.1591C395.682 58.1591 394.824 58.733 394.46 59.6932H394.352V58.2727H392.722V67ZM415.528 54.8182H414.011L410.261 68.75H411.778L415.528 54.8182ZM422.359 55.3636H420.462L424.649 67H426.678L430.865 55.3636H428.967L425.729 64.8409H425.598L422.359 55.3636ZM432.545 67H434.301V62.9091H436.688C439.386 62.9091 440.722 61.2784 440.722 59.1307C440.722 56.9886 439.398 55.3636 436.693 55.3636H432.545V67ZM434.301 61.4205V56.8693H436.506C438.244 56.8693 438.955 57.8125 438.955 59.1307C438.955 60.4489 438.244 61.4205 436.528 61.4205H434.301ZM452.445 59.1477C452.047 56.6591 450.098 55.2045 447.638 55.2045C444.626 55.2045 442.405 57.4602 442.405 61.1818C442.405 64.9034 444.615 67.1591 447.638 67.1591C450.195 67.1591 452.064 65.5568 452.445 63.2557L450.672 63.25C450.371 64.7386 449.121 65.5568 447.649 65.5568C445.655 65.5568 444.149 64.0284 444.149 61.1818C444.149 58.358 445.649 56.8068 447.655 56.8068C449.138 56.8068 450.382 57.642 450.672 59.1477H452.445Z" fill="black"></path><path d="M65.5284 67H72.5568V65.4886H67.2841V55.3636H65.5284V67ZM78.1847 67.1761C80.0881 67.1761 81.4347 66.2386 81.821 64.8182L80.2131 64.5284C79.9062 65.3523 79.1676 65.7727 78.2017 65.7727C76.7472 65.7727 75.7699 64.8295 75.7244 63.1477H81.929V62.5455C81.929 59.392 80.0426 58.1591 78.0653 58.1591C75.6335 58.1591 74.0312 60.0114 74.0312 62.6932C74.0312 65.4034 75.6108 67.1761 78.1847 67.1761ZM75.7301 61.875C75.7983 60.6364 76.696 59.5625 78.0767 59.5625C79.3949 59.5625 80.2585 60.5398 80.2642 61.875H75.7301ZM91.0142 58.2727H89.1903L86.9858 64.9886H86.8949L84.6847 58.2727H82.8608L86.0312 67H87.8494L91.0142 58.2727ZM95.9744 67.1761C98.4347 67.1761 100.043 65.375 100.043 62.6761C100.043 59.9602 98.4347 58.1591 95.9744 58.1591C93.5142 58.1591 91.9062 59.9602 91.9062 62.6761C91.9062 65.375 93.5142 67.1761 95.9744 67.1761ZM95.9801 65.75C94.3722 65.75 93.6222 64.3466 93.6222 62.6705C93.6222 61 94.3722 59.5795 95.9801 59.5795C97.5767 59.5795 98.3267 61 98.3267 62.6705C98.3267 64.3466 97.5767 65.75 95.9801 65.75ZM103.058 67.108C103.678 67.108 104.195 66.6023 104.195 65.9716C104.195 65.3523 103.678 64.8409 103.058 64.8409C102.433 64.8409 101.922 65.3523 101.922 65.9716C101.922 66.6023 102.433 67.108 103.058 67.108ZM109.01 67.1932C110.453 67.1932 111.266 66.4602 111.589 65.8068H111.658V67H113.317V61.2045C113.317 58.6648 111.317 58.1591 109.93 58.1591C108.351 58.1591 106.896 58.7955 106.328 60.3864L107.925 60.75C108.175 60.1307 108.811 59.5341 109.953 59.5341C111.05 59.5341 111.612 60.108 111.612 61.0966V61.1364C111.612 61.7557 110.976 61.7443 109.408 61.9261C107.754 62.1193 106.061 62.5511 106.061 64.5341C106.061 66.25 107.351 67.1932 109.01 67.1932ZM109.379 65.8295C108.419 65.8295 107.726 65.3977 107.726 64.5568C107.726 63.6477 108.533 63.3239 109.516 63.1932C110.067 63.1193 111.374 62.9716 111.618 62.7273V63.8523C111.618 64.8864 110.794 65.8295 109.379 65.8295ZM115.58 67H117.278V58.2727H115.58V67ZM116.438 56.9261C117.023 56.9261 117.511 56.4716 117.511 55.9148C117.511 55.358 117.023 54.8977 116.438 54.8977C115.847 54.8977 115.364 55.358 115.364 55.9148C115.364 56.4716 115.847 56.9261 116.438 56.9261ZM130.281 58.4205H131.974C131.923 56.5568 130.276 55.2045 127.912 55.2045C125.577 55.2045 123.787 56.5398 123.787 58.5455C123.787 60.1648 124.946 61.1136 126.815 61.6193L128.19 61.9943C129.435 62.3239 130.395 62.733 130.395 63.767C130.395 64.9034 129.31 65.6534 127.815 65.6534C126.463 65.6534 125.338 65.0511 125.236 63.7841H123.474C123.588 65.892 125.219 67.1932 127.827 67.1932C130.56 67.1932 132.134 65.7557 132.134 63.7841C132.134 61.6875 130.264 60.875 128.787 60.5114L127.651 60.2159C126.741 59.983 125.531 59.5568 125.537 58.4432C125.537 57.4545 126.44 56.7216 127.872 56.7216C129.207 56.7216 130.156 57.3466 130.281 58.4205ZM136.635 67.1932C138.078 67.1932 138.891 66.4602 139.214 65.8068H139.283V67H140.942V61.2045C140.942 58.6648 138.942 58.1591 137.555 58.1591C135.976 58.1591 134.521 58.7955 133.953 60.3864L135.55 60.75C135.8 60.1307 136.436 59.5341 137.578 59.5341C138.675 59.5341 139.237 60.108 139.237 61.0966V61.1364C139.237 61.7557 138.601 61.7443 137.033 61.9261C135.379 62.1193 133.686 62.5511 133.686 64.5341C133.686 66.25 134.976 67.1932 136.635 67.1932ZM137.004 65.8295C136.044 65.8295 135.351 65.3977 135.351 64.5568C135.351 63.6477 136.158 63.3239 137.141 63.1932C137.692 63.1193 138.999 62.9716 139.243 62.7273V63.8523C139.243 64.8864 138.419 65.8295 137.004 65.8295ZM145.744 67.1932C147.188 67.1932 148 66.4602 148.324 65.8068H148.392V67H150.051V61.2045C150.051 58.6648 148.051 58.1591 146.665 58.1591C145.085 58.1591 143.631 58.7955 143.062 60.3864L144.659 60.75C144.909 60.1307 145.545 59.5341 146.688 59.5341C147.784 59.5341 148.347 60.108 148.347 61.0966V61.1364C148.347 61.7557 147.71 61.7443 146.142 61.9261C144.489 62.1193 142.795 62.5511 142.795 64.5341C142.795 66.25 144.085 67.1932 145.744 67.1932ZM146.114 65.8295C145.153 65.8295 144.46 65.3977 144.46 64.5568C144.46 63.6477 145.267 63.3239 146.25 63.1932C146.801 63.1193 148.108 62.9716 148.352 62.7273V63.8523C148.352 64.8864 147.528 65.8295 146.114 65.8295ZM158.854 60.4034C158.501 59.0455 157.439 58.1591 155.553 58.1591C153.581 58.1591 152.183 59.1989 152.183 60.7443C152.183 61.983 152.933 62.8068 154.57 63.1705L156.047 63.4943C156.888 63.6818 157.28 64.0568 157.28 64.6023C157.28 65.2784 156.558 65.8068 155.445 65.8068C154.428 65.8068 153.774 65.3693 153.57 64.5114L151.928 64.7614C152.212 66.3068 153.496 67.1761 155.456 67.1761C157.564 67.1761 159.024 66.0568 159.024 64.4773C159.024 63.2443 158.24 62.483 156.638 62.1136L155.251 61.7955C154.291 61.5682 153.876 61.2443 153.882 60.6534C153.876 59.983 154.604 59.5057 155.57 59.5057C156.626 59.5057 157.115 60.0909 157.314 60.6761L158.854 60.4034Z" fill="black"></path><rect x="190" y="85" width="327" height="171" rx="4" fill="#05193A"></rect><rect x="57" y="98" width="108" height="139" rx="5" stroke="#C1C7D0" stroke-width="2"></rect><path d="M342.747 153.173C338.551 161.39 330.074 167.089 320.212 167.419L323.359 171.507L319.918 175.264C330.871 175.058 340.607 169.731 346.734 161.679C346.272 160.977 345.853 160.234 345.433 159.491C344.342 157.468 343.419 155.362 342.747 153.173Z" fill="#DFE1E6"></path><path d="M312.739 166.634C301.408 163.785 292.973 153.668 292.973 141.611C292.973 128.192 303.423 117.084 316.768 115.887L313.495 112.212L316.81 108C299.058 109.239 285 123.815 285 141.611C285 158.128 297.128 171.878 313.075 174.727L316.306 171.217L312.739 166.634Z" fill="#2684FF"></path><path d="M377.911 167.378C376.987 168.534 369.685 165.52 368.594 164.983C365.657 163.62 363.013 161.721 360.789 159.45C356.634 155.156 354.578 149.54 353.613 143.759C352.564 137.565 352.606 131.537 349.542 125.839C349.332 125.426 349.08 125.013 348.829 124.6C348.745 124.476 348.703 124.393 348.619 124.27C348.409 123.939 348.199 123.568 347.947 123.237C347.905 123.155 347.863 123.113 347.821 123.031C347.528 122.618 347.276 122.205 346.982 121.833C346.94 121.792 346.898 121.71 346.856 121.668C346.604 121.297 346.311 120.966 346.017 120.636C345.975 120.595 345.933 120.512 345.891 120.471C345.262 119.686 344.548 118.902 343.835 118.2C343.793 118.158 343.793 118.158 343.751 118.117C342.995 117.374 342.24 116.672 341.443 115.97C336.491 111.841 330.364 109.033 323.607 108.166L320.586 112.006L324.363 116.259C331.455 117.622 337.498 121.833 341.317 127.573L341.359 127.614C343.919 132.074 344.17 133.023 345.346 138.35C346.185 142.149 345.639 144.379 346.898 149.829C348.115 155.238 348.241 154.99 349.542 157.344C349.71 157.674 349.878 157.963 350.046 158.294C350.13 158.418 350.172 158.542 350.255 158.624C350.381 158.831 350.465 158.996 350.591 159.202C350.675 159.367 350.759 159.491 350.885 159.656C350.969 159.822 351.095 159.945 351.179 160.111C351.305 160.276 351.389 160.441 351.514 160.606C351.598 160.73 351.682 160.854 351.766 160.978C351.892 161.143 352.018 161.308 352.144 161.515C352.228 161.638 352.312 161.721 352.396 161.804C352.522 161.969 352.689 162.175 352.815 162.34C352.899 162.423 352.941 162.506 353.025 162.588C353.193 162.795 353.361 163.001 353.529 163.166C353.571 163.207 353.613 163.29 353.655 163.331C353.823 163.538 354.032 163.744 354.2 163.992C360.243 170.681 368.93 174.976 378.624 175.306L374.931 171.177L377.911 167.378Z" fill="#EF5DA8"></path><path d="M356.252 130.051C359.987 122.742 367.079 117.416 375.556 116.094L379.082 112.172L375.892 108.125C366.24 109.199 357.805 114.236 352.266 121.504C352.727 122.206 353.147 122.949 353.567 123.692C354.658 125.757 355.581 127.862 356.252 130.051Z" fill="#DFE1E6"></path><path d="M382.736 108.04L386.135 112.376L382.946 115.968C395.913 117.537 406.027 128.438 406.027 141.61C406.027 141.899 406.027 142.147 405.985 142.436C405.607 154.493 396.794 164.486 385.17 166.881L381.98 170.927L385.422 174.809C401.327 172.166 413.538 158.705 413.958 142.395C413.958 142.106 414 141.858 414 141.569C414 124.02 400.235 109.527 382.736 108.04Z" fill="#2684FF"></path><path d="M321.628 139.014C321.284 136.158 319.123 134.516 316.262 134.516C312.996 134.516 310.502 136.822 310.502 140.867C310.502 144.9 312.953 147.218 316.262 147.218C319.431 147.218 321.345 145.111 321.628 142.835L318.984 142.823C318.737 144.145 317.698 144.906 316.304 144.906C314.426 144.906 313.153 143.511 313.153 140.867C313.153 138.295 314.408 136.828 316.322 136.828C317.753 136.828 318.785 137.655 318.984 139.014H321.628ZM325.947 134.685H323.333V147.049H325.947V134.685Z" fill="#C1C7D0"></path><path d="M379.525 139.014C379.181 136.158 377.02 134.516 374.159 134.516C370.893 134.516 368.399 136.822 368.399 140.867C368.399 144.9 370.85 147.218 374.159 147.218C377.328 147.218 379.242 145.111 379.525 142.835L376.881 142.823C376.634 144.145 375.595 144.906 374.201 144.906C372.323 144.906 371.05 143.511 371.05 140.867C371.05 138.295 372.305 136.828 374.219 136.828C375.65 136.828 376.682 137.655 376.881 139.014H379.525ZM385.613 147.049C389.38 147.049 391.662 144.719 391.662 140.855C391.662 137.003 389.38 134.685 385.649 134.685H381.23V147.049H385.613ZM383.844 144.809V136.925H385.51C387.828 136.925 389.054 138.108 389.054 140.855C389.054 143.614 387.828 144.809 385.504 144.809H383.844Z" fill="#C1C7D0"></path><rect x="213.5" y="196.665" width="119" height="30" rx="1.5" fill="#091E42" stroke="#F4F5F7"></rect><path d="M221.154 216H226.864V214.772H222.58V206.545H221.154V216ZM231.307 216.143C232.854 216.143 233.948 215.381 234.262 214.227L232.955 213.992C232.706 214.661 232.106 215.003 231.321 215.003C230.139 215.003 229.345 214.237 229.308 212.87H234.349V212.381C234.349 209.819 232.817 208.817 231.21 208.817C229.234 208.817 227.932 210.322 227.932 212.501C227.932 214.703 229.216 216.143 231.307 216.143ZM229.313 211.836C229.368 210.83 230.098 209.957 231.219 209.957C232.29 209.957 232.992 210.751 232.997 211.836H229.313ZM241.601 208.909H240.119L238.328 214.366H238.254L236.458 208.909H234.976L237.552 216H239.03L241.601 208.909ZM245.501 216.143C247.5 216.143 248.807 214.68 248.807 212.487C248.807 210.28 247.5 208.817 245.501 208.817C243.502 208.817 242.196 210.28 242.196 212.487C242.196 214.68 243.502 216.143 245.501 216.143ZM245.506 214.984C244.199 214.984 243.59 213.844 243.59 212.482C243.59 211.125 244.199 209.971 245.506 209.971C246.803 209.971 247.412 211.125 247.412 212.482C247.412 213.844 246.803 214.984 245.506 214.984ZM253.172 207.773H256.118V216H257.54V207.773H260.489V206.545H253.172V207.773ZM263.893 216.143C265.44 216.143 266.534 215.381 266.848 214.227L265.541 213.992C265.292 214.661 264.692 215.003 263.907 215.003C262.725 215.003 261.931 214.237 261.894 212.87H266.936V212.381C266.936 209.819 265.403 208.817 263.796 208.817C261.821 208.817 260.519 210.322 260.519 212.501C260.519 214.703 261.802 216.143 263.893 216.143ZM261.899 211.836C261.954 210.83 262.684 209.957 263.806 209.957C264.877 209.957 265.578 210.751 265.583 211.836H261.899ZM273.651 210.64C273.364 209.537 272.501 208.817 270.969 208.817C269.367 208.817 268.231 209.662 268.231 210.917C268.231 211.924 268.84 212.593 270.17 212.888L271.37 213.152C272.053 213.304 272.372 213.609 272.372 214.052C272.372 214.601 271.786 215.031 270.881 215.031C270.054 215.031 269.524 214.675 269.357 213.978L268.023 214.181C268.254 215.437 269.297 216.143 270.89 216.143C272.603 216.143 273.789 215.234 273.789 213.95C273.789 212.949 273.152 212.33 271.85 212.03L270.724 211.771C269.944 211.587 269.607 211.324 269.611 210.843C269.607 210.299 270.198 209.911 270.982 209.911C271.841 209.911 272.238 210.386 272.4 210.862L273.651 210.64ZM278.487 208.909H277.033V207.21H275.652V208.909H274.614V210.017H275.652V214.204C275.648 215.492 276.631 216.115 277.721 216.092C278.159 216.088 278.455 216.005 278.616 215.945L278.367 214.804C278.275 214.823 278.104 214.864 277.882 214.864C277.434 214.864 277.033 214.717 277.033 213.918V210.017H278.487V208.909ZM283.305 216H284.732V212.422H286.67C286.703 212.422 286.73 212.422 286.763 212.422L288.683 216H290.308L288.212 212.173C289.371 211.744 289.948 210.779 289.948 209.509C289.948 207.769 288.868 206.545 286.675 206.545H283.305V216ZM284.732 211.194V207.769H286.523C287.931 207.769 288.512 208.438 288.512 209.509C288.512 210.576 287.931 211.194 286.541 211.194H284.732ZM295.935 213.059C295.94 214.264 295.044 214.837 294.268 214.837C293.414 214.837 292.823 214.218 292.823 213.253V208.909H291.443V213.419C291.443 215.178 292.408 216.092 293.77 216.092C294.836 216.092 295.561 215.529 295.889 214.772H295.963V216H297.32V208.909H295.935V213.059ZM300.425 211.79C300.425 210.659 301.117 210.012 302.078 210.012C303.015 210.012 303.583 210.626 303.583 211.656V216H304.963V211.49C304.963 209.735 303.998 208.817 302.548 208.817C301.482 208.817 300.785 209.311 300.457 210.063H300.37V208.909H299.045V216H300.425V211.79ZM308.064 211.79C308.064 210.659 308.757 210.012 309.717 210.012C310.654 210.012 311.222 210.626 311.222 211.656V216H312.602V211.49C312.602 209.735 311.638 208.817 310.188 208.817C309.122 208.817 308.425 209.311 308.097 210.063H308.009V208.909H306.684V216H308.064V211.79ZM317.38 216.143C318.926 216.143 320.02 215.381 320.334 214.227L319.028 213.992C318.779 214.661 318.178 215.003 317.394 215.003C316.212 215.003 315.418 214.237 315.381 212.87H320.422V212.381C320.422 209.819 318.889 208.817 317.283 208.817C315.307 208.817 314.005 210.322 314.005 212.501C314.005 214.703 315.288 216.143 317.38 216.143ZM315.385 211.836C315.441 210.83 316.17 209.957 317.292 209.957C318.363 209.957 319.065 210.751 319.069 211.836H315.385ZM321.824 216H323.204V211.67C323.204 210.742 323.919 210.072 324.898 210.072C325.184 210.072 325.507 210.123 325.618 210.156V208.835C325.48 208.817 325.207 208.803 325.032 208.803C324.201 208.803 323.49 209.274 323.232 210.036H323.158V208.909H321.824V216Z" fill="#F4F5F7"></path><rect x="381.336" y="189" width="120.018" height="25.2936" rx="1" fill="#05193A" stroke="#05193A" stroke-width="2"></rect><path d="M405.119 207H406.655V203.42H408.743C411.104 203.42 412.273 201.994 412.273 200.114C412.273 198.24 411.114 196.818 408.748 196.818H405.119V207ZM406.655 202.118V198.136H408.584C410.105 198.136 410.727 198.961 410.727 200.114C410.727 201.268 410.105 202.118 408.604 202.118H406.655ZM413.814 207H415.301V202.337C415.301 201.337 416.071 200.616 417.125 200.616C417.434 200.616 417.782 200.671 417.901 200.706V199.284C417.752 199.264 417.459 199.249 417.27 199.249C416.375 199.249 415.609 199.756 415.331 200.577H415.251V199.364H413.814V207ZM422.065 207.154C423.731 207.154 424.909 206.334 425.247 205.091L423.84 204.837C423.572 205.558 422.925 205.926 422.08 205.926C420.807 205.926 419.952 205.101 419.912 203.629H425.341V203.102C425.341 200.343 423.691 199.264 421.961 199.264C419.833 199.264 418.431 200.885 418.431 203.232C418.431 205.603 419.813 207.154 422.065 207.154ZM419.917 202.516C419.977 201.432 420.763 200.492 421.971 200.492C423.124 200.492 423.88 201.347 423.885 202.516H419.917ZM431.35 202.053H426.836V203.341H431.35V202.053ZM433.311 207H434.847V203.42H436.935C439.296 203.42 440.465 201.994 440.465 200.114C440.465 198.24 439.306 196.818 436.94 196.818H433.311V207ZM434.847 202.118V198.136H436.776C438.297 198.136 438.919 198.961 438.919 200.114C438.919 201.268 438.297 202.118 436.796 202.118H434.847ZM442.006 207H443.493V202.337C443.493 201.337 444.263 200.616 445.317 200.616C445.626 200.616 445.974 200.671 446.093 200.706V199.284C445.944 199.264 445.65 199.249 445.462 199.249C444.567 199.249 443.801 199.756 443.523 200.577H443.443V199.364H442.006V207ZM450.183 207.154C452.335 207.154 453.742 205.578 453.742 203.217C453.742 200.84 452.335 199.264 450.183 199.264C448.03 199.264 446.623 200.84 446.623 203.217C446.623 205.578 448.03 207.154 450.183 207.154ZM450.188 205.906C448.781 205.906 448.124 204.678 448.124 203.212C448.124 201.75 448.781 200.507 450.188 200.507C451.585 200.507 452.241 201.75 452.241 203.212C452.241 204.678 451.585 205.906 450.188 205.906ZM458.12 207.149C459.512 207.149 460.059 206.299 460.328 205.812H460.452V207H461.904V196.818H460.417V200.602H460.328C460.059 200.129 459.552 199.264 458.13 199.264C456.286 199.264 454.928 200.721 454.928 203.197C454.928 205.668 456.266 207.149 458.12 207.149ZM458.448 205.881C457.121 205.881 456.43 204.713 456.43 203.182C456.43 201.665 457.106 200.527 458.448 200.527C459.746 200.527 460.442 201.586 460.442 203.182C460.442 204.788 459.731 205.881 458.448 205.881ZM468.723 203.833C468.727 205.131 467.763 205.747 466.928 205.747C466.008 205.747 465.372 205.081 465.372 204.042V199.364H463.885V204.221C463.885 206.115 464.924 207.099 466.391 207.099C467.539 207.099 468.32 206.493 468.673 205.678H468.752V207H470.214V199.364H468.723V203.833ZM475.288 207.154C477.093 207.154 478.261 206.07 478.425 204.584H476.978C476.789 205.409 476.148 205.896 475.298 205.896C474.04 205.896 473.23 204.847 473.23 203.182C473.23 201.546 474.055 200.517 475.298 200.517C476.242 200.517 476.819 201.114 476.978 201.83H478.425C478.266 200.288 477.008 199.264 475.273 199.264C473.12 199.264 471.728 200.885 471.728 203.217C471.728 205.518 473.071 207.154 475.288 207.154ZM483.439 199.364H481.873V197.534H480.387V199.364H479.268V200.557H480.387V205.066C480.382 206.453 481.441 207.124 482.614 207.099C483.086 207.094 483.405 207.005 483.579 206.94L483.31 205.712C483.211 205.732 483.027 205.777 482.788 205.777C482.306 205.777 481.873 205.618 481.873 204.758V200.557H483.439V199.364ZM484.944 207H486.43V199.364H484.944V207ZM485.694 198.185C486.206 198.185 486.634 197.788 486.634 197.3C486.634 196.813 486.206 196.411 485.694 196.411C485.177 196.411 484.755 196.813 484.755 197.3C484.755 197.788 485.177 198.185 485.694 198.185ZM491.507 207.154C493.659 207.154 495.066 205.578 495.066 203.217C495.066 200.84 493.659 199.264 491.507 199.264C489.354 199.264 487.947 200.84 487.947 203.217C487.947 205.578 489.354 207.154 491.507 207.154ZM491.512 205.906C490.105 205.906 489.448 204.678 489.448 203.212C489.448 201.75 490.105 200.507 491.512 200.507C492.909 200.507 493.565 201.75 493.565 203.212C493.565 204.678 492.909 205.906 491.512 205.906ZM498.072 202.466C498.072 201.248 498.818 200.552 499.852 200.552C500.861 200.552 501.473 201.213 501.473 202.322V207H502.959V202.143C502.959 200.254 501.92 199.264 500.359 199.264C499.211 199.264 498.46 199.796 498.107 200.607H498.012V199.364H496.586V207H498.072V202.466Z" fill="#F4F5F7"></path><path d="M405.119 225.165H406.655V221.586H408.743C411.104 221.586 412.273 220.159 412.273 218.28C412.273 216.405 411.114 214.983 408.748 214.983H405.119V225.165ZM406.655 220.283V216.301H408.584C410.105 216.301 410.727 217.126 410.727 218.28C410.727 219.433 410.105 220.283 408.604 220.283H406.655ZM413.814 225.165H415.301V220.502C415.301 219.503 416.071 218.782 417.125 218.782C417.434 218.782 417.782 218.836 417.901 218.871V217.449C417.752 217.429 417.459 217.414 417.27 217.414C416.375 217.414 415.609 217.922 415.331 218.742H415.251V217.529H413.814V225.165ZM421.991 225.319C424.143 225.319 425.55 223.743 425.55 221.382C425.55 219.005 424.143 217.429 421.991 217.429C419.838 217.429 418.431 219.005 418.431 221.382C418.431 223.743 419.838 225.319 421.991 225.319ZM421.996 224.071C420.589 224.071 419.932 222.843 419.932 221.377C419.932 219.915 420.589 218.672 421.996 218.672C423.393 218.672 424.049 219.915 424.049 221.377C424.049 222.843 423.393 224.071 421.996 224.071ZM429.928 225.314C431.32 225.314 431.867 224.464 432.136 223.977H432.26V225.165H433.712V214.983H432.225V218.767H432.136C431.867 218.294 431.36 217.429 429.938 217.429C428.094 217.429 426.736 218.886 426.736 221.362C426.736 223.833 428.074 225.314 429.928 225.314ZM430.256 224.047C428.929 224.047 428.238 222.878 428.238 221.347C428.238 219.831 428.914 218.692 430.256 218.692C431.554 218.692 432.25 219.751 432.25 221.347C432.25 222.953 431.539 224.047 430.256 224.047ZM440.531 221.998C440.536 223.296 439.571 223.912 438.736 223.912C437.816 223.912 437.18 223.246 437.18 222.207V217.529H435.693V222.386C435.693 224.28 436.732 225.265 438.199 225.265C439.347 225.265 440.128 224.658 440.481 223.843H440.56V225.165H442.022V217.529H440.531V221.998ZM447.096 225.319C448.901 225.319 450.069 224.235 450.233 222.749H448.786C448.597 223.574 447.956 224.061 447.106 224.061C445.848 224.061 445.038 223.012 445.038 221.347C445.038 219.711 445.863 218.682 447.106 218.682C448.051 218.682 448.627 219.279 448.786 219.995H450.233C450.074 218.454 448.816 217.429 447.081 217.429C444.928 217.429 443.536 219.05 443.536 221.382C443.536 223.684 444.879 225.319 447.096 225.319ZM455.247 217.529H453.681V215.699H452.195V217.529H451.076V218.722H452.195V223.231C452.19 224.618 453.249 225.289 454.422 225.265C454.894 225.26 455.213 225.17 455.387 225.106L455.118 223.878C455.019 223.897 454.835 223.942 454.596 223.942C454.114 223.942 453.681 223.783 453.681 222.923V218.722H455.247V217.529ZM456.752 225.165H458.238V217.529H456.752V225.165ZM457.502 216.351C458.014 216.351 458.442 215.953 458.442 215.466C458.442 214.978 458.014 214.576 457.502 214.576C456.985 214.576 456.563 214.978 456.563 215.466C456.563 215.953 456.985 216.351 457.502 216.351ZM463.315 225.319C465.467 225.319 466.874 223.743 466.874 221.382C466.874 219.005 465.467 217.429 463.315 217.429C461.162 217.429 459.755 219.005 459.755 221.382C459.755 223.743 461.162 225.319 463.315 225.319ZM463.32 224.071C461.913 224.071 461.256 222.843 461.256 221.377C461.256 219.915 461.913 218.672 463.32 218.672C464.717 218.672 465.373 219.915 465.373 221.377C465.373 222.843 464.717 224.071 463.32 224.071ZM469.88 220.631C469.88 219.413 470.626 218.717 471.66 218.717C472.669 218.717 473.281 219.378 473.281 220.487V225.165H474.767V220.308C474.767 218.419 473.728 217.429 472.167 217.429C471.019 217.429 470.268 217.961 469.915 218.772H469.82V217.529H468.394V225.165H469.88V220.631Z" fill="#F4F5F7"></path><path d="M393.238 219.45L384.097 222.812L384.056 216.2L393.238 219.45Z" fill="#B3D4FF"></path><path d="M393.238 202.982L384.097 206.344L384.056 199.732L393.238 202.982Z" fill="#B3D4FF"></path><path d="M333 203.165H384" stroke="#B3D4FF" stroke-width="1.2" stroke-linecap="round" stroke-dasharray="2 2"></path><path d="M333 220.165H384" stroke="#B3D4FF" stroke-width="1.2" stroke-linecap="round" stroke-dasharray="2 2"></path><path d="M164 176L191 176" stroke="#0065FF" stroke-width="1.2" stroke-linecap="round" stroke-dasharray="2 2"></path><path d="M161 175.817L170.162 172.511L170.162 179.123L161 175.817Z" fill="#0065FF"></path><path d="M70.9564 149.87C69.8759 147.118 71.2307 144.012 73.9823 142.931L119.758 124.956C122.509 123.876 125.616 125.231 126.696 127.982L151.886 192.13C152.966 194.882 151.611 197.988 148.86 199.069L103.084 217.044C100.333 218.124 97.2262 216.769 96.1457 214.018L70.9564 149.87Z" fill="#05193A"></path><path fill-rule="evenodd" clip-rule="evenodd" d="M120.369 126.513L74.5937 144.488C72.702 145.231 71.7706 147.367 72.5134 149.259L97.7027 213.406C98.4455 215.298 100.581 216.229 102.473 215.487L148.248 197.512C150.14 196.769 151.071 194.633 150.329 192.741L125.139 128.594C124.397 126.702 122.261 125.771 120.369 126.513ZM73.9823 142.931C71.2307 144.012 69.8759 147.118 70.9564 149.87L96.1457 214.018C97.2262 216.769 100.333 218.124 103.084 217.044L148.86 199.069C151.611 197.988 152.966 194.882 151.886 192.13L126.696 127.982C125.616 125.231 122.509 123.876 119.758 124.956L73.9823 142.931Z" fill="#DFE1E6"></path><path d="M122.648 135.757L91.8531 147.849C91.1748 148.116 90.8411 148.882 91.1077 149.561C91.3744 150.24 92.1403 150.574 92.8186 150.308L123.614 138.216C124.292 137.949 124.626 137.183 124.359 136.504C124.092 135.825 123.326 135.491 122.648 135.757Z" fill="#DFE1E6"></path><path fill-rule="evenodd" clip-rule="evenodd" d="M122.771 136.068L91.9754 148.161C91.4694 148.359 91.2199 148.931 91.4191 149.439C91.6184 149.946 92.1903 150.195 92.6963 149.997L123.491 137.904C123.997 137.706 124.247 137.134 124.048 136.626C123.848 136.119 123.276 135.87 122.771 136.068ZM91.8531 147.849L122.648 135.757C123.326 135.491 124.092 135.825 124.359 136.504C124.626 137.183 124.292 137.949 123.614 138.216L92.8186 150.308C92.1403 150.574 91.3744 150.24 91.1077 149.561C90.8411 148.882 91.1748 148.116 91.8531 147.849Z" fill="#DFE1E6"></path><path d="M128.574 151.76L97.7789 163.853C97.1006 164.119 96.7669 164.885 97.0335 165.564C97.3001 166.243 98.0661 166.578 98.7444 166.311L129.54 154.219C130.218 153.953 130.551 153.186 130.285 152.507C130.018 151.828 129.252 151.494 128.574 151.76Z" fill="#DFE1E6"></path><path fill-rule="evenodd" clip-rule="evenodd" d="M128.696 152.072L97.9011 164.164C97.3952 164.363 97.1457 164.935 97.3449 165.442C97.5441 165.949 98.1161 166.199 98.6221 166L129.417 153.908C129.923 153.709 130.173 153.137 129.973 152.63C129.774 152.122 129.202 151.873 128.696 152.072ZM97.7789 163.853L128.574 151.76C129.252 151.494 130.018 151.828 130.285 152.507C130.551 153.186 130.218 153.953 129.54 154.219L98.7444 166.311C98.0661 166.578 97.3001 166.243 97.0335 165.564C96.7669 164.885 97.1006 164.119 97.7789 163.853Z" fill="#DFE1E6"></path><path d="M134.812 167.641L104.017 179.734C103.339 180 103.005 180.767 103.272 181.446C103.538 182.125 104.304 182.459 104.983 182.193L135.778 170.1C136.456 169.834 136.79 169.068 136.523 168.389C136.257 167.71 135.491 167.375 134.812 167.641Z" fill="#DFE1E6"></path><path fill-rule="evenodd" clip-rule="evenodd" d="M134.935 167.953L104.139 180.045C103.633 180.244 103.384 180.816 103.583 181.323C103.782 181.831 104.354 182.08 104.86 181.881L135.656 169.789C136.161 169.59 136.411 169.018 136.212 168.511C136.013 168.004 135.441 167.754 134.935 167.953ZM104.017 179.734L134.812 167.641C135.491 167.375 136.257 167.71 136.523 168.389C136.79 169.068 136.456 169.834 135.778 170.1L104.983 182.193C104.304 182.459 103.538 182.125 103.272 181.446C103.005 180.767 103.339 180 104.017 179.734Z" fill="#DFE1E6"></path><path d="M140.679 182.588L109.884 194.681C109.206 194.947 108.872 195.714 109.139 196.393C109.406 197.072 110.172 197.406 110.85 197.14L141.645 185.047C142.323 184.781 142.657 184.015 142.39 183.336C142.124 182.657 141.358 182.322 140.679 182.588Z" fill="#DFE1E6"></path><path fill-rule="evenodd" clip-rule="evenodd" d="M140.802 182.9L110.007 194.992C109.501 195.191 109.251 195.763 109.45 196.27C109.65 196.778 110.222 197.027 110.728 196.828L141.523 184.736C142.029 184.537 142.278 183.965 142.079 183.458C141.88 182.951 141.308 182.701 140.802 182.9ZM109.884 194.681L140.679 182.588C141.358 182.322 142.124 182.657 142.39 183.336C142.657 184.015 142.323 184.781 141.645 185.047L110.85 197.14C110.172 197.406 109.406 197.072 109.139 196.393C108.872 195.714 109.206 194.947 109.884 194.681Z" fill="#DFE1E6"></path><path d="M113.091 145.841L94.0093 153.334C93.3311 153.6 92.9974 154.367 93.264 155.046C93.5306 155.725 94.2966 156.059 94.9748 155.793L114.056 148.3C114.735 148.033 115.068 147.267 114.802 146.588C114.535 145.909 113.769 145.575 113.091 145.841Z" fill="#DFE1E6"></path><path fill-rule="evenodd" clip-rule="evenodd" d="M113.213 146.152L94.1316 153.645C93.6256 153.844 93.3762 154.416 93.5754 154.923C93.7746 155.431 94.3466 155.68 94.8525 155.481L113.934 147.988C114.44 147.79 114.69 147.218 114.49 146.71C114.291 146.203 113.719 145.954 113.213 146.152ZM94.0093 153.334L113.091 145.841C113.769 145.575 114.535 145.909 114.802 146.588C115.068 147.267 114.735 148.033 114.056 148.3L94.9748 155.793C94.2966 156.059 93.5306 155.725 93.264 155.046C92.9974 154.367 93.3311 153.6 94.0093 153.334Z" fill="#DFE1E6"></path><path d="M119.017 161.845L99.9351 169.337C99.2569 169.604 98.9232 170.37 99.1898 171.049C99.4564 171.728 100.222 172.063 100.901 171.796L119.982 164.303C120.66 164.037 120.994 163.271 120.727 162.592C120.461 161.913 119.695 161.578 119.017 161.845Z" fill="#DFE1E6"></path><path fill-rule="evenodd" clip-rule="evenodd" d="M119.139 162.156L100.057 169.649C99.5514 169.848 99.302 170.42 99.5012 170.927C99.7004 171.434 100.272 171.684 100.778 171.485L119.86 163.992C120.366 163.793 120.615 163.221 120.416 162.714C120.217 162.207 119.645 161.957 119.139 162.156ZM99.9351 169.337L119.017 161.845C119.695 161.578 120.461 161.913 120.727 162.592C120.994 163.271 120.66 164.037 119.982 164.303L100.901 171.796C100.222 172.063 99.4564 171.728 99.1898 171.049C98.9232 170.37 99.2569 169.604 99.9351 169.337Z" fill="#DFE1E6"></path><path d="M125.251 177.726L106.169 185.219C105.491 185.485 105.158 186.251 105.424 186.93C105.691 187.609 106.457 187.944 107.135 187.677L126.217 180.185C126.895 179.918 127.228 179.152 126.962 178.473C126.695 177.794 125.929 177.459 125.251 177.726Z" fill="#DFE1E6"></path><path fill-rule="evenodd" clip-rule="evenodd" d="M125.373 178.037L106.292 185.53C105.786 185.729 105.536 186.301 105.736 186.808C105.935 187.315 106.507 187.565 107.013 187.366L126.094 179.873C126.6 179.675 126.85 179.103 126.65 178.595C126.451 178.088 125.879 177.839 125.373 178.037ZM106.169 185.219L125.251 177.726C125.929 177.459 126.695 177.794 126.962 178.473C127.228 179.152 126.895 179.918 126.217 180.185L107.135 187.677C106.457 187.944 105.691 187.609 105.424 186.93C105.158 186.251 105.491 185.485 106.169 185.219Z" fill="#DFE1E6"></path><path d="M131.122 192.673L112.041 200.166C111.362 200.432 111.029 201.198 111.295 201.877C111.562 202.556 112.328 202.891 113.006 202.624L132.088 195.132C132.766 194.865 133.1 194.099 132.833 193.42C132.566 192.741 131.8 192.406 131.122 192.673Z" fill="#DFE1E6"></path><path fill-rule="evenodd" clip-rule="evenodd" d="M131.244 192.984L112.163 200.477C111.657 200.676 111.407 201.248 111.607 201.755C111.806 202.262 112.378 202.512 112.884 202.313L131.965 194.82C132.471 194.621 132.721 194.05 132.522 193.542C132.322 193.035 131.75 192.785 131.244 192.984ZM112.041 200.166L131.122 192.673C131.8 192.406 132.566 192.741 132.833 193.42C133.1 194.099 132.766 194.865 132.088 195.132L113.006 202.624C112.328 202.891 111.562 202.556 111.295 201.877C111.029 201.198 111.362 200.432 112.041 200.166Z" fill="#DFE1E6"></path><path fill-rule="evenodd" clip-rule="evenodd" d="M87.2487 160.413C84.3577 161.548 81.0792 160.089 79.9267 157.154C78.7743 154.219 80.1839 150.919 83.0749 149.784C85.9661 148.648 89.2446 150.108 90.397 153.042C91.5495 155.977 90.1399 159.277 87.2487 160.413Z" fill="#36B37E"></path><path fill-rule="evenodd" clip-rule="evenodd" d="M93.1745 176.416C90.2834 177.551 87.005 176.092 85.8525 173.157C84.7001 170.222 86.1096 166.922 89.0007 165.787C91.8919 164.652 95.1703 166.111 96.3228 169.046C97.4753 171.981 96.0657 175.281 93.1745 176.416Z" fill="#36B37E"></path><path fill-rule="evenodd" clip-rule="evenodd" d="M99.4089 192.297C96.5178 193.433 93.2394 191.973 92.0869 189.038C90.9344 186.104 92.344 182.803 95.2351 181.668C98.1263 180.533 101.405 181.992 102.557 184.927C103.71 187.862 102.3 191.162 99.4089 192.297Z" fill="#36B37E"></path><path fill-rule="evenodd" clip-rule="evenodd" d="M105.28 207.244C102.389 208.38 99.1105 206.92 97.958 203.986C96.8055 201.051 98.2151 197.751 101.106 196.615C103.997 195.48 107.276 196.939 108.428 199.874C109.581 202.809 108.171 206.109 105.28 207.244Z" fill="#36B37E"></path><path fill-rule="evenodd" clip-rule="evenodd" d="M86.8772 152.934C87.1835 153.055 87.3331 153.402 87.2114 153.709L85.9273 156.939C85.8663 157.093 85.7446 157.214 85.5909 157.274C85.4373 157.335 85.2655 157.329 85.1164 157.258L83.2323 156.362C82.9346 156.221 82.808 155.865 82.9495 155.567C83.091 155.269 83.4471 155.143 83.7448 155.284L85.0534 155.906L86.1021 153.268C86.2239 152.961 86.5709 152.812 86.8772 152.934Z" fill="#05193A"></path><path fill-rule="evenodd" clip-rule="evenodd" d="M92.803 168.937C93.1093 169.059 93.2589 169.406 93.1371 169.712L91.8531 172.943C91.7921 173.096 91.6703 173.218 91.5167 173.278C91.3631 173.338 91.1913 173.332 91.0422 173.261L89.1581 172.366C88.8604 172.224 88.7338 171.868 88.8753 171.571C89.0168 171.273 89.3729 171.146 89.6706 171.288L90.9792 171.91L92.0279 169.271C92.1496 168.965 92.4967 168.815 92.803 168.937Z" fill="#05193A"></path><path fill-rule="evenodd" clip-rule="evenodd" d="M99.0373 184.819C99.3437 184.94 99.4933 185.287 99.3715 185.594L98.0875 188.824C98.0265 188.978 97.9047 189.099 97.7511 189.159C97.5975 189.22 97.4257 189.214 97.2766 189.143L95.3925 188.247C95.0948 188.106 94.9682 187.749 95.1097 187.452C95.2512 187.154 95.6072 187.027 95.9049 187.169L97.2136 187.791L98.2623 185.153C98.384 184.846 98.731 184.697 99.0373 184.819Z" fill="#05193A"></path><path fill-rule="evenodd" clip-rule="evenodd" d="M104.908 199.765C105.215 199.887 105.364 200.234 105.243 200.541L103.959 203.771C103.898 203.924 103.776 204.046 103.622 204.106C103.469 204.166 103.297 204.161 103.148 204.09L101.264 203.194C100.966 203.052 100.839 202.696 100.981 202.399C101.122 202.101 101.478 201.974 101.776 202.116L103.085 202.738L104.133 200.1C104.255 199.793 104.602 199.644 104.908 199.765Z" fill="#05193A"></path><path d="M75.4354 142.915C74.8692 140.013 76.7623 137.202 79.6638 136.636L127.931 127.217C130.833 126.651 133.644 128.544 134.21 131.445L147.41 199.085C147.976 201.987 146.083 204.798 143.181 205.364L94.914 214.783C92.0125 215.349 89.2014 213.456 88.6352 210.555L75.4354 142.915Z" fill="#05193A"></path><path fill-rule="evenodd" clip-rule="evenodd" d="M128.252 128.858L79.9841 138.278C77.9894 138.667 76.6879 140.6 77.0771 142.594L90.2769 210.235C90.6662 212.229 92.5989 213.531 94.5936 213.142L142.861 203.722C144.856 203.333 146.157 201.4 145.768 199.406L132.568 131.766C132.179 129.771 130.246 128.469 128.252 128.858ZM79.6638 136.636C76.7623 137.202 74.8692 140.013 75.4354 142.915L88.6352 210.555C89.2014 213.456 92.0125 215.349 94.914 214.783L143.181 205.364C146.083 204.798 147.976 201.987 147.41 199.085L134.21 131.445C133.644 128.544 130.833 126.651 127.931 127.217L79.6638 136.636Z" fill="#DFE1E6"></path><path d="M128.825 138.362L96.3535 144.699C95.6384 144.838 95.1719 145.532 95.3116 146.248C95.4513 146.964 96.1443 147.431 96.8595 147.291L129.331 140.955C130.046 140.815 130.513 140.122 130.373 139.406C130.234 138.69 129.54 138.222 128.825 138.362Z" fill="#DFE1E6"></path><path fill-rule="evenodd" clip-rule="evenodd" d="M128.889 138.69L96.4176 145.027C95.8841 145.131 95.5355 145.649 95.6399 146.184C95.7443 146.719 96.2619 147.067 96.7954 146.963L129.267 140.626C129.801 140.522 130.149 140.005 130.045 139.47C129.94 138.935 129.423 138.586 128.889 138.69ZM96.3535 144.699L128.825 138.362C129.54 138.222 130.234 138.69 130.373 139.406C130.513 140.122 130.046 140.815 129.331 140.955L96.8595 147.291C96.1443 147.431 95.4513 146.964 95.3116 146.248C95.1719 145.532 95.6384 144.838 96.3535 144.699Z" fill="#DFE1E6"></path><path d="M131.767 155.172L99.2949 161.509C98.5798 161.648 98.1133 162.342 98.253 163.058C98.3927 163.774 99.0857 164.241 99.8009 164.102L132.273 157.765C132.988 157.625 133.454 156.932 133.315 156.216C133.175 155.5 132.482 155.033 131.767 155.172Z" fill="#DFE1E6"></path><path fill-rule="evenodd" clip-rule="evenodd" d="M131.831 155.5L99.359 161.837C98.8255 161.941 98.4769 162.459 98.5813 162.994C98.6857 163.529 99.2033 163.877 99.7368 163.773L132.209 157.436C132.742 157.332 133.091 156.815 132.986 156.28C132.882 155.745 132.364 155.396 131.831 155.5ZM99.2949 161.509L131.767 155.172C132.482 155.033 133.175 155.5 133.315 156.216C133.454 156.932 132.988 157.625 132.273 157.765L99.8009 164.102C99.0857 164.241 98.3927 163.774 98.253 163.058C98.1133 162.342 98.5798 161.648 99.2949 161.509Z" fill="#DFE1E6"></path><path d="M135.032 171.918L102.561 178.255C101.845 178.394 101.379 179.088 101.519 179.804C101.658 180.52 102.351 180.987 103.067 180.847L135.538 174.511C136.253 174.371 136.72 173.677 136.58 172.962C136.441 172.246 135.748 171.778 135.032 171.918Z" fill="#DFE1E6"></path><path fill-rule="evenodd" clip-rule="evenodd" d="M135.096 172.246L102.625 178.583C102.091 178.687 101.743 179.205 101.847 179.74C101.951 180.275 102.469 180.623 103.002 180.519L135.474 174.182C136.008 174.078 136.356 173.561 136.252 173.026C136.148 172.491 135.63 172.142 135.096 172.246ZM102.561 178.255L135.032 171.918C135.748 171.778 136.441 172.246 136.58 172.962C136.72 173.677 136.253 174.371 135.538 174.511L103.067 180.847C102.351 180.987 101.658 180.52 101.519 179.804C101.379 179.088 101.845 178.394 102.561 178.255Z" fill="#DFE1E6"></path><path d="M138.11 187.679L105.639 194.015C104.924 194.155 104.457 194.848 104.597 195.564C104.736 196.28 105.429 196.748 106.145 196.608L138.616 190.271C139.332 190.132 139.798 189.438 139.658 188.722C139.519 188.006 138.826 187.539 138.11 187.679Z" fill="#DFE1E6"></path><path fill-rule="evenodd" clip-rule="evenodd" d="M138.175 188.007L105.703 194.344C105.169 194.448 104.821 194.965 104.925 195.5C105.029 196.035 105.547 196.384 106.081 196.28L138.552 189.943C139.086 189.839 139.434 189.321 139.33 188.786C139.226 188.251 138.708 187.903 138.175 188.007ZM105.639 194.015L138.11 187.679C138.826 187.539 139.519 188.006 139.658 188.722C139.798 189.438 139.332 190.132 138.616 190.271L106.145 196.608C105.429 196.748 104.736 196.28 104.597 195.564C104.457 194.848 104.924 194.155 105.639 194.015Z" fill="#DFE1E6"></path><path d="M117.603 146.556L97.4824 150.482C96.7673 150.622 96.3008 151.315 96.4405 152.031C96.5802 152.747 97.2732 153.214 97.9884 153.075L118.109 149.148C118.824 149.009 119.29 148.315 119.151 147.599C119.011 146.884 118.318 146.416 117.603 146.556Z" fill="#DFE1E6"></path><path fill-rule="evenodd" clip-rule="evenodd" d="M117.667 146.884L97.5465 150.811C97.013 150.915 96.6644 151.432 96.7688 151.967C96.8732 152.502 97.3908 152.851 97.9243 152.747L118.045 148.82C118.578 148.716 118.927 148.198 118.822 147.664C118.718 147.129 118.2 146.78 117.667 146.884ZM97.4824 150.482L117.603 146.556C118.318 146.416 119.011 146.884 119.151 147.599C119.29 148.315 118.824 149.009 118.109 149.148L97.9884 153.075C97.2732 153.214 96.5802 152.747 96.4405 152.031C96.3008 151.315 96.7673 150.622 97.4824 150.482Z" fill="#DFE1E6"></path><path d="M120.544 163.366L100.424 167.292C99.7087 167.432 99.2422 168.125 99.3819 168.841C99.5216 169.557 100.215 170.024 100.93 169.885L121.05 165.958C121.765 165.819 122.232 165.125 122.092 164.409C121.952 163.693 121.259 163.226 120.544 163.366Z" fill="#DFE1E6"></path><path fill-rule="evenodd" clip-rule="evenodd" d="M120.608 163.694L100.488 167.621C99.9544 167.725 99.6058 168.242 99.7102 168.777C99.8146 169.312 100.332 169.661 100.866 169.557L120.986 165.63C121.52 165.526 121.868 165.008 121.764 164.473C121.659 163.939 121.142 163.59 120.608 163.694ZM100.424 167.292L120.544 163.366C121.259 163.226 121.952 163.693 122.092 164.409C122.232 165.125 121.765 165.819 121.05 165.958L100.93 169.885C100.215 170.024 99.5216 169.557 99.3819 168.841C99.2422 168.125 99.7087 167.432 100.424 167.292Z" fill="#DFE1E6"></path><path d="M123.81 180.111L103.689 184.038C102.974 184.177 102.508 184.871 102.648 185.587C102.787 186.303 103.48 186.77 104.195 186.631L124.316 182.704C125.031 182.565 125.498 181.871 125.358 181.155C125.218 180.439 124.525 179.972 123.81 180.111Z" fill="#DFE1E6"></path><path fill-rule="evenodd" clip-rule="evenodd" d="M123.874 180.44L103.754 184.366C103.22 184.47 102.871 184.988 102.976 185.523C103.08 186.058 103.598 186.406 104.131 186.302L124.252 182.376C124.785 182.272 125.134 181.754 125.029 181.219C124.925 180.684 124.407 180.336 123.874 180.44ZM103.689 184.038L123.81 180.111C124.525 179.972 125.218 180.439 125.358 181.155C125.498 181.871 125.031 182.565 124.316 182.704L104.195 186.631C103.48 186.77 102.787 186.303 102.648 185.587C102.508 184.871 102.974 184.177 103.689 184.038Z" fill="#DFE1E6"></path><path d="M126.888 195.872L106.768 199.799C106.052 199.938 105.586 200.632 105.726 201.348C105.865 202.064 106.558 202.531 107.274 202.391L127.394 198.465C128.109 198.325 128.576 197.632 128.436 196.916C128.296 196.2 127.603 195.733 126.888 195.872Z" fill="#DFE1E6"></path><path fill-rule="evenodd" clip-rule="evenodd" d="M126.952 196.201L106.832 200.127C106.298 200.231 105.95 200.749 106.054 201.284C106.158 201.818 106.676 202.167 107.209 202.063L127.33 198.136C127.863 198.032 128.212 197.515 128.108 196.98C128.003 196.445 127.486 196.096 126.952 196.201ZM106.768 199.799L126.888 195.872C127.603 195.733 128.296 196.2 128.436 196.916C128.576 197.632 128.109 198.325 127.394 198.465L107.274 202.391C106.558 202.531 105.865 202.064 105.726 201.348C105.586 200.632 106.052 199.938 106.768 199.799Z" fill="#DFE1E6"></path><path fill-rule="evenodd" clip-rule="evenodd" d="M89.5588 156.225C86.5104 156.82 83.5491 154.793 82.9451 151.698C82.3412 148.603 84.3232 145.612 87.3716 145.017C90.4202 144.422 93.3816 146.449 93.9855 149.543C94.5894 152.638 92.6074 155.63 89.5588 156.225Z" fill="#36B37E"></path><path fill-rule="evenodd" clip-rule="evenodd" d="M92.4963 173.035C89.4479 173.63 86.4866 171.603 85.8826 168.508C85.2787 165.413 87.2607 162.422 90.3091 161.827C93.3577 161.232 96.3191 163.259 96.923 166.354C97.5269 169.448 95.5449 172.44 92.4963 173.035Z" fill="#36B37E"></path><path fill-rule="evenodd" clip-rule="evenodd" d="M95.7658 189.78C92.7174 190.375 89.7561 188.348 89.1522 185.254C88.5483 182.159 90.5302 179.167 93.5787 178.573C96.6273 177.978 99.5886 180.005 100.193 183.099C100.796 186.194 98.8145 189.185 95.7658 189.78Z" fill="#36B37E"></path><path fill-rule="evenodd" clip-rule="evenodd" d="M98.8401 205.541C95.7916 206.136 92.8303 204.109 92.2264 201.014C91.6225 197.92 93.6045 194.928 96.6529 194.333C99.7015 193.738 102.663 195.765 103.267 198.86C103.871 201.955 101.889 204.946 98.8401 205.541Z" fill="#36B37E"></path><path fill-rule="evenodd" clip-rule="evenodd" d="M90.542 148.802C90.8213 148.977 90.9058 149.345 90.7308 149.624L88.8848 152.57C88.7972 152.71 88.6555 152.807 88.4935 152.839C88.3315 152.87 88.1637 152.834 88.0298 152.737L86.3382 151.516C86.071 151.323 86.0107 150.95 86.2036 150.683C86.3965 150.416 86.7696 150.355 87.0368 150.548L88.2117 151.396L89.7193 148.99C89.8944 148.711 90.2627 148.626 90.542 148.802Z" fill="#05193A"></path><path fill-rule="evenodd" clip-rule="evenodd" d="M93.4795 165.611C93.7588 165.786 93.8433 166.155 93.6683 166.434L91.8223 169.38C91.7347 169.52 91.593 169.617 91.431 169.649C91.269 169.68 91.1012 169.643 90.9673 169.547L89.2757 168.326C89.0085 168.133 88.9482 167.76 89.1411 167.493C89.334 167.225 89.7071 167.165 89.9743 167.358L91.1492 168.206L92.6568 165.8C92.8319 165.521 93.2002 165.436 93.4795 165.611Z" fill="#05193A"></path><path fill-rule="evenodd" clip-rule="evenodd" d="M96.749 182.357C97.0283 182.532 97.1129 182.901 96.9378 183.18L95.0919 186.126C95.0042 186.266 94.8626 186.363 94.7006 186.395C94.5386 186.426 94.3707 186.389 94.2368 186.293L92.5453 185.072C92.278 184.879 92.2177 184.506 92.4106 184.239C92.6035 183.971 92.9766 183.911 93.2439 184.104L94.4188 184.952L95.9264 182.546C96.1014 182.267 96.4697 182.182 96.749 182.357Z" fill="#05193A"></path><path fill-rule="evenodd" clip-rule="evenodd" d="M99.8232 198.118C100.103 198.293 100.187 198.662 100.012 198.941L98.1661 201.887C98.0784 202.026 97.9368 202.124 97.7748 202.155C97.6128 202.187 97.4449 202.15 97.3111 202.054L95.6195 200.833C95.3522 200.64 95.2919 200.267 95.4849 199.999C95.6778 199.732 96.0508 199.672 96.3181 199.865L97.493 200.713L99.0006 198.307C99.1756 198.028 99.5439 197.943 99.8232 198.118Z" fill="#05193A"></path><path d="M81.4805 136.542C81.4805 133.586 83.877 131.189 86.8332 131.189H136.011C138.967 131.189 141.364 133.586 141.364 136.542V205.458C141.364 208.414 138.967 210.811 136.011 210.811H86.8332C83.877 210.811 81.4805 208.414 81.4805 205.458V136.542Z" fill="#05193A"></path><path fill-rule="evenodd" clip-rule="evenodd" d="M136.011 132.862H86.8332C84.8008 132.862 83.1532 134.51 83.1532 136.542V205.458C83.1532 207.49 84.8008 209.138 86.8332 209.138H136.011C138.043 209.138 139.691 207.49 139.691 205.458V136.542C139.691 134.51 138.043 132.862 136.011 132.862ZM86.8332 131.189C83.877 131.189 81.4805 133.586 81.4805 136.542V205.458C81.4805 208.414 83.877 210.811 86.8332 210.811H136.011C138.967 210.811 141.364 208.414 141.364 205.458V136.542C141.364 133.586 138.967 131.189 136.011 131.189H86.8332Z" fill="#DFE1E6"></path><path d="M134.755 142.3H101.671C100.942 142.3 100.352 142.891 100.352 143.621C100.352 144.35 100.942 144.941 101.671 144.941H134.755C135.484 144.941 136.075 144.35 136.075 143.621C136.075 142.891 135.484 142.3 134.755 142.3Z" fill="#DFE1E6"></path><path fill-rule="evenodd" clip-rule="evenodd" d="M134.755 142.634H101.671C101.127 142.634 100.686 143.076 100.686 143.621C100.686 144.166 101.127 144.607 101.671 144.607H134.755C135.299 144.607 135.74 144.166 135.74 143.621C135.74 143.076 135.299 142.634 134.755 142.634ZM101.671 142.3H134.755C135.484 142.3 136.075 142.891 136.075 143.621C136.075 144.35 135.484 144.941 134.755 144.941H101.671C100.942 144.941 100.352 144.35 100.352 143.621C100.352 142.891 100.942 142.3 101.671 142.3Z" fill="#DFE1E6"></path><path d="M134.423 159.362H101.339C100.61 159.362 100.02 159.953 100.02 160.682C100.02 161.412 100.61 162.003 101.339 162.003H134.423C135.152 162.003 135.743 161.412 135.743 160.682C135.743 159.953 135.152 159.362 134.423 159.362Z" fill="#DFE1E6"></path><path fill-rule="evenodd" clip-rule="evenodd" d="M134.423 159.696H101.339C100.795 159.696 100.354 160.137 100.354 160.682C100.354 161.227 100.795 161.669 101.339 161.669H134.423C134.967 161.669 135.408 161.227 135.408 160.682C135.408 160.137 134.967 159.696 134.423 159.696ZM101.339 159.362H134.423C135.152 159.362 135.743 159.953 135.743 160.682C135.743 161.412 135.152 162.003 134.423 162.003H101.339C100.61 162.003 100.02 161.412 100.02 160.682C100.02 159.953 100.61 159.362 101.339 159.362Z" fill="#DFE1E6"></path><path d="M134.423 176.423H101.339C100.61 176.423 100.02 177.015 100.02 177.744C100.02 178.474 100.61 179.065 101.339 179.065H134.423C135.152 179.065 135.743 178.474 135.743 177.744C135.743 177.015 135.152 176.423 134.423 176.423Z" fill="#DFE1E6"></path><path fill-rule="evenodd" clip-rule="evenodd" d="M134.423 176.758H101.339C100.795 176.758 100.354 177.199 100.354 177.744C100.354 178.289 100.795 178.73 101.339 178.73H134.423C134.967 178.73 135.408 178.289 135.408 177.744C135.408 177.199 134.967 176.758 134.423 176.758ZM101.339 176.423H134.423C135.152 176.423 135.743 177.015 135.743 177.744C135.743 178.474 135.152 179.065 134.423 179.065H101.339C100.61 179.065 100.02 178.474 100.02 177.744C100.02 177.015 100.61 176.423 101.339 176.423Z" fill="#DFE1E6"></path><path d="M134.423 192.481H101.339C100.61 192.481 100.02 193.073 100.02 193.802C100.02 194.532 100.61 195.123 101.339 195.123H134.423C135.152 195.123 135.743 194.532 135.743 193.802C135.743 193.073 135.152 192.481 134.423 192.481Z" fill="#DFE1E6"></path><path fill-rule="evenodd" clip-rule="evenodd" d="M134.423 192.816H101.339C100.795 192.816 100.354 193.257 100.354 193.802C100.354 194.347 100.795 194.788 101.339 194.788H134.423C134.967 194.788 135.408 194.347 135.408 193.802C135.408 193.257 134.967 192.816 134.423 192.816ZM101.339 192.481H134.423C135.152 192.481 135.743 193.073 135.743 193.802C135.743 194.532 135.152 195.123 134.423 195.123H101.339C100.61 195.123 100.02 194.532 100.02 193.802C100.02 193.073 100.61 192.481 101.339 192.481Z" fill="#DFE1E6"></path><path d="M122.171 148.192H101.671C100.942 148.192 100.352 148.784 100.352 149.513C100.352 150.243 100.942 150.834 101.671 150.834H122.171C122.9 150.834 123.49 150.243 123.49 149.513C123.49 148.784 122.9 148.192 122.171 148.192Z" fill="#DFE1E6"></path><path fill-rule="evenodd" clip-rule="evenodd" d="M122.171 148.527H101.671C101.127 148.527 100.686 148.968 100.686 149.513C100.686 150.058 101.127 150.499 101.671 150.499H122.171C122.714 150.499 123.156 150.058 123.156 149.513C123.156 148.968 122.714 148.527 122.171 148.527ZM101.671 148.192H122.171C122.9 148.192 123.49 148.784 123.49 149.513C123.49 150.243 122.9 150.834 122.171 150.834H101.671C100.942 150.834 100.352 150.243 100.352 149.513C100.352 148.784 100.942 148.192 101.671 148.192Z" fill="#DFE1E6"></path><path d="M121.839 165.254H101.339C100.61 165.254 100.02 165.845 100.02 166.575C100.02 167.304 100.61 167.896 101.339 167.896H121.839C122.568 167.896 123.158 167.304 123.158 166.575C123.158 165.845 122.568 165.254 121.839 165.254Z" fill="#DFE1E6"></path><path fill-rule="evenodd" clip-rule="evenodd" d="M121.839 165.589H101.339C100.795 165.589 100.354 166.03 100.354 166.575C100.354 167.12 100.795 167.561 101.339 167.561H121.839C122.382 167.561 122.824 167.12 122.824 166.575C122.824 166.03 122.382 165.589 121.839 165.589ZM101.339 165.254H121.839C122.568 165.254 123.158 165.845 123.158 166.575C123.158 167.304 122.568 167.896 121.839 167.896H101.339C100.61 167.896 100.02 167.304 100.02 166.575C100.02 165.845 100.61 165.254 101.339 165.254Z" fill="#DFE1E6"></path><path d="M121.839 182.316H101.339C100.61 182.316 100.02 182.907 100.02 183.636C100.02 184.366 100.61 184.957 101.339 184.957H121.839C122.568 184.957 123.158 184.366 123.158 183.636C123.158 182.907 122.568 182.316 121.839 182.316Z" fill="#DFE1E6"></path><path fill-rule="evenodd" clip-rule="evenodd" d="M121.839 182.65H101.339C100.795 182.65 100.354 183.091 100.354 183.636C100.354 184.181 100.795 184.623 101.339 184.623H121.839C122.382 184.623 122.824 184.181 122.824 183.636C122.824 183.091 122.382 182.65 121.839 182.65ZM101.339 182.316H121.839C122.568 182.316 123.158 182.907 123.158 183.636C123.158 184.366 122.568 184.957 121.839 184.957H101.339C100.61 184.957 100.02 184.366 100.02 183.636C100.02 182.907 100.61 182.316 101.339 182.316Z" fill="#DFE1E6"></path><path d="M121.839 198.374H101.339C100.61 198.374 100.02 198.965 100.02 199.695C100.02 200.424 100.61 201.015 101.339 201.015H121.839C122.568 201.015 123.158 200.424 123.158 199.695C123.158 198.965 122.568 198.374 121.839 198.374Z" fill="#DFE1E6"></path><path fill-rule="evenodd" clip-rule="evenodd" d="M121.839 198.708H101.339C100.795 198.708 100.354 199.15 100.354 199.695C100.354 200.24 100.795 200.681 101.339 200.681H121.839C122.382 200.681 122.824 200.24 122.824 199.695C122.824 199.15 122.382 198.708 121.839 198.708ZM101.339 198.374H121.839C122.568 198.374 123.158 198.965 123.158 199.695C123.158 200.424 122.568 201.015 121.839 201.015H101.339C100.61 201.015 100.02 200.424 100.02 199.695C100.02 198.965 100.61 198.374 101.339 198.374Z" fill="#DFE1E6"></path><path fill-rule="evenodd" clip-rule="evenodd" d="M92.7922 152.31C89.6862 152.31 87.168 149.754 87.168 146.601C87.168 143.448 89.6862 140.891 92.7922 140.891C95.8983 140.891 98.4165 143.448 98.4165 146.601C98.4165 149.754 95.8983 152.31 92.7922 152.31Z" fill="#00E4A2"></path><path fill-rule="evenodd" clip-rule="evenodd" d="M92.4562 169.372C89.3503 169.372 86.832 166.815 86.832 163.662C86.832 160.509 89.3503 157.953 92.4562 157.953C95.5624 157.953 98.0806 160.509 98.0806 163.662C98.0806 166.815 95.5624 169.372 92.4562 169.372Z" fill="#00E4A2"></path><path fill-rule="evenodd" clip-rule="evenodd" d="M92.4562 186.434C89.3503 186.434 86.832 183.877 86.832 180.724C86.832 177.571 89.3503 175.015 92.4562 175.015C95.5624 175.015 98.0806 177.571 98.0806 180.724C98.0806 183.877 95.5624 186.434 92.4562 186.434Z" fill="#00E4A2"></path><path fill-rule="evenodd" clip-rule="evenodd" d="M92.4562 202.492C89.3503 202.492 86.832 199.935 86.832 196.782C86.832 193.629 89.3503 191.073 92.4562 191.073C95.5624 191.073 98.0806 193.629 98.0806 196.782C98.0806 199.935 95.5624 202.492 92.4562 202.492Z" fill="#00E4A2"></path><path fill-rule="evenodd" clip-rule="evenodd" d="M95.1821 145.213C95.4228 145.438 95.4352 145.816 95.2099 146.057L92.8339 148.594C92.7211 148.715 92.5634 148.783 92.3983 148.783C92.2333 148.783 92.0756 148.715 91.9627 148.595L90.5363 147.072C90.3109 146.832 90.3232 146.454 90.5638 146.229C90.8043 146.003 91.182 146.016 91.4073 146.256L92.3981 147.313L94.3386 145.241C94.5638 145 94.9415 144.988 95.1821 145.213Z" fill="#05193A"></path><path fill-rule="evenodd" clip-rule="evenodd" d="M94.8462 162.275C95.0868 162.5 95.0993 162.878 94.874 163.118L92.498 165.656C92.3851 165.777 92.2275 165.845 92.0624 165.845C91.8973 165.845 91.7396 165.777 91.6268 165.656L90.2004 164.134C89.975 163.893 89.9873 163.516 90.2278 163.29C90.4683 163.065 90.846 163.077 91.0714 163.318L92.0621 164.375L94.0026 162.303C94.2279 162.062 94.6056 162.05 94.8462 162.275Z" fill="#05193A"></path><path fill-rule="evenodd" clip-rule="evenodd" d="M94.8462 179.337C95.0868 179.562 95.0993 179.94 94.874 180.18L92.498 182.718C92.3851 182.838 92.2275 182.907 92.0624 182.907C91.8973 182.907 91.7396 182.838 91.6268 182.718L90.2004 181.196C89.975 180.955 89.9873 180.577 90.2278 180.352C90.4683 180.127 90.846 180.139 91.0714 180.38L92.0621 181.437L94.0026 179.364C94.2279 179.124 94.6056 179.111 94.8462 179.337Z" fill="#05193A"></path><path fill-rule="evenodd" clip-rule="evenodd" d="M94.8462 195.395C95.0868 195.62 95.0993 195.998 94.874 196.238L92.498 198.776C92.3851 198.896 92.2275 198.965 92.0624 198.965C91.8973 198.965 91.7396 198.897 91.6268 198.776L90.2004 197.254C89.975 197.013 89.9873 196.635 90.2278 196.41C90.4683 196.185 90.846 196.197 91.0714 196.438L92.0621 197.495L94.0026 195.422C94.2279 195.182 94.6056 195.169 94.8462 195.395Z" fill="#05193A"></path><path d="M589.25 151.691L569 163.383L569 140L589.25 151.691Z" fill="#2684FF"></path></svg>