<svg xmlns="http://www.w3.org/2000/svg" width="589" height="304" viewBox="0 0 589 304" fill="none"><rect x="20" y="1" width="568" height="302" rx="10" fill="#FFFCFC" stroke="#F178B6" stroke-width="2"></rect><path d="M288.196 124.583C286.202 119.506 288.702 113.773 293.78 111.779L378.249 78.6102C383.327 76.6164 389.059 79.1163 391.053 84.1939L437.535 202.566C439.529 207.643 437.029 213.376 431.951 215.37L347.482 248.539C342.404 250.533 336.672 248.033 334.678 242.955L288.196 124.583Z" fill="#05193A"></path><path fill-rule="evenodd" clip-rule="evenodd" d="M379.377 81.4833L294.908 114.652C291.417 116.023 289.698 119.964 291.069 123.455L337.551 241.827C338.922 245.318 342.863 247.037 346.354 245.666L430.823 212.497C434.314 211.126 436.033 207.185 434.662 203.694L388.18 85.3221C386.809 81.8312 382.868 80.1126 379.377 81.4833ZM293.78 111.779C288.702 113.773 286.202 119.506 288.196 124.583L334.678 242.955C336.672 248.033 342.404 250.533 347.482 248.539L431.951 215.37C437.029 213.376 439.529 207.643 437.535 202.566L391.053 84.1939C389.059 79.1163 383.327 76.6164 378.249 78.6102L293.78 111.779Z" fill="#DFE1E6"></path><path d="M383.585 98.5403L326.758 120.855C325.507 121.346 324.891 122.76 325.383 124.013C325.875 125.266 327.288 125.883 328.54 125.392L385.366 103.077C386.618 102.586 387.234 101.172 386.742 99.919C386.25 98.6661 384.836 98.0488 383.585 98.5403Z" fill="#DFE1E6"></path><path fill-rule="evenodd" clip-rule="evenodd" d="M383.81 99.1149L326.984 121.429C326.05 121.796 325.59 122.851 325.958 123.787C326.325 124.724 327.381 125.184 328.314 124.817L385.141 102.503C386.074 102.136 386.535 101.081 386.167 100.145C385.8 99.2085 384.744 98.7483 383.81 99.1149ZM326.758 120.855L383.585 98.5403C384.836 98.0488 386.25 98.6661 386.742 99.919C387.234 101.172 386.618 102.586 385.366 103.077L328.54 125.392C327.288 125.883 325.875 125.266 325.383 124.013C324.891 122.76 325.507 121.346 326.758 120.855Z" fill="#DFE1E6"></path><path d="M394.518 128.071L337.692 150.386C336.44 150.877 335.825 152.291 336.317 153.544C336.809 154.797 338.222 155.414 339.474 154.923L396.3 132.609C397.552 132.117 398.167 130.703 397.675 129.45C397.183 128.197 395.77 127.58 394.518 128.071Z" fill="#DFE1E6"></path><path fill-rule="evenodd" clip-rule="evenodd" d="M394.744 128.646L337.918 150.96C336.984 151.327 336.524 152.382 336.891 153.319C337.259 154.255 338.314 154.715 339.248 154.348L396.074 132.034C397.008 131.667 397.468 130.612 397.101 129.676C396.733 128.74 395.678 128.279 394.744 128.646ZM337.692 150.386L394.518 128.071C395.77 127.58 397.183 128.197 397.675 129.45C398.167 130.703 397.552 132.117 396.3 132.609L339.474 154.923C338.222 155.414 336.809 154.797 336.317 153.544C335.825 152.291 336.44 150.877 337.692 150.386Z" fill="#DFE1E6"></path><path d="M406.026 157.377L349.2 179.691C347.948 180.183 347.332 181.597 347.824 182.85C348.316 184.103 349.73 184.72 350.981 184.229L407.808 161.914C409.059 161.423 409.675 160.009 409.183 158.756C408.691 157.503 407.278 156.886 406.026 157.377Z" fill="#DFE1E6"></path><path fill-rule="evenodd" clip-rule="evenodd" d="M406.252 157.952L349.425 180.266C348.492 180.633 348.031 181.688 348.399 182.624C348.767 183.56 349.822 184.021 350.756 183.654L407.582 161.34C408.516 160.973 408.976 159.918 408.609 158.981C408.241 158.045 407.185 157.585 406.252 157.952ZM349.2 179.691L406.026 157.377C407.278 156.886 408.691 157.503 409.183 158.756C409.675 160.009 409.059 161.423 407.808 161.914L350.981 184.229C349.73 184.72 348.316 184.103 347.824 182.85C347.332 181.597 347.948 180.183 349.2 179.691Z" fill="#DFE1E6"></path><path d="M416.858 184.959L360.032 207.273C358.78 207.765 358.164 209.179 358.656 210.432C359.148 211.685 360.562 212.302 361.813 211.81L418.64 189.496C419.891 189.005 420.507 187.59 420.015 186.338C419.523 185.085 418.11 184.467 416.858 184.959Z" fill="#DFE1E6"></path><path fill-rule="evenodd" clip-rule="evenodd" d="M417.084 185.533L360.257 207.848C359.324 208.214 358.863 209.27 359.231 210.206C359.599 211.142 360.654 211.602 361.588 211.236L418.414 188.921C419.348 188.555 419.808 187.499 419.441 186.563C419.073 185.627 418.018 185.167 417.084 185.533ZM360.032 207.273L416.858 184.959C418.11 184.467 419.523 185.085 420.015 186.338C420.507 187.59 419.891 189.005 418.64 189.496L361.813 211.81C360.562 212.302 359.148 211.685 358.656 210.432C358.164 209.179 358.78 207.765 360.032 207.273Z" fill="#DFE1E6"></path><path d="M365.946 117.149L330.735 130.975C329.483 131.467 328.868 132.881 329.36 134.134C329.852 135.387 331.265 136.004 332.517 135.513L367.728 121.686C368.979 121.194 369.595 119.78 369.103 118.527C368.611 117.275 367.198 116.657 365.946 117.149Z" fill="#DFE1E6"></path><path fill-rule="evenodd" clip-rule="evenodd" d="M366.172 117.723L330.961 131.55C330.027 131.917 329.567 132.972 329.934 133.908C330.302 134.844 331.357 135.305 332.291 134.938L367.502 121.111C368.436 120.745 368.896 119.689 368.529 118.753C368.161 117.817 367.105 117.357 366.172 117.723ZM330.735 130.975L365.946 117.149C367.198 116.657 368.611 117.275 369.103 118.527C369.595 119.78 368.979 121.194 367.728 121.686L332.517 135.513C331.265 136.004 329.852 135.387 329.36 134.134C328.868 132.881 329.483 131.467 330.735 130.975Z" fill="#DFE1E6"></path><path d="M376.88 146.68L341.669 160.507C340.417 160.998 339.801 162.412 340.293 163.665C340.785 164.918 342.199 165.535 343.45 165.044L378.661 151.217C379.913 150.726 380.529 149.312 380.037 148.059C379.545 146.806 378.131 146.189 376.88 146.68Z" fill="#DFE1E6"></path><path fill-rule="evenodd" clip-rule="evenodd" d="M377.105 147.255L341.894 161.081C340.961 161.448 340.5 162.503 340.868 163.44C341.235 164.376 342.291 164.836 343.225 164.469L378.436 150.643C379.369 150.276 379.83 149.221 379.462 148.284C379.095 147.348 378.039 146.888 377.105 147.255ZM341.669 160.507L376.88 146.68C378.131 146.189 379.545 146.806 380.037 148.059C380.529 149.312 379.913 150.726 378.661 151.217L343.45 165.044C342.199 165.535 340.785 164.918 340.293 163.665C339.801 162.412 340.417 160.998 341.669 160.507Z" fill="#DFE1E6"></path><path d="M388.384 175.986L353.172 189.812C351.921 190.304 351.305 191.718 351.797 192.971C352.289 194.224 353.702 194.841 354.954 194.35L390.165 180.523C391.417 180.032 392.033 178.617 391.541 177.365C391.049 176.112 389.635 175.494 388.384 175.986Z" fill="#DFE1E6"></path><path fill-rule="evenodd" clip-rule="evenodd" d="M388.609 176.56L353.398 190.387C352.464 190.754 352.004 191.809 352.372 192.745C352.739 193.681 353.795 194.142 354.728 193.775L389.94 179.948C390.873 179.582 391.334 178.526 390.966 177.59C390.598 176.654 389.543 176.194 388.609 176.56ZM353.172 189.812L388.384 175.986C389.635 175.494 391.049 176.112 391.541 177.365C392.033 178.617 391.417 180.032 390.165 180.523L354.954 194.35C353.702 194.841 352.289 194.224 351.797 192.971C351.305 191.718 351.921 190.304 353.172 189.812Z" fill="#DFE1E6"></path><path d="M399.216 203.568L364.004 217.394C362.753 217.886 362.137 219.3 362.629 220.553C363.121 221.806 364.535 222.423 365.786 221.931L400.997 208.105C402.249 207.613 402.865 206.199 402.373 204.946C401.881 203.693 400.467 203.076 399.216 203.568Z" fill="#DFE1E6"></path><path fill-rule="evenodd" clip-rule="evenodd" d="M399.441 204.142L364.23 217.969C363.296 218.335 362.836 219.391 363.204 220.327C363.571 221.263 364.627 221.723 365.56 221.357L400.772 207.53C401.705 207.164 402.166 206.108 401.798 205.172C401.43 204.236 400.375 203.776 399.441 204.142ZM364.004 217.394L399.216 203.568C400.467 203.076 401.881 203.693 402.373 204.946C402.865 206.199 402.249 207.613 400.997 208.105L365.786 221.931C364.535 222.423 363.121 221.806 362.629 220.553C362.137 219.3 362.753 217.886 364.004 217.394Z" fill="#DFE1E6"></path><path fill-rule="evenodd" clip-rule="evenodd" d="M318.261 144.038C312.926 146.133 306.876 143.44 304.749 138.024C302.623 132.609 305.224 126.519 310.559 124.424C315.894 122.329 321.944 125.022 324.07 130.438C326.197 135.853 323.596 141.943 318.261 144.038Z" fill="#00E4A2"></path><path fill-rule="evenodd" clip-rule="evenodd" d="M329.194 173.569C323.859 175.664 317.81 172.971 315.683 167.555C313.556 162.14 316.157 156.05 321.492 153.955C326.827 151.86 332.877 154.553 335.004 159.969C337.13 165.384 334.529 171.474 329.194 173.569Z" fill="#00E4A2"></path><path fill-rule="evenodd" clip-rule="evenodd" d="M340.702 202.875C335.367 204.97 329.317 202.277 327.191 196.861C325.064 191.445 327.665 185.356 333 183.261C338.335 181.166 344.385 183.859 346.512 189.274C348.638 194.69 346.037 200.78 340.702 202.875Z" fill="#00E4A2"></path><path fill-rule="evenodd" clip-rule="evenodd" d="M351.53 230.457C346.195 232.551 340.146 229.859 338.019 224.443C335.892 219.027 338.493 212.937 343.828 210.843C349.163 208.748 355.213 211.44 357.34 216.856C359.466 222.272 356.865 228.362 351.53 230.457Z" fill="#00E4A2"></path><path fill-rule="evenodd" clip-rule="evenodd" d="M317.577 130.237C318.142 130.461 318.418 131.102 318.193 131.667L315.824 137.628C315.711 137.911 315.486 138.135 315.203 138.246C314.919 138.358 314.603 138.347 314.327 138.216L310.851 136.563C310.301 136.302 310.068 135.645 310.329 135.096C310.59 134.546 311.247 134.313 311.796 134.574L314.211 135.722L316.146 130.853C316.371 130.288 317.011 130.012 317.577 130.237Z" fill="#05193A"></path><path fill-rule="evenodd" clip-rule="evenodd" d="M328.506 159.768C329.071 159.993 329.348 160.633 329.123 161.198L326.753 167.16C326.641 167.443 326.416 167.667 326.133 167.778C325.849 167.889 325.532 167.878 325.257 167.748L321.78 166.095C321.231 165.834 320.997 165.177 321.258 164.627C321.52 164.078 322.177 163.844 322.726 164.106L325.141 165.254L327.076 160.385C327.301 159.82 327.941 159.544 328.506 159.768Z" fill="#05193A"></path><path fill-rule="evenodd" clip-rule="evenodd" d="M340.018 189.074C340.583 189.299 340.859 189.939 340.635 190.504L338.265 196.466C338.153 196.749 337.928 196.972 337.644 197.084C337.361 197.195 337.044 197.184 336.769 197.053L333.292 195.401C332.743 195.14 332.509 194.483 332.77 193.933C333.031 193.384 333.688 193.15 334.238 193.411L336.653 194.559L338.588 189.691C338.812 189.125 339.453 188.849 340.018 189.074Z" fill="#05193A"></path><path fill-rule="evenodd" clip-rule="evenodd" d="M350.846 216.656C351.411 216.88 351.687 217.521 351.463 218.086L349.093 224.047C348.981 224.33 348.756 224.554 348.472 224.666C348.189 224.777 347.872 224.766 347.597 224.635L344.12 222.982C343.571 222.721 343.337 222.064 343.598 221.515C343.859 220.966 344.516 220.732 345.066 220.993L347.481 222.141L349.416 217.272C349.64 216.707 350.281 216.431 350.846 216.656Z" fill="#05193A"></path><path d="M296.458 111.749C295.413 106.395 298.907 101.207 304.261 100.163L393.329 82.7811C398.683 81.7363 403.87 85.2296 404.915 90.5837L429.273 215.4C430.318 220.754 426.824 225.942 421.47 226.987L332.402 244.368C327.048 245.413 321.861 241.919 320.816 236.565L296.458 111.749Z" fill="#05193A"></path><path fill-rule="evenodd" clip-rule="evenodd" d="M393.92 85.8106L304.852 103.192C301.171 103.91 298.769 107.477 299.488 111.158L323.845 235.974C324.564 239.655 328.13 242.057 331.811 241.338L420.879 223.957C424.56 223.239 426.962 219.672 426.243 215.991L401.886 91.1749C401.167 87.494 397.601 85.0923 393.92 85.8106ZM304.261 100.163C298.907 101.207 295.413 106.395 296.458 111.749L320.816 236.565C321.861 241.919 327.048 245.413 332.402 244.368L421.47 226.987C426.824 225.942 430.318 220.754 429.273 215.4L404.915 90.5837C403.87 85.2296 398.683 81.7363 393.329 82.7811L304.261 100.163Z" fill="#DFE1E6"></path><path d="M394.982 103.348L335.061 115.041C333.742 115.298 332.881 116.578 333.139 117.899C333.397 119.22 334.675 120.083 335.995 119.825L395.915 108.132C397.235 107.874 398.096 106.594 397.838 105.273C397.58 103.952 396.301 103.09 394.982 103.348Z" fill="#DFE1E6"></path><path fill-rule="evenodd" clip-rule="evenodd" d="M395.1 103.953L335.18 115.647C334.195 115.839 333.552 116.794 333.745 117.781C333.937 118.768 334.892 119.411 335.877 119.219L395.797 107.526C396.782 107.334 397.425 106.379 397.232 105.392C397.04 104.404 396.084 103.761 395.1 103.953ZM335.061 115.041L394.982 103.348C396.301 103.09 397.58 103.952 397.838 105.273C398.096 106.594 397.235 107.874 395.915 108.132L335.995 119.825C334.675 120.083 333.397 119.22 333.139 117.899C332.881 116.578 333.742 115.298 335.061 115.041Z" fill="#DFE1E6"></path><path d="M400.408 134.367L340.487 146.06C339.167 146.318 338.307 147.598 338.564 148.919C338.822 150.24 340.101 151.102 341.421 150.845L401.341 139.151C402.661 138.894 403.522 137.614 403.264 136.293C403.006 134.972 401.727 134.11 400.408 134.367Z" fill="#DFE1E6"></path><path fill-rule="evenodd" clip-rule="evenodd" d="M400.526 134.973L340.605 146.666C339.621 146.859 338.978 147.814 339.17 148.801C339.363 149.788 340.318 150.431 341.303 150.239L401.223 138.545C402.207 138.353 402.851 137.398 402.658 136.411C402.465 135.424 401.51 134.781 400.526 134.973ZM340.487 146.06L400.408 134.367C401.727 134.11 403.006 134.972 403.264 136.293C403.522 137.614 402.661 138.894 401.341 139.151L341.421 150.845C340.101 151.102 338.822 150.24 338.564 148.919C338.307 147.598 339.167 146.318 340.487 146.06Z" fill="#DFE1E6"></path><path d="M406.435 165.268L346.515 176.962C345.195 177.219 344.334 178.499 344.592 179.82C344.85 181.141 346.128 182.003 347.448 181.746L407.368 170.053C408.688 169.795 409.549 168.515 409.291 167.194C409.033 165.873 407.755 165.011 406.435 165.268Z" fill="#DFE1E6"></path><path fill-rule="evenodd" clip-rule="evenodd" d="M406.553 165.874L346.633 177.568C345.648 177.76 345.005 178.715 345.198 179.702C345.39 180.689 346.345 181.332 347.33 181.14L407.25 169.447C408.235 169.255 408.878 168.3 408.685 167.312C408.493 166.325 407.538 165.682 406.553 165.874ZM346.515 176.962L406.435 165.268C407.755 165.011 409.033 165.873 409.291 167.194C409.549 168.515 408.688 169.795 407.368 170.053L347.448 181.746C346.128 182.003 344.85 181.141 344.592 179.82C344.334 178.499 345.195 177.219 346.515 176.962Z" fill="#DFE1E6"></path><path d="M412.111 194.351L352.19 206.045C350.871 206.302 350.01 207.582 350.268 208.903C350.525 210.224 351.804 211.087 353.124 210.829L413.044 199.136C414.364 198.878 415.225 197.598 414.967 196.277C414.709 194.956 413.43 194.094 412.111 194.351Z" fill="#DFE1E6"></path><path fill-rule="evenodd" clip-rule="evenodd" d="M412.229 194.957L352.309 206.651C351.324 206.843 350.681 207.798 350.873 208.785C351.066 209.772 352.021 210.415 353.006 210.223L412.926 198.53C413.91 198.338 414.554 197.383 414.361 196.396C414.168 195.408 413.213 194.765 412.229 194.957ZM352.19 206.045L412.111 194.351C413.43 194.094 414.709 194.956 414.967 196.277C415.225 197.598 414.364 198.878 413.044 199.136L353.124 210.829C351.804 211.087 350.525 210.224 350.268 208.903C350.01 207.582 350.871 206.302 352.19 206.045Z" fill="#DFE1E6"></path><path d="M374.272 118.468L337.143 125.713C335.824 125.971 334.963 127.25 335.221 128.572C335.479 129.893 336.757 130.755 338.077 130.497L375.205 123.252C376.525 122.994 377.386 121.715 377.128 120.393C376.87 119.072 375.591 118.21 374.272 118.468Z" fill="#DFE1E6"></path><path fill-rule="evenodd" clip-rule="evenodd" d="M374.39 119.073L337.262 126.319C336.277 126.511 335.634 127.466 335.827 128.453C336.019 129.44 336.974 130.084 337.959 129.891L375.087 122.646C376.072 122.454 376.715 121.499 376.522 120.512C376.33 119.525 375.374 118.881 374.39 119.073ZM337.143 125.713L374.272 118.468C375.591 118.21 376.87 119.072 377.128 120.393C377.386 121.715 376.525 122.994 375.205 123.252L338.077 130.497C336.757 130.755 335.479 129.893 335.221 128.572C334.963 127.25 335.824 125.971 337.143 125.713Z" fill="#DFE1E6"></path><path d="M379.698 149.487L342.569 156.732C341.25 156.99 340.389 158.27 340.647 159.591C340.904 160.912 342.183 161.774 343.503 161.517L380.631 154.271C381.951 154.014 382.812 152.734 382.554 151.413C382.296 150.092 381.017 149.229 379.698 149.487Z" fill="#DFE1E6"></path><path fill-rule="evenodd" clip-rule="evenodd" d="M379.816 150.093L342.687 157.338C341.703 157.53 341.06 158.486 341.252 159.473C341.445 160.46 342.4 161.103 343.385 160.911L380.513 153.665C381.497 153.473 382.141 152.518 381.948 151.531C381.755 150.544 380.8 149.901 379.816 150.093ZM342.569 156.732L379.698 149.487C381.017 149.229 382.296 150.092 382.554 151.413C382.812 152.734 381.951 154.014 380.631 154.271L343.503 161.517C342.183 161.774 340.904 160.912 340.647 159.591C340.389 158.27 341.25 156.99 342.569 156.732Z" fill="#DFE1E6"></path><path d="M385.725 180.388L348.597 187.633C347.277 187.891 346.416 189.171 346.674 190.492C346.932 191.813 348.21 192.675 349.53 192.418L386.659 185.172C387.978 184.915 388.839 183.635 388.581 182.314C388.323 180.993 387.045 180.13 385.725 180.388Z" fill="#DFE1E6"></path><path fill-rule="evenodd" clip-rule="evenodd" d="M385.843 180.994L348.715 188.239C347.73 188.431 347.087 189.386 347.28 190.374C347.472 191.361 348.427 192.004 349.412 191.812L386.54 184.566C387.525 184.374 388.168 183.419 387.975 182.432C387.783 181.445 386.828 180.802 385.843 180.994ZM348.597 187.633L385.725 180.388C387.045 180.13 388.323 180.993 388.581 182.314C388.839 183.635 387.978 184.915 386.659 185.172L349.53 192.418C348.21 192.675 346.932 191.813 346.674 190.492C346.416 189.171 347.277 187.891 348.597 187.633Z" fill="#DFE1E6"></path><path d="M391.401 209.471L354.272 216.717C352.953 216.974 352.092 218.254 352.35 219.575C352.607 220.896 353.886 221.759 355.206 221.501L392.334 214.255C393.654 213.998 394.515 212.718 394.257 211.397C393.999 210.076 392.72 209.214 391.401 209.471Z" fill="#DFE1E6"></path><path fill-rule="evenodd" clip-rule="evenodd" d="M391.519 210.077L354.391 217.323C353.406 217.515 352.763 218.47 352.956 219.457C353.148 220.444 354.103 221.087 355.088 220.895L392.216 213.65C393.201 213.457 393.844 212.502 393.651 211.515C393.459 210.528 392.503 209.885 391.519 210.077ZM354.272 216.717L391.401 209.471C392.72 209.214 393.999 210.076 394.257 211.397C394.515 212.718 393.654 213.998 392.334 214.255L355.206 221.501C353.886 221.759 352.607 220.896 352.35 219.575C352.092 218.254 352.953 216.974 354.272 216.717Z" fill="#DFE1E6"></path><path fill-rule="evenodd" clip-rule="evenodd" d="M322.519 136.309C316.894 137.407 311.429 133.667 310.315 127.956C309.2 122.246 312.858 116.725 318.483 115.628C324.109 114.53 329.573 118.27 330.688 123.981C331.802 129.691 328.145 135.212 322.519 136.309Z" fill="#00E4A2"></path><path fill-rule="evenodd" clip-rule="evenodd" d="M327.941 167.329C322.316 168.427 316.851 164.687 315.737 158.976C314.622 153.265 318.28 147.745 323.905 146.647C329.531 145.549 334.995 149.29 336.109 155C337.224 160.711 333.567 166.231 327.941 167.329Z" fill="#00E4A2"></path><path fill-rule="evenodd" clip-rule="evenodd" d="M333.972 198.23C328.347 199.328 322.882 195.588 321.768 189.877C320.654 184.166 324.311 178.646 329.936 177.548C335.562 176.45 341.026 180.191 342.141 185.901C343.255 191.612 339.598 197.132 333.972 198.23Z" fill="#00E4A2"></path><path fill-rule="evenodd" clip-rule="evenodd" d="M339.648 227.313C334.023 228.411 328.558 224.671 327.444 218.96C326.329 213.25 329.987 207.729 335.612 206.632C341.238 205.534 346.702 209.274 347.817 214.985C348.931 220.695 345.274 226.216 339.648 227.313Z" fill="#00E4A2"></path><path fill-rule="evenodd" clip-rule="evenodd" d="M324.334 122.612C324.849 122.935 325.005 123.614 324.682 124.13L321.276 129.565C321.114 129.824 320.853 130.003 320.554 130.062C320.255 130.12 319.945 130.052 319.698 129.874L316.577 127.621C316.083 127.265 315.972 126.576 316.328 126.083C316.684 125.59 317.372 125.479 317.866 125.835L320.034 127.4L322.816 122.96C323.139 122.445 323.818 122.289 324.334 122.612Z" fill="#05193A"></path><path fill-rule="evenodd" clip-rule="evenodd" d="M329.759 153.631C330.275 153.954 330.431 154.634 330.108 155.149L326.702 160.585C326.54 160.843 326.278 161.023 325.979 161.081C325.681 161.139 325.371 161.071 325.124 160.893L322.002 158.64C321.509 158.284 321.398 157.596 321.754 157.102C322.11 156.609 322.798 156.498 323.291 156.854L325.459 158.419L328.241 153.979C328.564 153.464 329.244 153.308 329.759 153.631Z" fill="#05193A"></path><path fill-rule="evenodd" clip-rule="evenodd" d="M335.787 184.532C336.302 184.855 336.458 185.535 336.135 186.05L332.729 191.486C332.567 191.744 332.306 191.924 332.007 191.982C331.708 192.041 331.398 191.973 331.151 191.794L328.03 189.541C327.536 189.185 327.425 188.497 327.781 188.004C328.137 187.51 328.826 187.399 329.319 187.755L331.487 189.32L334.269 184.881C334.592 184.365 335.271 184.209 335.787 184.532Z" fill="#05193A"></path><path fill-rule="evenodd" clip-rule="evenodd" d="M341.463 213.616C341.978 213.939 342.134 214.618 341.811 215.134L338.405 220.57C338.243 220.828 337.982 221.007 337.683 221.066C337.384 221.124 337.074 221.056 336.827 220.878L333.705 218.625C333.212 218.269 333.101 217.581 333.457 217.087C333.813 216.594 334.501 216.483 334.995 216.839L337.163 218.404L339.945 213.964C340.268 213.449 340.947 213.293 341.463 213.616Z" fill="#05193A"></path><path d="M307.613 99.989C307.613 94.5339 312.036 90.1117 317.491 90.1117H408.239C413.694 90.1117 418.116 94.5339 418.116 99.989V227.16C418.116 232.615 413.694 237.037 408.239 237.037H317.491C312.036 237.037 307.613 232.615 307.613 227.16V99.989Z" fill="#05193A"></path><path fill-rule="evenodd" clip-rule="evenodd" d="M408.239 93.1984H317.491C313.74 93.1984 310.7 96.2387 310.7 99.989V227.16C310.7 230.91 313.74 233.951 317.491 233.951H408.239C411.989 233.951 415.03 230.91 415.03 227.16V99.989C415.03 96.2387 411.989 93.1984 408.239 93.1984ZM317.491 90.1117C312.036 90.1117 307.613 94.5339 307.613 99.989V227.16C307.613 232.615 312.036 237.037 317.491 237.037H408.239C413.694 237.037 418.116 232.615 418.116 227.16V99.989C418.116 94.5339 413.694 90.1117 408.239 90.1117H317.491Z" fill="#DFE1E6"></path><path d="M405.923 110.614H344.872C343.528 110.614 342.438 111.705 342.438 113.051C342.438 114.397 343.528 115.488 344.872 115.488H405.923C407.267 115.488 408.357 114.397 408.357 113.051C408.357 111.705 407.267 110.614 405.923 110.614Z" fill="#DFE1E6"></path><path fill-rule="evenodd" clip-rule="evenodd" d="M405.923 111.231H344.872C343.869 111.231 343.055 112.045 343.055 113.051C343.055 114.057 343.869 114.871 344.872 114.871H405.923C406.926 114.871 407.74 114.057 407.74 113.051C407.74 112.045 406.926 111.231 405.923 111.231ZM344.872 110.614H405.923C407.267 110.614 408.357 111.705 408.357 113.051C408.357 114.397 407.267 115.488 405.923 115.488H344.872C343.528 115.488 342.438 114.397 342.438 113.051C342.438 111.705 343.528 110.614 344.872 110.614Z" fill="#DFE1E6"></path><path d="M405.306 142.098H344.255C342.91 142.098 341.82 143.189 341.82 144.535C341.82 145.881 342.91 146.973 344.255 146.973H405.306C406.65 146.973 407.74 145.881 407.74 144.535C407.74 143.189 406.65 142.098 405.306 142.098Z" fill="#DFE1E6"></path><path fill-rule="evenodd" clip-rule="evenodd" d="M405.306 142.716H344.255C343.252 142.716 342.438 143.53 342.438 144.535C342.438 145.541 343.252 146.355 344.255 146.355H405.306C406.309 146.355 407.123 145.541 407.123 144.535C407.123 143.53 406.309 142.716 405.306 142.716ZM344.255 142.098H405.306C406.65 142.098 407.74 143.189 407.74 144.535C407.74 145.881 406.65 146.973 405.306 146.973H344.255C342.91 146.973 341.82 145.881 341.82 144.535C341.82 143.189 342.91 142.098 344.255 142.098Z" fill="#DFE1E6"></path><path d="M405.306 173.582H344.255C342.91 173.582 341.82 174.673 341.82 176.019C341.82 177.365 342.91 178.457 344.255 178.457H405.306C406.65 178.457 407.74 177.365 407.74 176.019C407.74 174.673 406.65 173.582 405.306 173.582Z" fill="#DFE1E6"></path><path fill-rule="evenodd" clip-rule="evenodd" d="M405.306 174.2H344.255C343.252 174.2 342.438 175.014 342.438 176.019C342.438 177.025 343.252 177.839 344.255 177.839H405.306C406.309 177.839 407.123 177.025 407.123 176.019C407.123 175.014 406.309 174.2 405.306 174.2ZM344.255 173.582H405.306C406.65 173.582 407.74 174.673 407.74 176.019C407.74 177.365 406.65 178.457 405.306 178.457H344.255C342.91 178.457 341.82 177.365 341.82 176.019C341.82 174.673 342.91 173.582 344.255 173.582Z" fill="#DFE1E6"></path><path d="M405.306 203.214H344.255C342.91 203.214 341.82 204.305 341.82 205.651C341.82 206.997 342.91 208.089 344.255 208.089H405.306C406.65 208.089 407.74 206.997 407.74 205.651C407.74 204.305 406.65 203.214 405.306 203.214Z" fill="#DFE1E6"></path><path fill-rule="evenodd" clip-rule="evenodd" d="M405.306 203.832H344.255C343.252 203.832 342.438 204.646 342.438 205.651C342.438 206.657 343.252 207.471 344.255 207.471H405.306C406.309 207.471 407.123 206.657 407.123 205.651C407.123 204.646 406.309 203.832 405.306 203.832ZM344.255 203.214H405.306C406.65 203.214 407.74 204.305 407.74 205.651C407.74 206.997 406.65 208.089 405.306 208.089H344.255C342.91 208.089 341.82 206.997 341.82 205.651C341.82 204.305 342.91 203.214 344.255 203.214Z" fill="#DFE1E6"></path><path d="M382.701 121.487H344.872C343.528 121.487 342.438 122.579 342.438 123.925C342.438 125.271 343.528 126.362 344.872 126.362H382.701C384.045 126.362 385.135 125.271 385.135 123.925C385.135 122.579 384.045 121.487 382.701 121.487Z" fill="#DFE1E6"></path><path fill-rule="evenodd" clip-rule="evenodd" d="M382.701 122.105H344.872C343.869 122.105 343.055 122.919 343.055 123.925C343.055 124.93 343.869 125.744 344.872 125.744H382.701C383.704 125.744 384.518 124.93 384.518 123.925C384.518 122.919 383.704 122.105 382.701 122.105ZM344.872 121.487H382.701C384.045 121.487 385.135 122.579 385.135 123.925C385.135 125.271 384.045 126.362 382.701 126.362H344.872C343.528 126.362 342.438 125.271 342.438 123.925C342.438 122.579 343.528 121.487 344.872 121.487Z" fill="#DFE1E6"></path><path d="M382.084 152.971H344.255C342.91 152.971 341.82 154.063 341.82 155.409C341.82 156.755 342.91 157.846 344.255 157.846H382.084C383.428 157.846 384.518 156.755 384.518 155.409C384.518 154.063 383.428 152.971 382.084 152.971Z" fill="#DFE1E6"></path><path fill-rule="evenodd" clip-rule="evenodd" d="M382.084 153.589H344.255C343.252 153.589 342.438 154.403 342.438 155.409C342.438 156.414 343.252 157.228 344.255 157.228H382.084C383.087 157.228 383.901 156.414 383.901 155.409C383.901 154.403 383.087 153.589 382.084 153.589ZM344.255 152.971H382.084C383.428 152.971 384.518 154.063 384.518 155.409C384.518 156.755 383.428 157.846 382.084 157.846H344.255C342.91 157.846 341.82 156.755 341.82 155.409C341.82 154.063 342.91 152.971 344.255 152.971Z" fill="#DFE1E6"></path><path d="M382.084 184.455H344.255C342.91 184.455 341.82 185.546 341.82 186.892C341.82 188.238 342.91 189.33 344.255 189.33H382.084C383.428 189.33 384.518 188.238 384.518 186.892C384.518 185.546 383.428 184.455 382.084 184.455Z" fill="#DFE1E6"></path><path fill-rule="evenodd" clip-rule="evenodd" d="M382.084 185.072H344.255C343.252 185.072 342.438 185.887 342.438 186.892C342.438 187.898 343.252 188.712 344.255 188.712H382.084C383.087 188.712 383.901 187.898 383.901 186.892C383.901 185.887 383.087 185.072 382.084 185.072ZM344.255 184.455H382.084C383.428 184.455 384.518 185.546 384.518 186.892C384.518 188.238 383.428 189.33 382.084 189.33H344.255C342.91 189.33 341.82 188.238 341.82 186.892C341.82 185.546 342.91 184.455 344.255 184.455Z" fill="#DFE1E6"></path><path d="M382.084 214.087H344.255C342.91 214.087 341.82 215.179 341.82 216.525C341.82 217.871 342.91 218.962 344.255 218.962H382.084C383.428 218.962 384.518 217.871 384.518 216.525C384.518 215.179 383.428 214.087 382.084 214.087Z" fill="#DFE1E6"></path><path fill-rule="evenodd" clip-rule="evenodd" d="M382.084 214.705H344.255C343.252 214.705 342.438 215.519 342.438 216.525C342.438 217.53 343.252 218.344 344.255 218.344H382.084C383.087 218.344 383.901 217.53 383.901 216.525C383.901 215.519 383.087 214.705 382.084 214.705ZM344.255 214.087H382.084C383.428 214.087 384.518 215.179 384.518 216.525C384.518 217.871 383.428 218.962 382.084 218.962H344.255C342.91 218.962 341.82 217.871 341.82 216.525C341.82 215.179 342.91 214.087 344.255 214.087Z" fill="#DFE1E6"></path><path fill-rule="evenodd" clip-rule="evenodd" d="M328.488 129.086C322.756 129.086 318.109 124.369 318.109 118.55C318.109 112.732 322.756 108.014 328.488 108.014C334.219 108.014 338.866 112.732 338.866 118.55C338.866 124.369 334.219 129.086 328.488 129.086Z" fill="#00E4A2"></path><path fill-rule="evenodd" clip-rule="evenodd" d="M327.871 160.57C322.139 160.57 317.492 155.853 317.492 150.034C317.492 144.216 322.139 139.498 327.871 139.498C333.602 139.498 338.249 144.216 338.249 150.034C338.249 155.853 333.602 160.57 327.871 160.57Z" fill="#00E4A2"></path><path fill-rule="evenodd" clip-rule="evenodd" d="M327.871 192.055C322.139 192.055 317.492 187.337 317.492 181.519C317.492 175.7 322.139 170.983 327.871 170.983C333.602 170.983 338.249 175.7 338.249 181.519C338.249 187.337 333.602 192.055 327.871 192.055Z" fill="#00E4A2"></path><path fill-rule="evenodd" clip-rule="evenodd" d="M327.871 221.686C322.139 221.686 317.492 216.969 317.492 211.15C317.492 205.332 322.139 200.614 327.871 200.614C333.602 200.614 338.249 205.332 338.249 211.15C338.249 216.969 333.602 221.686 327.871 221.686Z" fill="#00E4A2"></path><path fill-rule="evenodd" clip-rule="evenodd" d="M332.894 115.99C333.338 116.406 333.361 117.103 332.945 117.547L328.561 122.229C328.353 122.452 328.062 122.578 327.757 122.578C327.453 122.578 327.162 122.452 326.953 122.23L324.321 119.421C323.905 118.977 323.928 118.28 324.372 117.864C324.816 117.448 325.513 117.471 325.928 117.914L327.757 119.866L331.337 116.041C331.753 115.597 332.45 115.574 332.894 115.99Z" fill="#05193A"></path><path fill-rule="evenodd" clip-rule="evenodd" d="M332.277 147.474C332.721 147.89 332.744 148.587 332.328 149.031L327.944 153.713C327.735 153.936 327.445 154.062 327.14 154.062C326.835 154.062 326.544 153.936 326.336 153.714L323.704 150.905C323.288 150.461 323.311 149.764 323.755 149.348C324.198 148.932 324.895 148.955 325.311 149.398L327.139 151.35L330.72 147.525C331.136 147.081 331.833 147.058 332.277 147.474Z" fill="#05193A"></path><path fill-rule="evenodd" clip-rule="evenodd" d="M332.277 178.958C332.721 179.374 332.744 180.071 332.328 180.515L327.944 185.197C327.735 185.42 327.445 185.546 327.14 185.546C326.835 185.546 326.544 185.42 326.336 185.198L323.704 182.389C323.288 181.945 323.311 181.248 323.755 180.832C324.198 180.416 324.895 180.439 325.311 180.883L327.139 182.834L330.72 179.009C331.136 178.565 331.833 178.542 332.277 178.958Z" fill="#05193A"></path><path fill-rule="evenodd" clip-rule="evenodd" d="M332.277 208.59C332.721 209.006 332.744 209.703 332.328 210.147L327.944 214.829C327.735 215.052 327.445 215.178 327.14 215.178C326.835 215.178 326.544 215.052 326.336 214.83L323.704 212.021C323.288 211.577 323.311 210.88 323.755 210.464C324.198 210.048 324.895 210.071 325.311 210.514L327.139 212.466L330.72 208.641C331.136 208.197 331.833 208.174 332.277 208.59Z" fill="#05193A"></path><path d="M229.288 61.8567L226.79 66.2618L226.73 66.3666C226.43 66.9051 226.574 67.583 227.065 67.944L230.458 70.439C230.515 70.4803 230.566 70.5251 230.613 70.5729C230.933 70.9134 231.041 71.4197 230.854 71.8585C229.786 74.4624 229.241 77.248 229.256 80.0647C229.254 80.1786 229.238 80.2918 229.208 80.4016C229.091 80.8069 228.763 81.1325 228.347 81.2406L224.948 82.0909C224.501 82.2063 224.165 82.5732 224.068 83.0087C224.043 83.1419 224.032 83.287 224.051 83.4334L224.745 88.5703C224.829 89.201 225.386 89.6708 226.022 89.6355L230.676 89.3954C230.9 89.3839 231.123 89.4374 231.319 89.5496C231.514 89.6617 231.674 89.8279 231.779 90.0286C232.1 90.6154 232.439 91.189 232.815 91.7524C233.505 92.7891 234.286 93.7615 235.148 94.658L235.151 94.663C235.505 95.0308 235.598 95.5698 235.385 96.0333L233.392 100.369L233.294 100.588C233.033 101.142 233.24 101.82 233.776 102.128L238.229 104.714C238.774 105.025 239.467 104.879 239.835 104.367L242.584 100.552C242.889 100.127 243.429 99.9474 243.916 100.108C245.99 100.755 248.152 101.08 250.324 101.058C250.593 101.057 250.854 101.148 251.066 101.315C251.277 101.482 251.427 101.717 251.492 101.98L252.5 106.049C252.573 106.345 252.752 106.604 253.003 106.774C253.253 106.945 253.557 107.016 253.856 106.974L258.963 106.273C259.566 106.189 260.004 105.651 259.972 105.043L259.699 99.5158C259.674 99.0471 259.917 98.606 260.322 98.3748C260.827 98.0901 261.319 97.7838 261.798 97.4568C262.693 96.848 263.542 96.1711 264.335 95.4321C264.687 95.0992 265.201 95.0095 265.636 95.2208L270.791 97.6467C271.064 97.7744 271.374 97.7944 271.661 97.7026C271.947 97.6109 272.189 97.4141 272.339 97.151L274.907 92.633C275.176 92.1538 275.086 91.5468 274.705 91.169C274.666 91.131 274.623 91.0882 274.572 91.0567L270.385 87.973C269.994 87.6882 269.805 87.2012 269.913 86.7285C269.921 86.6873 269.929 86.6449 269.945 86.6048C269.985 86.4832 270.025 86.3693 270.054 86.2408C270.502 84.7998 270.795 83.3145 270.929 81.8102C270.966 81.3068 271.331 80.8846 271.824 80.7658L276.078 79.6888C276.681 79.5387 277.074 78.9456 276.988 78.3223L276.836 77.18L276.293 73.1943C276.212 72.5683 275.666 72.1144 275.04 72.1418L270.456 72.3782C269.966 72.4076 269.521 72.1163 269.325 71.6617C268.805 70.4436 268.173 69.277 267.438 68.1771C266.889 67.3533 266.282 66.5699 265.623 65.8329L266.042 64.9238L267.756 61.1916C267.973 60.7317 267.868 60.1871 267.518 59.8461C267.446 59.7718 267.362 59.7089 267.271 59.6594L262.79 57.0497C262.257 56.7458 261.585 56.8989 261.224 57.3914L259.35 60.0015C259.034 60.4417 258.447 60.616 257.947 60.4137C255.88 59.5737 253.694 59.0706 251.471 58.9229C250.946 58.8895 250.511 58.5263 250.398 58.0238L249.126 52.8805C249.056 52.6025 248.887 52.3603 248.652 52.1999C248.416 52.0395 248.131 51.9721 247.85 52.0105L242.689 52.727C242.077 52.8108 241.634 53.3512 241.67 53.9642L241.955 59.7144C241.984 60.209 241.707 60.666 241.259 60.8768C240.303 61.3252 239.372 61.8645 238.464 62.4828C237.98 62.8122 237.51 63.1617 237.054 63.5304C236.88 63.6704 236.671 63.759 236.45 63.7866C236.229 63.8142 236.005 63.7795 235.802 63.6866L230.859 61.3636C230.584 61.2319 230.27 61.2095 229.979 61.3008C229.688 61.3921 229.441 61.5905 229.288 61.8567ZM240.127 85.2004C238.21 81.4937 238.378 77.5769 239.998 74.7493C245.695 64.8469 259.493 67.4322 261.395 78.5617C261.846 81.4168 261.16 84.4584 258.837 87.2249C253.407 93.6245 243.797 92.2827 240.127 85.2004ZM198.855 73.9521L195.604 75.4848L195.526 75.5213C195.132 75.7107 194.939 76.1662 195.079 76.581L196.044 79.4479C196.061 79.4954 196.072 79.5426 196.08 79.5901C196.128 79.9221 195.985 80.2624 195.697 80.4407C194.015 81.5144 192.562 82.9169 191.423 84.5658C191.376 84.6315 191.32 84.6909 191.258 84.7426C191.141 84.8363 191.001 84.8977 190.854 84.9208C190.706 84.944 190.555 84.9281 190.415 84.8747L188.084 83.9578C187.935 83.9014 187.774 83.8875 187.617 83.9175C187.461 83.9475 187.316 84.0204 187.197 84.1281C187.124 84.1979 187.062 84.2791 187.014 84.3686L185.328 87.6553C185.12 88.0581 185.254 88.5642 185.64 88.808L188.454 90.602C188.589 90.6887 188.698 90.8126 188.766 90.9593C188.835 91.1061 188.86 91.2694 188.84 91.4303C188.786 91.9075 188.754 92.3868 188.742 92.8668C188.723 93.759 188.783 94.6511 188.921 95.5325L188.921 95.5369C188.95 95.712 188.925 95.8917 188.849 96.052C188.774 96.2122 188.652 96.3455 188.5 96.4338L185.571 98.1356L185.425 98.2227C185.047 98.4378 184.892 98.9196 185.079 99.3224L186.626 102.682C186.817 103.09 187.28 103.293 187.704 103.147L190.862 102.063C191.213 101.942 191.601 102.062 191.82 102.358C192.767 103.597 193.896 104.686 195.173 105.576C195.33 105.687 195.446 105.849 195.501 106.034C195.557 106.22 195.549 106.419 195.479 106.599L194.411 109.393C194.333 109.597 194.333 109.822 194.409 110.026C194.486 110.229 194.635 110.397 194.826 110.497L198.092 112.21C198.479 112.412 198.953 112.28 199.182 111.912L201.273 108.573C201.36 108.433 201.483 108.322 201.63 108.25C201.776 108.178 201.939 108.149 202.101 108.166C202.508 108.209 202.92 108.235 203.336 108.243C204.107 108.26 204.877 108.217 205.642 108.116C205.982 108.068 206.319 108.229 206.487 108.533L208.508 112.092C208.615 112.28 208.788 112.42 208.993 112.486C209.197 112.552 209.419 112.537 209.613 112.446L212.951 110.876C213.122 110.794 213.26 110.658 213.347 110.489C213.433 110.319 213.462 110.126 213.43 109.938C213.422 109.899 213.414 109.857 213.398 109.817L212.209 106.277C212.097 105.948 212.185 105.585 212.44 105.354C212.462 105.334 212.484 105.312 212.509 105.295C212.582 105.241 212.652 105.191 212.721 105.128C213.569 104.473 214.345 103.728 215.036 102.906C215.262 102.628 215.647 102.533 215.983 102.669L218.904 103.808C219.318 103.971 219.788 103.788 219.992 103.389L220.368 102.659L221.674 100.107C221.882 99.708 221.748 99.2161 221.371 98.9717L218.599 97.2044C218.302 97.0181 218.16 96.6628 218.231 96.3165C218.423 95.3891 218.53 94.4456 218.549 93.4983C218.563 92.789 218.528 92.0796 218.443 91.3754L219.058 91.0191L221.578 89.553C221.729 89.4673 221.85 89.336 221.923 89.1775C221.996 89.019 222.019 88.8412 221.987 88.6692C221.975 88.5955 221.952 88.5242 221.919 88.4575L220.366 85.0717C220.179 84.6727 219.724 84.4828 219.313 84.6203L217.156 85.3647C216.792 85.49 216.379 85.3479 216.17 85.0221C215.305 83.6727 214.234 82.4704 212.997 81.4603C212.704 81.2227 212.598 80.8298 212.736 80.4892L214.088 76.9588C214.16 76.7675 214.16 76.556 214.088 76.3646C214.016 76.1731 213.877 76.0152 213.697 75.9207L210.394 74.1936C210.002 73.988 209.524 74.1195 209.295 74.4924L207.121 77.9669C206.936 78.2677 206.589 78.4193 206.241 78.3559C205.5 78.2202 204.738 78.1481 203.956 78.1316C203.539 78.1227 203.122 78.1311 202.706 78.1568C202.548 78.1662 202.39 78.1311 202.25 78.0554C202.109 77.9797 201.993 77.8664 201.912 77.7279L199.973 74.3173C199.866 74.126 199.691 73.9823 199.484 73.9147C199.278 73.8471 199.053 73.8604 198.855 73.9521ZM195.678 92.0821C196.068 89.1216 197.76 86.9055 199.857 85.9287C207.214 82.5169 214.215 89.7611 210.793 97.0471C209.894 98.9011 208.256 100.391 205.774 101.04C199.999 102.519 194.936 97.741 195.678 92.0821ZM221.244 106.865L219.485 108.648L219.443 108.69C219.341 108.795 219.28 108.934 219.272 109.082C219.264 109.229 219.311 109.374 219.402 109.489L220.707 111.126C220.729 111.153 220.748 111.181 220.764 111.21C220.874 111.415 220.861 111.671 220.715 111.857C219.871 112.962 219.255 114.226 218.901 115.576C218.886 115.63 218.864 115.682 218.835 115.731C218.781 115.82 218.705 115.894 218.614 115.944C218.523 115.995 218.42 116.021 218.316 116.02L216.581 115.983C216.47 115.983 216.361 116.012 216.267 116.07C216.172 116.127 216.094 116.209 216.043 116.308C216.011 116.371 215.99 116.439 215.98 116.509L215.656 119.058C215.637 119.21 215.675 119.364 215.763 119.49C215.851 119.615 215.982 119.702 216.131 119.735L218.389 120.227C218.498 120.25 218.598 120.305 218.677 120.384C218.756 120.464 218.811 120.564 218.836 120.674C218.914 120.996 219.003 121.315 219.111 121.634C219.309 122.22 219.559 122.787 219.856 123.329L219.858 123.332C219.917 123.439 219.943 123.562 219.932 123.685C219.921 123.808 219.873 123.924 219.794 124.018L218.286 125.833L218.211 125.925C218.116 126.038 218.067 126.184 218.074 126.332C218.08 126.48 218.141 126.621 218.245 126.725L220.046 128.544C220.267 128.763 220.617 128.784 220.859 128.587L222.662 127.12C222.759 127.04 222.878 126.994 223.003 126.987C223.128 126.98 223.252 127.013 223.356 127.082C224.266 127.663 225.26 128.098 226.302 128.372C226.431 128.407 226.544 128.484 226.624 128.592C226.704 128.7 226.746 128.831 226.743 128.966L226.706 131.045C226.703 131.196 226.755 131.343 226.853 131.458C226.951 131.572 227.088 131.646 227.237 131.664L229.77 131.995C229.914 132.014 230.06 131.977 230.178 131.892C230.297 131.808 230.379 131.681 230.41 131.538L230.986 128.857C231.01 128.746 231.064 128.643 231.142 128.561C231.221 128.479 231.321 128.42 231.43 128.393C231.708 128.322 231.983 128.24 232.253 128.145C232.76 127.971 233.253 127.758 233.727 127.508C233.938 127.394 234.195 127.418 234.376 127.576L236.534 129.41C236.648 129.507 236.794 129.557 236.943 129.55C237.092 129.544 237.233 129.481 237.338 129.375L239.144 127.547C239.236 127.453 239.294 127.331 239.311 127.199C239.327 127.068 239.3 126.935 239.235 126.82C239.221 126.797 239.205 126.771 239.185 126.749L237.575 124.727C237.425 124.54 237.397 124.282 237.509 124.07C237.518 124.051 237.527 124.032 237.54 124.015C237.574 123.962 237.608 123.912 237.639 123.855C238.037 123.223 238.367 122.551 238.624 121.849C238.705 121.612 238.934 121.458 239.185 121.465L241.359 121.505C241.667 121.512 241.931 121.279 241.969 120.97L242.042 120.403L242.292 118.425C242.333 118.115 242.13 117.826 241.826 117.757L239.602 117.272C239.364 117.223 239.188 117.025 239.153 116.782C239.059 116.131 238.906 115.49 238.695 114.868C238.537 114.402 238.347 113.948 238.126 113.509L238.443 113.129L239.74 111.566C239.818 111.474 239.866 111.359 239.876 111.238C239.887 111.117 239.859 110.996 239.798 110.891C239.774 110.846 239.741 110.807 239.704 110.77L237.893 108.936C237.676 108.721 237.335 108.707 237.099 108.895L235.869 109.9C235.661 110.069 235.358 110.076 235.145 109.914C234.263 109.242 233.281 108.716 232.236 108.356C231.989 108.271 231.827 108.041 231.837 107.785L231.885 105.158C231.887 105.016 231.838 104.878 231.746 104.77C231.653 104.663 231.525 104.593 231.386 104.575L228.824 104.244C228.521 104.205 228.24 104.405 228.179 104.704L227.58 107.493C227.531 107.733 227.34 107.916 227.099 107.958C226.584 108.048 226.069 108.185 225.556 108.362C225.282 108.457 225.012 108.563 224.747 108.68C224.646 108.724 224.534 108.739 224.425 108.723C224.316 108.708 224.213 108.662 224.128 108.591L222.059 106.834C221.944 106.735 221.796 106.684 221.645 106.689C221.495 106.695 221.351 106.758 221.244 106.865ZM223.448 119.452C223.004 117.428 223.585 115.575 224.722 114.433C228.714 110.437 234.988 113.475 234.475 119.05C234.327 120.475 233.609 121.841 232.144 122.862C228.728 125.217 224.299 123.321 223.448 119.452Z" fill="#808FA2"></path><path d="M262 109.857L262.05 112.403L262.051 112.463C262.055 112.613 262.113 112.755 262.216 112.864C262.318 112.973 262.458 113.041 262.607 113.054L264.74 113.241C264.775 113.244 264.809 113.25 264.842 113.259C265.07 113.322 265.249 113.511 265.281 113.749C265.488 115.145 265.974 116.487 266.711 117.694C266.741 117.744 266.763 117.797 266.778 117.851C266.804 117.954 266.803 118.062 266.775 118.165C266.748 118.267 266.694 118.361 266.619 118.437L265.352 119.689C265.272 119.77 265.217 119.871 265.191 119.981C265.165 120.091 265.17 120.206 265.205 120.314C265.229 120.378 265.261 120.443 265.308 120.501L266.945 122.529C267.043 122.65 267.184 122.73 267.338 122.753C267.493 122.776 267.651 122.74 267.781 122.653L269.755 121.336C269.85 121.272 269.961 121.237 270.076 121.234C270.19 121.231 270.304 121.261 270.402 121.32C271.238 121.81 272.138 122.184 273.077 122.431L273.079 122.432C273.201 122.463 273.31 122.531 273.392 122.625C273.474 122.72 273.524 122.837 273.537 122.961L273.791 125.344L273.805 125.463C273.835 125.77 274.102 126.007 274.416 126L277.037 125.947C277.356 125.939 277.621 125.696 277.65 125.379L277.863 123.022C277.874 122.895 277.925 122.774 278.009 122.678C278.093 122.581 278.206 122.513 278.331 122.484C279.407 122.222 280.436 121.795 281.382 121.22C281.499 121.149 281.637 121.12 281.773 121.137C281.909 121.154 282.035 121.215 282.132 121.312L283.628 122.798C283.737 122.906 283.882 122.971 284.036 122.979C284.19 122.987 284.342 122.938 284.462 122.842L286.514 121.208C286.631 121.115 286.708 120.982 286.73 120.836C286.753 120.689 286.719 120.539 286.636 120.416L285.083 118.111C285.018 118.015 284.982 117.903 284.977 117.788C284.973 117.672 285.001 117.558 285.059 117.458C285.479 116.728 285.812 115.952 286.051 115.146C286.118 114.911 286.321 114.738 286.566 114.716L289.451 114.413C289.604 114.397 289.744 114.324 289.846 114.21C289.948 114.096 290.002 113.948 290 113.796L289.951 111.184C289.947 111.05 289.899 110.921 289.815 110.817C289.73 110.713 289.613 110.639 289.482 110.607C289.455 110.601 289.425 110.594 289.395 110.593L286.762 110.36C286.517 110.34 286.308 110.179 286.233 109.948C286.226 109.928 286.218 109.908 286.215 109.887C286.201 109.824 286.189 109.765 286.168 109.702C285.99 108.966 285.733 108.251 285.401 107.569C285.287 107.343 285.337 107.067 285.522 106.886L287.104 105.314C287.328 105.092 287.346 104.734 287.147 104.488L286.784 104.037L285.512 102.465C285.314 102.217 284.957 102.165 284.69 102.34L282.745 103.638C282.538 103.778 282.268 103.769 282.065 103.625C281.112 102.946 280.054 102.426 278.932 102.085L278.88 101.585L278.661 99.5332C278.649 99.4108 278.599 99.2952 278.517 99.2026C278.436 99.1099 278.328 99.0449 278.207 99.0165C278.156 99.0036 278.103 98.9982 278.051 99.0005L275.412 99.0482C275.1 99.0564 274.846 99.2979 274.816 99.6034L274.673 101.215C274.649 101.486 274.437 101.714 274.166 101.758C273.043 101.936 271.956 102.29 270.945 102.807C270.707 102.929 270.422 102.887 270.242 102.701L268.35 100.821C268.247 100.72 268.111 100.66 267.966 100.653C267.821 100.645 267.679 100.69 267.566 100.78L265.493 102.435C265.247 102.63 265.194 102.979 265.369 103.233L266.986 105.63C267.127 105.836 267.124 106.104 266.983 106.311C266.681 106.754 266.414 107.228 266.177 107.731C266.05 107.999 265.935 108.272 265.832 108.55C265.792 108.655 265.723 108.748 265.634 108.817C265.544 108.887 265.437 108.931 265.324 108.944L262.558 109.234C262.404 109.25 262.261 109.323 262.158 109.438C262.054 109.553 261.998 109.703 262 109.857ZM272.802 117.064C272.198 116.697 271.631 116.208 271.124 115.587C271.014 115.456 270.908 115.297 270.805 115.126C270.368 114.381 270.045 113.355 270.033 112.605C269.956 106.862 276.665 104.372 280.385 108.661C280.446 108.732 280.506 108.803 280.565 108.877C281.119 109.563 281.586 110.855 281.607 111.733C281.618 112.175 281.587 112.616 281.515 113.052C280.801 117.22 276.246 119.151 272.802 117.064Z" fill="#C2CFE0"></path><path d="M167.123 111.687L167.003 113.952L167.001 114.006C166.994 114.138 167.037 114.269 167.121 114.372C167.206 114.476 167.326 114.546 167.459 114.568L169.351 114.879C169.382 114.884 169.412 114.892 169.441 114.902C169.641 114.973 169.788 115.153 169.801 115.367C169.896 116.622 170.244 117.846 170.824 118.967C170.847 119.014 170.863 119.063 170.873 119.112C170.89 119.205 170.882 119.3 170.851 119.389C170.819 119.479 170.765 119.558 170.693 119.621L169.481 120.647C169.404 120.714 169.348 120.8 169.318 120.896C169.288 120.992 169.285 121.094 169.309 121.192C169.326 121.25 169.351 121.31 169.389 121.365L170.72 123.277C170.799 123.391 170.919 123.471 171.056 123.503C171.193 123.534 171.336 123.513 171.458 123.445L173.306 122.409C173.396 122.359 173.498 122.335 173.6 122.34C173.703 122.346 173.802 122.38 173.885 122.439C174.6 122.93 175.38 123.323 176.202 123.607L176.205 123.609C176.311 123.645 176.404 123.712 176.471 123.801C176.538 123.891 176.576 123.998 176.579 124.109L176.652 126.242L176.657 126.35C176.661 126.483 176.715 126.611 176.81 126.707C176.905 126.803 177.032 126.86 177.168 126.868L179.512 126.999C179.65 127.006 179.786 126.963 179.893 126.878C180.001 126.792 180.073 126.671 180.095 126.537L180.438 124.458C180.456 124.346 180.509 124.242 180.591 124.162C180.672 124.082 180.777 124.029 180.891 124.012C181.869 123.852 182.816 123.543 183.697 123.096C183.922 122.985 184.195 123.038 184.361 123.229L185.601 124.651C185.691 124.754 185.817 124.821 185.954 124.839C186.09 124.857 186.229 124.824 186.343 124.746L188.282 123.435C188.392 123.36 188.469 123.247 188.499 123.118C188.529 122.989 188.508 122.855 188.442 122.74L187.204 120.587C187.152 120.498 187.127 120.396 187.13 120.294C187.134 120.191 187.167 120.091 187.225 120.006C187.648 119.386 187.995 118.719 188.261 118.02C188.296 117.92 188.362 117.833 188.449 117.771C188.536 117.709 188.64 117.675 188.748 117.673L191.344 117.6C191.481 117.596 191.612 117.541 191.71 117.447C191.809 117.352 191.867 117.225 191.874 117.089L191.999 114.766C192.005 114.647 191.97 114.53 191.902 114.432C191.833 114.333 191.733 114.26 191.618 114.223C191.594 114.215 191.568 114.207 191.541 114.204L189.205 113.818C189.099 113.802 189 113.755 188.92 113.684C188.841 113.612 188.785 113.519 188.759 113.417C188.754 113.398 188.748 113.38 188.747 113.361C188.739 113.304 188.731 113.25 188.717 113.193C188.606 112.527 188.422 111.875 188.17 111.247C188.082 111.038 188.145 110.796 188.322 110.649L189.837 109.36C190.052 109.178 190.091 108.862 189.929 108.63L189.633 108.204L188.599 106.722C188.521 106.609 188.403 106.53 188.269 106.499C188.134 106.468 187.993 106.488 187.873 106.555L186.052 107.575C185.858 107.686 185.618 107.659 185.445 107.517C184.985 107.136 184.489 106.798 183.966 106.507C183.574 106.289 183.167 106.098 182.747 105.937L182.733 105.489L182.67 103.652C182.667 103.543 182.63 103.437 182.564 103.349C182.497 103.261 182.404 103.196 182.299 103.163C182.254 103.148 182.207 103.139 182.16 103.138L179.801 103.001C179.522 102.987 179.279 103.184 179.232 103.453L179 104.874C178.961 105.114 178.758 105.302 178.512 105.322C177.498 105.404 176.505 105.645 175.568 106.035C175.347 106.127 175.095 106.07 174.947 105.893L173.379 104.095C173.294 103.998 173.176 103.936 173.048 103.919C172.919 103.903 172.788 103.933 172.681 104.005L170.723 105.334C170.612 105.409 170.533 105.523 170.503 105.653C170.472 105.782 170.493 105.918 170.561 106.034L171.849 108.273C171.904 108.367 171.929 108.474 171.921 108.582C171.913 108.69 171.872 108.793 171.803 108.878C171.5 109.258 171.229 109.661 170.991 110.084C170.861 110.313 170.74 110.548 170.63 110.787C170.588 110.878 170.52 110.956 170.436 111.011C170.352 111.067 170.253 111.098 170.151 111.102L167.662 111.172C167.523 111.176 167.391 111.231 167.291 111.327C167.191 111.422 167.131 111.551 167.123 111.687ZM176.304 118.822C175.788 118.455 175.314 117.983 174.901 117.396C174.811 117.273 174.727 117.125 174.646 116.965C174.304 116.274 174.081 115.341 174.12 114.674C174.422 109.568 180.575 107.814 183.62 111.875C183.669 111.943 183.719 112.01 183.766 112.08C184.217 112.727 184.55 113.905 184.512 114.687C184.493 115.08 184.437 115.469 184.345 115.852C183.437 119.504 179.245 120.91 176.304 118.822Z" fill="#B3BAC5"></path><path d="M176.5 89C175.672 89 175 89.6716 175 90.5C175 91.3284 175.672 92 176.5 92C177.328 92 178 91.3284 178 90.5C178 89.6716 177.328 89 176.5 89Z" fill="#E1E4E5"></path><path d="M285 85C283.895 85 283 85.8954 283 87C283 88.1046 283.895 89 285 89C286.105 89 287 88.1046 287 87C287 85.8954 286.105 85 285 85Z" fill="#FFB946"></path><path d="M203.5 114C202.672 114 202 114.895 202 116C202 117.105 202.672 118 203.5 118C204.328 118 205 117.105 205 116C205 114.895 204.328 114 203.5 114Z" fill="#B3D4FF"></path><path d="M251 116C252.105 116 253 115.105 253 114C253 112.895 252.105 112 251 112C249.895 112 249 112.895 249 114C249 115.105 249.895 116 251 116Z" fill="#808FA2"></path><path d="M-5.11045e-07 151.5L20.25 139.809L20.25 163.191L-5.11045e-07 151.5Z" fill="#F178B6"></path></svg>