<svg xmlns="http://www.w3.org/2000/svg" width="589" height="304" viewBox="0 0 589 304" fill="none"><rect x="1" y="1" width="568" height="302" rx="10" fill="#FFFEFC" stroke="#FFAA45" stroke-width="2"></rect><rect x="55" y="161" width="131" height="29" rx="14.5" stroke="black" stroke-width="2"></rect><path d="M71.544 182L72.7457 178.536H77.8594L79.0547 182H81.1513L76.4403 168.909H74.1584L69.4474 182H71.544ZM73.321 176.874L75.2514 171.287H75.3537L77.2841 176.874H73.321ZM83.0417 182H85.0169V177.398H87.7015C90.7377 177.398 92.2399 175.563 92.2399 173.147C92.2399 170.737 90.7505 168.909 87.7079 168.909H83.0417V182ZM85.0169 175.723V170.603H87.497C89.4529 170.603 90.252 171.664 90.252 173.147C90.252 174.63 89.4529 175.723 87.5226 175.723H85.0169ZM96.5305 168.909H94.5554V182H96.5305V168.909ZM111.311 172.348H113.215C113.158 170.251 111.304 168.73 108.645 168.73C106.018 168.73 104.004 170.232 104.004 172.489C104.004 174.31 105.308 175.378 107.411 175.947L108.958 176.369C110.358 176.739 111.438 177.2 111.438 178.363C111.438 179.641 110.218 180.485 108.536 180.485C107.015 180.485 105.749 179.808 105.634 178.382H103.653C103.781 180.754 105.615 182.217 108.549 182.217C111.624 182.217 113.394 180.6 113.394 178.382C113.394 176.023 111.291 175.109 109.629 174.7L108.351 174.368C107.328 174.106 105.967 173.626 105.973 172.374C105.973 171.261 106.99 170.437 108.6 170.437C110.102 170.437 111.17 171.14 111.311 172.348ZM119.737 182.198C122.057 182.198 123.559 180.805 123.77 178.893H121.91C121.667 179.955 120.843 180.581 119.75 180.581C118.132 180.581 117.091 179.232 117.091 177.091C117.091 174.988 118.152 173.665 119.75 173.665C120.964 173.665 121.706 174.432 121.91 175.352H123.77C123.566 173.371 121.949 172.054 119.718 172.054C116.95 172.054 115.16 174.138 115.16 177.136C115.16 180.095 116.886 182.198 119.737 182.198ZM127.725 176.17C127.725 174.604 128.716 173.71 130.078 173.71C131.394 173.71 132.181 174.547 132.181 175.985V182H134.092V175.755C134.092 173.307 132.749 172.054 130.73 172.054C129.202 172.054 128.281 172.719 127.821 173.78H127.7V168.909H125.814V182H127.725V176.17ZM140.874 182.198C143.015 182.198 144.53 181.143 144.965 179.545L143.156 179.219C142.811 180.146 141.98 180.619 140.893 180.619C139.257 180.619 138.157 179.558 138.106 177.666H145.086V176.989C145.086 173.441 142.964 172.054 140.74 172.054C138.004 172.054 136.201 174.138 136.201 177.155C136.201 180.204 137.978 182.198 140.874 182.198ZM138.112 176.234C138.189 174.841 139.199 173.633 140.752 173.633C142.235 173.633 143.207 174.732 143.213 176.234H138.112ZM147.207 182H149.118V175.947C149.118 174.624 150.045 173.703 151.131 173.703C152.192 173.703 152.928 174.406 152.928 175.474V182H154.832V175.742C154.832 174.56 155.555 173.703 156.801 173.703C157.811 173.703 158.642 174.266 158.642 175.595V182H160.553V175.416C160.553 173.173 159.3 172.054 157.523 172.054C156.111 172.054 155.05 172.732 154.577 173.78H154.474C154.046 172.706 153.145 172.054 151.835 172.054C150.537 172.054 149.572 172.7 149.163 173.78H149.041V172.182H147.207V182ZM165.972 182.217C167.596 182.217 168.51 181.393 168.874 180.658H168.951V182H170.817V175.48C170.817 172.623 168.567 172.054 167.008 172.054C165.231 172.054 163.594 172.77 162.955 174.56L164.751 174.969C165.032 174.272 165.748 173.601 167.033 173.601C168.267 173.601 168.9 174.246 168.9 175.359V175.403C168.9 176.1 168.184 176.087 166.42 176.292C164.559 176.509 162.655 176.995 162.655 179.226C162.655 181.156 164.106 182.217 165.972 182.217ZM166.388 180.683C165.307 180.683 164.528 180.197 164.528 179.251C164.528 178.229 165.435 177.864 166.541 177.717C167.161 177.634 168.631 177.468 168.906 177.193V178.459C168.906 179.622 167.979 180.683 166.388 180.683Z" fill="black"></path><rect x="212" y="50" width="152" height="29" rx="14.5" stroke="black" stroke-width="2"></rect><rect x="384" y="161" width="131" height="29" rx="14.5" stroke="black" stroke-width="2"></rect><path d="M397.544 182L398.746 178.536H403.859L405.055 182H407.151L402.44 168.909H400.158L395.447 182H397.544ZM399.321 176.874L401.251 171.287H401.354L403.284 176.874H399.321ZM409.042 182H411.017V177.398H413.702C416.738 177.398 418.24 175.563 418.24 173.147C418.24 170.737 416.751 168.909 413.708 168.909H409.042V182ZM411.017 175.723V170.603H413.497C415.453 170.603 416.252 171.664 416.252 173.147C416.252 174.63 415.453 175.723 413.523 175.723H411.017ZM422.531 168.909H420.555V182H422.531V168.909ZM430.171 182H435.188C438.231 182 439.605 180.485 439.605 178.478C439.605 176.452 438.186 175.308 436.889 175.237V175.109C438.09 174.803 439.094 173.984 439.094 172.348C439.094 170.411 437.752 168.909 434.965 168.909H430.171V182ZM432.146 180.306V176.113H435.067C436.652 176.113 437.643 177.136 437.643 178.382C437.643 179.482 436.895 180.306 434.997 180.306H432.146ZM432.146 174.572V170.59H434.843C436.409 170.59 437.157 171.415 437.157 172.501C437.157 173.767 436.122 174.572 434.792 174.572H432.146ZM446.026 182.198C448.167 182.198 449.682 181.143 450.117 179.545L448.308 179.219C447.963 180.146 447.132 180.619 446.045 180.619C444.409 180.619 443.309 179.558 443.258 177.666H450.238V176.989C450.238 173.441 448.116 172.054 445.892 172.054C443.156 172.054 441.354 174.138 441.354 177.155C441.354 180.204 443.131 182.198 446.026 182.198ZM443.265 176.234C443.341 174.841 444.351 173.633 445.905 173.633C447.388 173.633 448.359 174.732 448.366 176.234H443.265ZM454.27 176.17C454.27 174.604 455.261 173.71 456.623 173.71C457.939 173.71 458.725 174.547 458.725 175.985V182H460.637V175.755C460.637 173.307 459.294 172.054 457.275 172.054C455.747 172.054 454.826 172.719 454.366 173.78H454.245V168.909H452.359V182H454.27V176.17ZM466.044 182.217C467.668 182.217 468.582 181.393 468.946 180.658H469.023V182H470.89V175.48C470.89 172.623 468.64 172.054 467.08 172.054C465.303 172.054 463.667 172.77 463.027 174.56L464.824 174.969C465.105 174.272 465.821 173.601 467.105 173.601C468.339 173.601 468.972 174.246 468.972 175.359V175.403C468.972 176.1 468.256 176.087 466.492 176.292C464.632 176.509 462.727 176.995 462.727 179.226C462.727 181.156 464.178 182.217 466.044 182.217ZM466.46 180.683C465.38 180.683 464.6 180.197 464.6 179.251C464.6 178.229 465.507 177.864 466.613 177.717C467.233 177.634 468.703 177.468 468.978 177.193V178.459C468.978 179.622 468.051 180.683 466.46 180.683ZM481.483 172.182H479.431L476.951 179.737H476.849L474.362 172.182H472.31L475.877 182H477.922L481.483 172.182ZM483.279 182H485.19V172.182H483.279V182ZM484.244 170.667C484.903 170.667 485.452 170.156 485.452 169.529C485.452 168.903 484.903 168.385 484.244 168.385C483.579 168.385 483.036 168.903 483.036 169.529C483.036 170.156 483.579 170.667 484.244 170.667ZM491.897 182.198C494.665 182.198 496.474 180.172 496.474 177.136C496.474 174.08 494.665 172.054 491.897 172.054C489.129 172.054 487.32 174.08 487.32 177.136C487.32 180.172 489.129 182.198 491.897 182.198ZM491.903 180.594C490.094 180.594 489.251 179.015 489.251 177.129C489.251 175.25 490.094 173.652 491.903 173.652C493.7 173.652 494.543 175.25 494.543 177.129C494.543 179.015 493.7 180.594 491.903 180.594ZM498.607 182H500.518V176.004C500.518 174.719 501.509 173.793 502.864 173.793C503.26 173.793 503.708 173.863 503.861 173.908V172.08C503.67 172.054 503.292 172.035 503.05 172.035C501.899 172.035 500.915 172.687 500.557 173.741H500.454V172.182H498.607V182Z" fill="black"></path><path d="M236.857 57.9091V66.3594C236.857 68.1364 235.629 69.4148 233.635 69.4148C231.647 69.4148 230.413 68.1364 230.413 66.3594V57.9091H228.438V66.5192C228.438 69.2678 230.496 71.2173 233.635 71.2173C236.773 71.2173 238.838 69.2678 238.838 66.5192V57.9091H236.857ZM248.914 63.5788C248.517 62.0511 247.322 61.054 245.2 61.054C242.982 61.054 241.409 62.2237 241.409 63.9624C241.409 65.3558 242.253 66.2827 244.094 66.6918L245.756 67.0561C246.702 67.267 247.143 67.6889 247.143 68.3026C247.143 69.0632 246.331 69.6577 245.078 69.6577C243.934 69.6577 243.199 69.1655 242.969 68.2003L241.122 68.4815C241.441 70.2202 242.886 71.1982 245.091 71.1982C247.463 71.1982 249.105 69.9389 249.105 68.1619C249.105 66.7749 248.223 65.9183 246.421 65.5028L244.861 65.1449C243.781 64.8892 243.314 64.5249 243.32 63.8601C243.314 63.1058 244.132 62.5689 245.219 62.5689C246.408 62.5689 246.958 63.2273 247.181 63.8857L248.914 63.5788ZM255.438 71.1982C257.58 71.1982 259.094 70.1435 259.529 68.5455L257.72 68.2195C257.375 69.1463 256.544 69.6193 255.457 69.6193C253.821 69.6193 252.722 68.5582 252.67 66.6662H259.651V65.9886C259.651 62.4411 257.528 61.054 255.304 61.054C252.568 61.054 250.766 63.1378 250.766 66.1548C250.766 69.2038 252.543 71.1982 255.438 71.1982ZM252.677 65.2344C252.754 63.8409 253.763 62.6328 255.317 62.6328C256.8 62.6328 257.771 63.7322 257.778 65.2344H252.677ZM261.771 71H263.682V65.0043C263.682 63.7195 264.673 62.7926 266.028 62.7926C266.425 62.7926 266.872 62.8629 267.025 62.9077V61.0795C266.834 61.054 266.456 61.0348 266.214 61.0348C265.063 61.0348 264.079 61.6868 263.721 62.7415H263.618V61.1818H261.771V71ZM273.596 71H278.614C281.657 71 283.031 69.4851 283.031 67.478C283.031 65.4517 281.612 64.3075 280.314 64.2372V64.1094C281.516 63.8026 282.52 62.9844 282.52 61.348C282.52 59.4112 281.177 57.9091 278.39 57.9091H273.596V71ZM275.572 69.3061V65.1129H278.493C280.078 65.1129 281.069 66.1357 281.069 67.3821C281.069 68.4815 280.321 69.3061 278.422 69.3061H275.572ZM275.572 63.5724V59.5902H278.269C279.835 59.5902 280.583 60.4148 280.583 61.5014C280.583 62.767 279.547 63.5724 278.218 63.5724H275.572ZM289.452 71.1982C291.593 71.1982 293.108 70.1435 293.543 68.5455L291.734 68.2195C291.389 69.1463 290.558 69.6193 289.471 69.6193C287.835 69.6193 286.735 68.5582 286.684 66.6662H293.664V65.9886C293.664 62.4411 291.542 61.054 289.318 61.054C286.582 61.054 284.779 63.1378 284.779 66.1548C284.779 69.2038 286.556 71.1982 289.452 71.1982ZM286.691 65.2344C286.767 63.8409 287.777 62.6328 289.33 62.6328C290.813 62.6328 291.785 63.7322 291.791 65.2344H286.691ZM297.696 65.1705C297.696 63.6044 298.687 62.7095 300.048 62.7095C301.365 62.7095 302.151 63.5469 302.151 64.9851V71H304.062V64.755C304.062 62.3068 302.72 61.054 300.7 61.054C299.173 61.054 298.252 61.7188 297.792 62.7798H297.67V57.9091H295.785V71H297.696V65.1705ZM309.47 71.2173C311.094 71.2173 312.008 70.3928 312.372 69.6577H312.449V71H314.315V64.4801C314.315 61.6229 312.065 61.054 310.506 61.054C308.729 61.054 307.092 61.7699 306.453 63.5597L308.249 63.9688C308.531 63.272 309.246 62.6009 310.531 62.6009C311.765 62.6009 312.398 63.2464 312.398 64.3587V64.4034C312.398 65.1001 311.682 65.0874 309.918 65.2919C308.058 65.5092 306.153 65.995 306.153 68.2259C306.153 70.1562 307.604 71.2173 309.47 71.2173ZM309.886 69.6832C308.805 69.6832 308.026 69.1974 308.026 68.2514C308.026 67.2287 308.933 66.8643 310.039 66.7173C310.659 66.6342 312.129 66.468 312.404 66.1932V67.4588C312.404 68.6222 311.477 69.6832 309.886 69.6832ZM324.909 61.1818H322.857L320.377 68.7372H320.274L317.788 61.1818H315.736L319.303 71H321.348L324.909 61.1818ZM326.705 71H328.616V61.1818H326.705V71ZM327.67 59.6669C328.328 59.6669 328.878 59.1555 328.878 58.5291C328.878 57.9027 328.328 57.3849 327.67 57.3849C327.005 57.3849 326.462 57.9027 326.462 58.5291C326.462 59.1555 327.005 59.6669 327.67 59.6669ZM335.323 71.1982C338.091 71.1982 339.9 69.1719 339.9 66.1357C339.9 63.0803 338.091 61.054 335.323 61.054C332.555 61.054 330.746 63.0803 330.746 66.1357C330.746 69.1719 332.555 71.1982 335.323 71.1982ZM335.329 69.5938C333.52 69.5938 332.676 68.0149 332.676 66.1293C332.676 64.25 333.52 62.652 335.329 62.652C337.125 62.652 337.969 64.25 337.969 66.1293C337.969 68.0149 337.125 69.5938 335.329 69.5938ZM342.033 71H343.944V65.0043C343.944 63.7195 344.935 62.7926 346.29 62.7926C346.686 62.7926 347.134 62.8629 347.287 62.9077V61.0795C347.095 61.054 346.718 61.0348 346.475 61.0348C345.325 61.0348 344.34 61.6868 343.982 62.7415H343.88V61.1818H342.033V71Z" fill="black"></path><g opacity="0.7"><path fill-rule="evenodd" clip-rule="evenodd" d="M302.259 254.466H242.394C243.882 252.431 244.939 250.282 246.268 248.329C247.64 246.31 248.989 244.311 250.026 242.01C251.115 239.683 252.07 237.295 252.886 234.858C253.705 232.35 253.983 229.456 254.513 226.413C255.017 223.322 255.093 220.175 254.738 217.063C254.354 214.182 253.108 211.971 252.087 209.629C251.067 207.287 249.672 205.418 248.048 203.605C246.424 201.792 244.883 200.066 243.223 198.366C241.554 196.651 240.12 194.719 238.961 192.622C238.368 191.561 237.848 190.417 237.278 189.296C234.382 183.641 232.284 177.444 232.059 169.305C232.012 166.146 232.162 162.986 232.509 159.846C232.817 157.047 233.442 154.293 234.372 151.636C235.148 149.184 236.146 146.808 237.354 144.538C238.483 142.377 239.777 140.306 241.225 138.345C244.14 134.531 247.831 131.384 252.051 129.111C256.445 126.75 261.641 125.453 267.033 123.986C268.378 123.607 269.743 123.304 271.122 123.081C274.105 122.625 277.342 122.609 280.434 122.416C283.625 122.203 286.942 122.472 289.974 122.695C292.864 122.911 295.85 123.636 298.445 124.272C299.747 124.604 300.966 125.133 302.203 125.569C304.824 126.49 307.13 127.428 309.331 128.439C311.584 129.477 313.572 130.888 315.561 132.265C317.52 133.628 319.229 135.323 320.611 137.274C323.5 141.327 325.815 145.762 327.49 150.452C327.948 151.716 328.302 152.934 328.836 154.111C329.913 156.479 331.023 158.522 332.259 160.764C332.983 161.966 333.353 163.35 333.326 164.755C333.217 167.033 332.262 168.796 331.417 170.386C331.225 170.749 330.576 171.557 330.576 172.073C330.576 172.774 331.305 173.836 331.643 174.497C332.077 175.342 332.677 175.914 333.101 176.523C334.047 177.944 334.891 179.432 335.626 180.974C336.03 181.795 336.289 182.637 336.693 183.395C337.118 184.113 337.606 184.79 338.151 185.421C339.145 186.651 340.673 187.856 340.955 189.645C341.286 191.641 339.738 192.389 338.486 193.134C337.127 193.949 335.977 194.821 334.672 195.795C333.926 196.347 333.058 196.517 332.875 197.259C332.61 198.363 333.836 199.471 334.337 200.252C334.983 201.293 335.22 202.538 335 203.745C334.817 204.66 334.078 205.242 333.541 205.714C333.412 205.827 333.064 205.937 333.147 206.22C333.413 206.5 333.599 206.846 333.689 207.222C333.778 207.598 333.766 207.991 333.654 208.362C333.369 209.503 332.18 209.825 331.464 210.444C330.844 210.983 330.407 212.772 330.344 213.77C330.329 214.034 330.347 214.299 330.397 214.558C330.658 215.969 331.391 217.033 331.858 218.164C332.375 219.505 332.375 220.991 331.858 222.332C331.079 224.507 329.956 226.988 327.931 228.582C326.162 229.965 323.206 230.78 320.309 231.06C317.254 231.352 313.851 231.775 310.716 231.961C308.865 235.385 307.271 238.943 305.947 242.605C304.532 246.443 303.608 250.674 302.259 254.466Z" stroke="black" stroke-width="2" stroke-miterlimit="10"></path></g><path fill-rule="evenodd" clip-rule="evenodd" d="M258.06 133.188L300.157 133L310.961 144.547C311.661 144.228 312.446 144.145 313.197 144.31C313.948 144.476 314.626 144.881 315.129 145.465C315.631 146.05 315.932 146.782 315.986 147.552C316.039 148.322 315.843 149.089 315.426 149.738C315.01 150.386 314.395 150.882 313.674 151.151C312.953 151.42 312.165 151.447 311.427 151.229C310.689 151.011 310.042 150.559 309.581 149.94C309.121 149.322 308.872 148.571 308.873 147.799C308.871 147.079 309.089 146.376 309.496 145.783L299.331 134.923L258.902 135.104L241.909 153.58V165.687L243.466 167.561C244.152 167.189 244.94 167.054 245.71 167.176C246.48 167.297 247.189 167.669 247.728 168.234C248.267 168.799 248.606 169.526 248.694 170.303C248.782 171.08 248.614 171.865 248.215 172.537C247.815 173.209 247.208 173.73 246.485 174.022C245.762 174.314 244.963 174.36 244.212 174.152C243.46 173.944 242.798 173.495 242.325 172.873C241.853 172.251 241.596 171.491 241.596 170.709C241.594 170.072 241.765 169.447 242.089 168.9L239.997 166.382V152.831L258.06 133.188ZM276.651 170.816C277.379 170.345 278.252 170.155 279.108 170.281C279.965 170.407 280.747 170.84 281.31 171.5C281.873 172.16 282.178 173.002 282.17 173.871C282.161 174.74 281.84 175.577 281.264 176.226C280.688 176.875 279.898 177.292 279.039 177.401C278.18 177.51 277.311 177.303 276.592 176.818C275.874 176.333 275.355 175.603 275.132 174.763C274.908 173.924 274.996 173.032 275.377 172.252L262.814 159.649L262.94 152.378C262.145 152.044 261.497 151.432 261.117 150.655C260.736 149.879 260.649 148.99 260.871 148.154C261.092 147.318 261.608 146.59 262.323 146.106C263.037 145.622 263.903 145.414 264.758 145.521C265.614 145.627 266.402 146.041 266.977 146.685C267.552 147.33 267.875 148.162 267.887 149.027C267.898 149.892 267.597 150.733 267.04 151.392C266.482 152.052 265.705 152.487 264.852 152.616L264.741 158.866L276.651 170.816ZM311.769 160.005C311.268 159.75 310.715 159.617 310.153 159.618C309.686 159.618 309.223 159.711 308.791 159.89C308.359 160.07 307.966 160.333 307.635 160.665C307.305 160.997 307.043 161.391 306.864 161.825C306.685 162.258 306.593 162.723 306.593 163.192C306.591 163.663 306.684 164.129 306.864 164.563L301.854 170.536H290.262L284.525 165.016C284.937 164.338 285.114 163.543 285.028 162.754C284.941 161.965 284.597 161.228 284.048 160.657C283.499 160.086 282.776 159.713 281.994 159.599C281.212 159.484 280.414 159.633 279.725 160.022C279.036 160.411 278.495 161.019 278.187 161.75C277.879 162.481 277.821 163.294 278.023 164.061C278.225 164.828 278.674 165.507 279.302 165.99C279.929 166.473 280.698 166.734 281.488 166.732C282.057 166.738 282.619 166.606 283.125 166.348L289.501 172.49H302.726L308.08 166.094C308.536 166.423 309.063 166.639 309.618 166.725C310.173 166.81 310.74 166.763 311.273 166.587C311.806 166.41 312.29 166.11 312.686 165.71C313.081 165.31 313.377 164.822 313.548 164.285C313.72 163.749 313.763 163.179 313.674 162.623C313.584 162.067 313.365 161.54 313.034 161.085C312.703 160.63 312.269 160.26 311.769 160.005ZM302.302 144.409C303.247 144.409 304.152 144.785 304.82 145.456C305.488 146.126 305.863 147.035 305.863 147.983C305.863 148.931 305.488 149.84 304.82 150.51C304.152 151.18 303.247 151.557 302.302 151.557C301.659 151.557 301.028 151.38 300.478 151.046L295.609 155.445L295.835 160.09C296.669 160.296 297.4 160.797 297.894 161.502C298.388 162.207 298.611 163.068 298.522 163.925C298.432 164.782 298.037 165.578 297.408 166.165C296.779 166.752 295.96 167.091 295.102 167.118C294.244 167.146 293.404 166.86 292.74 166.315C292.075 165.77 291.629 165.001 291.485 164.151C291.342 163.301 291.509 162.428 291.957 161.693C292.405 160.958 293.104 160.41 293.923 160.152L293.655 154.628L299.158 149.668C298.87 149.124 298.726 148.514 298.743 147.897C298.759 147.281 298.933 146.679 299.25 146.151C299.567 145.622 300.014 145.185 300.549 144.882C301.084 144.579 301.688 144.42 302.302 144.42V144.409ZM297.57 138.943C297.058 138.674 296.489 138.534 295.911 138.535L295.93 138.539C295.378 138.535 294.832 138.66 294.336 138.905C293.84 139.149 293.408 139.507 293.074 139.948C292.74 140.39 292.513 140.904 292.411 141.449C292.309 141.994 292.336 142.555 292.488 143.088L284.342 151.71L277.041 152.059C276.79 151.236 276.25 150.532 275.522 150.077C274.794 149.622 273.927 149.447 273.08 149.585C272.233 149.722 271.465 150.163 270.917 150.825C270.369 151.487 270.078 152.326 270.099 153.187C270.119 154.047 270.45 154.871 271.029 155.506C271.608 156.142 272.396 156.545 273.249 156.641C274.101 156.738 274.959 156.521 275.665 156.032C276.37 155.542 276.875 154.813 277.087 153.979L285.202 153.595L293.536 144.766C293.965 145.154 294.483 145.431 295.043 145.573C295.603 145.716 296.189 145.72 296.751 145.584C297.313 145.448 297.834 145.177 298.268 144.794C298.702 144.411 299.037 143.928 299.243 143.386C299.45 142.845 299.522 142.26 299.453 141.684C299.385 141.108 299.177 140.558 298.849 140.08C298.521 139.603 298.082 139.213 297.57 138.943ZM251.727 148.075C252.497 148.075 253.246 148.326 253.861 148.789L261.736 140.889L279.78 140.578C280.064 139.765 280.632 139.082 281.378 138.656C282.125 138.231 282.999 138.091 283.841 138.262C284.682 138.434 285.433 138.905 285.955 139.59C286.477 140.274 286.734 141.125 286.679 141.985C286.624 142.845 286.261 143.656 285.657 144.268C285.052 144.88 284.247 145.251 283.391 145.314C282.535 145.376 281.685 145.126 280.999 144.608C280.312 144.09 279.836 143.34 279.658 142.497L262.543 142.793L255.043 150.321C255.209 150.743 255.295 151.192 255.296 151.645C255.296 152.352 255.087 153.043 254.696 153.631C254.304 154.219 253.748 154.677 253.098 154.947C252.447 155.218 251.731 155.288 251.04 155.151C250.35 155.013 249.715 154.672 249.217 154.172C248.719 153.673 248.38 153.036 248.243 152.342C248.105 151.649 248.176 150.931 248.445 150.278C248.715 149.625 249.171 149.066 249.757 148.674C250.342 148.281 251.031 148.071 251.735 148.071L251.727 148.075ZM244.928 157.654C244.315 158.312 243.971 159.177 243.966 160.078C243.966 160.901 244.248 161.699 244.766 162.337C245.283 162.975 246.004 163.414 246.807 163.581C247.609 163.747 248.445 163.63 249.172 163.25C249.899 162.87 250.473 162.25 250.797 161.495H255.731L265.46 171.115C265.026 171.867 264.879 172.751 265.045 173.604C265.211 174.457 265.679 175.221 266.363 175.754C267.047 176.287 267.9 176.553 268.764 176.503C269.629 176.453 270.446 176.09 271.064 175.481C271.682 174.873 272.06 174.06 272.127 173.194C272.194 172.327 271.946 171.466 271.429 170.769C270.911 170.072 270.16 169.587 269.314 169.403C268.467 169.22 267.583 169.351 266.826 169.771L256.499 159.575H251.049C250.918 158.684 250.457 157.876 249.757 157.311C249.057 156.747 248.171 156.469 247.276 156.533C246.38 156.596 245.542 156.997 244.928 157.654ZM244.97 176.298C245.839 176.294 246.679 176.61 247.332 177.186C247.984 177.762 248.404 178.558 248.513 179.423C248.621 180.288 248.41 181.164 247.919 181.883C247.429 182.603 246.692 183.118 245.85 183.33L252.08 189.415L258.849 188.866L265.095 195.35V207.069C265.874 207.434 266.495 208.069 266.844 208.857C267.194 209.646 267.247 210.535 266.994 211.359C266.741 212.184 266.2 212.889 265.47 213.345C264.739 213.8 263.87 213.975 263.021 213.837C262.173 213.699 261.402 213.257 260.853 212.594C260.303 211.93 260.011 211.09 260.031 210.227C260.051 209.365 260.38 208.538 260.96 207.901C261.539 207.263 262.328 206.857 263.182 206.758V196.117L258.107 190.858L251.369 191.407L243.83 184.04V183.273C243.028 183.003 242.348 182.456 241.911 181.729C241.475 181.001 241.311 180.141 241.449 179.304C241.587 178.466 242.018 177.705 242.665 177.158C243.312 176.61 244.132 176.312 244.978 176.317L244.97 176.298ZM271.785 185C272.382 185.417 273.092 185.641 273.82 185.641L273.831 185.652C274.507 185.652 275.168 185.46 275.739 185.097C276.309 184.734 276.765 184.215 277.053 183.602C277.341 182.989 277.449 182.306 277.365 181.633C277.281 180.96 277.008 180.326 276.578 179.803C276.148 179.28 275.578 178.891 274.936 178.681C274.294 178.47 273.605 178.448 272.951 178.616C272.297 178.783 271.703 179.134 271.24 179.628C270.777 180.121 270.463 180.737 270.336 181.403L266.893 181.56L260.308 174.946L255.718 175.33C255.504 174.49 254.993 173.757 254.281 173.265C253.569 172.774 252.704 172.559 251.846 172.659C250.988 172.759 250.195 173.167 249.614 173.809C249.034 174.451 248.704 175.282 248.687 176.149C248.669 177.016 248.966 177.859 249.521 178.524C250.075 179.188 250.851 179.628 251.705 179.763C252.558 179.897 253.431 179.716 254.162 179.254C254.893 178.792 255.432 178.08 255.68 177.249L259.577 176.923L266.136 183.503L270.481 183.307C270.733 183.992 271.188 184.582 271.785 185ZM289.336 175.388C290.127 175.391 290.896 175.659 291.519 176.149C292.142 176.639 292.585 177.323 292.778 178.094H307.724L316.861 168.228V159.979C316.046 159.702 315.358 159.138 314.925 158.391C314.492 157.645 314.343 156.766 314.505 155.918C314.668 155.07 315.131 154.309 315.809 153.777C316.487 153.245 317.334 152.978 318.194 153.024C319.053 153.071 319.867 153.428 320.484 154.031C321.101 154.633 321.48 155.439 321.55 156.3C321.621 157.161 321.379 158.018 320.868 158.714C320.358 159.409 319.613 159.895 318.773 160.082V168.977L308.558 179.994H292.74C292.546 180.626 292.181 181.192 291.686 181.628C291.19 182.065 290.584 182.354 289.935 182.465C289.285 182.577 288.617 182.504 288.006 182.257C287.395 182.01 286.864 181.598 286.473 181.066C286.081 180.534 285.844 179.903 285.789 179.244C285.733 178.585 285.861 177.923 286.158 177.333C286.454 176.742 286.909 176.246 287.47 175.899C288.031 175.552 288.677 175.369 289.336 175.368V175.388ZM270.121 193.661V200.072C269.293 200.304 268.577 200.829 268.105 201.55C267.633 202.271 267.437 203.14 267.554 203.995C267.67 204.85 268.091 205.633 268.739 206.201C269.387 206.768 270.218 207.08 271.077 207.08C271.937 207.08 272.768 206.768 273.416 206.201C274.064 205.633 274.485 204.85 274.601 203.995C274.718 203.14 274.522 202.271 274.05 201.55C273.578 200.829 272.862 200.304 272.034 200.072V194.486L280.964 185.96C281.364 186.115 281.789 186.194 282.218 186.194C283.022 186.195 283.801 185.922 284.431 185.421C285.06 184.92 285.502 184.219 285.684 183.434C285.866 182.649 285.778 181.824 285.434 181.096C285.09 180.367 284.51 179.777 283.79 179.421C283.069 179.065 282.249 178.964 281.464 179.136C280.679 179.307 279.975 179.74 279.466 180.364C278.958 180.989 278.675 181.767 278.663 182.574C278.652 183.38 278.913 184.166 279.403 184.805L270.121 193.661Z" fill="#FFB946"></path><path d="M288 86L288 117" stroke="black" stroke-width="2"></path><path d="M376 175H339" stroke="black" stroke-width="2"></path><path d="M227 175H192" stroke="black" stroke-width="2"></path><path d="M588.25 151.691L568 163.383L568 140L588.25 151.691Z" fill="#FFAA45"></path></svg>