<svg xmlns="http://www.w3.org/2000/svg" width="589" height="304" viewBox="0 0 589 304" fill="none"><rect x="20" y="1" width="568" height="302" rx="10" fill="#FBFDFC" stroke="#36B37E" stroke-width="2"></rect><path d="M64.8714 250.225L64.8608 248.281H65.1378L68.3977 244.818H70.3047L66.5866 248.76H66.3363L64.8714 250.225ZM63.4066 253V242.091H64.9993V253H63.4066ZM68.5735 253L65.6438 249.112L66.7411 247.998L70.5284 253H68.5735ZM76.9391 249.607V244.818H78.5371V253H76.9711V251.583H76.8858C76.6976 252.02 76.3958 252.384 75.9803 252.675C75.5684 252.963 75.0552 253.107 74.4409 253.107C73.9153 253.107 73.4501 252.991 73.0453 252.76C72.644 252.526 72.3279 252.18 72.0971 251.722C71.8699 251.263 71.7562 250.697 71.7562 250.022V244.818H73.3489V249.831C73.3489 250.388 73.5034 250.832 73.8123 251.162C74.1213 251.493 74.5225 251.658 75.0162 251.658C75.3145 251.658 75.611 251.583 75.9057 251.434C76.204 251.285 76.4508 251.059 76.6461 250.757C76.845 250.456 76.9426 250.072 76.9391 249.607ZM80.805 253V242.091H82.3976V246.145H82.4935C82.5858 245.974 82.719 245.777 82.893 245.553C83.067 245.33 83.3085 245.134 83.6175 244.967C83.9264 244.797 84.3348 244.712 84.8426 244.712C85.5031 244.712 86.0926 244.879 86.6111 245.212C87.1295 245.546 87.5361 246.027 87.8309 246.656C88.1292 247.284 88.2783 248.041 88.2783 248.925C88.2783 249.809 88.1309 250.567 87.8362 251.2C87.5415 251.828 87.1366 252.313 86.6217 252.654C86.1068 252.991 85.5191 253.16 84.8586 253.16C84.3614 253.16 83.9548 253.076 83.6388 252.909C83.3263 252.743 83.0812 252.547 82.9037 252.324C82.7261 252.1 82.5894 251.901 82.4935 251.727H82.3604V253H80.805ZM82.3657 248.909C82.3657 249.484 82.4491 249.989 82.616 250.422C82.7829 250.855 83.0244 251.194 83.3405 251.439C83.6565 251.681 84.0436 251.801 84.5017 251.801C84.9775 251.801 85.3753 251.675 85.6949 251.423C86.0145 251.168 86.2559 250.821 86.4193 250.385C86.5862 249.948 86.6697 249.456 86.6697 248.909C86.6697 248.369 86.588 247.885 86.4246 247.455C86.2648 247.025 86.0233 246.686 85.7002 246.438C85.3806 246.189 84.9811 246.065 84.5017 246.065C84.04 246.065 83.6494 246.184 83.3298 246.422C83.0138 246.659 82.7741 246.991 82.6107 247.418C82.4474 247.844 82.3657 248.341 82.3657 248.909ZM93.593 253.165C92.7869 253.165 92.0927 252.993 91.5103 252.648C90.9315 252.3 90.484 251.812 90.168 251.184C89.8555 250.551 89.6992 249.811 89.6992 248.962C89.6992 248.124 89.8555 247.386 90.168 246.746C90.484 246.107 90.9244 245.608 91.489 245.25C92.0572 244.891 92.7212 244.712 93.4812 244.712C93.9428 244.712 94.3903 244.788 94.8235 244.941C95.2567 245.093 95.6456 245.333 95.9901 245.66C96.3345 245.987 96.6062 246.411 96.805 246.933C97.0039 247.451 97.1033 248.082 97.1033 248.824V249.388H90.5994V248.195H95.5426C95.5426 247.776 95.4574 247.405 95.2869 247.082C95.1165 246.755 94.8768 246.498 94.5678 246.31C94.2624 246.121 93.9038 246.027 93.4918 246.027C93.0444 246.027 92.6538 246.137 92.32 246.358C91.9897 246.574 91.734 246.858 91.5529 247.21C91.3754 247.558 91.2866 247.936 91.2866 248.344V249.277C91.2866 249.824 91.3825 250.289 91.5742 250.672C91.7695 251.056 92.0412 251.349 92.3892 251.551C92.7372 251.75 93.1438 251.849 93.609 251.849C93.9109 251.849 94.1861 251.807 94.4347 251.722C94.6832 251.633 94.8981 251.501 95.0792 251.327C95.2603 251.153 95.3988 250.939 95.4947 250.683L97.0021 250.955C96.8814 251.398 96.6648 251.787 96.3523 252.121C96.0433 252.451 95.6545 252.709 95.1857 252.893C94.7205 253.075 94.1896 253.165 93.593 253.165ZM98.8705 253V244.818H100.41V246.118H100.495C100.644 245.678 100.907 245.331 101.283 245.079C101.663 244.824 102.093 244.696 102.573 244.696C102.672 244.696 102.789 244.699 102.924 244.706C103.063 244.713 103.171 244.722 103.249 244.733V246.256C103.185 246.239 103.071 246.219 102.908 246.198C102.745 246.173 102.581 246.161 102.418 246.161C102.042 246.161 101.706 246.24 101.411 246.4C101.12 246.556 100.889 246.775 100.719 247.055C100.548 247.332 100.463 247.648 100.463 248.004V253H98.8705ZM106.22 248.142V253H104.627V244.818H106.156V246.15H106.257C106.445 245.717 106.74 245.369 107.142 245.106C107.546 244.843 108.056 244.712 108.67 244.712C109.228 244.712 109.716 244.829 110.135 245.063C110.554 245.294 110.879 245.638 111.11 246.097C111.341 246.555 111.456 247.121 111.456 247.796V253H109.863V247.988C109.863 247.395 109.709 246.931 109.4 246.597C109.091 246.26 108.667 246.091 108.127 246.091C107.758 246.091 107.429 246.171 107.142 246.331C106.857 246.491 106.632 246.725 106.465 247.034C106.302 247.339 106.22 247.709 106.22 248.142ZM117.118 253.165C116.312 253.165 115.618 252.993 115.036 252.648C114.457 252.3 114.009 251.812 113.693 251.184C113.381 250.551 113.225 249.811 113.225 248.962C113.225 248.124 113.381 247.386 113.693 246.746C114.009 246.107 114.45 245.608 115.014 245.25C115.583 244.891 116.247 244.712 117.007 244.712C117.468 244.712 117.916 244.788 118.349 244.941C118.782 245.093 119.171 245.333 119.515 245.66C119.86 245.987 120.132 246.411 120.33 246.933C120.529 247.451 120.629 248.082 120.629 248.824V249.388H114.125V248.195H119.068C119.068 247.776 118.983 247.405 118.812 247.082C118.642 246.755 118.402 246.498 118.093 246.31C117.788 246.121 117.429 246.027 117.017 246.027C116.57 246.027 116.179 246.137 115.845 246.358C115.515 246.574 115.259 246.858 115.078 247.21C114.901 247.558 114.812 247.936 114.812 248.344V249.277C114.812 249.824 114.908 250.289 115.1 250.672C115.295 251.056 115.567 251.349 115.915 251.551C116.263 251.75 116.669 251.849 117.134 251.849C117.436 251.849 117.711 251.807 117.96 251.722C118.209 251.633 118.423 251.501 118.605 251.327C118.786 251.153 118.924 250.939 119.02 250.683L120.528 250.955C120.407 251.398 120.19 251.787 119.878 252.121C119.569 252.451 119.18 252.709 118.711 252.893C118.246 253.075 117.715 253.165 117.118 253.165ZM126.215 244.818V246.097H121.746V244.818H126.215ZM122.945 242.858H124.537V250.598C124.537 250.907 124.583 251.139 124.676 251.295C124.768 251.448 124.887 251.553 125.033 251.61C125.182 251.663 125.343 251.69 125.517 251.69C125.645 251.69 125.757 251.681 125.853 251.663C125.949 251.645 126.023 251.631 126.077 251.62L126.364 252.936C126.272 252.972 126.141 253.007 125.97 253.043C125.8 253.082 125.587 253.103 125.331 253.107C124.912 253.114 124.521 253.039 124.159 252.883C123.797 252.727 123.504 252.485 123.28 252.158C123.056 251.832 122.945 251.422 122.945 250.928V242.858ZM131.415 253.165C130.609 253.165 129.915 252.993 129.333 252.648C128.754 252.3 128.306 251.812 127.99 251.184C127.678 250.551 127.521 249.811 127.521 248.962C127.521 248.124 127.678 247.386 127.99 246.746C128.306 246.107 128.747 245.608 129.311 245.25C129.879 244.891 130.544 244.712 131.303 244.712C131.765 244.712 132.213 244.788 132.646 244.941C133.079 245.093 133.468 245.333 133.812 245.66C134.157 245.987 134.428 246.411 134.627 246.933C134.826 247.451 134.926 248.082 134.926 248.824V249.388H128.422V248.195H133.365C133.365 247.776 133.28 247.405 133.109 247.082C132.939 246.755 132.699 246.498 132.39 246.31C132.085 246.121 131.726 246.027 131.314 246.027C130.867 246.027 130.476 246.137 130.142 246.358C129.812 246.574 129.556 246.858 129.375 247.21C129.198 247.558 129.109 247.936 129.109 248.344V249.277C129.109 249.824 129.205 250.289 129.396 250.672C129.592 251.056 129.863 251.349 130.211 251.551C130.559 251.75 130.966 251.849 131.431 251.849C131.733 251.849 132.008 251.807 132.257 251.722C132.506 251.633 132.72 251.501 132.901 251.327C133.083 251.153 133.221 250.939 133.317 250.683L134.824 250.955C134.704 251.398 134.487 251.787 134.175 252.121C133.866 252.451 133.477 252.709 133.008 252.893C132.543 253.075 132.012 253.165 131.415 253.165ZM142.824 246.816L141.38 247.071C141.32 246.887 141.224 246.711 141.093 246.544C140.965 246.377 140.791 246.24 140.571 246.134C140.35 246.027 140.075 245.974 139.745 245.974C139.294 245.974 138.918 246.075 138.616 246.278C138.314 246.477 138.163 246.734 138.163 247.05C138.163 247.324 138.264 247.544 138.467 247.711C138.669 247.877 138.996 248.014 139.447 248.121L140.746 248.419C141.499 248.593 142.06 248.861 142.43 249.223C142.799 249.586 142.984 250.056 142.984 250.635C142.984 251.125 142.842 251.562 142.557 251.945C142.277 252.325 141.884 252.624 141.38 252.84C140.88 253.057 140.299 253.165 139.638 253.165C138.722 253.165 137.975 252.97 137.396 252.579C136.817 252.185 136.462 251.626 136.331 250.901L137.87 250.667C137.966 251.068 138.163 251.372 138.461 251.578C138.759 251.78 139.148 251.881 139.628 251.881C140.15 251.881 140.567 251.773 140.88 251.556C141.192 251.336 141.348 251.068 141.348 250.752C141.348 250.496 141.252 250.282 141.061 250.108C140.872 249.934 140.583 249.802 140.192 249.713L138.807 249.41C138.044 249.236 137.479 248.959 137.114 248.579C136.751 248.199 136.57 247.718 136.57 247.135C136.57 246.652 136.705 246.23 136.975 245.868C137.245 245.505 137.618 245.223 138.094 245.021C138.57 244.815 139.115 244.712 139.729 244.712C140.613 244.712 141.309 244.903 141.817 245.287C142.325 245.667 142.66 246.176 142.824 246.816Z" fill="#F4F5F7"></path><path d="M78.8557 45.1662H76.8613C76.7846 44.7401 76.6419 44.3651 76.4331 44.0412C76.2243 43.7173 75.9686 43.4425 75.666 43.2166C75.3635 42.9908 75.0247 42.8203 74.6497 42.7053C74.2789 42.5902 73.8848 42.5327 73.4672 42.5327C72.7129 42.5327 72.0375 42.7223 71.4409 43.1016C70.8485 43.4808 70.3798 44.0369 70.0346 44.7699C69.6937 45.5028 69.5233 46.3977 69.5233 47.4545C69.5233 48.5199 69.6937 49.419 70.0346 50.152C70.3798 50.8849 70.8507 51.4389 71.4473 51.8139C72.0439 52.1889 72.715 52.3764 73.4608 52.3764C73.8741 52.3764 74.2662 52.321 74.6369 52.2102C75.0119 52.0952 75.3507 51.9268 75.6532 51.7053C75.9558 51.4837 76.2115 51.2131 76.4203 50.8935C76.6333 50.5696 76.7804 50.1989 76.8613 49.7812L78.8557 49.7876C78.7491 50.4311 78.5424 51.0234 78.2356 51.5646C77.9331 52.1016 77.5432 52.5661 77.0659 52.9581C76.5929 53.3459 76.0517 53.6463 75.4423 53.8594C74.8329 54.0724 74.1682 54.179 73.448 54.179C72.3145 54.179 71.3045 53.9105 70.4182 53.3736C69.5318 52.8324 68.8329 52.0589 68.3216 51.0533C67.8145 50.0476 67.5609 48.848 67.5609 47.4545C67.5609 46.0568 67.8166 44.8572 68.328 43.8558C68.8393 42.8501 69.5382 42.0788 70.4245 41.5419C71.3109 41.0007 72.3187 40.7301 73.448 40.7301C74.1426 40.7301 74.7903 40.8303 75.3912 41.0305C75.9963 41.2266 76.5396 41.5163 77.0211 41.8999C77.5027 42.2791 77.9011 42.7436 78.2164 43.2933C78.5318 43.8388 78.7449 44.4631 78.8557 45.1662ZM87.4652 49.9283V44.1818H89.3828V54H87.5035V52.2997H87.4012C87.1754 52.8239 86.8132 53.2607 86.3146 53.6101C85.8203 53.9553 85.2045 54.1278 84.4673 54.1278C83.8366 54.1278 83.2784 53.9893 82.7926 53.7124C82.311 53.4311 81.9318 53.0156 81.6548 52.4659C81.3821 51.9162 81.2457 51.2365 81.2457 50.4268V44.1818H83.1569V50.1967C83.1569 50.8658 83.3423 51.3984 83.713 51.7947C84.0838 52.1911 84.5653 52.3892 85.1576 52.3892C85.5156 52.3892 85.8714 52.2997 86.2251 52.1207C86.5831 51.9418 86.8792 51.6712 87.1136 51.3089C87.3522 50.9467 87.4694 50.4865 87.4652 49.9283ZM99.488 46.5788L97.7558 46.8857C97.6833 46.6641 97.5683 46.4531 97.4106 46.2528C97.2572 46.0526 97.0484 45.8885 96.7842 45.7607C96.52 45.6328 96.1897 45.5689 95.7934 45.5689C95.2522 45.5689 94.8005 45.6903 94.4383 45.9332C94.0761 46.1719 93.895 46.4808 93.895 46.8601C93.895 47.1882 94.0164 47.4524 94.2593 47.6527C94.5022 47.853 94.8943 48.017 95.4355 48.1449L96.9951 48.5028C97.8985 48.7116 98.5718 49.0334 99.015 49.468C99.4582 49.9027 99.6798 50.4673 99.6798 51.1619C99.6798 51.75 99.5093 52.2741 99.1684 52.7344C98.8318 53.1903 98.3609 53.5483 97.7558 53.8082C97.1549 54.0682 96.4582 54.1982 95.6656 54.1982C94.5661 54.1982 93.6691 53.9638 92.9745 53.495C92.2799 53.022 91.8538 52.3509 91.6961 51.4815L93.5434 51.2003C93.6585 51.6818 93.895 52.0462 94.2529 52.2933C94.6109 52.5362 95.0775 52.6577 95.6528 52.6577C96.2792 52.6577 96.7799 52.5277 97.1549 52.2678C97.5299 52.0036 97.7174 51.6818 97.7174 51.3026C97.7174 50.9957 97.6024 50.7379 97.3723 50.5291C97.1464 50.3203 96.7991 50.1626 96.3304 50.0561L94.6684 49.6918C93.7522 49.483 93.0747 49.1506 92.6358 48.6946C92.2011 48.2386 91.9838 47.6612 91.9838 46.9624C91.9838 46.3828 92.1457 45.8757 92.4696 45.4411C92.7934 45.0064 93.2409 44.6676 93.8119 44.4247C94.3829 44.1776 95.037 44.054 95.7742 44.054C96.8353 44.054 97.6706 44.2841 98.2799 44.7443C98.8893 45.2003 99.292 45.8118 99.488 46.5788ZM106.544 44.1818V45.7159H101.181V44.1818H106.544ZM102.62 41.8295H104.531V51.1172C104.531 51.4879 104.586 51.767 104.697 51.9545C104.808 52.1378 104.951 52.2635 105.125 52.3317C105.304 52.3956 105.498 52.4276 105.707 52.4276C105.86 52.4276 105.995 52.4169 106.11 52.3956C106.225 52.3743 106.314 52.3572 106.378 52.3445L106.723 53.9233C106.612 53.9659 106.455 54.0085 106.25 54.0511C106.046 54.098 105.79 54.1236 105.483 54.1278C104.98 54.1364 104.512 54.0469 104.077 53.8594C103.642 53.6719 103.291 53.3821 103.022 52.9901C102.754 52.598 102.62 52.1058 102.62 51.5135V41.8295ZM112.869 54.1982C111.948 54.1982 111.145 53.9872 110.459 53.5653C109.773 53.1435 109.24 52.5533 108.861 51.7947C108.482 51.0362 108.292 50.1499 108.292 49.1357C108.292 48.1172 108.482 47.2266 108.861 46.4638C109.24 45.701 109.773 45.1087 110.459 44.6868C111.145 44.2649 111.948 44.054 112.869 44.054C113.789 44.054 114.592 44.2649 115.278 44.6868C115.965 45.1087 116.497 45.701 116.876 46.4638C117.256 47.2266 117.445 48.1172 117.445 49.1357C117.445 50.1499 117.256 51.0362 116.876 51.7947C116.497 52.5533 115.965 53.1435 115.278 53.5653C114.592 53.9872 113.789 54.1982 112.869 54.1982ZM112.875 52.5938C113.472 52.5938 113.966 52.4361 114.358 52.1207C114.75 51.8054 115.04 51.3857 115.227 50.8615C115.419 50.3374 115.515 49.7599 115.515 49.1293C115.515 48.5028 115.419 47.9276 115.227 47.4034C115.04 46.875 114.75 46.451 114.358 46.1314C113.966 45.8118 113.472 45.652 112.875 45.652C112.274 45.652 111.776 45.8118 111.379 46.1314C110.987 46.451 110.695 46.875 110.504 47.4034C110.316 47.9276 110.222 48.5028 110.222 49.1293C110.222 49.7599 110.316 50.3374 110.504 50.8615C110.695 51.3857 110.987 51.8054 111.379 52.1207C111.776 52.4361 112.274 52.5938 112.875 52.5938ZM119.759 54V44.1818H121.593V45.7798H121.715C121.919 45.2386 122.254 44.8168 122.718 44.5142C123.183 44.2074 123.739 44.054 124.387 44.054C125.043 44.054 125.592 44.2074 126.036 44.5142C126.483 44.821 126.813 45.2429 127.026 45.7798H127.129C127.363 45.2557 127.736 44.8381 128.247 44.527C128.759 44.2116 129.368 44.054 130.075 44.054C130.966 44.054 131.693 44.3331 132.255 44.8913C132.822 45.4496 133.105 46.2912 133.105 47.4162V54H131.194V47.5952C131.194 46.9304 131.013 46.4489 130.651 46.1506C130.289 45.8523 129.856 45.7031 129.353 45.7031C128.731 45.7031 128.247 45.8949 127.902 46.2784C127.557 46.6577 127.384 47.1456 127.384 47.7422V54H125.48V47.4737C125.48 46.9411 125.313 46.5128 124.981 46.1889C124.649 45.8651 124.216 45.7031 123.683 45.7031C123.321 45.7031 122.987 45.799 122.68 45.9908C122.377 46.1783 122.132 46.4403 121.945 46.777C121.762 47.1136 121.67 47.5036 121.67 47.9467V54H119.759ZM140.078 54.1982C139.111 54.1982 138.278 53.9915 137.579 53.5781C136.885 53.1605 136.348 52.5746 135.968 51.8203C135.593 51.0618 135.406 50.1733 135.406 49.1548C135.406 48.1491 135.593 47.2628 135.968 46.4957C136.348 45.7287 136.876 45.13 137.554 44.6996C138.235 44.2692 139.032 44.054 139.944 44.054C140.498 44.054 141.035 44.1456 141.555 44.3288C142.075 44.5121 142.541 44.7997 142.955 45.1918C143.368 45.5838 143.694 46.093 143.933 46.7195C144.171 47.3416 144.291 48.098 144.291 48.9886V49.6662H136.486V48.2344H142.418C142.418 47.7315 142.316 47.2862 142.111 46.8984C141.907 46.5064 141.619 46.1974 141.248 45.9716C140.882 45.7457 140.451 45.6328 139.957 45.6328C139.42 45.6328 138.951 45.7649 138.551 46.0291C138.154 46.2891 137.848 46.63 137.63 47.0518C137.417 47.4695 137.311 47.9233 137.311 48.4134V49.532C137.311 50.1882 137.426 50.7464 137.656 51.2067C137.89 51.6669 138.216 52.0185 138.634 52.2614C139.051 52.5 139.539 52.6193 140.098 52.6193C140.46 52.6193 140.79 52.5682 141.088 52.4659C141.387 52.3594 141.644 52.2017 141.862 51.9929C142.079 51.7841 142.245 51.5263 142.36 51.2195L144.169 51.5455C144.024 52.0781 143.764 52.5447 143.389 52.9453C143.019 53.3416 142.552 53.6506 141.99 53.8722C141.431 54.0895 140.794 54.1982 140.078 54.1982ZM146.591 54V44.1818H148.439V45.7415H148.541C148.72 45.2131 149.035 44.7976 149.487 44.495C149.943 44.1882 150.459 44.0348 151.034 44.0348C151.153 44.0348 151.294 44.0391 151.456 44.0476C151.622 44.0561 151.752 44.0668 151.846 44.0795V45.9077C151.769 45.8864 151.633 45.8629 151.436 45.8374C151.24 45.8075 151.044 45.7926 150.848 45.7926C150.397 45.7926 149.994 45.8885 149.64 46.0803C149.291 46.2678 149.014 46.5298 148.809 46.8665C148.605 47.1989 148.503 47.5781 148.503 48.0043V54H146.591ZM170.148 47.4545C170.148 48.8523 169.892 50.054 169.381 51.0597C168.87 52.0611 168.169 52.8324 167.278 53.3736C166.392 53.9105 165.384 54.179 164.255 54.179C163.121 54.179 162.109 53.9105 161.218 53.3736C160.332 52.8324 159.633 52.0589 159.122 51.0533C158.61 50.0476 158.355 48.848 158.355 47.4545C158.355 46.0568 158.61 44.8572 159.122 43.8558C159.633 42.8501 160.332 42.0788 161.218 41.5419C162.109 41.0007 163.121 40.7301 164.255 40.7301C165.384 40.7301 166.392 41.0007 167.278 41.5419C168.169 42.0788 168.87 42.8501 169.381 43.8558C169.892 44.8572 170.148 46.0568 170.148 47.4545ZM168.192 47.4545C168.192 46.3892 168.02 45.4922 167.674 44.7635C167.333 44.0305 166.865 43.4766 166.268 43.1016C165.676 42.7223 165.005 42.5327 164.255 42.5327C163.5 42.5327 162.827 42.7223 162.235 43.1016C161.642 43.4766 161.174 44.0305 160.828 44.7635C160.488 45.4922 160.317 46.3892 160.317 47.4545C160.317 48.5199 160.488 49.419 160.828 50.152C161.174 50.8807 161.642 51.4347 162.235 51.8139C162.827 52.1889 163.5 52.3764 164.255 52.3764C165.005 52.3764 165.676 52.1889 166.268 51.8139C166.865 51.4347 167.333 50.8807 167.674 50.152C168.02 49.419 168.192 48.5199 168.192 47.4545ZM174.548 48.1705V54H172.637V44.1818H174.472V45.7798H174.593C174.819 45.2599 175.173 44.8423 175.654 44.527C176.14 44.2116 176.752 44.054 177.489 44.054C178.158 44.054 178.744 44.1946 179.247 44.4759C179.749 44.7528 180.139 45.1662 180.416 45.7159C180.693 46.2656 180.832 46.9453 180.832 47.755V54H178.921V47.9851C178.921 47.2734 178.735 46.7173 178.364 46.3168C177.994 45.9119 177.484 45.7095 176.837 45.7095C176.394 45.7095 175.999 45.8054 175.654 45.9972C175.313 46.1889 175.043 46.4702 174.842 46.8409C174.646 47.2074 174.548 47.6506 174.548 48.1705ZM189.36 47.6399V49.2955H183.556V47.6399H189.36ZM192.24 54V40.9091H196.907C197.925 40.9091 198.769 41.0945 199.438 41.4652C200.107 41.8359 200.608 42.343 200.94 42.9865C201.272 43.6257 201.439 44.3459 201.439 45.147C201.439 45.9524 201.27 46.6768 200.934 47.3203C200.601 47.9595 200.098 48.4666 199.425 48.8416C198.756 49.2124 197.914 49.3977 196.9 49.3977H193.691V47.723H196.721C197.365 47.723 197.887 47.6122 198.287 47.3906C198.688 47.1648 198.982 46.858 199.169 46.4702C199.357 46.0824 199.451 45.6413 199.451 45.147C199.451 44.6527 199.357 44.2138 199.169 43.8303C198.982 43.4467 198.686 43.1463 198.281 42.929C197.88 42.7116 197.352 42.603 196.696 42.603H194.216V54H192.24ZM203.781 54V44.1818H205.628V45.7415H205.73C205.909 45.2131 206.225 44.7976 206.676 44.495C207.132 44.1882 207.648 44.0348 208.223 44.0348C208.342 44.0348 208.483 44.0391 208.645 44.0476C208.811 44.0561 208.941 44.0668 209.035 44.0795V45.9077C208.958 45.8864 208.822 45.8629 208.626 45.8374C208.43 45.8075 208.234 45.7926 208.038 45.7926C207.586 45.7926 207.183 45.8885 206.83 46.0803C206.48 46.2678 206.203 46.5298 205.999 46.8665C205.794 47.1989 205.692 47.5781 205.692 48.0043V54H203.781ZM214.749 54.1982C213.782 54.1982 212.948 53.9915 212.25 53.5781C211.555 53.1605 211.018 52.5746 210.639 51.8203C210.264 51.0618 210.076 50.1733 210.076 49.1548C210.076 48.1491 210.264 47.2628 210.639 46.4957C211.018 45.7287 211.546 45.13 212.224 44.6996C212.906 44.2692 213.703 44.054 214.615 44.054C215.169 44.054 215.706 44.1456 216.225 44.3288C216.745 44.5121 217.212 44.7997 217.625 45.1918C218.039 45.5838 218.365 46.093 218.603 46.7195C218.842 47.3416 218.961 48.098 218.961 48.9886V49.6662H211.157V48.2344H217.088C217.088 47.7315 216.986 47.2862 216.782 46.8984C216.577 46.5064 216.289 46.1974 215.919 45.9716C215.552 45.7457 215.122 45.6328 214.627 45.6328C214.09 45.6328 213.622 45.7649 213.221 46.0291C212.825 46.2891 212.518 46.63 212.301 47.0518C212.088 47.4695 211.981 47.9233 211.981 48.4134V49.532C211.981 50.1882 212.096 50.7464 212.326 51.2067C212.561 51.6669 212.887 52.0185 213.304 52.2614C213.722 52.5 214.21 52.6193 214.768 52.6193C215.13 52.6193 215.461 52.5682 215.759 52.4659C216.057 52.3594 216.315 52.2017 216.532 51.9929C216.75 51.7841 216.916 51.5263 217.031 51.2195L218.84 51.5455C218.695 52.0781 218.435 52.5447 218.06 52.9453C217.689 53.3416 217.223 53.6506 216.66 53.8722C216.102 54.0895 215.465 54.1982 214.749 54.1982ZM221.262 54V44.1818H223.096V45.7798H223.218C223.422 45.2386 223.757 44.8168 224.221 44.5142C224.686 44.2074 225.242 44.054 225.89 44.054C226.546 44.054 227.096 44.2074 227.539 44.5142C227.986 44.821 228.316 45.2429 228.53 45.7798H228.632C228.866 45.2557 229.239 44.8381 229.75 44.527C230.262 44.2116 230.871 44.054 231.579 44.054C232.469 44.054 233.196 44.3331 233.758 44.8913C234.325 45.4496 234.608 46.2912 234.608 47.4162V54H232.697V47.5952C232.697 46.9304 232.516 46.4489 232.154 46.1506C231.792 45.8523 231.359 45.7031 230.856 45.7031C230.234 45.7031 229.75 45.8949 229.405 46.2784C229.06 46.6577 228.888 47.1456 228.888 47.7422V54H226.983V47.4737C226.983 46.9411 226.816 46.5128 226.484 46.1889C226.152 45.8651 225.719 45.7031 225.187 45.7031C224.824 45.7031 224.49 45.799 224.183 45.9908C223.88 46.1783 223.635 46.4403 223.448 46.777C223.265 47.1136 223.173 47.5036 223.173 47.9467V54H221.262ZM247.279 40.2955L243.061 55.9688H241.354L245.573 40.2955H247.279ZM255.324 40.9091L258.968 51.571H259.115L262.758 40.9091H264.893L260.182 54H257.9L253.189 40.9091H255.324ZM266.964 54V40.9091H271.63C272.648 40.9091 273.492 41.0945 274.161 41.4652C274.83 41.8359 275.331 42.343 275.663 42.9865C275.996 43.6257 276.162 44.3459 276.162 45.147C276.162 45.9524 275.993 46.6768 275.657 47.3203C275.324 47.9595 274.822 48.4666 274.148 48.8416C273.479 49.2124 272.638 49.3977 271.623 49.3977H268.415V47.723H271.444C272.088 47.723 272.61 47.6122 273.011 47.3906C273.411 47.1648 273.705 46.858 273.893 46.4702C274.08 46.0824 274.174 45.6413 274.174 45.147C274.174 44.6527 274.08 44.2138 273.893 43.8303C273.705 43.4467 273.409 43.1463 273.004 42.929C272.604 42.7116 272.075 42.603 271.419 42.603H268.939V54H266.964ZM289.53 45.1662H287.536C287.459 44.7401 287.316 44.3651 287.108 44.0412C286.899 43.7173 286.643 43.4425 286.341 43.2166C286.038 42.9908 285.699 42.8203 285.324 42.7053C284.953 42.5902 284.559 42.5327 284.142 42.5327C283.387 42.5327 282.712 42.7223 282.115 43.1016C281.523 43.4808 281.054 44.0369 280.709 44.7699C280.368 45.5028 280.198 46.3977 280.198 47.4545C280.198 48.5199 280.368 49.419 280.709 50.152C281.054 50.8849 281.525 51.4389 282.122 51.8139C282.718 52.1889 283.39 52.3764 284.135 52.3764C284.549 52.3764 284.941 52.321 285.311 52.2102C285.686 52.0952 286.025 51.9268 286.328 51.7053C286.63 51.4837 286.886 51.2131 287.095 50.8935C287.308 50.5696 287.455 50.1989 287.536 49.7812L289.53 49.7876C289.424 50.4311 289.217 51.0234 288.91 51.5646C288.608 52.1016 288.218 52.5661 287.74 52.9581C287.267 53.3459 286.726 53.6463 286.117 53.8594C285.507 54.0724 284.843 54.179 284.123 54.179C282.989 54.179 281.979 53.9105 281.093 53.3736C280.206 52.8324 279.507 52.0589 278.996 51.0533C278.489 50.0476 278.235 48.848 278.235 47.4545C278.235 46.0568 278.491 44.8572 279.002 43.8558C279.514 42.8501 280.213 42.0788 281.099 41.5419C281.985 41.0007 282.993 40.7301 284.123 40.7301C284.817 40.7301 285.465 40.8303 286.066 41.0305C286.671 41.2266 287.214 41.5163 287.696 41.8999C288.177 42.2791 288.576 42.7436 288.891 43.2933C289.206 43.8388 289.419 44.4631 289.53 45.1662Z" fill="#091E42"></path><path d="M124.324 81.6364H126.587L130.524 91.2472H130.668L134.605 81.6364H136.868V94H135.094V85.0533H134.979L131.333 93.9819H129.86L126.213 85.0472H126.098V94H124.324V81.6364ZM139.436 94V84.7273H141.241V94H139.436ZM140.347 83.2965C140.033 83.2965 139.764 83.1919 139.538 82.9826C139.317 82.7693 139.206 82.5157 139.206 82.2219C139.206 81.9241 139.317 81.6706 139.538 81.4613C139.764 81.248 140.033 81.1413 140.347 81.1413C140.661 81.1413 140.929 81.248 141.15 81.4613C141.375 81.6706 141.488 81.9241 141.488 82.2219C141.488 82.5157 141.375 82.7693 141.15 82.9826C140.929 83.1919 140.661 83.2965 140.347 83.2965ZM147.575 94.1871C146.677 94.1871 145.905 93.9839 145.257 93.5774C144.613 93.1669 144.118 92.6014 143.772 91.881C143.426 91.1606 143.252 90.3356 143.252 89.4059C143.252 88.4641 143.43 87.633 143.784 86.9126C144.138 86.1882 144.637 85.6228 145.281 85.2163C145.925 84.8098 146.683 84.6065 147.557 84.6065C148.261 84.6065 148.889 84.7373 149.44 84.9989C149.992 85.2565 150.436 85.6187 150.774 86.0856C151.117 86.5524 151.32 87.0978 151.384 87.7216H149.627C149.531 87.2869 149.309 86.9126 148.963 86.5987C148.621 86.2848 148.162 86.1278 147.587 86.1278C147.084 86.1278 146.643 86.2607 146.265 86.5263C145.891 86.7879 145.599 87.1622 145.39 87.6491C145.18 88.1321 145.076 88.7036 145.076 89.3636C145.076 90.0398 145.178 90.6233 145.383 91.1143C145.589 91.6054 145.879 91.9857 146.253 92.2553C146.631 92.525 147.076 92.6598 147.587 92.6598C147.929 92.6598 148.239 92.5974 148.517 92.4727C148.798 92.3439 149.034 92.1607 149.223 91.9233C149.416 91.6858 149.551 91.4001 149.627 91.0661H151.384C151.32 91.6657 151.125 92.201 150.799 92.6719C150.473 93.1428 150.036 93.513 149.489 93.7827C148.945 94.0523 148.307 94.1871 147.575 94.1871ZM153.314 94V84.7273H155.059V86.2003H155.156C155.325 85.7012 155.623 85.3088 156.049 85.0231C156.48 84.7333 156.967 84.5884 157.51 84.5884C157.623 84.5884 157.756 84.5924 157.909 84.6005C158.066 84.6085 158.188 84.6186 158.277 84.6307V86.3572C158.204 86.3371 158.076 86.315 157.89 86.2908C157.705 86.2627 157.52 86.2486 157.335 86.2486C156.908 86.2486 156.528 86.3391 156.194 86.5202C155.864 86.6973 155.602 86.9448 155.409 87.2628C155.216 87.5767 155.12 87.9349 155.12 88.3374V94H153.314ZM163.413 94.1871C162.543 94.1871 161.785 93.9879 161.137 93.5895C160.489 93.1911 159.986 92.6336 159.628 91.9173C159.269 91.2009 159.09 90.3638 159.09 89.4059C159.09 88.444 159.269 87.6029 159.628 86.8825C159.986 86.162 160.489 85.6026 161.137 85.2042C161.785 84.8058 162.543 84.6065 163.413 84.6065C164.282 84.6065 165.041 84.8058 165.689 85.2042C166.337 85.6026 166.84 86.162 167.198 86.8825C167.556 87.6029 167.735 88.444 167.735 89.4059C167.735 90.3638 167.556 91.2009 167.198 91.9173C166.84 92.6336 166.337 93.1911 165.689 93.5895C165.041 93.9879 164.282 94.1871 163.413 94.1871ZM163.419 92.6719C163.982 92.6719 164.449 92.523 164.819 92.2251C165.19 91.9273 165.463 91.5309 165.64 91.0359C165.822 90.5408 165.912 89.9955 165.912 89.3999C165.912 88.8082 165.822 88.2649 165.64 87.7699C165.463 87.2708 165.19 86.8704 164.819 86.5685C164.449 86.2667 163.982 86.1158 163.419 86.1158C162.851 86.1158 162.38 86.2667 162.006 86.5685C161.636 86.8704 161.36 87.2708 161.179 87.7699C161.002 88.2649 160.913 88.8082 160.913 89.3999C160.913 89.9955 161.002 90.5408 161.179 91.0359C161.36 91.5309 161.636 91.9273 162.006 92.2251C162.38 92.523 162.851 92.6719 163.419 92.6719ZM176.699 86.9911L175.063 87.2809C174.994 87.0716 174.885 86.8724 174.737 86.6832C174.592 86.4941 174.394 86.3391 174.145 86.2184C173.895 86.0977 173.583 86.0373 173.209 86.0373C172.698 86.0373 172.271 86.152 171.929 86.3814C171.587 86.6068 171.416 86.8986 171.416 87.2567C171.416 87.5666 171.531 87.8162 171.76 88.0053C171.99 88.1945 172.36 88.3494 172.871 88.4702L174.344 88.8082C175.197 89.0054 175.833 89.3093 176.252 89.7198C176.67 90.1303 176.88 90.6636 176.88 91.3196C176.88 91.875 176.719 92.37 176.397 92.8047C176.079 93.2353 175.634 93.5734 175.063 93.8189C174.495 94.0644 173.837 94.1871 173.088 94.1871C172.05 94.1871 171.203 93.9658 170.547 93.5231C169.891 93.0763 169.488 92.4425 169.34 91.6214L171.084 91.3558C171.193 91.8106 171.416 92.1547 171.754 92.3881C172.092 92.6175 172.533 92.7322 173.076 92.7322C173.668 92.7322 174.141 92.6095 174.495 92.364C174.849 92.1145 175.026 91.8106 175.026 91.4524C175.026 91.1626 174.918 90.9192 174.7 90.7219C174.487 90.5247 174.159 90.3758 173.716 90.2752L172.147 89.9311C171.281 89.7339 170.641 89.42 170.227 88.9893C169.816 88.5587 169.611 88.0134 169.611 87.3533C169.611 86.806 169.764 86.3271 170.07 85.9165C170.376 85.506 170.798 85.1861 171.338 84.9567C171.877 84.7232 172.495 84.6065 173.191 84.6065C174.193 84.6065 174.982 84.8239 175.558 85.2585C176.133 85.6892 176.513 86.2667 176.699 86.9911ZM182.861 94.1871C181.947 94.1871 181.16 93.992 180.5 93.6016C179.844 93.2071 179.337 92.6538 178.979 91.9414C178.625 91.225 178.448 90.3859 178.448 89.424C178.448 88.4742 178.625 87.6371 178.979 86.9126C179.337 86.1882 179.836 85.6228 180.476 85.2163C181.12 84.8098 181.873 84.6065 182.734 84.6065C183.257 84.6065 183.764 84.6931 184.255 84.8661C184.746 85.0392 185.187 85.3108 185.577 85.6811C185.968 86.0514 186.276 86.5323 186.501 87.1239C186.726 87.7115 186.839 88.4259 186.839 89.267V89.907H179.468V88.5547H185.07C185.07 88.0798 184.974 87.6592 184.78 87.293C184.587 86.9227 184.316 86.6309 183.966 86.4176C183.619 86.2043 183.213 86.0977 182.746 86.0977C182.239 86.0977 181.796 86.2224 181.418 86.4719C181.044 86.7174 180.754 87.0394 180.549 87.4379C180.347 87.8323 180.247 88.2609 180.247 88.7237V89.7802C180.247 90.4 180.355 90.9272 180.573 91.3619C180.794 91.7965 181.102 92.1286 181.496 92.358C181.891 92.5833 182.352 92.696 182.879 92.696C183.221 92.696 183.533 92.6477 183.815 92.5511C184.096 92.4505 184.34 92.3016 184.545 92.1044C184.75 91.9072 184.907 91.6637 185.016 91.3739L186.724 91.6818C186.588 92.1849 186.342 92.6256 185.988 93.0039C185.638 93.3782 185.197 93.67 184.666 93.8793C184.139 94.0845 183.537 94.1871 182.861 94.1871ZM188.842 94V84.7273H190.587V86.2003H190.683C190.852 85.7012 191.15 85.3088 191.577 85.0231C192.007 84.7333 192.494 84.5884 193.038 84.5884C193.15 84.5884 193.283 84.5924 193.436 84.6005C193.593 84.6085 193.716 84.6186 193.804 84.6307V86.3572C193.732 86.3371 193.603 86.315 193.418 86.2908C193.233 86.2627 193.048 86.2486 192.862 86.2486C192.436 86.2486 192.056 86.3391 191.721 86.5202C191.391 86.6973 191.13 86.9448 190.937 87.2628C190.743 87.5767 190.647 87.9349 190.647 88.3374V94H188.842ZM203.581 84.7273L200.218 94H198.287L194.918 84.7273H196.856L199.204 91.8629H199.301L201.643 84.7273H203.581ZM205.277 94V84.7273H207.082V94H205.277ZM206.189 83.2965C205.875 83.2965 205.605 83.1919 205.38 82.9826C205.159 82.7693 205.048 82.5157 205.048 82.2219C205.048 81.9241 205.159 81.6706 205.38 81.4613C205.605 81.248 205.875 81.1413 206.189 81.1413C206.503 81.1413 206.771 81.248 206.992 81.4613C207.217 81.6706 207.33 81.9241 207.33 82.2219C207.33 82.5157 207.217 82.7693 206.992 82.9826C206.771 83.1919 206.503 83.2965 206.189 83.2965ZM213.417 94.1871C212.519 94.1871 211.746 93.9839 211.098 93.5774C210.455 93.1669 209.96 92.6014 209.613 91.881C209.267 91.1606 209.094 90.3356 209.094 89.4059C209.094 88.4641 209.271 87.633 209.625 86.9126C209.98 86.1882 210.479 85.6228 211.123 85.2163C211.767 84.8098 212.525 84.6065 213.399 84.6065C214.103 84.6065 214.731 84.7373 215.282 84.9989C215.833 85.2565 216.278 85.6187 216.616 86.0856C216.958 86.5524 217.162 87.0978 217.226 87.7216H215.469C215.373 87.2869 215.151 86.9126 214.805 86.5987C214.463 86.2848 214.004 86.1278 213.429 86.1278C212.926 86.1278 212.485 86.2607 212.107 86.5263C211.732 86.7879 211.441 87.1622 211.231 87.6491C211.022 88.1321 210.917 88.7036 210.917 89.3636C210.917 90.0398 211.02 90.6233 211.225 91.1143C211.431 91.6054 211.72 91.9857 212.095 92.2553C212.473 92.525 212.918 92.6598 213.429 92.6598C213.771 92.6598 214.081 92.5974 214.358 92.4727C214.64 92.3439 214.876 92.1607 215.065 91.9233C215.258 91.6858 215.393 91.4001 215.469 91.0661H217.226C217.162 91.6657 216.966 92.201 216.64 92.6719C216.314 93.1428 215.878 93.513 215.33 93.7827C214.787 94.0523 214.149 94.1871 213.417 94.1871ZM223.153 94.1871C222.239 94.1871 221.452 93.992 220.792 93.6016C220.136 93.2071 219.629 92.6538 219.271 91.9414C218.917 91.225 218.74 90.3859 218.74 89.424C218.74 88.4742 218.917 87.6371 219.271 86.9126C219.629 86.1882 220.128 85.6228 220.768 85.2163C221.412 84.8098 222.165 84.6065 223.026 84.6065C223.549 84.6065 224.056 84.6931 224.547 84.8661C225.038 85.0392 225.479 85.3108 225.869 85.6811C226.26 86.0514 226.568 86.5323 226.793 87.1239C227.018 87.7115 227.131 88.4259 227.131 89.267V89.907H219.76V88.5547H225.362C225.362 88.0798 225.266 87.6592 225.072 87.293C224.879 86.9227 224.608 86.6309 224.258 86.4176C223.911 86.2043 223.505 86.0977 223.038 86.0977C222.531 86.0977 222.088 86.2224 221.71 86.4719C221.336 86.7174 221.046 87.0394 220.841 87.4379C220.639 87.8323 220.539 88.2609 220.539 88.7237V89.7802C220.539 90.4 220.647 90.9272 220.865 91.3619C221.086 91.7965 221.394 92.1286 221.788 92.358C222.183 92.5833 222.644 92.696 223.171 92.696C223.513 92.696 223.825 92.6477 224.107 92.5511C224.388 92.4505 224.632 92.3016 224.837 92.1044C225.042 91.9072 225.199 91.6637 225.308 91.3739L227.016 91.6818C226.88 92.1849 226.634 92.6256 226.28 93.0039C225.93 93.3782 225.489 93.67 224.958 93.8793C224.431 94.0845 223.829 94.1871 223.153 94.1871ZM236.082 86.9911L234.446 87.2809C234.378 87.0716 234.269 86.8724 234.12 86.6832C233.975 86.4941 233.778 86.3391 233.529 86.2184C233.279 86.0977 232.967 86.0373 232.593 86.0373C232.082 86.0373 231.655 86.152 231.313 86.3814C230.971 86.6068 230.8 86.8986 230.8 87.2567C230.8 87.5666 230.915 87.8162 231.144 88.0053C231.374 88.1945 231.744 88.3494 232.255 88.4702L233.728 88.8082C234.581 89.0054 235.217 89.3093 235.636 89.7198C236.054 90.1303 236.263 90.6636 236.263 91.3196C236.263 91.875 236.102 92.37 235.78 92.8047C235.463 93.2353 235.018 93.5734 234.446 93.8189C233.879 94.0644 233.221 94.1871 232.472 94.1871C231.434 94.1871 230.587 93.9658 229.931 93.5231C229.275 93.0763 228.872 92.4425 228.723 91.6214L230.468 91.3558C230.577 91.8106 230.8 92.1547 231.138 92.3881C231.476 92.6175 231.917 92.7322 232.46 92.7322C233.052 92.7322 233.525 92.6095 233.879 92.364C234.233 92.1145 234.41 91.8106 234.41 91.4524C234.41 91.1626 234.301 90.9192 234.084 90.7219C233.871 90.5247 233.543 90.3758 233.1 90.2752L231.53 89.9311C230.665 89.7339 230.025 89.42 229.611 88.9893C229.2 88.5587 228.995 88.0134 228.995 87.3533C228.995 86.806 229.148 86.3271 229.454 85.9165C229.76 85.506 230.182 85.1861 230.722 84.9567C231.261 84.7232 231.879 84.6065 232.575 84.6065C233.577 84.6065 234.366 84.8239 234.941 85.2585C235.517 85.6892 235.897 86.2667 236.082 86.9911Z" fill="#00875A"></path><path d="M427.968 158H425.522L431.018 142.727H433.68L439.176 158H436.73L432.413 145.501H432.293L427.968 158ZM428.378 152.019H436.313V153.958H428.378V152.019ZM443.433 151.199V158H441.203V146.545H443.343V148.41H443.485C443.748 147.803 444.161 147.316 444.723 146.948C445.29 146.58 446.003 146.396 446.863 146.396C447.644 146.396 448.327 146.56 448.914 146.888C449.501 147.212 449.956 147.694 450.279 148.335C450.602 148.977 450.763 149.77 450.763 150.714V158H448.534V150.983C448.534 150.152 448.317 149.504 447.885 149.036C447.452 148.564 446.858 148.328 446.103 148.328C445.585 148.328 445.126 148.44 444.723 148.663C444.325 148.887 444.009 149.215 443.776 149.648C443.547 150.075 443.433 150.592 443.433 151.199ZM458.579 158.231C457.505 158.231 456.568 157.985 455.767 157.493C454.967 157.001 454.345 156.312 453.903 155.427C453.46 154.542 453.239 153.508 453.239 152.325C453.239 151.137 453.46 150.098 453.903 149.208C454.345 148.318 454.967 147.627 455.767 147.135C456.568 146.642 457.505 146.396 458.579 146.396C459.653 146.396 460.59 146.642 461.39 147.135C462.191 147.627 462.812 148.318 463.255 149.208C463.697 150.098 463.918 151.137 463.918 152.325C463.918 153.508 463.697 154.542 463.255 155.427C462.812 156.312 462.191 157.001 461.39 157.493C460.59 157.985 459.653 158.231 458.579 158.231ZM458.586 156.359C459.282 156.359 459.859 156.175 460.316 155.808C460.774 155.44 461.112 154.95 461.331 154.338C461.554 153.727 461.666 153.053 461.666 152.317C461.666 151.587 461.554 150.915 461.331 150.304C461.112 149.687 460.774 149.193 460.316 148.82C459.859 148.447 459.282 148.261 458.586 148.261C457.885 148.261 457.304 148.447 456.841 148.82C456.384 149.193 456.043 149.687 455.82 150.304C455.601 150.915 455.491 151.587 455.491 152.317C455.491 153.053 455.601 153.727 455.82 154.338C456.043 154.95 456.384 155.44 456.841 155.808C457.304 156.175 457.885 156.359 458.586 156.359ZM468.637 151.199V158H466.407V146.545H468.547V148.41H468.689C468.953 147.803 469.365 147.316 469.927 146.948C470.494 146.58 471.207 146.396 472.067 146.396C472.848 146.396 473.531 146.56 474.118 146.888C474.705 147.212 475.16 147.694 475.483 148.335C475.806 148.977 475.968 149.77 475.968 150.714V158H473.738V150.983C473.738 150.152 473.521 149.504 473.089 149.036C472.656 148.564 472.062 148.328 471.307 148.328C470.79 148.328 470.33 148.44 469.927 148.663C469.529 148.887 469.214 149.215 468.98 149.648C468.751 150.075 468.637 150.592 468.637 151.199ZM479.957 162.295C479.624 162.295 479.321 162.268 479.047 162.213C478.774 162.164 478.57 162.109 478.436 162.049L478.973 160.222C479.381 160.332 479.743 160.379 480.062 160.364C480.38 160.349 480.661 160.23 480.904 160.006C481.153 159.782 481.372 159.417 481.561 158.91L481.836 158.149L477.645 146.545H480.032L482.933 155.435H483.052L485.953 146.545H488.347L483.626 159.529C483.407 160.125 483.129 160.63 482.791 161.043C482.453 161.46 482.05 161.773 481.583 161.982C481.116 162.191 480.574 162.295 479.957 162.295ZM490.442 158V146.545H492.583V148.41H492.724C492.963 147.778 493.353 147.286 493.895 146.933C494.437 146.575 495.086 146.396 495.841 146.396C496.607 146.396 497.248 146.575 497.765 146.933C498.287 147.291 498.673 147.783 498.921 148.41H499.041C499.314 147.798 499.749 147.311 500.346 146.948C500.942 146.58 501.653 146.396 502.479 146.396C503.518 146.396 504.365 146.722 505.021 147.373C505.683 148.025 506.013 149.006 506.013 150.319V158H503.784V150.528C503.784 149.752 503.572 149.19 503.15 148.842C502.727 148.494 502.222 148.32 501.636 148.32C500.91 148.32 500.346 148.544 499.943 148.991C499.54 149.434 499.339 150.003 499.339 150.699V158H497.117V150.386C497.117 149.765 496.923 149.265 496.535 148.887C496.147 148.509 495.643 148.32 495.021 148.32C494.599 148.32 494.208 148.432 493.85 148.656C493.497 148.875 493.211 149.18 492.993 149.573C492.779 149.966 492.672 150.421 492.672 150.938V158H490.442ZM509.002 158V146.545H511.232V158H509.002ZM510.128 144.778C509.74 144.778 509.407 144.649 509.129 144.39C508.855 144.127 508.718 143.814 508.718 143.451C508.718 143.083 508.855 142.77 509.129 142.511C509.407 142.248 509.74 142.116 510.128 142.116C510.516 142.116 510.846 142.248 511.12 142.511C511.398 142.77 511.537 143.083 511.537 143.451C511.537 143.814 511.398 144.127 511.12 144.39C510.846 144.649 510.516 144.778 510.128 144.778ZM513.993 158V156.471L520.197 148.589V148.484H514.194V146.545H522.979V148.171L517.013 155.957V156.061H523.188V158H513.993ZM530.427 158.231C529.298 158.231 528.326 157.99 527.511 157.508C526.701 157.021 526.074 156.337 525.632 155.457C525.194 154.572 524.976 153.536 524.976 152.347C524.976 151.174 525.194 150.14 525.632 149.245C526.074 148.35 526.691 147.652 527.481 147.15C528.277 146.647 529.206 146.396 530.27 146.396C530.917 146.396 531.543 146.503 532.15 146.717C532.756 146.931 533.301 147.266 533.783 147.724C534.265 148.181 534.645 148.775 534.924 149.506C535.202 150.232 535.341 151.114 535.341 152.153V152.944H526.236V151.273H533.156C533.156 150.687 533.037 150.167 532.798 149.715C532.56 149.257 532.224 148.897 531.792 148.634C531.364 148.37 530.862 148.238 530.285 148.238C529.659 148.238 529.112 148.392 528.645 148.701C528.182 149.004 527.824 149.402 527.571 149.894C527.322 150.381 527.198 150.911 527.198 151.482V152.787C527.198 153.553 527.332 154.204 527.601 154.741C527.874 155.278 528.254 155.688 528.742 155.972C529.229 156.25 529.798 156.389 530.449 156.389C530.872 156.389 531.257 156.33 531.605 156.21C531.953 156.086 532.254 155.902 532.508 155.658C532.761 155.415 532.955 155.114 533.089 154.756L535.2 155.136C535.031 155.758 534.727 156.302 534.29 156.77C533.857 157.232 533.313 157.592 532.657 157.851C532.005 158.104 531.262 158.231 530.427 158.231ZM542.103 158.224C541.179 158.224 540.353 157.988 539.627 157.515C538.907 157.038 538.34 156.359 537.927 155.479C537.52 154.594 537.316 153.533 537.316 152.295C537.316 151.057 537.522 149.998 537.935 149.118C538.352 148.238 538.924 147.565 539.65 147.097C540.376 146.63 541.199 146.396 542.118 146.396C542.829 146.396 543.401 146.516 543.833 146.754C544.271 146.988 544.609 147.261 544.848 147.575C545.091 147.888 545.28 148.164 545.414 148.402H545.549V142.727H547.778V158H545.601V156.218H545.414C545.28 156.461 545.086 156.74 544.833 157.053C544.584 157.366 544.241 157.64 543.804 157.873C543.366 158.107 542.799 158.224 542.103 158.224ZM542.596 156.322C543.237 156.322 543.779 156.153 544.221 155.815C544.669 155.472 545.007 154.997 545.235 154.391C545.469 153.784 545.586 153.078 545.586 152.273C545.586 151.477 545.472 150.781 545.243 150.185C545.014 149.588 544.679 149.123 544.236 148.79C543.794 148.457 543.247 148.29 542.596 148.29C541.924 148.29 541.365 148.464 540.918 148.812C540.47 149.161 540.132 149.635 539.903 150.237C539.68 150.838 539.568 151.517 539.568 152.273C539.568 153.038 539.682 153.727 539.911 154.338C540.14 154.95 540.478 155.435 540.925 155.793C541.377 156.146 541.934 156.322 542.596 156.322ZM427.968 183H425.522L431.018 167.727H433.68L439.176 183H436.73L432.413 170.501H432.293L427.968 183ZM428.378 177.019H436.313V178.958H428.378V177.019ZM441.382 183V167.727H446.826C448.014 167.727 448.998 167.944 449.779 168.376C450.56 168.809 451.144 169.4 451.532 170.151C451.919 170.897 452.113 171.737 452.113 172.672C452.113 173.611 451.917 174.456 451.524 175.207C451.136 175.953 450.55 176.544 449.764 176.982C448.984 177.414 448.002 177.631 446.818 177.631H443.075V175.677H446.61C447.36 175.677 447.969 175.548 448.437 175.289C448.904 175.026 449.247 174.668 449.466 174.215C449.685 173.763 449.794 173.248 449.794 172.672C449.794 172.095 449.685 171.583 449.466 171.135C449.247 170.688 448.902 170.337 448.429 170.084C447.962 169.83 447.345 169.703 446.58 169.703H443.686V183H441.382ZM457.119 167.727V183H454.815V167.727H457.119ZM465.279 169.711V167.727H477.099V169.711H472.334V183H470.037V169.711H465.279ZM478.343 183V171.545H480.498V173.365H480.617C480.826 172.749 481.194 172.264 481.721 171.911C482.253 171.553 482.854 171.374 483.526 171.374C483.665 171.374 483.829 171.379 484.018 171.389C484.212 171.399 484.363 171.411 484.473 171.426V173.559C484.383 173.534 484.224 173.507 483.995 173.477C483.767 173.442 483.538 173.425 483.309 173.425C482.782 173.425 482.313 173.537 481.9 173.76C481.492 173.979 481.169 174.285 480.93 174.678C480.692 175.065 480.572 175.508 480.572 176.005V183H478.343ZM489.633 183.254C488.907 183.254 488.251 183.119 487.664 182.851C487.078 182.577 486.613 182.182 486.27 181.665C485.932 181.148 485.763 180.514 485.763 179.763C485.763 179.117 485.887 178.585 486.136 178.168C486.384 177.75 486.72 177.419 487.142 177.176C487.565 176.932 488.037 176.748 488.559 176.624C489.081 176.5 489.613 176.405 490.155 176.341C490.841 176.261 491.398 176.196 491.826 176.147C492.253 176.092 492.564 176.005 492.758 175.886C492.952 175.766 493.049 175.572 493.049 175.304V175.252C493.049 174.6 492.865 174.096 492.497 173.738C492.134 173.38 491.592 173.201 490.871 173.201C490.12 173.201 489.529 173.368 489.096 173.701C488.669 174.029 488.373 174.394 488.209 174.797L486.113 174.32C486.362 173.624 486.725 173.062 487.202 172.634C487.684 172.202 488.239 171.888 488.865 171.695C489.491 171.496 490.15 171.396 490.841 171.396C491.299 171.396 491.783 171.451 492.295 171.56C492.813 171.665 493.295 171.859 493.742 172.142C494.195 172.425 494.565 172.831 494.853 173.358C495.142 173.88 495.286 174.558 495.286 175.393V183H493.108V181.434H493.019C492.875 181.722 492.658 182.006 492.37 182.284C492.082 182.562 491.711 182.794 491.259 182.978C490.806 183.162 490.265 183.254 489.633 183.254ZM490.118 181.464C490.734 181.464 491.261 181.342 491.699 181.098C492.141 180.855 492.477 180.537 492.706 180.144C492.939 179.746 493.056 179.321 493.056 178.869V177.392C492.977 177.472 492.822 177.546 492.594 177.616C492.37 177.68 492.114 177.738 491.826 177.787C491.537 177.832 491.256 177.874 490.983 177.914C490.71 177.949 490.481 177.979 490.297 178.004C489.864 178.058 489.469 178.15 489.111 178.279C488.758 178.409 488.475 178.595 488.261 178.839C488.052 179.077 487.948 179.396 487.948 179.793C487.948 180.345 488.152 180.763 488.559 181.046C488.967 181.325 489.487 181.464 490.118 181.464ZM503.081 183.231C501.972 183.231 501.017 182.98 500.217 182.478C499.422 181.971 498.81 181.272 498.383 180.382C497.955 179.493 497.741 178.473 497.741 177.325C497.741 176.162 497.96 175.135 498.397 174.245C498.835 173.35 499.451 172.652 500.247 172.15C501.042 171.647 501.979 171.396 503.058 171.396C503.928 171.396 504.704 171.558 505.385 171.881C506.066 172.199 506.616 172.647 507.033 173.223C507.456 173.8 507.707 174.474 507.786 175.244H505.616C505.497 174.707 505.223 174.245 504.796 173.857C504.373 173.469 503.807 173.276 503.096 173.276C502.474 173.276 501.93 173.44 501.462 173.768C501 174.091 500.64 174.553 500.381 175.155C500.123 175.751 499.993 176.457 499.993 177.273C499.993 178.108 500.12 178.829 500.374 179.435C500.627 180.042 500.985 180.512 501.448 180.845C501.915 181.178 502.464 181.344 503.096 181.344C503.518 181.344 503.901 181.267 504.244 181.113C504.592 180.954 504.883 180.728 505.117 180.435C505.355 180.141 505.522 179.788 505.616 179.376H507.786C507.707 180.116 507.466 180.778 507.063 181.359C506.66 181.941 506.121 182.398 505.445 182.732C504.774 183.065 503.986 183.231 503.081 183.231ZM515.108 183.231C513.979 183.231 513.007 182.99 512.192 182.508C511.381 182.021 510.755 181.337 510.312 180.457C509.875 179.572 509.656 178.536 509.656 177.347C509.656 176.174 509.875 175.14 510.312 174.245C510.755 173.35 511.371 172.652 512.162 172.15C512.957 171.647 513.887 171.396 514.951 171.396C515.597 171.396 516.224 171.503 516.83 171.717C517.437 171.931 517.981 172.266 518.463 172.724C518.946 173.181 519.326 173.775 519.604 174.506C519.883 175.232 520.022 176.114 520.022 177.153V177.944H510.917V176.273H517.837C517.837 175.687 517.718 175.167 517.479 174.715C517.24 174.257 516.905 173.897 516.472 173.634C516.045 173.37 515.543 173.238 514.966 173.238C514.339 173.238 513.793 173.392 513.325 173.701C512.863 174.004 512.505 174.402 512.251 174.894C512.003 175.381 511.879 175.911 511.879 176.482V177.787C511.879 178.553 512.013 179.204 512.281 179.741C512.555 180.278 512.935 180.688 513.422 180.972C513.909 181.25 514.479 181.389 515.13 181.389C515.553 181.389 515.938 181.33 516.286 181.21C516.634 181.086 516.935 180.902 517.188 180.658C517.442 180.415 517.636 180.114 517.77 179.756L519.88 180.136C519.711 180.758 519.408 181.302 518.971 181.77C518.538 182.232 517.994 182.592 517.337 182.851C516.686 183.104 515.943 183.231 515.108 183.231ZM531.079 174.342L529.059 174.7C528.974 174.441 528.84 174.195 528.656 173.962C528.477 173.728 528.233 173.537 527.925 173.387C527.617 173.238 527.231 173.164 526.769 173.164C526.138 173.164 525.611 173.305 525.188 173.589C524.766 173.867 524.554 174.228 524.554 174.67C524.554 175.053 524.696 175.361 524.979 175.595C525.263 175.828 525.72 176.02 526.351 176.169L528.171 176.587C529.225 176.83 530.011 177.206 530.528 177.713C531.045 178.22 531.303 178.879 531.303 179.689C531.303 180.375 531.104 180.987 530.707 181.523C530.314 182.055 529.764 182.473 529.059 182.776C528.358 183.08 527.545 183.231 526.62 183.231C525.337 183.231 524.291 182.958 523.48 182.411C522.67 181.859 522.173 181.076 521.989 180.062L524.144 179.734C524.278 180.295 524.554 180.721 524.972 181.009C525.389 181.292 525.934 181.434 526.605 181.434C527.336 181.434 527.92 181.282 528.358 180.979C528.795 180.671 529.014 180.295 529.014 179.853C529.014 179.495 528.88 179.194 528.611 178.951C528.348 178.707 527.942 178.523 527.396 178.399L525.457 177.974C524.388 177.73 523.597 177.342 523.085 176.81C522.578 176.278 522.324 175.605 522.324 174.789C522.324 174.113 522.513 173.522 522.891 173.015C523.269 172.507 523.791 172.112 524.457 171.829C525.123 171.54 525.887 171.396 526.747 171.396C527.985 171.396 528.959 171.665 529.67 172.202C530.381 172.734 530.851 173.447 531.079 174.342Z" fill="black"></path><path d="M120.734 202.119C120.494 201.343 119.914 200.711 119.19 200.324L104.494 193.242C104.106 193.048 103.674 193 103.287 193C102.899 193 102.467 193 102.083 193.097L87.383 200.228C86.6593 200.566 86.1311 201.198 85.9356 202.023L82.3241 217.98C82.18 218.805 82.3721 219.63 82.8557 220.31L93.0249 232.967C93.6045 233.55 94.4242 233.937 95.2405 233.985H111.432C112.3 234.082 113.12 233.695 113.648 232.967L123.817 220.31C124.301 219.63 124.493 218.805 124.397 217.98L120.734 202.119Z" fill="#326DE6"></path><path d="M118.538 216.929C118.49 216.929 118.442 216.929 118.442 216.881C118.442 216.833 118.346 216.833 118.249 216.833C118.057 216.786 117.864 216.786 117.668 216.786C117.571 216.786 117.475 216.786 117.379 216.738H117.331C116.797 216.69 116.219 216.595 115.686 216.452C115.541 216.404 115.397 216.261 115.348 216.118C115.397 216.118 115.348 216.118 115.348 216.118L114.963 216.022C115.156 214.631 115.059 213.196 114.77 211.805C114.433 210.414 113.851 209.075 113.077 207.878L113.366 207.592V207.544C113.366 207.401 113.414 207.21 113.511 207.114C113.944 206.733 114.381 206.443 114.863 206.157C114.96 206.109 115.056 206.061 115.152 206.013C115.345 205.918 115.49 205.822 115.686 205.727C115.734 205.679 115.782 205.679 115.83 205.632C115.878 205.584 115.83 205.584 115.83 205.536C116.264 205.202 116.364 204.626 116.023 204.196C115.878 204.006 115.589 203.862 115.345 203.862C115.104 203.862 114.86 203.958 114.667 204.101L114.619 204.149C114.571 204.196 114.523 204.244 114.474 204.244C114.33 204.387 114.185 204.53 114.089 204.674C114.041 204.769 113.944 204.817 113.896 204.865C113.559 205.246 113.122 205.632 112.688 205.918C112.592 205.966 112.496 206.013 112.399 206.013C112.351 206.013 112.255 206.013 112.207 205.966H112.158L111.773 206.204C111.388 205.822 110.951 205.437 110.565 205.055C108.776 203.665 106.553 202.806 104.278 202.564L104.23 202.182V202.229C104.085 202.134 104.037 201.991 103.989 201.848C103.989 201.319 103.989 200.794 104.085 200.218V200.17C104.085 200.075 104.133 199.98 104.133 199.884C104.182 199.693 104.182 199.502 104.23 199.308V199.015C104.278 198.534 103.893 198.057 103.407 198.009C103.118 197.961 102.826 198.105 102.585 198.343C102.392 198.534 102.296 198.773 102.296 199.015V199.253C102.296 199.444 102.344 199.635 102.392 199.83C102.44 199.925 102.44 200.02 102.44 200.116V200.164C102.537 200.692 102.537 201.217 102.537 201.793C102.489 201.936 102.44 202.079 102.296 202.175V202.27L102.248 202.652C101.714 202.7 101.184 202.795 100.603 202.891C98.3316 203.371 96.2497 204.568 94.6564 206.245L94.3673 206.054H94.3191C94.271 206.054 94.2228 206.102 94.1264 206.102C94.0301 206.102 93.9337 206.054 93.8374 206.007C93.4038 205.672 92.9667 205.287 92.6295 204.905C92.5813 204.81 92.485 204.762 92.4368 204.715C92.2923 204.571 92.1959 204.428 92.0514 204.285C92.0032 204.237 91.955 204.237 91.9068 204.19C91.8587 204.142 91.8587 204.142 91.8587 204.142C91.666 203.999 91.4251 203.903 91.1807 203.903C90.8917 203.903 90.6474 203.999 90.5028 204.237C90.2138 204.667 90.3101 205.243 90.6955 205.577C90.7437 205.577 90.7437 205.625 90.7437 205.625C90.7437 205.625 90.8401 205.72 90.8882 205.72C91.0328 205.816 91.2255 205.911 91.4216 206.007C91.518 206.054 91.6143 206.102 91.7107 206.15C92.1959 206.436 92.6777 206.726 93.0631 207.108C93.1594 207.203 93.2558 207.394 93.2076 207.537V207.489L93.4967 207.776C93.4485 207.871 93.4003 207.919 93.3522 208.014C91.8518 210.363 91.2255 213.142 91.6591 215.872L91.2737 215.968C91.2737 216.015 91.2255 216.015 91.2255 216.015C91.1773 216.158 91.0328 216.254 90.8882 216.349C90.3548 216.493 89.8249 216.588 89.2433 216.636C89.147 216.636 89.0506 216.636 88.9543 216.683C88.7616 216.683 88.5689 216.731 88.3727 216.731C88.3245 216.731 88.2764 216.779 88.18 216.779C88.1318 216.779 88.1318 216.779 88.0836 216.827C87.5503 216.922 87.213 217.403 87.3094 217.928C87.4057 218.357 87.8428 218.647 88.2764 218.599C88.3727 218.599 88.4209 218.599 88.5172 218.552C88.5654 218.552 88.5654 218.552 88.5654 218.504C88.5654 218.456 88.7099 218.504 88.7581 218.504C88.9508 218.456 89.1435 218.361 89.2915 218.313C89.3879 218.265 89.4842 218.217 89.5806 218.217H89.6288C90.1621 218.027 90.6439 217.883 91.2255 217.788H91.2737C91.4182 217.788 91.5627 217.836 91.6591 217.931C91.7072 217.931 91.7072 217.979 91.7072 217.979L92.1408 217.931C92.8669 220.133 94.2193 222.1 96.1051 223.535C96.5387 223.87 96.9276 224.159 97.4093 224.398L97.1685 224.732C97.1685 224.78 97.2166 224.78 97.2166 224.78C97.313 224.923 97.313 225.114 97.2648 225.26C97.0721 225.741 96.7796 226.218 96.4905 226.651V226.699C96.4424 226.794 96.3942 226.842 96.2978 226.938C96.2015 227.033 96.1051 227.224 95.9606 227.418C95.9124 227.466 95.9124 227.514 95.8642 227.561C95.8642 227.561 95.8642 227.609 95.8161 227.609C95.5752 228.09 95.7679 228.663 96.2015 228.901C96.2978 228.949 96.4424 228.997 96.5387 228.997C96.9241 228.997 97.2648 228.758 97.4575 228.42C97.4575 228.42 97.4575 228.373 97.5057 228.373C97.5057 228.325 97.5539 228.277 97.6021 228.23C97.6502 228.039 97.7466 227.895 97.7948 227.701L97.8911 227.415C98.0357 226.886 98.2765 226.409 98.5209 225.929C98.6172 225.785 98.7617 225.69 98.9063 225.642C98.9545 225.642 98.9545 225.642 98.9545 225.594L99.1472 225.213C100.5 225.741 101.904 225.98 103.352 225.98C104.223 225.98 105.094 225.884 105.964 225.646C106.498 225.55 107.028 225.359 107.513 225.216L107.705 225.55C107.754 225.55 107.754 225.55 107.754 225.598C107.898 225.646 108.043 225.741 108.139 225.884C108.38 226.365 108.624 226.842 108.769 227.371V227.418L108.865 227.705C108.913 227.895 108.962 228.086 109.058 228.233C109.106 228.281 109.106 228.328 109.154 228.376C109.154 228.376 109.154 228.424 109.202 228.424C109.395 228.758 109.736 229 110.121 229C110.266 229 110.362 228.952 110.507 228.905C110.699 228.809 110.892 228.618 110.94 228.376C110.988 228.138 110.988 227.895 110.892 227.657C110.892 227.609 110.844 227.609 110.844 227.609C110.844 227.561 110.796 227.514 110.748 227.466C110.651 227.275 110.555 227.132 110.41 226.985C110.362 226.89 110.314 226.842 110.218 226.747V226.651C109.88 226.222 109.636 225.741 109.443 225.26C109.395 225.117 109.395 224.926 109.491 224.78C109.491 224.732 109.54 224.732 109.54 224.732L109.395 224.35C111.862 222.864 113.748 220.566 114.619 217.836L115.004 217.883C115.052 217.883 115.052 217.836 115.052 217.836C115.149 217.74 115.293 217.692 115.438 217.692H115.486C116.019 217.788 116.549 217.931 117.035 218.122H117.083C117.179 218.17 117.276 218.217 117.372 218.217C117.565 218.313 117.709 218.408 117.905 218.456C117.953 218.456 118.002 218.504 118.098 218.504C118.146 218.504 118.146 218.504 118.194 218.552C118.291 218.599 118.339 218.599 118.435 218.599C118.869 218.599 119.258 218.313 119.402 217.928C119.361 217.41 118.972 217.024 118.538 216.929ZM104.564 215.443L103.259 216.066L101.955 215.443L101.618 214.052L102.537 212.903H103.989L104.908 214.052L104.564 215.443ZM112.444 212.33C112.685 213.336 112.733 214.341 112.637 215.347L108.043 214.055C107.609 213.96 107.365 213.527 107.461 213.097C107.509 212.954 107.558 212.859 107.654 212.763L111.281 209.504C111.814 210.367 112.203 211.325 112.444 212.33ZM109.832 207.731L105.868 210.51C105.531 210.701 105.045 210.653 104.805 210.319C104.708 210.223 104.66 210.128 104.66 209.985L104.371 205.148C106.498 205.386 108.383 206.296 109.832 207.731ZM101.081 205.287L102.048 205.096L101.807 209.886C101.807 210.315 101.422 210.653 100.985 210.653C100.84 210.653 100.744 210.605 100.599 210.558L96.5869 207.731C97.8395 206.535 99.3881 205.672 101.081 205.287ZM95.1829 209.504L98.7617 212.664C99.099 212.951 99.1472 213.431 98.8581 213.765C98.7617 213.909 98.6654 213.956 98.4727 214.004L93.7823 215.344C93.6343 213.336 94.1161 211.277 95.1829 209.504ZM94.3604 217.6L99.1472 216.786C99.5326 216.786 99.9214 217.024 99.9696 217.41C100.018 217.553 100.018 217.744 99.9214 217.89L98.0838 222.298C96.3907 221.193 95.0349 219.516 94.3604 217.6ZM105.338 223.539C104.66 223.682 103.986 223.777 103.259 223.777C102.244 223.777 101.181 223.587 100.214 223.297L102.585 219.032C102.826 218.746 103.215 218.65 103.552 218.841C103.696 218.937 103.793 219.032 103.937 219.175L106.26 223.345C105.964 223.396 105.675 223.443 105.338 223.539ZM111.236 219.373C110.51 220.522 109.495 221.528 108.335 222.247L106.449 217.744C106.353 217.362 106.546 216.977 106.883 216.833C107.028 216.786 107.172 216.738 107.317 216.738L112.152 217.553C111.914 218.221 111.622 218.845 111.236 219.373Z" fill="white"></path><rect x="186" y="197" width="107" height="55" rx="3" fill="#05193A"></rect><path d="M197.668 221H195.571L200.282 207.909H202.564L207.275 221H205.178L201.477 210.287H201.375L197.668 221ZM198.019 215.874H204.82V217.536H198.019V215.874ZM213.15 224.886C212.37 224.886 211.699 224.784 211.137 224.58C210.578 224.375 210.122 224.104 209.769 223.768C209.415 223.431 209.151 223.063 208.976 222.662L210.619 221.984C210.734 222.172 210.887 222.37 211.079 222.579C211.275 222.792 211.539 222.973 211.872 223.122C212.208 223.271 212.641 223.346 213.169 223.346C213.894 223.346 214.493 223.169 214.966 222.815C215.439 222.466 215.675 221.908 215.675 221.141V219.21H215.554C215.439 219.419 215.272 219.651 215.055 219.907C214.842 220.163 214.548 220.384 214.173 220.572C213.798 220.759 213.31 220.853 212.709 220.853C211.934 220.853 211.235 220.672 210.613 220.31C209.995 219.943 209.505 219.404 209.142 218.692C208.784 217.977 208.605 217.097 208.605 216.053C208.605 215.009 208.782 214.114 209.136 213.368C209.494 212.622 209.984 212.051 210.606 211.655C211.228 211.254 211.934 211.054 212.722 211.054C213.331 211.054 213.823 211.156 214.198 211.361C214.573 211.561 214.865 211.795 215.074 212.064C215.287 212.332 215.451 212.569 215.566 212.773H215.707V211.182H217.58V221.217C217.58 222.061 217.384 222.754 216.992 223.295C216.6 223.836 216.069 224.237 215.4 224.496C214.735 224.756 213.985 224.886 213.15 224.886ZM213.131 219.268C213.681 219.268 214.145 219.14 214.524 218.884C214.908 218.624 215.198 218.254 215.394 217.772C215.594 217.286 215.694 216.705 215.694 216.027C215.694 215.366 215.596 214.785 215.4 214.282C215.204 213.779 214.917 213.387 214.537 213.106C214.158 212.82 213.689 212.678 213.131 212.678C212.556 212.678 212.076 212.827 211.693 213.125C211.309 213.419 211.02 213.82 210.823 214.327C210.632 214.834 210.536 215.401 210.536 216.027C210.536 216.67 210.634 217.235 210.83 217.721C211.026 218.207 211.316 218.586 211.699 218.859C212.087 219.131 212.564 219.268 213.131 219.268ZM224.555 221.198C223.587 221.198 222.754 220.991 222.055 220.578C221.361 220.161 220.824 219.575 220.445 218.82C220.07 218.062 219.882 217.173 219.882 216.155C219.882 215.149 220.07 214.263 220.445 213.496C220.824 212.729 221.352 212.13 222.03 211.7C222.712 211.269 223.508 211.054 224.42 211.054C224.974 211.054 225.511 211.146 226.031 211.329C226.551 211.512 227.018 211.8 227.431 212.192C227.844 212.584 228.17 213.093 228.409 213.719C228.648 214.342 228.767 215.098 228.767 215.989V216.666H220.962V215.234H226.894C226.894 214.732 226.792 214.286 226.587 213.898C226.383 213.506 226.095 213.197 225.724 212.972C225.358 212.746 224.927 212.633 224.433 212.633C223.896 212.633 223.427 212.765 223.027 213.029C222.631 213.289 222.324 213.63 222.106 214.052C221.893 214.469 221.787 214.923 221.787 215.413V216.532C221.787 217.188 221.902 217.746 222.132 218.207C222.366 218.667 222.692 219.018 223.11 219.261C223.528 219.5 224.016 219.619 224.574 219.619C224.936 219.619 225.266 219.568 225.565 219.466C225.863 219.359 226.121 219.202 226.338 218.993C226.555 218.784 226.722 218.526 226.837 218.219L228.646 218.545C228.501 219.078 228.241 219.545 227.866 219.945C227.495 220.342 227.028 220.651 226.466 220.872C225.908 221.089 225.271 221.198 224.555 221.198ZM232.979 215.17V221H231.068V211.182H232.902V212.78H233.024C233.249 212.26 233.603 211.842 234.085 211.527C234.57 211.212 235.182 211.054 235.919 211.054C236.588 211.054 237.174 211.195 237.677 211.476C238.18 211.753 238.57 212.166 238.847 212.716C239.124 213.266 239.262 213.945 239.262 214.755V221H237.351V214.985C237.351 214.273 237.166 213.717 236.795 213.317C236.424 212.912 235.915 212.71 235.267 212.71C234.824 212.71 234.43 212.805 234.085 212.997C233.744 213.189 233.473 213.47 233.273 213.841C233.077 214.207 232.979 214.651 232.979 215.17ZM246.588 211.182V212.716H241.226V211.182H246.588ZM242.664 208.83H244.575V218.117C244.575 218.488 244.63 218.767 244.741 218.955C244.852 219.138 244.995 219.263 245.169 219.332C245.348 219.396 245.542 219.428 245.751 219.428C245.904 219.428 246.039 219.417 246.154 219.396C246.269 219.374 246.358 219.357 246.422 219.344L246.767 220.923C246.657 220.966 246.499 221.009 246.294 221.051C246.09 221.098 245.834 221.124 245.527 221.128C245.025 221.136 244.556 221.047 244.121 220.859C243.686 220.672 243.335 220.382 243.066 219.99C242.798 219.598 242.664 219.106 242.664 218.513V208.83ZM251.005 207.909V221H249.094V207.909H251.005ZM257.988 221.198C257.02 221.198 256.187 220.991 255.488 220.578C254.794 220.161 254.257 219.575 253.877 218.82C253.502 218.062 253.315 217.173 253.315 216.155C253.315 215.149 253.502 214.263 253.877 213.496C254.257 212.729 254.785 212.13 255.463 211.7C256.144 211.269 256.941 211.054 257.853 211.054C258.407 211.054 258.944 211.146 259.464 211.329C259.984 211.512 260.451 211.8 260.864 212.192C261.277 212.584 261.603 213.093 261.842 213.719C262.081 214.342 262.2 215.098 262.2 215.989V216.666H254.395V215.234H260.327C260.327 214.732 260.225 214.286 260.02 213.898C259.816 213.506 259.528 213.197 259.157 212.972C258.791 212.746 258.36 212.633 257.866 212.633C257.329 212.633 256.86 212.765 256.46 213.029C256.064 213.289 255.757 213.63 255.539 214.052C255.326 214.469 255.22 214.923 255.22 215.413V216.532C255.22 217.188 255.335 217.746 255.565 218.207C255.799 218.667 256.125 219.018 256.543 219.261C256.961 219.5 257.448 219.619 258.007 219.619C258.369 219.619 258.699 219.568 258.997 219.466C259.296 219.359 259.554 219.202 259.771 218.993C259.988 218.784 260.154 218.526 260.269 218.219L262.078 218.545C261.934 219.078 261.674 219.545 261.299 219.945C260.928 220.342 260.461 220.651 259.899 220.872C259.34 221.089 258.703 221.198 257.988 221.198ZM271.858 213.579L270.125 213.886C270.053 213.664 269.938 213.453 269.78 213.253C269.627 213.053 269.418 212.888 269.154 212.761C268.89 212.633 268.559 212.569 268.163 212.569C267.622 212.569 267.17 212.69 266.808 212.933C266.446 213.172 266.265 213.481 266.265 213.86C266.265 214.188 266.386 214.452 266.629 214.653C266.872 214.853 267.264 215.017 267.805 215.145L269.365 215.503C270.268 215.712 270.941 216.033 271.385 216.468C271.828 216.903 272.049 217.467 272.049 218.162C272.049 218.75 271.879 219.274 271.538 219.734C271.201 220.19 270.731 220.548 270.125 220.808C269.525 221.068 268.828 221.198 268.035 221.198C266.936 221.198 266.039 220.964 265.344 220.495C264.65 220.022 264.223 219.351 264.066 218.482L265.913 218.2C266.028 218.682 266.265 219.046 266.623 219.293C266.981 219.536 267.447 219.658 268.022 219.658C268.649 219.658 269.15 219.528 269.525 219.268C269.9 219.004 270.087 218.682 270.087 218.303C270.087 217.996 269.972 217.738 269.742 217.529C269.516 217.32 269.169 217.163 268.7 217.056L267.038 216.692C266.122 216.483 265.444 216.151 265.005 215.695C264.571 215.239 264.353 214.661 264.353 213.962C264.353 213.383 264.515 212.876 264.839 212.441C265.163 212.006 265.611 211.668 266.182 211.425C266.753 211.178 267.407 211.054 268.144 211.054C269.205 211.054 270.04 211.284 270.65 211.744C271.259 212.2 271.662 212.812 271.858 213.579ZM281.688 213.579L279.956 213.886C279.883 213.664 279.768 213.453 279.611 213.253C279.457 213.053 279.248 212.888 278.984 212.761C278.72 212.633 278.39 212.569 277.993 212.569C277.452 212.569 277.001 212.69 276.638 212.933C276.276 213.172 276.095 213.481 276.095 213.86C276.095 214.188 276.216 214.452 276.459 214.653C276.702 214.853 277.094 215.017 277.636 215.145L279.195 215.503C280.099 215.712 280.772 216.033 281.215 216.468C281.658 216.903 281.88 217.467 281.88 218.162C281.88 218.75 281.709 219.274 281.368 219.734C281.032 220.19 280.561 220.548 279.956 220.808C279.355 221.068 278.658 221.198 277.866 221.198C276.766 221.198 275.869 220.964 275.175 220.495C274.48 220.022 274.054 219.351 273.896 218.482L275.743 218.2C275.859 218.682 276.095 219.046 276.453 219.293C276.811 219.536 277.278 219.658 277.853 219.658C278.479 219.658 278.98 219.528 279.355 219.268C279.73 219.004 279.917 218.682 279.917 218.303C279.917 217.996 279.802 217.738 279.572 217.529C279.346 217.32 278.999 217.163 278.53 217.056L276.868 216.692C275.952 216.483 275.275 216.151 274.836 215.695C274.401 215.239 274.184 214.661 274.184 213.962C274.184 213.383 274.346 212.876 274.67 212.441C274.993 212.006 275.441 211.668 276.012 211.425C276.583 211.178 277.237 211.054 277.974 211.054C279.035 211.054 279.871 211.284 280.48 211.744C281.089 212.2 281.492 212.812 281.688 213.579ZM216.973 229.348C216.905 228.743 216.623 228.274 216.129 227.942C215.635 227.605 215.013 227.437 214.263 227.437C213.726 227.437 213.261 227.522 212.869 227.692C212.477 227.859 212.172 228.089 211.955 228.383C211.742 228.673 211.635 229.003 211.635 229.374C211.635 229.685 211.708 229.953 211.853 230.179C212.002 230.405 212.196 230.594 212.434 230.748C212.677 230.897 212.937 231.023 213.214 231.125C213.491 231.223 213.758 231.304 214.013 231.368L215.292 231.7C215.709 231.803 216.138 231.941 216.577 232.116C217.015 232.29 217.422 232.521 217.797 232.806C218.172 233.092 218.475 233.445 218.705 233.867C218.939 234.289 219.057 234.794 219.057 235.382C219.057 236.124 218.865 236.782 218.481 237.357C218.102 237.933 217.55 238.386 216.826 238.719C216.106 239.051 215.234 239.217 214.211 239.217C213.231 239.217 212.383 239.062 211.667 238.751C210.952 238.44 210.391 237.999 209.986 237.428C209.582 236.852 209.358 236.17 209.315 235.382H211.297C211.335 235.855 211.488 236.249 211.757 236.565C212.03 236.876 212.377 237.108 212.799 237.261C213.225 237.411 213.692 237.485 214.199 237.485C214.757 237.485 215.253 237.398 215.688 237.223C216.127 237.044 216.472 236.797 216.724 236.482C216.975 236.162 217.101 235.789 217.101 235.363C217.101 234.975 216.99 234.658 216.768 234.411C216.551 234.163 216.255 233.959 215.88 233.797C215.509 233.635 215.089 233.492 214.621 233.369L213.074 232.947C212.025 232.661 211.194 232.241 210.581 231.688C209.971 231.134 209.667 230.401 209.667 229.489C209.667 228.734 209.871 228.076 210.28 227.513C210.689 226.951 211.243 226.514 211.942 226.203C212.641 225.888 213.43 225.73 214.307 225.73C215.194 225.73 215.976 225.886 216.653 226.197C217.335 226.508 217.872 226.936 218.264 227.482C218.656 228.023 218.861 228.645 218.878 229.348H216.973ZM225.675 239.198C224.708 239.198 223.875 238.991 223.176 238.578C222.481 238.161 221.944 237.575 221.565 236.82C221.19 236.062 221.002 235.173 221.002 234.155C221.002 233.149 221.19 232.263 221.565 231.496C221.944 230.729 222.473 230.13 223.15 229.7C223.832 229.269 224.629 229.054 225.541 229.054C226.095 229.054 226.632 229.146 227.152 229.329C227.671 229.512 228.138 229.8 228.551 230.192C228.965 230.584 229.291 231.093 229.529 231.719C229.768 232.342 229.887 233.098 229.887 233.989V234.666H222.083V233.234H228.015C228.015 232.732 227.912 232.286 227.708 231.898C227.503 231.506 227.216 231.197 226.845 230.972C226.478 230.746 226.048 230.633 225.554 230.633C225.017 230.633 224.548 230.765 224.147 231.029C223.751 231.289 223.444 231.63 223.227 232.052C223.014 232.469 222.907 232.923 222.907 233.413V234.532C222.907 235.188 223.022 235.746 223.252 236.207C223.487 236.667 223.813 237.018 224.23 237.261C224.648 237.5 225.136 237.619 225.694 237.619C226.056 237.619 226.387 237.568 226.685 237.466C226.983 237.359 227.241 237.202 227.458 236.993C227.676 236.784 227.842 236.526 227.957 236.219L229.766 236.545C229.621 237.078 229.361 237.545 228.986 237.945C228.615 238.342 228.149 238.651 227.586 238.872C227.028 239.089 226.391 239.198 225.675 239.198ZM234.099 233.17V239H232.188V229.182H234.022V230.78H234.144C234.37 230.26 234.723 229.842 235.205 229.527C235.691 229.212 236.302 229.054 237.04 229.054C237.709 229.054 238.294 229.195 238.797 229.476C239.3 229.753 239.69 230.166 239.967 230.716C240.244 231.266 240.383 231.945 240.383 232.755V239H238.471V232.985C238.471 232.273 238.286 231.717 237.915 231.317C237.544 230.912 237.035 230.71 236.388 230.71C235.944 230.71 235.55 230.805 235.205 230.997C234.864 231.189 234.594 231.47 234.393 231.841C234.197 232.207 234.099 232.651 234.099 233.17ZM250.483 231.579L248.751 231.886C248.678 231.664 248.563 231.453 248.406 231.253C248.252 231.053 248.043 230.888 247.779 230.761C247.515 230.633 247.185 230.569 246.788 230.569C246.247 230.569 245.796 230.69 245.433 230.933C245.071 231.172 244.89 231.481 244.89 231.86C244.89 232.188 245.011 232.452 245.254 232.653C245.497 232.853 245.889 233.017 246.43 233.145L247.99 233.503C248.894 233.712 249.567 234.033 250.01 234.468C250.453 234.903 250.675 235.467 250.675 236.162C250.675 236.75 250.504 237.274 250.163 237.734C249.827 238.19 249.356 238.548 248.751 238.808C248.15 239.068 247.453 239.198 246.661 239.198C245.561 239.198 244.664 238.964 243.97 238.495C243.275 238.022 242.849 237.351 242.691 236.482L244.538 236.2C244.653 236.682 244.89 237.046 245.248 237.293C245.606 237.536 246.073 237.658 246.648 237.658C247.274 237.658 247.775 237.528 248.15 237.268C248.525 237.004 248.712 236.682 248.712 236.303C248.712 235.996 248.597 235.738 248.367 235.529C248.141 235.32 247.794 235.163 247.325 235.056L245.663 234.692C244.747 234.483 244.07 234.151 243.631 233.695C243.196 233.239 242.979 232.661 242.979 231.962C242.979 231.383 243.141 230.876 243.465 230.441C243.788 230.006 244.236 229.668 244.807 229.425C245.378 229.178 246.032 229.054 246.769 229.054C247.83 229.054 248.666 229.284 249.275 229.744C249.884 230.2 250.287 230.812 250.483 231.579ZM257.092 239.198C256.171 239.198 255.368 238.987 254.682 238.565C253.996 238.143 253.463 237.553 253.084 236.795C252.705 236.036 252.515 235.15 252.515 234.136C252.515 233.117 252.705 232.227 253.084 231.464C253.463 230.701 253.996 230.109 254.682 229.687C255.368 229.265 256.171 229.054 257.092 229.054C258.012 229.054 258.816 229.265 259.502 229.687C260.188 230.109 260.72 230.701 261.1 231.464C261.479 232.227 261.669 233.117 261.669 234.136C261.669 235.15 261.479 236.036 261.1 236.795C260.72 237.553 260.188 238.143 259.502 238.565C258.816 238.987 258.012 239.198 257.092 239.198ZM257.098 237.594C257.695 237.594 258.189 237.436 258.581 237.121C258.973 236.805 259.263 236.386 259.45 235.862C259.642 235.337 259.738 234.76 259.738 234.129C259.738 233.503 259.642 232.928 259.45 232.403C259.263 231.875 258.973 231.451 258.581 231.131C258.189 230.812 257.695 230.652 257.098 230.652C256.497 230.652 255.999 230.812 255.602 231.131C255.21 231.451 254.919 231.875 254.727 232.403C254.539 232.928 254.446 233.503 254.446 234.129C254.446 234.76 254.539 235.337 254.727 235.862C254.919 236.386 255.21 236.805 255.602 237.121C255.999 237.436 256.497 237.594 257.098 237.594ZM263.982 239V229.182H265.829V230.741H265.931C266.11 230.213 266.426 229.798 266.877 229.495C267.333 229.188 267.849 229.035 268.424 229.035C268.544 229.035 268.684 229.039 268.846 229.048C269.012 229.056 269.142 229.067 269.236 229.08V230.908C269.159 230.886 269.023 230.863 268.827 230.837C268.631 230.808 268.435 230.793 268.239 230.793C267.787 230.793 267.385 230.888 267.031 231.08C266.681 231.268 266.404 231.53 266.2 231.866C265.995 232.199 265.893 232.578 265.893 233.004V239H263.982Z" fill="#F4F5F7"></path><rect x="47" y="67" width="265" height="200" rx="2" stroke="#36B37E" stroke-width="2"></rect><path d="M48 183H312" stroke="#36B37E" stroke-width="2"></path><path d="M414.647 167.779L401.787 179.382L398.169 162.443L414.647 167.779Z" fill="black"></path><path d="M305 219C311 207.333 338.6 181.4 401 171" stroke="black" stroke-width="2" stroke-linejoin="round"></path><g clip-path="url(#clip0_508_92)"><path d="M110 122.399V137.02L122.657 144.36V129.739L110 122.399Z" fill="#003725"></path><path d="M135.31 122.399L122.656 129.739V144.36L135.31 137.02V122.399Z" fill="#ABF5D1"></path><path d="M122.657 115L110 122.34V122.4L122.657 129.739L135.31 122.4V122.34L122.657 115Z" fill="#00875A"></path></g><g clip-path="url(#clip1_508_92)"><path d="M124.176 147.709V162.33L136.832 169.67V155.049L124.176 147.709Z" fill="#003725"></path><path d="M149.486 147.709L136.832 155.049V169.67L149.486 162.33V147.709Z" fill="#ABF5D1"></path><path d="M136.832 140.31L124.176 147.65V147.71L136.832 155.049L149.486 147.71V147.65L136.832 140.31Z" fill="#00875A"></path></g><g clip-path="url(#clip2_508_92)"><path d="M138.348 122.399V137.02L151.004 144.36V129.739L138.348 122.399Z" fill="#003725"></path><path d="M163.657 122.399L151.004 129.739V144.36L163.657 137.02V122.399Z" fill="#ABF5D1"></path><path d="M151.004 115L138.348 122.34V122.4L151.004 129.739L163.658 122.4V122.34L151.004 115Z" fill="#00875A"></path></g><g clip-path="url(#clip3_508_92)"><path d="M152.523 147.709V162.33L165.18 169.67V155.049L152.523 147.709Z" fill="#003725"></path><path d="M177.833 147.709L165.18 155.049V169.67L177.833 162.33V147.709Z" fill="#ABF5D1"></path><path d="M165.18 140.31L152.523 147.65V147.71L165.18 155.049L177.833 147.71V147.65L165.18 140.31Z" fill="#00875A"></path></g><g clip-path="url(#clip4_508_92)"><path d="M166.695 122.399V137.02L179.352 144.36V129.739L166.695 122.399Z" fill="#003725"></path><path d="M192.005 122.399L179.352 129.739V144.36L192.005 137.02V122.399Z" fill="#ABF5D1"></path><path d="M179.352 115L166.695 122.34V122.4L179.352 129.739L192.005 122.4V122.34L179.352 115Z" fill="#00875A"></path></g><g clip-path="url(#clip5_508_92)"><path d="M180.867 147.709V162.33L193.524 169.67V155.049L180.867 147.709Z" fill="#003725"></path><path d="M206.177 147.709L193.523 155.049V169.67L206.177 162.33V147.709Z" fill="#ABF5D1"></path><path d="M193.524 140.31L180.867 147.65V147.71L193.524 155.049L206.177 147.71V147.65L193.524 140.31Z" fill="#00875A"></path></g><g clip-path="url(#clip6_508_92)"><path d="M195.043 122.399V137.02L207.699 144.36V129.739L195.043 122.399Z" fill="#003725"></path><path d="M220.353 122.399L207.699 129.739V144.36L220.353 137.02V122.399Z" fill="#ABF5D1"></path><path d="M207.699 115L195.043 122.34V122.4L207.699 129.739L220.353 122.4V122.34L207.699 115Z" fill="#00875A"></path></g><path d="M110.371 122.4V137.02L123.071 144.36V129.739L110.371 122.4Z" fill="#003725"></path><path d="M135.767 122.4L123.07 129.739V144.36L135.767 137.02V122.4Z" fill="#ABF5D1"></path><path d="M123.071 115L110.371 122.34V122.4L123.071 129.739L135.768 122.4V122.34L123.071 115Z" fill="#00875A"></path><path d="M124.594 147.709V162.33L137.293 169.67V155.049L124.594 147.709Z" fill="#003725"></path><path d="M149.99 147.709L137.293 155.049V169.67L149.99 162.33V147.709Z" fill="#ABF5D1"></path><path d="M137.293 140.31L124.594 147.65V147.71L137.293 155.049L149.99 147.71V147.65L137.293 140.31Z" fill="#00875A"></path><path d="M138.816 122.4V137.02L151.516 144.36V129.739L138.816 122.4Z" fill="#003725"></path><path d="M164.212 122.4L151.516 129.739V144.36L164.212 137.02V122.4Z" fill="#ABF5D1"></path><path d="M151.516 115L138.816 122.34V122.4L151.516 129.739L164.213 122.4V122.34L151.516 115Z" fill="#00875A"></path><path d="M153.039 147.709V162.33L165.739 169.67V155.049L153.039 147.709Z" fill="#003725"></path><path d="M178.435 147.709L165.738 155.049V169.67L178.435 162.33V147.709Z" fill="#ABF5D1"></path><path d="M165.739 140.31L153.039 147.65V147.71L165.739 155.049L178.436 147.71V147.65L165.739 140.31Z" fill="#00875A"></path><path d="M167.262 122.4V137.02L179.961 144.36V129.739L167.262 122.4Z" fill="#003725"></path><path d="M192.658 122.4L179.961 129.739V144.36L192.658 137.02V122.4Z" fill="#ABF5D1"></path><path d="M179.961 115L167.262 122.34V122.4L179.961 129.739L192.658 122.4V122.34L179.961 115Z" fill="#00875A"></path><path d="M181.48 147.709V162.33L194.18 169.67V155.049L181.48 147.709Z" fill="#003725"></path><path d="M206.876 147.709L194.18 155.049V169.67L206.876 162.33V147.709Z" fill="#ABF5D1"></path><path d="M194.18 140.31L181.48 147.65V147.71L194.18 155.049L206.877 147.71V147.65L194.18 140.31Z" fill="#00875A"></path><path d="M210.336 147.709V162.33L223.036 169.67V155.049L210.336 147.709Z" fill="#003725"></path><path d="M235.451 147.709L222.754 155.049V169.67L235.451 162.33V147.709Z" fill="#ABF5D1"></path><path d="M223.036 140.31L210.336 147.65V147.71L223.036 155.049L235.732 147.71V147.65L223.036 140.31Z" fill="#00875A"></path><path d="M195.707 122.4V137.02L208.407 144.36V129.739L195.707 122.4Z" fill="#003725"></path><path d="M221.103 122.4L208.406 129.739V144.36L221.103 137.02V122.4Z" fill="#ABF5D1"></path><path d="M208.407 115L195.707 122.34V122.4L208.407 129.739L221.103 122.4V122.34L208.407 115Z" fill="#00875A"></path><path d="M223.758 122.4V137.02L236.458 144.36V129.739L223.758 122.4Z" fill="#003725"></path><path d="M249.154 122.4L236.457 129.739V144.36L249.154 137.02V122.4Z" fill="#ABF5D1"></path><path d="M236.458 115L223.758 122.34V122.4L236.458 129.739L249.154 122.4V122.34L236.458 115Z" fill="#00875A"></path><path d="M-5.11045e-07 151.691L20.25 140L20.25 163.383L-5.11045e-07 151.691Z" fill="#36B37E"></path><defs><clipPath id="clip0_508_92"><rect width="25.3101" height="29.3597" fill="white" transform="translate(110 115)"></rect></clipPath><clipPath id="clip1_508_92"><rect width="25.3101" height="29.3597" fill="white" transform="translate(124.176 140.31)"></rect></clipPath><clipPath id="clip2_508_92"><rect width="25.3101" height="29.3597" fill="white" transform="translate(138.348 115)"></rect></clipPath><clipPath id="clip3_508_92"><rect width="25.3101" height="29.3597" fill="white" transform="translate(152.523 140.31)"></rect></clipPath><clipPath id="clip4_508_92"><rect width="25.3101" height="29.3597" fill="white" transform="translate(166.695 115)"></rect></clipPath><clipPath id="clip5_508_92"><rect width="25.3101" height="29.3597" fill="white" transform="translate(180.867 140.31)"></rect></clipPath><clipPath id="clip6_508_92"><rect width="25.3101" height="29.3597" fill="white" transform="translate(195.043 115)"></rect></clipPath></defs></svg>