<svg width="681" height="310" viewBox="0 0 681 310" fill="none" xmlns="http://www.w3.org/2000/svg">
<g clip-path="url(#clip0_16_1296)">
<rect x="-16" width="703" height="310" fill="white"/>
<rect width="72.8139" height="142.952" transform="matrix(-1 0 0 1 102.982 84.222)" fill="white"/>
<path d="M28.8906 90.231C28.8906 87.5176 30.0313 84.9153 32.0618 82.9966C34.0922 81.0779 36.8461 80 39.7175 80H94.0637C96.9352 80 99.6891 81.0779 101.72 82.9966C103.75 84.9153 104.891 87.5176 104.891 90.231V221.783C104.887 224.494 103.744 227.093 101.714 229.008C99.6842 230.924 96.9326 232 94.0637 232H39.7175C36.8461 232 34.0922 230.922 32.0618 229.003C30.0313 227.085 28.8906 224.482 28.8906 221.769V90.231ZM58.9426 93.4162C58.9411 93.6296 58.9843 93.8411 59.0698 94.0386C59.1553 94.2362 59.2814 94.4157 59.4407 94.5669C59.6 94.7182 59.7895 94.8381 59.9981 94.9197C60.2068 95.0014 60.4305 95.0432 60.6563 95.0427H72.2549C72.7087 95.0427 73.144 94.8726 73.4653 94.5697C73.7866 94.2668 73.9676 93.8558 73.9686 93.4269V93.3197C73.9676 92.8908 73.7866 92.4798 73.4653 92.1769C73.144 91.874 72.7087 91.7039 72.2549 91.7039H60.6563C60.4314 91.7034 60.2087 91.7448 60.0008 91.8258C59.7929 91.9068 59.6039 92.0258 59.4448 92.1758C59.2856 92.3259 59.1593 92.5042 59.0731 92.7005C58.9869 92.8968 58.9426 93.1072 58.9426 93.3197V93.4162ZM66.1302 227.96C67.5286 227.96 68.8956 227.569 70.0583 226.834C71.2211 226.1 72.1273 225.057 72.6624 223.836C73.1976 222.615 73.3376 221.272 73.0648 219.976C72.792 218.68 72.1186 217.489 71.1298 216.555C70.141 215.62 68.8811 214.984 67.5096 214.726C66.1381 214.469 64.7165 214.601 63.4245 215.107C62.1326 215.612 61.0283 216.469 60.2514 217.567C59.4745 218.666 59.0599 219.958 59.0599 221.279C59.0599 222.157 59.2428 223.025 59.5981 223.836C59.9534 224.647 60.4742 225.383 61.1307 226.004C61.7873 226.624 62.5667 227.116 63.4245 227.452C64.2823 227.788 65.2017 227.96 66.1302 227.96ZM34.1792 210.283H98.713V101.713H34.1944L34.1792 210.283Z" fill="#5E6C84"/>
<rect x="299.5" y="15.5" width="360" height="280" rx="3.5" fill="#FAF8FF" stroke="#7572E9" stroke-linecap="round" stroke-dasharray="3 3"/>
<path d="M426.544 42H424.447L429.158 28.9091H431.44L436.151 42H434.055L430.354 31.2869H430.251L426.544 42ZM426.896 36.8736H433.697V38.5355H426.896V36.8736ZM437.888 45.6818V32.1818H439.755V33.7734H439.915C440.025 33.5689 440.185 33.3324 440.394 33.0639C440.603 32.7955 440.893 32.5611 441.263 32.3608C441.634 32.1562 442.124 32.054 442.733 32.054C443.526 32.054 444.233 32.2543 444.856 32.6548C445.478 33.0554 445.966 33.6328 446.319 34.3871C446.677 35.1413 446.856 36.049 446.856 37.1101C446.856 38.1712 446.68 39.081 446.326 39.8395C445.972 40.5937 445.486 41.1754 444.868 41.5845C444.251 41.9893 443.545 42.1918 442.753 42.1918C442.156 42.1918 441.668 42.0916 441.289 41.8913C440.914 41.6911 440.62 41.4567 440.407 41.1882C440.194 40.9197 440.03 40.6811 439.915 40.4723H439.8V45.6818H437.888ZM439.761 37.0909C439.761 37.7812 439.861 38.3864 440.062 38.9062C440.262 39.4261 440.552 39.8331 440.931 40.1271C441.31 40.4169 441.775 40.5618 442.324 40.5618C442.895 40.5618 443.373 40.4105 443.756 40.108C444.14 39.8011 444.43 39.3857 444.626 38.8615C444.826 38.3374 444.926 37.7472 444.926 37.0909C444.926 36.4432 444.828 35.8615 444.632 35.3459C444.44 34.8303 444.15 34.4233 443.763 34.125C443.379 33.8267 442.9 33.6776 442.324 33.6776C441.77 33.6776 441.302 33.8203 440.918 34.1058C440.539 34.3913 440.251 34.7898 440.055 35.3011C439.859 35.8125 439.761 36.4091 439.761 37.0909ZM448.998 45.6818V32.1818H450.864V33.7734H451.024C451.135 33.5689 451.295 33.3324 451.503 33.0639C451.712 32.7955 452.002 32.5611 452.373 32.3608C452.743 32.1562 453.233 32.054 453.843 32.054C454.635 32.054 455.343 32.2543 455.965 32.6548C456.587 33.0554 457.075 33.6328 457.429 34.3871C457.787 35.1413 457.966 36.049 457.966 37.1101C457.966 38.1712 457.789 39.081 457.435 39.8395C457.081 40.5937 456.596 41.1754 455.978 41.5845C455.36 41.9893 454.655 42.1918 453.862 42.1918C453.265 42.1918 452.778 42.0916 452.398 41.8913C452.023 41.6911 451.729 41.4567 451.516 41.1882C451.303 40.9197 451.139 40.6811 451.024 40.4723H450.909V45.6818H448.998ZM450.871 37.0909C450.871 37.7812 450.971 38.3864 451.171 38.9062C451.371 39.4261 451.661 39.8331 452.04 40.1271C452.42 40.4169 452.884 40.5618 453.434 40.5618C454.005 40.5618 454.482 40.4105 454.866 40.108C455.249 39.8011 455.539 39.3857 455.735 38.8615C455.935 38.3374 456.035 37.7472 456.035 37.0909C456.035 36.4432 455.937 35.8615 455.741 35.3459C455.55 34.8303 455.26 34.4233 454.872 34.125C454.488 33.8267 454.009 33.6776 453.434 33.6776C452.88 33.6776 452.411 33.8203 452.028 34.1058C451.648 34.3913 451.361 34.7898 451.165 35.3011C450.969 35.8125 450.871 36.4091 450.871 37.0909ZM462.018 28.9091V42H460.107V28.9091H462.018ZM464.589 42V32.1818H466.501V42H464.589ZM465.555 30.6669C465.222 30.6669 464.937 30.5561 464.698 30.3345C464.464 30.1087 464.347 29.8402 464.347 29.5291C464.347 29.2138 464.464 28.9453 464.698 28.7237C464.937 28.4979 465.222 28.3849 465.555 28.3849C465.887 28.3849 466.17 28.4979 466.405 28.7237C466.643 28.9453 466.763 29.2138 466.763 29.5291C466.763 29.8402 466.643 30.1087 466.405 30.3345C466.17 30.5561 465.887 30.6669 465.555 30.6669ZM473.208 42.1982C472.257 42.1982 471.439 41.983 470.753 41.5526C470.071 41.1179 469.547 40.5192 469.181 39.7564C468.814 38.9936 468.631 38.12 468.631 37.1357C468.631 36.1385 468.818 35.2585 469.193 34.4957C469.568 33.7287 470.097 33.13 470.779 32.6996C471.46 32.2692 472.264 32.054 473.188 32.054C473.934 32.054 474.599 32.1925 475.183 32.4695C475.767 32.7422 476.237 33.1257 476.595 33.62C476.958 34.1143 477.173 34.6918 477.241 35.3523H475.381C475.279 34.892 475.044 34.4957 474.678 34.1634C474.316 33.831 473.83 33.6648 473.22 33.6648C472.688 33.6648 472.221 33.8054 471.82 34.0866C471.424 34.3636 471.115 34.7599 470.894 35.2756C470.672 35.7869 470.561 36.392 470.561 37.0909C470.561 37.8068 470.67 38.4247 470.887 38.9446C471.105 39.4645 471.411 39.8672 471.808 40.1527C472.208 40.4382 472.679 40.581 473.22 40.581C473.583 40.581 473.911 40.5149 474.205 40.3828C474.503 40.2464 474.752 40.0526 474.953 39.8011C475.157 39.5497 475.3 39.2472 475.381 38.8935H477.241C477.173 39.5284 476.966 40.0952 476.621 40.5938C476.276 41.0923 475.813 41.4844 475.234 41.7699C474.659 42.0554 473.983 42.1982 473.208 42.1982ZM482.142 42.2173C481.52 42.2173 480.957 42.1023 480.455 41.8722C479.952 41.6378 479.553 41.299 479.259 40.8558C478.969 40.4126 478.825 39.8693 478.825 39.2259C478.825 38.6719 478.931 38.2159 479.144 37.858C479.357 37.5 479.645 37.2166 480.007 37.0078C480.369 36.799 480.774 36.6413 481.222 36.5348C481.669 36.4283 482.125 36.3473 482.589 36.2919C483.178 36.2237 483.655 36.1683 484.021 36.1257C484.388 36.0788 484.654 36.0043 484.82 35.902C484.987 35.7997 485.07 35.6335 485.07 35.4034V35.3587C485.07 34.8004 484.912 34.3679 484.597 34.0611C484.286 33.7543 483.821 33.6009 483.203 33.6009C482.56 33.6009 482.053 33.7436 481.682 34.0291C481.315 34.3104 481.062 34.6236 480.921 34.9688L479.125 34.5597C479.338 33.9631 479.649 33.4815 480.058 33.1151C480.472 32.7443 480.947 32.4759 481.484 32.3097C482.021 32.1392 482.585 32.054 483.178 32.054C483.57 32.054 483.985 32.1009 484.424 32.1946C484.867 32.2841 485.281 32.4503 485.664 32.6932C486.052 32.9361 486.369 33.2834 486.616 33.7351C486.864 34.1825 486.987 34.7642 486.987 35.4801V42H485.121V40.6577H485.044C484.92 40.9048 484.735 41.1477 484.488 41.3864C484.241 41.625 483.923 41.8232 483.536 41.9808C483.148 42.1385 482.683 42.2173 482.142 42.2173ZM482.558 40.6832C483.086 40.6832 483.538 40.5788 483.913 40.37C484.292 40.1612 484.58 39.8885 484.776 39.5518C484.976 39.2109 485.076 38.8466 485.076 38.4588V37.1932C485.008 37.2614 484.876 37.3253 484.68 37.3849C484.488 37.4403 484.268 37.4893 484.021 37.532C483.774 37.5703 483.533 37.6065 483.299 37.6406C483.065 37.6705 482.869 37.696 482.711 37.7173C482.34 37.7642 482.001 37.843 481.695 37.9538C481.392 38.0646 481.149 38.2244 480.966 38.4332C480.787 38.6378 480.697 38.9105 480.697 39.2514C480.697 39.7244 480.872 40.0824 481.222 40.3253C481.571 40.5639 482.016 40.6832 482.558 40.6832ZM494.116 32.1818V33.7159H488.753V32.1818H494.116ZM490.191 29.8295H492.102V39.1172C492.102 39.4879 492.158 39.767 492.269 39.9545C492.379 40.1378 492.522 40.2635 492.697 40.3317C492.876 40.3956 493.07 40.4276 493.279 40.4276C493.432 40.4276 493.566 40.4169 493.681 40.3956C493.796 40.3743 493.886 40.3572 493.95 40.3445L494.295 41.9233C494.184 41.9659 494.026 42.0085 493.822 42.0511C493.617 42.098 493.362 42.1236 493.055 42.1278C492.552 42.1364 492.083 42.0469 491.649 41.8594C491.214 41.6719 490.862 41.3821 490.594 40.9901C490.325 40.598 490.191 40.1058 490.191 39.5135V29.8295ZM496.23 42V32.1818H498.141V42H496.23ZM497.195 30.6669C496.863 30.6669 496.577 30.5561 496.339 30.3345C496.104 30.1087 495.987 29.8402 495.987 29.5291C495.987 29.2138 496.104 28.9453 496.339 28.7237C496.577 28.4979 496.863 28.3849 497.195 28.3849C497.528 28.3849 497.811 28.4979 498.045 28.7237C498.284 28.9453 498.403 29.2138 498.403 29.5291C498.403 29.8402 498.284 30.1087 498.045 30.3345C497.811 30.5561 497.528 30.6669 497.195 30.6669ZM504.848 42.1982C503.928 42.1982 503.124 41.9872 502.438 41.5653C501.752 41.1435 501.22 40.5533 500.84 39.7947C500.461 39.0362 500.271 38.1499 500.271 37.1357C500.271 36.1172 500.461 35.2266 500.84 34.4638C501.22 33.701 501.752 33.1087 502.438 32.6868C503.124 32.2649 503.928 32.054 504.848 32.054C505.769 32.054 506.572 32.2649 507.258 32.6868C507.944 33.1087 508.477 33.701 508.856 34.4638C509.235 35.2266 509.425 36.1172 509.425 37.1357C509.425 38.1499 509.235 39.0362 508.856 39.7947C508.477 40.5533 507.944 41.1435 507.258 41.5653C506.572 41.9872 505.769 42.1982 504.848 42.1982ZM504.855 40.5938C505.451 40.5938 505.945 40.4361 506.338 40.1207C506.73 39.8054 507.019 39.3857 507.207 38.8615C507.399 38.3374 507.494 37.7599 507.494 37.1293C507.494 36.5028 507.399 35.9276 507.207 35.4034C507.019 34.875 506.73 34.451 506.338 34.1314C505.945 33.8118 505.451 33.652 504.855 33.652C504.254 33.652 503.755 33.8118 503.359 34.1314C502.967 34.451 502.675 34.875 502.483 35.4034C502.296 35.9276 502.202 36.5028 502.202 37.1293C502.202 37.7599 502.296 38.3374 502.483 38.8615C502.675 39.3857 502.967 39.8054 503.359 40.1207C503.755 40.4361 504.254 40.5938 504.855 40.5938ZM513.469 36.1705V42H511.558V32.1818H513.393V33.7798H513.514C513.74 33.2599 514.094 32.8423 514.575 32.527C515.061 32.2116 515.673 32.054 516.41 32.054C517.079 32.054 517.665 32.1946 518.168 32.4759C518.67 32.7528 519.06 33.1662 519.337 33.7159C519.614 34.2656 519.753 34.9453 519.753 35.755V42H517.842V35.9851C517.842 35.2734 517.656 34.7173 517.286 34.3168C516.915 33.9119 516.406 33.7095 515.758 33.7095C515.315 33.7095 514.92 33.8054 514.575 33.9972C514.234 34.1889 513.964 34.4702 513.763 34.8409C513.567 35.2074 513.469 35.6506 513.469 36.1705ZM532.021 28.9091V42H530.039V30.8906H529.963L526.83 32.9361V31.044L530.097 28.9091H532.021Z" fill="#6554C0"/>
<rect x="504.5" y="59.5" width="122" height="89" rx="3.5" fill="#F3FEFF" stroke="#7A869A" stroke-linecap="round" stroke-dasharray="3 3"/>
<rect x="504.5" y="178.5" width="122" height="89" rx="3.5" fill="#F3FEFF" stroke="#7A869A" stroke-linecap="round" stroke-dasharray="3 3"/>
<path d="M532.578 96.348C532.51 95.7429 532.229 95.2741 531.734 94.9418C531.24 94.6051 530.618 94.4368 529.868 94.4368C529.331 94.4368 528.866 94.522 528.474 94.6925C528.082 94.8587 527.778 95.0888 527.56 95.3828C527.347 95.6726 527.241 96.0028 527.241 96.3736C527.241 96.6847 527.313 96.9531 527.458 97.179C527.607 97.4048 527.801 97.5945 528.04 97.7479C528.283 97.897 528.543 98.0227 528.82 98.125C529.097 98.223 529.363 98.304 529.619 98.3679L530.897 98.7003C531.315 98.8026 531.743 98.9411 532.182 99.1158C532.621 99.2905 533.028 99.5206 533.403 99.8061C533.778 100.092 534.08 100.445 534.31 100.867C534.545 101.289 534.662 101.794 534.662 102.382C534.662 103.124 534.47 103.782 534.087 104.357C533.707 104.933 533.156 105.386 532.431 105.719C531.711 106.051 530.839 106.217 529.817 106.217C528.837 106.217 527.989 106.062 527.273 105.751C526.557 105.44 525.996 104.999 525.592 104.428C525.187 103.852 524.963 103.17 524.92 102.382H526.902C526.94 102.855 527.094 103.249 527.362 103.565C527.635 103.876 527.982 104.108 528.404 104.261C528.83 104.411 529.297 104.485 529.804 104.485C530.362 104.485 530.859 104.398 531.293 104.223C531.732 104.044 532.077 103.797 532.329 103.482C532.58 103.162 532.706 102.789 532.706 102.363C532.706 101.975 532.595 101.658 532.374 101.411C532.156 101.163 531.86 100.959 531.485 100.797C531.114 100.635 530.695 100.492 530.226 100.369L528.679 99.9467C527.631 99.6612 526.8 99.2415 526.186 98.6875C525.577 98.1335 525.272 97.4006 525.272 96.4886C525.272 95.7344 525.477 95.076 525.886 94.5135C526.295 93.951 526.849 93.5142 527.548 93.2031C528.246 92.8878 529.035 92.7301 529.913 92.7301C530.799 92.7301 531.581 92.8857 532.259 93.1967C532.94 93.5078 533.477 93.9361 533.869 94.4815C534.261 95.0227 534.466 95.6449 534.483 96.348H532.578ZM541.1 106.198C540.133 106.198 539.3 105.991 538.601 105.578C537.906 105.161 537.369 104.575 536.99 103.82C536.615 103.062 536.428 102.173 536.428 101.155C536.428 100.149 536.615 99.2628 536.99 98.4957C537.369 97.7287 537.898 97.13 538.575 96.6996C539.257 96.2692 540.054 96.054 540.966 96.054C541.52 96.054 542.057 96.1456 542.577 96.3288C543.097 96.5121 543.563 96.7997 543.977 97.1918C544.39 97.5838 544.716 98.093 544.955 98.7195C545.193 99.3416 545.313 100.098 545.313 100.989V101.666H537.508V100.234H543.44C543.44 99.7315 543.338 99.2862 543.133 98.8984C542.928 98.5064 542.641 98.1974 542.27 97.9716C541.904 97.7457 541.473 97.6328 540.979 97.6328C540.442 97.6328 539.973 97.7649 539.573 98.0291C539.176 98.2891 538.869 98.63 538.652 99.0518C538.439 99.4695 538.333 99.9233 538.333 100.413V101.532C538.333 102.188 538.448 102.746 538.678 103.207C538.912 103.667 539.238 104.018 539.656 104.261C540.073 104.5 540.561 104.619 541.119 104.619C541.482 104.619 541.812 104.568 542.11 104.466C542.409 104.359 542.666 104.202 542.884 103.993C543.101 103.784 543.267 103.526 543.382 103.219L545.191 103.545C545.046 104.078 544.786 104.545 544.411 104.945C544.041 105.342 543.574 105.651 543.012 105.872C542.453 106.089 541.816 106.198 541.1 106.198ZM547.433 106V96.1818H549.281V97.7415H549.383C549.562 97.2131 549.877 96.7976 550.329 96.495C550.785 96.1882 551.3 96.0348 551.876 96.0348C551.995 96.0348 552.136 96.0391 552.298 96.0476C552.464 96.0561 552.594 96.0668 552.688 96.0795V97.9077C552.611 97.8864 552.474 97.8629 552.278 97.8374C552.082 97.8075 551.886 97.7926 551.69 97.7926C551.239 97.7926 550.836 97.8885 550.482 98.0803C550.133 98.2678 549.856 98.5298 549.651 98.8665C549.447 99.1989 549.344 99.5781 549.344 100.004V106H547.433ZM563.039 96.1818L559.479 106H557.434L553.867 96.1818H555.919L558.405 103.737H558.507L560.988 96.1818H563.039ZM564.836 106V96.1818H566.747V106H564.836ZM565.801 94.6669C565.468 94.6669 565.183 94.5561 564.944 94.3345C564.71 94.1087 564.593 93.8402 564.593 93.5291C564.593 93.2138 564.71 92.9453 564.944 92.7237C565.183 92.4979 565.468 92.3849 565.801 92.3849C566.133 92.3849 566.417 92.4979 566.651 92.7237C566.89 92.9453 567.009 93.2138 567.009 93.5291C567.009 93.8402 566.89 94.1087 566.651 94.3345C566.417 94.5561 566.133 94.6669 565.801 94.6669ZM573.454 106.198C572.503 106.198 571.685 105.983 570.999 105.553C570.317 105.118 569.793 104.519 569.427 103.756C569.06 102.994 568.877 102.12 568.877 101.136C568.877 100.138 569.064 99.2585 569.439 98.4957C569.814 97.7287 570.343 97.13 571.025 96.6996C571.706 96.2692 572.51 96.054 573.434 96.054C574.18 96.054 574.845 96.1925 575.429 96.4695C576.013 96.7422 576.483 97.1257 576.841 97.62C577.204 98.1143 577.419 98.6918 577.487 99.3523H575.627C575.525 98.892 575.29 98.4957 574.924 98.1634C574.562 97.831 574.076 97.6648 573.466 97.6648C572.934 97.6648 572.467 97.8054 572.067 98.0866C571.67 98.3636 571.361 98.7599 571.14 99.2756C570.918 99.7869 570.807 100.392 570.807 101.091C570.807 101.807 570.916 102.425 571.133 102.945C571.351 103.464 571.657 103.867 572.054 104.153C572.454 104.438 572.925 104.581 573.466 104.581C573.829 104.581 574.157 104.515 574.451 104.383C574.749 104.246 574.998 104.053 575.199 103.801C575.403 103.55 575.546 103.247 575.627 102.893H577.487C577.419 103.528 577.212 104.095 576.867 104.594C576.522 105.092 576.059 105.484 575.48 105.77C574.905 106.055 574.229 106.198 573.454 106.198ZM583.762 106.198C582.795 106.198 581.962 105.991 581.263 105.578C580.569 105.161 580.032 104.575 579.652 103.82C579.277 103.062 579.09 102.173 579.09 101.155C579.09 100.149 579.277 99.2628 579.652 98.4957C580.032 97.7287 580.56 97.13 581.238 96.6996C581.919 96.2692 582.716 96.054 583.628 96.054C584.182 96.054 584.719 96.1456 585.239 96.3288C585.759 96.5121 586.225 96.7997 586.639 97.1918C587.052 97.5838 587.378 98.093 587.617 98.7195C587.855 99.3416 587.975 100.098 587.975 100.989V101.666H580.17V100.234H586.102C586.102 99.7315 586 99.2862 585.795 98.8984C585.591 98.5064 585.303 98.1974 584.932 97.9716C584.566 97.7457 584.135 97.6328 583.641 97.6328C583.104 97.6328 582.635 97.7649 582.235 98.0291C581.838 98.2891 581.532 98.63 581.314 99.0518C581.101 99.4695 580.995 99.9233 580.995 100.413V101.532C580.995 102.188 581.11 102.746 581.34 103.207C581.574 103.667 581.9 104.018 582.318 104.261C582.735 104.5 583.223 104.619 583.782 104.619C584.144 104.619 584.474 104.568 584.772 104.466C585.071 104.359 585.328 104.202 585.546 103.993C585.763 103.784 585.929 103.526 586.044 103.219L587.853 103.545C587.708 104.078 587.449 104.545 587.074 104.945C586.703 105.342 586.236 105.651 585.674 105.872C585.115 106.089 584.478 106.198 583.762 106.198ZM599.8 92.9091V106H597.819V94.8906H597.742L594.61 96.9361V95.044L597.876 92.9091H599.8Z" fill="#344563"/>
<path d="M531.578 217.348C531.51 216.743 531.229 216.274 530.734 215.942C530.24 215.605 529.618 215.437 528.868 215.437C528.331 215.437 527.866 215.522 527.474 215.692C527.082 215.859 526.778 216.089 526.56 216.383C526.347 216.673 526.241 217.003 526.241 217.374C526.241 217.685 526.313 217.953 526.458 218.179C526.607 218.405 526.801 218.594 527.04 218.748C527.283 218.897 527.543 219.023 527.82 219.125C528.097 219.223 528.363 219.304 528.619 219.368L529.897 219.7C530.315 219.803 530.743 219.941 531.182 220.116C531.621 220.29 532.028 220.521 532.403 220.806C532.778 221.092 533.08 221.445 533.31 221.867C533.545 222.289 533.662 222.794 533.662 223.382C533.662 224.124 533.47 224.782 533.087 225.357C532.707 225.933 532.156 226.386 531.431 226.719C530.711 227.051 529.839 227.217 528.817 227.217C527.837 227.217 526.989 227.062 526.273 226.751C525.557 226.44 524.996 225.999 524.592 225.428C524.187 224.852 523.963 224.17 523.92 223.382H525.902C525.94 223.855 526.094 224.249 526.362 224.565C526.635 224.876 526.982 225.108 527.404 225.261C527.83 225.411 528.297 225.485 528.804 225.485C529.362 225.485 529.859 225.398 530.293 225.223C530.732 225.044 531.077 224.797 531.329 224.482C531.58 224.162 531.706 223.789 531.706 223.363C531.706 222.975 531.595 222.658 531.374 222.411C531.156 222.163 530.86 221.959 530.485 221.797C530.114 221.635 529.695 221.492 529.226 221.369L527.679 220.947C526.631 220.661 525.8 220.241 525.186 219.688C524.577 219.134 524.272 218.401 524.272 217.489C524.272 216.734 524.477 216.076 524.886 215.513C525.295 214.951 525.849 214.514 526.548 214.203C527.246 213.888 528.035 213.73 528.913 213.73C529.799 213.73 530.581 213.886 531.259 214.197C531.94 214.508 532.477 214.936 532.869 215.482C533.261 216.023 533.466 216.645 533.483 217.348H531.578ZM540.1 227.198C539.133 227.198 538.3 226.991 537.601 226.578C536.906 226.161 536.369 225.575 535.99 224.82C535.615 224.062 535.428 223.173 535.428 222.155C535.428 221.149 535.615 220.263 535.99 219.496C536.369 218.729 536.898 218.13 537.575 217.7C538.257 217.269 539.054 217.054 539.966 217.054C540.52 217.054 541.057 217.146 541.577 217.329C542.097 217.512 542.563 217.8 542.977 218.192C543.39 218.584 543.716 219.093 543.955 219.719C544.193 220.342 544.313 221.098 544.313 221.989V222.666H536.508V221.234H542.44C542.44 220.732 542.338 220.286 542.133 219.898C541.928 219.506 541.641 219.197 541.27 218.972C540.904 218.746 540.473 218.633 539.979 218.633C539.442 218.633 538.973 218.765 538.573 219.029C538.176 219.289 537.869 219.63 537.652 220.052C537.439 220.469 537.333 220.923 537.333 221.413V222.532C537.333 223.188 537.448 223.746 537.678 224.207C537.912 224.667 538.238 225.018 538.656 225.261C539.073 225.5 539.561 225.619 540.119 225.619C540.482 225.619 540.812 225.568 541.11 225.466C541.409 225.359 541.666 225.202 541.884 224.993C542.101 224.784 542.267 224.526 542.382 224.219L544.191 224.545C544.046 225.078 543.786 225.545 543.411 225.945C543.041 226.342 542.574 226.651 542.012 226.872C541.453 227.089 540.816 227.198 540.1 227.198ZM546.433 227V217.182H548.281V218.741H548.383C548.562 218.213 548.877 217.798 549.329 217.495C549.785 217.188 550.3 217.035 550.876 217.035C550.995 217.035 551.136 217.039 551.298 217.048C551.464 217.056 551.594 217.067 551.688 217.08V218.908C551.611 218.886 551.474 218.863 551.278 218.837C551.082 218.808 550.886 218.793 550.69 218.793C550.239 218.793 549.836 218.888 549.482 219.08C549.133 219.268 548.856 219.53 548.651 219.866C548.447 220.199 548.344 220.578 548.344 221.004V227H546.433ZM562.039 217.182L558.479 227H556.434L552.867 217.182H554.919L557.405 224.737H557.507L559.988 217.182H562.039ZM563.836 227V217.182H565.747V227H563.836ZM564.801 215.667C564.468 215.667 564.183 215.556 563.944 215.335C563.71 215.109 563.593 214.84 563.593 214.529C563.593 214.214 563.71 213.945 563.944 213.724C564.183 213.498 564.468 213.385 564.801 213.385C565.133 213.385 565.417 213.498 565.651 213.724C565.89 213.945 566.009 214.214 566.009 214.529C566.009 214.84 565.89 215.109 565.651 215.335C565.417 215.556 565.133 215.667 564.801 215.667ZM572.454 227.198C571.503 227.198 570.685 226.983 569.999 226.553C569.317 226.118 568.793 225.519 568.427 224.756C568.06 223.994 567.877 223.12 567.877 222.136C567.877 221.138 568.064 220.259 568.439 219.496C568.814 218.729 569.343 218.13 570.025 217.7C570.706 217.269 571.51 217.054 572.434 217.054C573.18 217.054 573.845 217.192 574.429 217.469C575.013 217.742 575.483 218.126 575.841 218.62C576.204 219.114 576.419 219.692 576.487 220.352H574.627C574.525 219.892 574.29 219.496 573.924 219.163C573.562 218.831 573.076 218.665 572.466 218.665C571.934 218.665 571.467 218.805 571.067 219.087C570.67 219.364 570.361 219.76 570.14 220.276C569.918 220.787 569.807 221.392 569.807 222.091C569.807 222.807 569.916 223.425 570.133 223.945C570.351 224.464 570.657 224.867 571.054 225.153C571.454 225.438 571.925 225.581 572.466 225.581C572.829 225.581 573.157 225.515 573.451 225.383C573.749 225.246 573.998 225.053 574.199 224.801C574.403 224.55 574.546 224.247 574.627 223.893H576.487C576.419 224.528 576.212 225.095 575.867 225.594C575.522 226.092 575.059 226.484 574.48 226.77C573.905 227.055 573.229 227.198 572.454 227.198ZM582.762 227.198C581.795 227.198 580.962 226.991 580.263 226.578C579.569 226.161 579.032 225.575 578.652 224.82C578.277 224.062 578.09 223.173 578.09 222.155C578.09 221.149 578.277 220.263 578.652 219.496C579.032 218.729 579.56 218.13 580.238 217.7C580.919 217.269 581.716 217.054 582.628 217.054C583.182 217.054 583.719 217.146 584.239 217.329C584.759 217.512 585.225 217.8 585.639 218.192C586.052 218.584 586.378 219.093 586.617 219.719C586.855 220.342 586.975 221.098 586.975 221.989V222.666H579.17V221.234H585.102C585.102 220.732 585 220.286 584.795 219.898C584.591 219.506 584.303 219.197 583.932 218.972C583.566 218.746 583.135 218.633 582.641 218.633C582.104 218.633 581.635 218.765 581.235 219.029C580.838 219.289 580.532 219.63 580.314 220.052C580.101 220.469 579.995 220.923 579.995 221.413V222.532C579.995 223.188 580.11 223.746 580.34 224.207C580.574 224.667 580.9 225.018 581.318 225.261C581.735 225.5 582.223 225.619 582.782 225.619C583.144 225.619 583.474 225.568 583.772 225.466C584.071 225.359 584.328 225.202 584.546 224.993C584.763 224.784 584.929 224.526 585.044 224.219L586.853 224.545C586.708 225.078 586.449 225.545 586.074 225.945C585.703 226.342 585.236 226.651 584.674 226.872C584.115 227.089 583.478 227.198 582.762 227.198ZM604.578 213.909V227H602.763L596.109 217.399H595.988V227H594.012V213.909H595.841L602.501 223.523H602.623V213.909H604.578Z" fill="#344563"/>
<path d="M331.293 71.2929C330.902 71.6834 330.902 72.3166 331.293 72.7071L337.657 79.0711C338.047 79.4616 338.681 79.4616 339.071 79.0711C339.462 78.6805 339.462 78.0474 339.071 77.6568L333.414 72L339.071 66.3431C339.462 65.9526 339.462 65.3194 339.071 64.9289C338.681 64.5384 338.047 64.5384 337.657 64.9289L331.293 71.2929ZM496 71L332 71L332 73L496 73L496 71Z" fill="#7A869A"/>
<path d="M126.293 95.2929C125.902 95.6834 125.902 96.3166 126.293 96.7071L132.657 103.071C133.047 103.462 133.681 103.462 134.071 103.071C134.462 102.681 134.462 102.047 134.071 101.657L128.414 96L134.071 90.3431C134.462 89.9526 134.462 89.3194 134.071 88.9289C133.681 88.5384 133.047 88.5384 132.657 88.9289L126.293 95.2929ZM291 95L127 95L127 97L291 97L291 95Z" fill="#7572E9"/>
<path d="M331.293 188.293C330.902 188.683 330.902 189.317 331.293 189.707L337.657 196.071C338.047 196.462 338.681 196.462 339.071 196.071C339.462 195.681 339.462 195.047 339.071 194.657L333.414 189L339.071 183.343C339.462 182.953 339.462 182.319 339.071 181.929C338.681 181.538 338.047 181.538 337.657 181.929L331.293 188.293ZM496 188L332 188L332 190L496 190L496 188Z" fill="#7A869A"/>
<path d="M331.293 103.293C330.902 103.683 330.902 104.317 331.293 104.707L337.657 111.071C338.047 111.462 338.681 111.462 339.071 111.071C339.462 110.681 339.462 110.047 339.071 109.657L333.414 104L339.071 98.3431C339.462 97.9526 339.462 97.3194 339.071 96.9289C338.681 96.5384 338.047 96.5384 337.657 96.9289L331.293 103.293ZM496 103L332 103L332 105L496 105L496 103Z" fill="#7A869A"/>
<path d="M126.293 151.293C125.902 151.683 125.902 152.317 126.293 152.707L132.657 159.071C133.047 159.462 133.681 159.462 134.071 159.071C134.462 158.681 134.462 158.047 134.071 157.657L128.414 152L134.071 146.343C134.462 145.953 134.462 145.319 134.071 144.929C133.681 144.538 133.047 144.538 132.657 144.929L126.293 151.293ZM291 151L127 151L127 153L291 153L291 151Z" fill="#7572E9"/>
<path d="M331.293 220.293C330.902 220.683 330.902 221.317 331.293 221.707L337.657 228.071C338.047 228.462 338.681 228.462 339.071 228.071C339.462 227.681 339.462 227.047 339.071 226.657L333.414 221L339.071 215.343C339.462 214.953 339.462 214.319 339.071 213.929C338.681 213.538 338.047 213.538 337.657 213.929L331.293 220.293ZM496 220L332 220L332 222L496 222L496 220Z" fill="#7A869A"/>
<path d="M331.293 143.293C330.902 143.683 330.902 144.317 331.293 144.707L337.657 151.071C338.047 151.462 338.681 151.462 339.071 151.071C339.462 150.681 339.462 150.047 339.071 149.657L333.414 144L339.071 138.343C339.462 137.953 339.462 137.319 339.071 136.929C338.681 136.538 338.047 136.538 337.657 136.929L331.293 143.293ZM496 143L332 143L332 145L496 145L496 143Z" fill="#7A869A"/>
<path d="M126.293 215.293C125.902 215.683 125.902 216.317 126.293 216.707L132.657 223.071C133.047 223.462 133.681 223.462 134.071 223.071C134.462 222.681 134.462 222.047 134.071 221.657L128.414 216L134.071 210.343C134.462 209.953 134.462 209.319 134.071 208.929C133.681 208.538 133.047 208.538 132.657 208.929L126.293 215.293ZM291 215L127 215L127 217L291 217L291 215Z" fill="#7572E9"/>
<path d="M331.293 260.293C330.902 260.683 330.902 261.317 331.293 261.707L337.657 268.071C338.047 268.462 338.681 268.462 339.071 268.071C339.462 267.681 339.462 267.047 339.071 266.657L333.414 261L339.071 255.343C339.462 254.953 339.462 254.319 339.071 253.929C338.681 253.538 338.047 253.538 337.657 253.929L331.293 260.293ZM496 260L332 260L332 262L496 262L496 260Z" fill="#7A869A"/>
<rect x="360" y="61" width="116" height="212" fill="#FAF8FF"/>
<rect x="155" y="87" width="116" height="148" fill="white"/>
<path d="M371.979 77H370.348L374.012 66.8182H375.787L379.451 77H377.82L374.942 68.6676H374.862L371.979 77ZM372.252 73.0128H377.542V74.3054H372.252V73.0128ZM380.921 77V66.8182H384.551C385.343 66.8182 385.999 66.9624 386.519 67.2507C387.04 67.5391 387.429 67.9335 387.688 68.4339C387.946 68.9311 388.075 69.4912 388.075 70.1143C388.075 70.7408 387.945 71.3042 387.683 71.8047C387.424 72.3018 387.033 72.6963 386.509 72.9879C385.989 73.2763 385.334 73.4205 384.546 73.4205H382.05V72.1179H384.406C384.907 72.1179 385.313 72.0317 385.624 71.8594C385.936 71.6837 386.165 71.4451 386.311 71.1435C386.456 70.8419 386.529 70.4988 386.529 70.1143C386.529 69.7299 386.456 69.3885 386.311 69.0902C386.165 68.7919 385.934 68.5582 385.619 68.3892C385.308 68.2202 384.897 68.1357 384.387 68.1357H382.458V77H380.921ZM391.413 66.8182V77H389.876V66.8182H391.413ZM397.355 77V66.8182H403.738V68.1406H398.891V71.2429H403.405V72.5604H398.891V75.6776H403.798V77H397.355ZM407.158 72.4659V77H405.671V69.3636H407.098V70.6065H407.192C407.368 70.2022 407.643 69.8774 408.018 69.6321C408.396 69.3868 408.871 69.2642 409.445 69.2642C409.965 69.2642 410.421 69.3736 410.812 69.5923C411.203 69.8078 411.506 70.1293 411.722 70.5568C411.937 70.9844 412.045 71.513 412.045 72.1428V77H410.558V72.3217C410.558 71.7682 410.414 71.3357 410.126 71.0241C409.837 70.7093 409.441 70.5518 408.938 70.5518C408.593 70.5518 408.286 70.6264 408.018 70.7756C407.753 70.9247 407.542 71.1435 407.386 71.4318C407.234 71.7169 407.158 72.0616 407.158 72.4659ZM416.897 77.1491C416.281 77.1491 415.73 76.9917 415.246 76.6768C414.766 76.3587 414.388 75.9062 414.113 75.3196C413.841 74.7296 413.705 74.022 413.705 73.1967C413.705 72.3714 413.843 71.6655 414.118 71.0788C414.396 70.4922 414.777 70.0431 415.261 69.7315C415.745 69.42 416.294 69.2642 416.907 69.2642C417.381 69.2642 417.762 69.3438 418.05 69.5028C418.342 69.6586 418.567 69.8409 418.727 70.0497C418.889 70.2585 419.015 70.4425 419.104 70.6016H419.194V66.8182H420.68V77H419.229V75.8118H419.104C419.015 75.9742 418.886 76.1598 418.717 76.3686C418.551 76.5774 418.322 76.7597 418.031 76.9155C417.739 77.0713 417.361 77.1491 416.897 77.1491ZM417.225 75.8814C417.653 75.8814 418.014 75.7687 418.309 75.5433C418.607 75.3146 418.833 74.9981 418.985 74.5938C419.141 74.1894 419.219 73.7187 419.219 73.1818C419.219 72.6515 419.143 72.1875 418.99 71.7898C418.838 71.392 418.614 71.0821 418.319 70.8601C418.024 70.638 417.659 70.527 417.225 70.527C416.778 70.527 416.405 70.643 416.107 70.875C415.808 71.107 415.583 71.4235 415.43 71.8246C415.281 72.2256 415.207 72.678 415.207 73.1818C415.207 73.6922 415.283 74.1513 415.435 74.5589C415.588 74.9666 415.813 75.2898 416.112 75.5284C416.413 75.7637 416.784 75.8814 417.225 75.8814ZM422.802 79.8636V69.3636H424.254V70.6016H424.378C424.464 70.4425 424.588 70.2585 424.751 70.0497C424.913 69.8409 425.139 69.6586 425.427 69.5028C425.715 69.3438 426.097 69.2642 426.57 69.2642C427.187 69.2642 427.737 69.42 428.221 69.7315C428.705 70.0431 429.084 70.4922 429.36 71.0788C429.638 71.6655 429.777 72.3714 429.777 73.1967C429.777 74.022 429.64 74.7296 429.365 75.3196C429.089 75.9062 428.712 76.3587 428.231 76.6768C427.75 76.9917 427.202 77.1491 426.585 77.1491C426.121 77.1491 425.742 77.0713 425.447 76.9155C425.155 76.7597 424.927 76.5774 424.761 76.3686C424.595 76.1598 424.468 75.9742 424.378 75.8118H424.289V79.8636H422.802ZM424.259 73.1818C424.259 73.7187 424.337 74.1894 424.492 74.5938C424.648 74.9981 424.874 75.3146 425.169 75.5433C425.463 75.7687 425.825 75.8814 426.252 75.8814C426.696 75.8814 427.068 75.7637 427.366 75.5284C427.664 75.2898 427.89 74.9666 428.042 74.5589C428.198 74.1513 428.276 73.6922 428.276 73.1818C428.276 72.678 428.2 72.2256 428.047 71.8246C427.898 71.4235 427.673 71.107 427.371 70.875C427.073 70.643 426.7 70.527 426.252 70.527C425.821 70.527 425.457 70.638 425.159 70.8601C424.864 71.0821 424.64 71.392 424.487 71.7898C424.335 72.1875 424.259 72.6515 424.259 73.1818ZM434.659 77.1541C433.943 77.1541 433.319 76.9901 432.785 76.6619C432.251 76.3338 431.837 75.8748 431.542 75.2848C431.247 74.6948 431.1 74.0054 431.1 73.2166C431.1 72.4245 431.247 71.7318 431.542 71.1385C431.837 70.5452 432.251 70.0845 432.785 69.7564C433.319 69.4283 433.943 69.2642 434.659 69.2642C435.375 69.2642 436 69.4283 436.534 69.7564C437.067 70.0845 437.481 70.5452 437.776 71.1385C438.071 71.7318 438.219 72.4245 438.219 73.2166C438.219 74.0054 438.071 74.6948 437.776 75.2848C437.481 75.8748 437.067 76.3338 436.534 76.6619C436 76.9901 435.375 77.1541 434.659 77.1541ZM434.664 75.9062C435.128 75.9062 435.513 75.7836 435.818 75.5384C436.123 75.2931 436.348 74.9666 436.494 74.5589C436.643 74.1513 436.718 73.7022 436.718 73.2116C436.718 72.7244 436.643 72.277 436.494 71.8693C436.348 71.4583 436.123 71.1286 435.818 70.88C435.513 70.6314 435.128 70.5071 434.664 70.5071C434.197 70.5071 433.809 70.6314 433.501 70.88C433.196 71.1286 432.969 71.4583 432.82 71.8693C432.674 72.277 432.601 72.7244 432.601 73.2116C432.601 73.7022 432.674 74.1513 432.82 74.5589C432.969 74.9666 433.196 75.2931 433.501 75.5384C433.809 75.7836 434.197 75.9062 434.664 75.9062ZM439.878 77V69.3636H441.365V77H439.878ZM440.629 68.1854C440.37 68.1854 440.148 68.0992 439.963 67.9268C439.78 67.7512 439.689 67.5424 439.689 67.3004C439.689 67.0552 439.78 66.8464 439.963 66.674C440.148 66.4983 440.37 66.4105 440.629 66.4105C440.887 66.4105 441.108 66.4983 441.29 66.674C441.476 66.8464 441.569 67.0552 441.569 67.3004C441.569 67.5424 441.476 67.7512 441.29 67.9268C441.108 68.0992 440.887 68.1854 440.629 68.1854ZM444.851 72.4659V77H443.365V69.3636H444.791V70.6065H444.886C445.061 70.2022 445.337 69.8774 445.711 69.6321C446.089 69.3868 446.565 69.2642 447.138 69.2642C447.658 69.2642 448.114 69.3736 448.505 69.5923C448.896 69.8078 449.2 70.1293 449.415 70.5568C449.63 70.9844 449.738 71.513 449.738 72.1428V77H448.252V72.3217C448.252 71.7682 448.107 71.3357 447.819 71.0241C447.531 70.7093 447.135 70.5518 446.631 70.5518C446.286 70.5518 445.98 70.6264 445.711 70.7756C445.446 70.9247 445.235 71.1435 445.08 71.4318C444.927 71.7169 444.851 72.0616 444.851 72.4659ZM455.296 69.3636V70.5568H451.125V69.3636H455.296ZM452.244 67.5341H453.73V74.7578C453.73 75.0462 453.773 75.2633 453.86 75.4091C453.946 75.5516 454.057 75.6494 454.193 75.7024C454.332 75.7521 454.483 75.777 454.645 75.777C454.764 75.777 454.869 75.7687 454.958 75.7521C455.048 75.7356 455.117 75.7223 455.167 75.7124L455.436 76.9403C455.349 76.9735 455.227 77.0066 455.068 77.0398C454.909 77.0762 454.71 77.0961 454.471 77.0994C454.08 77.1061 453.715 77.0365 453.377 76.8906C453.039 76.7448 452.766 76.5194 452.557 76.2145C452.348 75.9096 452.244 75.5268 452.244 75.0661V67.5341ZM464.489 66.8182V77H462.948V68.3594H462.888L460.452 69.9503V68.4787L462.992 66.8182H464.489Z" fill="#007D88"/>
<path d="M166.979 101H165.348L169.012 90.8182H170.787L174.451 101H172.82L169.942 92.6676H169.862L166.979 101ZM167.252 97.0128H172.542V98.3054H167.252V97.0128ZM175.921 101V90.8182H179.551C180.343 90.8182 180.999 90.9624 181.519 91.2507C182.04 91.5391 182.429 91.9335 182.688 92.4339C182.946 92.9311 183.075 93.4912 183.075 94.1143C183.075 94.7408 182.945 95.3042 182.683 95.8047C182.424 96.3018 182.033 96.6963 181.509 96.9879C180.989 97.2763 180.334 97.4205 179.546 97.4205H177.05V96.1179H179.406C179.907 96.1179 180.313 96.0317 180.624 95.8594C180.936 95.6837 181.165 95.4451 181.311 95.1435C181.456 94.8419 181.529 94.4988 181.529 94.1143C181.529 93.7299 181.456 93.3885 181.311 93.0902C181.165 92.7919 180.934 92.5582 180.619 92.3892C180.308 92.2202 179.897 92.1357 179.387 92.1357H177.458V101H175.921ZM186.413 90.8182V101H184.876V90.8182H186.413ZM192.355 101V90.8182H198.738V92.1406H193.891V95.2429H198.405V96.5604H193.891V99.6776H198.798V101H192.355ZM202.158 96.4659V101H200.671V93.3636H202.098V94.6065H202.192C202.368 94.2022 202.643 93.8774 203.018 93.6321C203.396 93.3868 203.871 93.2642 204.445 93.2642C204.965 93.2642 205.421 93.3736 205.812 93.5923C206.203 93.8078 206.506 94.1293 206.722 94.5568C206.937 94.9844 207.045 95.513 207.045 96.1428V101H205.558V96.3217C205.558 95.7682 205.414 95.3357 205.126 95.0241C204.837 94.7093 204.441 94.5518 203.938 94.5518C203.593 94.5518 203.286 94.6264 203.018 94.7756C202.753 94.9247 202.542 95.1435 202.386 95.4318C202.234 95.7169 202.158 96.0616 202.158 96.4659ZM211.897 101.149C211.281 101.149 210.73 100.992 210.246 100.677C209.766 100.359 209.388 99.9062 209.113 99.3196C208.841 98.7296 208.705 98.022 208.705 97.1967C208.705 96.3714 208.843 95.6655 209.118 95.0788C209.396 94.4922 209.777 94.0431 210.261 93.7315C210.745 93.42 211.294 93.2642 211.907 93.2642C212.381 93.2642 212.762 93.3438 213.05 93.5028C213.342 93.6586 213.567 93.8409 213.727 94.0497C213.889 94.2585 214.015 94.4425 214.104 94.6016H214.194V90.8182H215.68V101H214.229V99.8118H214.104C214.015 99.9742 213.886 100.16 213.717 100.369C213.551 100.577 213.322 100.76 213.031 100.915C212.739 101.071 212.361 101.149 211.897 101.149ZM212.225 99.8814C212.653 99.8814 213.014 99.7687 213.309 99.5433C213.607 99.3146 213.833 98.9981 213.985 98.5938C214.141 98.1894 214.219 97.7187 214.219 97.1818C214.219 96.6515 214.143 96.1875 213.99 95.7898C213.838 95.392 213.614 95.0821 213.319 94.8601C213.024 94.638 212.659 94.527 212.225 94.527C211.778 94.527 211.405 94.643 211.107 94.875C210.808 95.107 210.583 95.4235 210.43 95.8246C210.281 96.2256 210.207 96.678 210.207 97.1818C210.207 97.6922 210.283 98.1513 210.435 98.5589C210.588 98.9666 210.813 99.2898 211.112 99.5284C211.413 99.7637 211.784 99.8814 212.225 99.8814ZM217.802 103.864V93.3636H219.254V94.6016H219.378C219.464 94.4425 219.588 94.2585 219.751 94.0497C219.913 93.8409 220.139 93.6586 220.427 93.5028C220.715 93.3438 221.097 93.2642 221.57 93.2642C222.187 93.2642 222.737 93.42 223.221 93.7315C223.705 94.0431 224.084 94.4922 224.36 95.0788C224.638 95.6655 224.777 96.3714 224.777 97.1967C224.777 98.022 224.64 98.7296 224.365 99.3196C224.089 99.9062 223.712 100.359 223.231 100.677C222.75 100.992 222.202 101.149 221.585 101.149C221.121 101.149 220.742 101.071 220.447 100.915C220.155 100.76 219.927 100.577 219.761 100.369C219.595 100.16 219.468 99.9742 219.378 99.8118H219.289V103.864H217.802ZM219.259 97.1818C219.259 97.7187 219.337 98.1894 219.492 98.5938C219.648 98.9981 219.874 99.3146 220.169 99.5433C220.463 99.7687 220.825 99.8814 221.252 99.8814C221.696 99.8814 222.068 99.7637 222.366 99.5284C222.664 99.2898 222.89 98.9666 223.042 98.5589C223.198 98.1513 223.276 97.6922 223.276 97.1818C223.276 96.678 223.2 96.2256 223.047 95.8246C222.898 95.4235 222.673 95.107 222.371 94.875C222.073 94.643 221.7 94.527 221.252 94.527C220.821 94.527 220.457 94.638 220.159 94.8601C219.864 95.0821 219.64 95.392 219.487 95.7898C219.335 96.1875 219.259 96.6515 219.259 97.1818ZM229.659 101.154C228.943 101.154 228.319 100.99 227.785 100.662C227.251 100.334 226.837 99.8748 226.542 99.2848C226.247 98.6948 226.1 98.0054 226.1 97.2166C226.1 96.4245 226.247 95.7318 226.542 95.1385C226.837 94.5452 227.251 94.0845 227.785 93.7564C228.319 93.4283 228.943 93.2642 229.659 93.2642C230.375 93.2642 231 93.4283 231.534 93.7564C232.067 94.0845 232.481 94.5452 232.776 95.1385C233.071 95.7318 233.219 96.4245 233.219 97.2166C233.219 98.0054 233.071 98.6948 232.776 99.2848C232.481 99.8748 232.067 100.334 231.534 100.662C231 100.99 230.375 101.154 229.659 101.154ZM229.664 99.9062C230.128 99.9062 230.513 99.7836 230.818 99.5384C231.123 99.2931 231.348 98.9666 231.494 98.5589C231.643 98.1513 231.718 97.7022 231.718 97.2116C231.718 96.7244 231.643 96.277 231.494 95.8693C231.348 95.4583 231.123 95.1286 230.818 94.88C230.513 94.6314 230.128 94.5071 229.664 94.5071C229.197 94.5071 228.809 94.6314 228.501 94.88C228.196 95.1286 227.969 95.4583 227.82 95.8693C227.674 96.277 227.601 96.7244 227.601 97.2116C227.601 97.7022 227.674 98.1513 227.82 98.5589C227.969 98.9666 228.196 99.2931 228.501 99.5384C228.809 99.7836 229.197 99.9062 229.664 99.9062ZM234.878 101V93.3636H236.365V101H234.878ZM235.629 92.1854C235.37 92.1854 235.148 92.0992 234.963 91.9268C234.78 91.7512 234.689 91.5424 234.689 91.3004C234.689 91.0552 234.78 90.8464 234.963 90.674C235.148 90.4983 235.37 90.4105 235.629 90.4105C235.887 90.4105 236.108 90.4983 236.29 90.674C236.476 90.8464 236.569 91.0552 236.569 91.3004C236.569 91.5424 236.476 91.7512 236.29 91.9268C236.108 92.0992 235.887 92.1854 235.629 92.1854ZM239.851 96.4659V101H238.365V93.3636H239.791V94.6065H239.886C240.061 94.2022 240.337 93.8774 240.711 93.6321C241.089 93.3868 241.565 93.2642 242.138 93.2642C242.658 93.2642 243.114 93.3736 243.505 93.5923C243.896 93.8078 244.2 94.1293 244.415 94.5568C244.63 94.9844 244.738 95.513 244.738 96.1428V101H243.252V96.3217C243.252 95.7682 243.107 95.3357 242.819 95.0241C242.531 94.7093 242.135 94.5518 241.631 94.5518C241.286 94.5518 240.98 94.6264 240.711 94.7756C240.446 94.9247 240.235 95.1435 240.08 95.4318C239.927 95.7169 239.851 96.0616 239.851 96.4659ZM250.296 93.3636V94.5568H246.125V93.3636H250.296ZM247.244 91.5341H248.73V98.7578C248.73 99.0462 248.773 99.2633 248.86 99.4091C248.946 99.5516 249.057 99.6494 249.193 99.7024C249.332 99.7521 249.483 99.777 249.645 99.777C249.764 99.777 249.869 99.7687 249.958 99.7521C250.048 99.7356 250.117 99.7223 250.167 99.7124L250.436 100.94C250.349 100.973 250.227 101.007 250.068 101.04C249.909 101.076 249.71 101.096 249.471 101.099C249.08 101.106 248.715 101.036 248.377 100.891C248.039 100.745 247.766 100.519 247.557 100.214C247.348 99.9096 247.244 99.5268 247.244 99.0661V91.5341ZM259.489 90.8182V101H257.948V92.3594H257.888L255.452 93.9503V92.4787L257.992 90.8182H259.489Z" fill="#6554C0"/>
<path d="M371.979 194H370.348L374.012 183.818H375.787L379.451 194H377.82L374.942 185.668H374.862L371.979 194ZM372.252 190.013H377.542V191.305H372.252V190.013ZM380.921 194V183.818H384.551C385.343 183.818 385.999 183.962 386.519 184.251C387.04 184.539 387.429 184.933 387.688 185.434C387.946 185.931 388.075 186.491 388.075 187.114C388.075 187.741 387.945 188.304 387.683 188.805C387.424 189.302 387.033 189.696 386.509 189.988C385.989 190.276 385.334 190.42 384.546 190.42H382.05V189.118H384.406C384.907 189.118 385.313 189.032 385.624 188.859C385.936 188.684 386.165 188.445 386.311 188.143C386.456 187.842 386.529 187.499 386.529 187.114C386.529 186.73 386.456 186.388 386.311 186.09C386.165 185.792 385.934 185.558 385.619 185.389C385.308 185.22 384.897 185.136 384.387 185.136H382.458V194H380.921ZM391.413 183.818V194H389.876V183.818H391.413ZM397.355 194V183.818H403.738V185.141H398.891V188.243H403.405V189.56H398.891V192.678H403.798V194H397.355ZM407.158 189.466V194H405.671V186.364H407.098V187.607H407.192C407.368 187.202 407.643 186.877 408.018 186.632C408.396 186.387 408.871 186.264 409.445 186.264C409.965 186.264 410.421 186.374 410.812 186.592C411.203 186.808 411.506 187.129 411.722 187.557C411.937 187.984 412.045 188.513 412.045 189.143V194H410.558V189.322C410.558 188.768 410.414 188.336 410.126 188.024C409.837 187.709 409.441 187.552 408.938 187.552C408.593 187.552 408.286 187.626 408.018 187.776C407.753 187.925 407.542 188.143 407.386 188.432C407.234 188.717 407.158 189.062 407.158 189.466ZM416.897 194.149C416.281 194.149 415.73 193.992 415.246 193.677C414.766 193.359 414.388 192.906 414.113 192.32C413.841 191.73 413.705 191.022 413.705 190.197C413.705 189.371 413.843 188.665 414.118 188.079C414.396 187.492 414.777 187.043 415.261 186.732C415.745 186.42 416.294 186.264 416.907 186.264C417.381 186.264 417.762 186.344 418.05 186.503C418.342 186.659 418.567 186.841 418.727 187.05C418.889 187.259 419.015 187.442 419.104 187.602H419.194V183.818H420.68V194H419.229V192.812H419.104C419.015 192.974 418.886 193.16 418.717 193.369C418.551 193.577 418.322 193.76 418.031 193.915C417.739 194.071 417.361 194.149 416.897 194.149ZM417.225 192.881C417.653 192.881 418.014 192.769 418.309 192.543C418.607 192.315 418.833 191.998 418.985 191.594C419.141 191.189 419.219 190.719 419.219 190.182C419.219 189.652 419.143 189.187 418.99 188.79C418.838 188.392 418.614 188.082 418.319 187.86C418.024 187.638 417.659 187.527 417.225 187.527C416.778 187.527 416.405 187.643 416.107 187.875C415.808 188.107 415.583 188.424 415.43 188.825C415.281 189.226 415.207 189.678 415.207 190.182C415.207 190.692 415.283 191.151 415.435 191.559C415.588 191.967 415.813 192.29 416.112 192.528C416.413 192.764 416.784 192.881 417.225 192.881ZM422.802 196.864V186.364H424.254V187.602H424.378C424.464 187.442 424.588 187.259 424.751 187.05C424.913 186.841 425.139 186.659 425.427 186.503C425.715 186.344 426.097 186.264 426.57 186.264C427.187 186.264 427.737 186.42 428.221 186.732C428.705 187.043 429.084 187.492 429.36 188.079C429.638 188.665 429.777 189.371 429.777 190.197C429.777 191.022 429.64 191.73 429.365 192.32C429.089 192.906 428.712 193.359 428.231 193.677C427.75 193.992 427.202 194.149 426.585 194.149C426.121 194.149 425.742 194.071 425.447 193.915C425.155 193.76 424.927 193.577 424.761 193.369C424.595 193.16 424.468 192.974 424.378 192.812H424.289V196.864H422.802ZM424.259 190.182C424.259 190.719 424.337 191.189 424.492 191.594C424.648 191.998 424.874 192.315 425.169 192.543C425.463 192.769 425.825 192.881 426.252 192.881C426.696 192.881 427.068 192.764 427.366 192.528C427.664 192.29 427.89 191.967 428.042 191.559C428.198 191.151 428.276 190.692 428.276 190.182C428.276 189.678 428.2 189.226 428.047 188.825C427.898 188.424 427.673 188.107 427.371 187.875C427.073 187.643 426.7 187.527 426.252 187.527C425.821 187.527 425.457 187.638 425.159 187.86C424.864 188.082 424.64 188.392 424.487 188.79C424.335 189.187 424.259 189.652 424.259 190.182ZM434.659 194.154C433.943 194.154 433.319 193.99 432.785 193.662C432.251 193.334 431.837 192.875 431.542 192.285C431.247 191.695 431.1 191.005 431.1 190.217C431.1 189.424 431.247 188.732 431.542 188.138C431.837 187.545 432.251 187.085 432.785 186.756C433.319 186.428 433.943 186.264 434.659 186.264C435.375 186.264 436 186.428 436.534 186.756C437.067 187.085 437.481 187.545 437.776 188.138C438.071 188.732 438.219 189.424 438.219 190.217C438.219 191.005 438.071 191.695 437.776 192.285C437.481 192.875 437.067 193.334 436.534 193.662C436 193.99 435.375 194.154 434.659 194.154ZM434.664 192.906C435.128 192.906 435.513 192.784 435.818 192.538C436.123 192.293 436.348 191.967 436.494 191.559C436.643 191.151 436.718 190.702 436.718 190.212C436.718 189.724 436.643 189.277 436.494 188.869C436.348 188.458 436.123 188.129 435.818 187.88C435.513 187.631 435.128 187.507 434.664 187.507C434.197 187.507 433.809 187.631 433.501 187.88C433.196 188.129 432.969 188.458 432.82 188.869C432.674 189.277 432.601 189.724 432.601 190.212C432.601 190.702 432.674 191.151 432.82 191.559C432.969 191.967 433.196 192.293 433.501 192.538C433.809 192.784 434.197 192.906 434.664 192.906ZM439.878 194V186.364H441.365V194H439.878ZM440.629 185.185C440.37 185.185 440.148 185.099 439.963 184.927C439.78 184.751 439.689 184.542 439.689 184.3C439.689 184.055 439.78 183.846 439.963 183.674C440.148 183.498 440.37 183.411 440.629 183.411C440.887 183.411 441.108 183.498 441.29 183.674C441.476 183.846 441.569 184.055 441.569 184.3C441.569 184.542 441.476 184.751 441.29 184.927C441.108 185.099 440.887 185.185 440.629 185.185ZM444.851 189.466V194H443.365V186.364H444.791V187.607H444.886C445.061 187.202 445.337 186.877 445.711 186.632C446.089 186.387 446.565 186.264 447.138 186.264C447.658 186.264 448.114 186.374 448.505 186.592C448.896 186.808 449.2 187.129 449.415 187.557C449.63 187.984 449.738 188.513 449.738 189.143V194H448.252V189.322C448.252 188.768 448.107 188.336 447.819 188.024C447.531 187.709 447.135 187.552 446.631 187.552C446.286 187.552 445.98 187.626 445.711 187.776C445.446 187.925 445.235 188.143 445.08 188.432C444.927 188.717 444.851 189.062 444.851 189.466ZM455.296 186.364V187.557H451.125V186.364H455.296ZM452.244 184.534H453.73V191.758C453.73 192.046 453.773 192.263 453.86 192.409C453.946 192.552 454.057 192.649 454.193 192.702C454.332 192.752 454.483 192.777 454.645 192.777C454.764 192.777 454.869 192.769 454.958 192.752C455.048 192.736 455.117 192.722 455.167 192.712L455.436 193.94C455.349 193.973 455.227 194.007 455.068 194.04C454.909 194.076 454.71 194.096 454.471 194.099C454.08 194.106 453.715 194.036 453.377 193.891C453.039 193.745 452.766 193.519 452.557 193.214C452.348 192.91 452.244 192.527 452.244 192.066V184.534ZM464.489 183.818V194H462.948V185.359H462.888L460.452 186.95V185.479L462.992 183.818H464.489Z" fill="#007D88"/>
<path d="M371.979 109H370.348L374.012 98.8182H375.787L379.451 109H377.82L374.942 100.668H374.862L371.979 109ZM372.252 105.013H377.542V106.305H372.252V105.013ZM380.921 109V98.8182H384.551C385.343 98.8182 385.999 98.9624 386.519 99.2507C387.04 99.5391 387.429 99.9335 387.688 100.434C387.946 100.931 388.075 101.491 388.075 102.114C388.075 102.741 387.945 103.304 387.683 103.805C387.424 104.302 387.033 104.696 386.509 104.988C385.989 105.276 385.334 105.42 384.546 105.42H382.05V104.118H384.406C384.907 104.118 385.313 104.032 385.624 103.859C385.936 103.684 386.165 103.445 386.311 103.143C386.456 102.842 386.529 102.499 386.529 102.114C386.529 101.73 386.456 101.388 386.311 101.09C386.165 100.792 385.934 100.558 385.619 100.389C385.308 100.22 384.897 100.136 384.387 100.136H382.458V109H380.921ZM391.413 98.8182V109H389.876V98.8182H391.413ZM397.355 109V98.8182H403.738V100.141H398.891V103.243H403.405V104.56H398.891V107.678H403.798V109H397.355ZM407.158 104.466V109H405.671V101.364H407.098V102.607H407.192C407.368 102.202 407.643 101.877 408.018 101.632C408.396 101.387 408.871 101.264 409.445 101.264C409.965 101.264 410.421 101.374 410.812 101.592C411.203 101.808 411.506 102.129 411.722 102.557C411.937 102.984 412.045 103.513 412.045 104.143V109H410.558V104.322C410.558 103.768 410.414 103.336 410.126 103.024C409.837 102.709 409.441 102.552 408.938 102.552C408.593 102.552 408.286 102.626 408.018 102.776C407.753 102.925 407.542 103.143 407.386 103.432C407.234 103.717 407.158 104.062 407.158 104.466ZM416.897 109.149C416.281 109.149 415.73 108.992 415.246 108.677C414.766 108.359 414.388 107.906 414.113 107.32C413.841 106.73 413.705 106.022 413.705 105.197C413.705 104.371 413.843 103.665 414.118 103.079C414.396 102.492 414.777 102.043 415.261 101.732C415.745 101.42 416.294 101.264 416.907 101.264C417.381 101.264 417.762 101.344 418.05 101.503C418.342 101.659 418.567 101.841 418.727 102.05C418.889 102.259 419.015 102.442 419.104 102.602H419.194V98.8182H420.68V109H419.229V107.812H419.104C419.015 107.974 418.886 108.16 418.717 108.369C418.551 108.577 418.322 108.76 418.031 108.915C417.739 109.071 417.361 109.149 416.897 109.149ZM417.225 107.881C417.653 107.881 418.014 107.769 418.309 107.543C418.607 107.315 418.833 106.998 418.985 106.594C419.141 106.189 419.219 105.719 419.219 105.182C419.219 104.652 419.143 104.187 418.99 103.79C418.838 103.392 418.614 103.082 418.319 102.86C418.024 102.638 417.659 102.527 417.225 102.527C416.778 102.527 416.405 102.643 416.107 102.875C415.808 103.107 415.583 103.424 415.43 103.825C415.281 104.226 415.207 104.678 415.207 105.182C415.207 105.692 415.283 106.151 415.435 106.559C415.588 106.967 415.813 107.29 416.112 107.528C416.413 107.764 416.784 107.881 417.225 107.881ZM422.802 111.864V101.364H424.254V102.602H424.378C424.464 102.442 424.588 102.259 424.751 102.05C424.913 101.841 425.139 101.659 425.427 101.503C425.715 101.344 426.097 101.264 426.57 101.264C427.187 101.264 427.737 101.42 428.221 101.732C428.705 102.043 429.084 102.492 429.36 103.079C429.638 103.665 429.777 104.371 429.777 105.197C429.777 106.022 429.64 106.73 429.365 107.32C429.089 107.906 428.712 108.359 428.231 108.677C427.75 108.992 427.202 109.149 426.585 109.149C426.121 109.149 425.742 109.071 425.447 108.915C425.155 108.76 424.927 108.577 424.761 108.369C424.595 108.16 424.468 107.974 424.378 107.812H424.289V111.864H422.802ZM424.259 105.182C424.259 105.719 424.337 106.189 424.492 106.594C424.648 106.998 424.874 107.315 425.169 107.543C425.463 107.769 425.825 107.881 426.252 107.881C426.696 107.881 427.068 107.764 427.366 107.528C427.664 107.29 427.89 106.967 428.042 106.559C428.198 106.151 428.276 105.692 428.276 105.182C428.276 104.678 428.2 104.226 428.047 103.825C427.898 103.424 427.673 103.107 427.371 102.875C427.073 102.643 426.7 102.527 426.252 102.527C425.821 102.527 425.457 102.638 425.159 102.86C424.864 103.082 424.64 103.392 424.487 103.79C424.335 104.187 424.259 104.652 424.259 105.182ZM434.659 109.154C433.943 109.154 433.319 108.99 432.785 108.662C432.251 108.334 431.837 107.875 431.542 107.285C431.247 106.695 431.1 106.005 431.1 105.217C431.1 104.424 431.247 103.732 431.542 103.138C431.837 102.545 432.251 102.085 432.785 101.756C433.319 101.428 433.943 101.264 434.659 101.264C435.375 101.264 436 101.428 436.534 101.756C437.067 102.085 437.481 102.545 437.776 103.138C438.071 103.732 438.219 104.424 438.219 105.217C438.219 106.005 438.071 106.695 437.776 107.285C437.481 107.875 437.067 108.334 436.534 108.662C436 108.99 435.375 109.154 434.659 109.154ZM434.664 107.906C435.128 107.906 435.513 107.784 435.818 107.538C436.123 107.293 436.348 106.967 436.494 106.559C436.643 106.151 436.718 105.702 436.718 105.212C436.718 104.724 436.643 104.277 436.494 103.869C436.348 103.458 436.123 103.129 435.818 102.88C435.513 102.631 435.128 102.507 434.664 102.507C434.197 102.507 433.809 102.631 433.501 102.88C433.196 103.129 432.969 103.458 432.82 103.869C432.674 104.277 432.601 104.724 432.601 105.212C432.601 105.702 432.674 106.151 432.82 106.559C432.969 106.967 433.196 107.293 433.501 107.538C433.809 107.784 434.197 107.906 434.664 107.906ZM439.878 109V101.364H441.365V109H439.878ZM440.629 100.185C440.37 100.185 440.148 100.099 439.963 99.9268C439.78 99.7512 439.689 99.5424 439.689 99.3004C439.689 99.0552 439.78 98.8464 439.963 98.674C440.148 98.4983 440.37 98.4105 440.629 98.4105C440.887 98.4105 441.108 98.4983 441.29 98.674C441.476 98.8464 441.569 99.0552 441.569 99.3004C441.569 99.5424 441.476 99.7512 441.29 99.9268C441.108 100.099 440.887 100.185 440.629 100.185ZM444.851 104.466V109H443.365V101.364H444.791V102.607H444.886C445.061 102.202 445.337 101.877 445.711 101.632C446.089 101.387 446.565 101.264 447.138 101.264C447.658 101.264 448.114 101.374 448.505 101.592C448.896 101.808 449.2 102.129 449.415 102.557C449.63 102.984 449.738 103.513 449.738 104.143V109H448.252V104.322C448.252 103.768 448.107 103.336 447.819 103.024C447.531 102.709 447.135 102.552 446.631 102.552C446.286 102.552 445.98 102.626 445.711 102.776C445.446 102.925 445.235 103.143 445.08 103.432C444.927 103.717 444.851 104.062 444.851 104.466ZM455.296 101.364V102.557H451.125V101.364H455.296ZM452.244 99.5341H453.73V106.758C453.73 107.046 453.773 107.263 453.86 107.409C453.946 107.552 454.057 107.649 454.193 107.702C454.332 107.752 454.483 107.777 454.645 107.777C454.764 107.777 454.869 107.769 454.958 107.752C455.048 107.736 455.117 107.722 455.167 107.712L455.436 108.94C455.349 108.973 455.227 109.007 455.068 109.04C454.909 109.076 454.71 109.096 454.471 109.099C454.08 109.106 453.715 109.036 453.377 108.891C453.039 108.745 452.766 108.519 452.557 108.214C452.348 107.91 452.244 107.527 452.244 107.066V99.5341ZM460.626 109V107.886L464.071 104.317C464.439 103.929 464.742 103.589 464.981 103.298C465.223 103.003 465.404 102.723 465.523 102.457C465.642 102.192 465.702 101.911 465.702 101.612C465.702 101.274 465.622 100.982 465.463 100.737C465.304 100.489 465.087 100.298 464.812 100.165C464.537 100.03 464.227 99.9616 463.882 99.9616C463.518 99.9616 463.2 100.036 462.928 100.185C462.656 100.335 462.447 100.545 462.301 100.817C462.155 101.089 462.083 101.407 462.083 101.771H460.616C460.616 101.152 460.758 100.61 461.044 100.146C461.329 99.6816 461.72 99.322 462.217 99.0668C462.714 98.8082 463.279 98.679 463.912 98.679C464.552 98.679 465.115 98.8066 465.602 99.0618C466.093 99.3137 466.476 99.6584 466.751 100.096C467.026 100.53 467.164 101.021 467.164 101.567C467.164 101.945 467.092 102.315 466.95 102.676C466.811 103.037 466.567 103.44 466.219 103.884C465.871 104.325 465.387 104.86 464.767 105.49L462.744 107.608V107.683H467.328V109H460.626Z" fill="#007D88"/>
<path d="M166.979 157H165.348L169.012 146.818H170.787L174.451 157H172.82L169.942 148.668H169.862L166.979 157ZM167.252 153.013H172.542V154.305H167.252V153.013ZM175.921 157V146.818H179.551C180.343 146.818 180.999 146.962 181.519 147.251C182.04 147.539 182.429 147.933 182.688 148.434C182.946 148.931 183.075 149.491 183.075 150.114C183.075 150.741 182.945 151.304 182.683 151.805C182.424 152.302 182.033 152.696 181.509 152.988C180.989 153.276 180.334 153.42 179.546 153.42H177.05V152.118H179.406C179.907 152.118 180.313 152.032 180.624 151.859C180.936 151.684 181.165 151.445 181.311 151.143C181.456 150.842 181.529 150.499 181.529 150.114C181.529 149.73 181.456 149.388 181.311 149.09C181.165 148.792 180.934 148.558 180.619 148.389C180.308 148.22 179.897 148.136 179.387 148.136H177.458V157H175.921ZM186.413 146.818V157H184.876V146.818H186.413ZM192.355 157V146.818H198.738V148.141H193.891V151.243H198.405V152.56H193.891V155.678H198.798V157H192.355ZM202.158 152.466V157H200.671V149.364H202.098V150.607H202.192C202.368 150.202 202.643 149.877 203.018 149.632C203.396 149.387 203.871 149.264 204.445 149.264C204.965 149.264 205.421 149.374 205.812 149.592C206.203 149.808 206.506 150.129 206.722 150.557C206.937 150.984 207.045 151.513 207.045 152.143V157H205.558V152.322C205.558 151.768 205.414 151.336 205.126 151.024C204.837 150.709 204.441 150.552 203.938 150.552C203.593 150.552 203.286 150.626 203.018 150.776C202.753 150.925 202.542 151.143 202.386 151.432C202.234 151.717 202.158 152.062 202.158 152.466ZM211.897 157.149C211.281 157.149 210.73 156.992 210.246 156.677C209.766 156.359 209.388 155.906 209.113 155.32C208.841 154.73 208.705 154.022 208.705 153.197C208.705 152.371 208.843 151.665 209.118 151.079C209.396 150.492 209.777 150.043 210.261 149.732C210.745 149.42 211.294 149.264 211.907 149.264C212.381 149.264 212.762 149.344 213.05 149.503C213.342 149.659 213.567 149.841 213.727 150.05C213.889 150.259 214.015 150.442 214.104 150.602H214.194V146.818H215.68V157H214.229V155.812H214.104C214.015 155.974 213.886 156.16 213.717 156.369C213.551 156.577 213.322 156.76 213.031 156.915C212.739 157.071 212.361 157.149 211.897 157.149ZM212.225 155.881C212.653 155.881 213.014 155.769 213.309 155.543C213.607 155.315 213.833 154.998 213.985 154.594C214.141 154.189 214.219 153.719 214.219 153.182C214.219 152.652 214.143 152.187 213.99 151.79C213.838 151.392 213.614 151.082 213.319 150.86C213.024 150.638 212.659 150.527 212.225 150.527C211.778 150.527 211.405 150.643 211.107 150.875C210.808 151.107 210.583 151.424 210.43 151.825C210.281 152.226 210.207 152.678 210.207 153.182C210.207 153.692 210.283 154.151 210.435 154.559C210.588 154.967 210.813 155.29 211.112 155.528C211.413 155.764 211.784 155.881 212.225 155.881ZM217.802 159.864V149.364H219.254V150.602H219.378C219.464 150.442 219.588 150.259 219.751 150.05C219.913 149.841 220.139 149.659 220.427 149.503C220.715 149.344 221.097 149.264 221.57 149.264C222.187 149.264 222.737 149.42 223.221 149.732C223.705 150.043 224.084 150.492 224.36 151.079C224.638 151.665 224.777 152.371 224.777 153.197C224.777 154.022 224.64 154.73 224.365 155.32C224.089 155.906 223.712 156.359 223.231 156.677C222.75 156.992 222.202 157.149 221.585 157.149C221.121 157.149 220.742 157.071 220.447 156.915C220.155 156.76 219.927 156.577 219.761 156.369C219.595 156.16 219.468 155.974 219.378 155.812H219.289V159.864H217.802ZM219.259 153.182C219.259 153.719 219.337 154.189 219.492 154.594C219.648 154.998 219.874 155.315 220.169 155.543C220.463 155.769 220.825 155.881 221.252 155.881C221.696 155.881 222.068 155.764 222.366 155.528C222.664 155.29 222.89 154.967 223.042 154.559C223.198 154.151 223.276 153.692 223.276 153.182C223.276 152.678 223.2 152.226 223.047 151.825C222.898 151.424 222.673 151.107 222.371 150.875C222.073 150.643 221.7 150.527 221.252 150.527C220.821 150.527 220.457 150.638 220.159 150.86C219.864 151.082 219.64 151.392 219.487 151.79C219.335 152.187 219.259 152.652 219.259 153.182ZM229.659 157.154C228.943 157.154 228.319 156.99 227.785 156.662C227.251 156.334 226.837 155.875 226.542 155.285C226.247 154.695 226.1 154.005 226.1 153.217C226.1 152.424 226.247 151.732 226.542 151.138C226.837 150.545 227.251 150.085 227.785 149.756C228.319 149.428 228.943 149.264 229.659 149.264C230.375 149.264 231 149.428 231.534 149.756C232.067 150.085 232.481 150.545 232.776 151.138C233.071 151.732 233.219 152.424 233.219 153.217C233.219 154.005 233.071 154.695 232.776 155.285C232.481 155.875 232.067 156.334 231.534 156.662C231 156.99 230.375 157.154 229.659 157.154ZM229.664 155.906C230.128 155.906 230.513 155.784 230.818 155.538C231.123 155.293 231.348 154.967 231.494 154.559C231.643 154.151 231.718 153.702 231.718 153.212C231.718 152.724 231.643 152.277 231.494 151.869C231.348 151.458 231.123 151.129 230.818 150.88C230.513 150.631 230.128 150.507 229.664 150.507C229.197 150.507 228.809 150.631 228.501 150.88C228.196 151.129 227.969 151.458 227.82 151.869C227.674 152.277 227.601 152.724 227.601 153.212C227.601 153.702 227.674 154.151 227.82 154.559C227.969 154.967 228.196 155.293 228.501 155.538C228.809 155.784 229.197 155.906 229.664 155.906ZM234.878 157V149.364H236.365V157H234.878ZM235.629 148.185C235.37 148.185 235.148 148.099 234.963 147.927C234.78 147.751 234.689 147.542 234.689 147.3C234.689 147.055 234.78 146.846 234.963 146.674C235.148 146.498 235.37 146.411 235.629 146.411C235.887 146.411 236.108 146.498 236.29 146.674C236.476 146.846 236.569 147.055 236.569 147.3C236.569 147.542 236.476 147.751 236.29 147.927C236.108 148.099 235.887 148.185 235.629 148.185ZM239.851 152.466V157H238.365V149.364H239.791V150.607H239.886C240.061 150.202 240.337 149.877 240.711 149.632C241.089 149.387 241.565 149.264 242.138 149.264C242.658 149.264 243.114 149.374 243.505 149.592C243.896 149.808 244.2 150.129 244.415 150.557C244.63 150.984 244.738 151.513 244.738 152.143V157H243.252V152.322C243.252 151.768 243.107 151.336 242.819 151.024C242.531 150.709 242.135 150.552 241.631 150.552C241.286 150.552 240.98 150.626 240.711 150.776C240.446 150.925 240.235 151.143 240.08 151.432C239.927 151.717 239.851 152.062 239.851 152.466ZM250.296 149.364V150.557H246.125V149.364H250.296ZM247.244 147.534H248.73V154.758C248.73 155.046 248.773 155.263 248.86 155.409C248.946 155.552 249.057 155.649 249.193 155.702C249.332 155.752 249.483 155.777 249.645 155.777C249.764 155.777 249.869 155.769 249.958 155.752C250.048 155.736 250.117 155.722 250.167 155.712L250.436 156.94C250.349 156.973 250.227 157.007 250.068 157.04C249.909 157.076 249.71 157.096 249.471 157.099C249.08 157.106 248.715 157.036 248.377 156.891C248.039 156.745 247.766 156.519 247.557 156.214C247.348 155.91 247.244 155.527 247.244 155.066V147.534ZM255.626 157V155.886L259.071 152.317C259.439 151.929 259.742 151.589 259.981 151.298C260.223 151.003 260.404 150.723 260.523 150.457C260.642 150.192 260.702 149.911 260.702 149.612C260.702 149.274 260.622 148.982 260.463 148.737C260.304 148.489 260.087 148.298 259.812 148.165C259.537 148.03 259.227 147.962 258.882 147.962C258.518 147.962 258.2 148.036 257.928 148.185C257.656 148.335 257.447 148.545 257.301 148.817C257.155 149.089 257.083 149.407 257.083 149.771H255.616C255.616 149.152 255.758 148.61 256.044 148.146C256.329 147.682 256.72 147.322 257.217 147.067C257.714 146.808 258.279 146.679 258.912 146.679C259.552 146.679 260.115 146.807 260.602 147.062C261.093 147.314 261.476 147.658 261.751 148.096C262.026 148.53 262.164 149.021 262.164 149.567C262.164 149.945 262.092 150.315 261.95 150.676C261.811 151.037 261.567 151.44 261.219 151.884C260.871 152.325 260.387 152.86 259.767 153.49L257.744 155.608V155.683H262.328V157H255.626Z" fill="#6554C0"/>
<path d="M371.979 226H370.348L374.012 215.818H375.787L379.451 226H377.82L374.942 217.668H374.862L371.979 226ZM372.252 222.013H377.542V223.305H372.252V222.013ZM380.921 226V215.818H384.551C385.343 215.818 385.999 215.962 386.519 216.251C387.04 216.539 387.429 216.933 387.688 217.434C387.946 217.931 388.075 218.491 388.075 219.114C388.075 219.741 387.945 220.304 387.683 220.805C387.424 221.302 387.033 221.696 386.509 221.988C385.989 222.276 385.334 222.42 384.546 222.42H382.05V221.118H384.406C384.907 221.118 385.313 221.032 385.624 220.859C385.936 220.684 386.165 220.445 386.311 220.143C386.456 219.842 386.529 219.499 386.529 219.114C386.529 218.73 386.456 218.388 386.311 218.09C386.165 217.792 385.934 217.558 385.619 217.389C385.308 217.22 384.897 217.136 384.387 217.136H382.458V226H380.921ZM391.413 215.818V226H389.876V215.818H391.413ZM397.355 226V215.818H403.738V217.141H398.891V220.243H403.405V221.56H398.891V224.678H403.798V226H397.355ZM407.158 221.466V226H405.671V218.364H407.098V219.607H407.192C407.368 219.202 407.643 218.877 408.018 218.632C408.396 218.387 408.871 218.264 409.445 218.264C409.965 218.264 410.421 218.374 410.812 218.592C411.203 218.808 411.506 219.129 411.722 219.557C411.937 219.984 412.045 220.513 412.045 221.143V226H410.558V221.322C410.558 220.768 410.414 220.336 410.126 220.024C409.837 219.709 409.441 219.552 408.938 219.552C408.593 219.552 408.286 219.626 408.018 219.776C407.753 219.925 407.542 220.143 407.386 220.432C407.234 220.717 407.158 221.062 407.158 221.466ZM416.897 226.149C416.281 226.149 415.73 225.992 415.246 225.677C414.766 225.359 414.388 224.906 414.113 224.32C413.841 223.73 413.705 223.022 413.705 222.197C413.705 221.371 413.843 220.665 414.118 220.079C414.396 219.492 414.777 219.043 415.261 218.732C415.745 218.42 416.294 218.264 416.907 218.264C417.381 218.264 417.762 218.344 418.05 218.503C418.342 218.659 418.567 218.841 418.727 219.05C418.889 219.259 419.015 219.442 419.104 219.602H419.194V215.818H420.68V226H419.229V224.812H419.104C419.015 224.974 418.886 225.16 418.717 225.369C418.551 225.577 418.322 225.76 418.031 225.915C417.739 226.071 417.361 226.149 416.897 226.149ZM417.225 224.881C417.653 224.881 418.014 224.769 418.309 224.543C418.607 224.315 418.833 223.998 418.985 223.594C419.141 223.189 419.219 222.719 419.219 222.182C419.219 221.652 419.143 221.187 418.99 220.79C418.838 220.392 418.614 220.082 418.319 219.86C418.024 219.638 417.659 219.527 417.225 219.527C416.778 219.527 416.405 219.643 416.107 219.875C415.808 220.107 415.583 220.424 415.43 220.825C415.281 221.226 415.207 221.678 415.207 222.182C415.207 222.692 415.283 223.151 415.435 223.559C415.588 223.967 415.813 224.29 416.112 224.528C416.413 224.764 416.784 224.881 417.225 224.881ZM422.802 228.864V218.364H424.254V219.602H424.378C424.464 219.442 424.588 219.259 424.751 219.05C424.913 218.841 425.139 218.659 425.427 218.503C425.715 218.344 426.097 218.264 426.57 218.264C427.187 218.264 427.737 218.42 428.221 218.732C428.705 219.043 429.084 219.492 429.36 220.079C429.638 220.665 429.777 221.371 429.777 222.197C429.777 223.022 429.64 223.73 429.365 224.32C429.089 224.906 428.712 225.359 428.231 225.677C427.75 225.992 427.202 226.149 426.585 226.149C426.121 226.149 425.742 226.071 425.447 225.915C425.155 225.76 424.927 225.577 424.761 225.369C424.595 225.16 424.468 224.974 424.378 224.812H424.289V228.864H422.802ZM424.259 222.182C424.259 222.719 424.337 223.189 424.492 223.594C424.648 223.998 424.874 224.315 425.169 224.543C425.463 224.769 425.825 224.881 426.252 224.881C426.696 224.881 427.068 224.764 427.366 224.528C427.664 224.29 427.89 223.967 428.042 223.559C428.198 223.151 428.276 222.692 428.276 222.182C428.276 221.678 428.2 221.226 428.047 220.825C427.898 220.424 427.673 220.107 427.371 219.875C427.073 219.643 426.7 219.527 426.252 219.527C425.821 219.527 425.457 219.638 425.159 219.86C424.864 220.082 424.64 220.392 424.487 220.79C424.335 221.187 424.259 221.652 424.259 222.182ZM434.659 226.154C433.943 226.154 433.319 225.99 432.785 225.662C432.251 225.334 431.837 224.875 431.542 224.285C431.247 223.695 431.1 223.005 431.1 222.217C431.1 221.424 431.247 220.732 431.542 220.138C431.837 219.545 432.251 219.085 432.785 218.756C433.319 218.428 433.943 218.264 434.659 218.264C435.375 218.264 436 218.428 436.534 218.756C437.067 219.085 437.481 219.545 437.776 220.138C438.071 220.732 438.219 221.424 438.219 222.217C438.219 223.005 438.071 223.695 437.776 224.285C437.481 224.875 437.067 225.334 436.534 225.662C436 225.99 435.375 226.154 434.659 226.154ZM434.664 224.906C435.128 224.906 435.513 224.784 435.818 224.538C436.123 224.293 436.348 223.967 436.494 223.559C436.643 223.151 436.718 222.702 436.718 222.212C436.718 221.724 436.643 221.277 436.494 220.869C436.348 220.458 436.123 220.129 435.818 219.88C435.513 219.631 435.128 219.507 434.664 219.507C434.197 219.507 433.809 219.631 433.501 219.88C433.196 220.129 432.969 220.458 432.82 220.869C432.674 221.277 432.601 221.724 432.601 222.212C432.601 222.702 432.674 223.151 432.82 223.559C432.969 223.967 433.196 224.293 433.501 224.538C433.809 224.784 434.197 224.906 434.664 224.906ZM439.878 226V218.364H441.365V226H439.878ZM440.629 217.185C440.37 217.185 440.148 217.099 439.963 216.927C439.78 216.751 439.689 216.542 439.689 216.3C439.689 216.055 439.78 215.846 439.963 215.674C440.148 215.498 440.37 215.411 440.629 215.411C440.887 215.411 441.108 215.498 441.29 215.674C441.476 215.846 441.569 216.055 441.569 216.3C441.569 216.542 441.476 216.751 441.29 216.927C441.108 217.099 440.887 217.185 440.629 217.185ZM444.851 221.466V226H443.365V218.364H444.791V219.607H444.886C445.061 219.202 445.337 218.877 445.711 218.632C446.089 218.387 446.565 218.264 447.138 218.264C447.658 218.264 448.114 218.374 448.505 218.592C448.896 218.808 449.2 219.129 449.415 219.557C449.63 219.984 449.738 220.513 449.738 221.143V226H448.252V221.322C448.252 220.768 448.107 220.336 447.819 220.024C447.531 219.709 447.135 219.552 446.631 219.552C446.286 219.552 445.98 219.626 445.711 219.776C445.446 219.925 445.235 220.143 445.08 220.432C444.927 220.717 444.851 221.062 444.851 221.466ZM455.296 218.364V219.557H451.125V218.364H455.296ZM452.244 216.534H453.73V223.758C453.73 224.046 453.773 224.263 453.86 224.409C453.946 224.552 454.057 224.649 454.193 224.702C454.332 224.752 454.483 224.777 454.645 224.777C454.764 224.777 454.869 224.769 454.958 224.752C455.048 224.736 455.117 224.722 455.167 224.712L455.436 225.94C455.349 225.973 455.227 226.007 455.068 226.04C454.909 226.076 454.71 226.096 454.471 226.099C454.08 226.106 453.715 226.036 453.377 225.891C453.039 225.745 452.766 225.519 452.557 225.214C452.348 224.91 452.244 224.527 452.244 224.066V216.534ZM460.626 226V224.886L464.071 221.317C464.439 220.929 464.742 220.589 464.981 220.298C465.223 220.003 465.404 219.723 465.523 219.457C465.642 219.192 465.702 218.911 465.702 218.612C465.702 218.274 465.622 217.982 465.463 217.737C465.304 217.489 465.087 217.298 464.812 217.165C464.537 217.03 464.227 216.962 463.882 216.962C463.518 216.962 463.2 217.036 462.928 217.185C462.656 217.335 462.447 217.545 462.301 217.817C462.155 218.089 462.083 218.407 462.083 218.771H460.616C460.616 218.152 460.758 217.61 461.044 217.146C461.329 216.682 461.72 216.322 462.217 216.067C462.714 215.808 463.279 215.679 463.912 215.679C464.552 215.679 465.115 215.807 465.602 216.062C466.093 216.314 466.476 216.658 466.751 217.096C467.026 217.53 467.164 218.021 467.164 218.567C467.164 218.945 467.092 219.315 466.95 219.676C466.811 220.037 466.567 220.44 466.219 220.884C465.871 221.325 465.387 221.86 464.767 222.49L462.744 224.608V224.683H467.328V226H460.626Z" fill="#007D88"/>
<path d="M371.979 150H370.348L374.012 139.818H375.787L379.451 150H377.82L374.942 141.668H374.862L371.979 150ZM372.252 146.013H377.542V147.305H372.252V146.013ZM380.921 150V139.818H384.551C385.343 139.818 385.999 139.962 386.519 140.251C387.04 140.539 387.429 140.933 387.688 141.434C387.946 141.931 388.075 142.491 388.075 143.114C388.075 143.741 387.945 144.304 387.683 144.805C387.424 145.302 387.033 145.696 386.509 145.988C385.989 146.276 385.334 146.42 384.546 146.42H382.05V145.118H384.406C384.907 145.118 385.313 145.032 385.624 144.859C385.936 144.684 386.165 144.445 386.311 144.143C386.456 143.842 386.529 143.499 386.529 143.114C386.529 142.73 386.456 142.388 386.311 142.09C386.165 141.792 385.934 141.558 385.619 141.389C385.308 141.22 384.897 141.136 384.387 141.136H382.458V150H380.921ZM391.413 139.818V150H389.876V139.818H391.413ZM397.355 150V139.818H403.738V141.141H398.891V144.243H403.405V145.56H398.891V148.678H403.798V150H397.355ZM407.158 145.466V150H405.671V142.364H407.098V143.607H407.192C407.368 143.202 407.643 142.877 408.018 142.632C408.396 142.387 408.871 142.264 409.445 142.264C409.965 142.264 410.421 142.374 410.812 142.592C411.203 142.808 411.506 143.129 411.722 143.557C411.937 143.984 412.045 144.513 412.045 145.143V150H410.558V145.322C410.558 144.768 410.414 144.336 410.126 144.024C409.837 143.709 409.441 143.552 408.938 143.552C408.593 143.552 408.286 143.626 408.018 143.776C407.753 143.925 407.542 144.143 407.386 144.432C407.234 144.717 407.158 145.062 407.158 145.466ZM416.897 150.149C416.281 150.149 415.73 149.992 415.246 149.677C414.766 149.359 414.388 148.906 414.113 148.32C413.841 147.73 413.705 147.022 413.705 146.197C413.705 145.371 413.843 144.665 414.118 144.079C414.396 143.492 414.777 143.043 415.261 142.732C415.745 142.42 416.294 142.264 416.907 142.264C417.381 142.264 417.762 142.344 418.05 142.503C418.342 142.659 418.567 142.841 418.727 143.05C418.889 143.259 419.015 143.442 419.104 143.602H419.194V139.818H420.68V150H419.229V148.812H419.104C419.015 148.974 418.886 149.16 418.717 149.369C418.551 149.577 418.322 149.76 418.031 149.915C417.739 150.071 417.361 150.149 416.897 150.149ZM417.225 148.881C417.653 148.881 418.014 148.769 418.309 148.543C418.607 148.315 418.833 147.998 418.985 147.594C419.141 147.189 419.219 146.719 419.219 146.182C419.219 145.652 419.143 145.187 418.99 144.79C418.838 144.392 418.614 144.082 418.319 143.86C418.024 143.638 417.659 143.527 417.225 143.527C416.778 143.527 416.405 143.643 416.107 143.875C415.808 144.107 415.583 144.424 415.43 144.825C415.281 145.226 415.207 145.678 415.207 146.182C415.207 146.692 415.283 147.151 415.435 147.559C415.588 147.967 415.813 148.29 416.112 148.528C416.413 148.764 416.784 148.881 417.225 148.881ZM422.802 152.864V142.364H424.254V143.602H424.378C424.464 143.442 424.588 143.259 424.751 143.05C424.913 142.841 425.139 142.659 425.427 142.503C425.715 142.344 426.097 142.264 426.57 142.264C427.187 142.264 427.737 142.42 428.221 142.732C428.705 143.043 429.084 143.492 429.36 144.079C429.638 144.665 429.777 145.371 429.777 146.197C429.777 147.022 429.64 147.73 429.365 148.32C429.089 148.906 428.712 149.359 428.231 149.677C427.75 149.992 427.202 150.149 426.585 150.149C426.121 150.149 425.742 150.071 425.447 149.915C425.155 149.76 424.927 149.577 424.761 149.369C424.595 149.16 424.468 148.974 424.378 148.812H424.289V152.864H422.802ZM424.259 146.182C424.259 146.719 424.337 147.189 424.492 147.594C424.648 147.998 424.874 148.315 425.169 148.543C425.463 148.769 425.825 148.881 426.252 148.881C426.696 148.881 427.068 148.764 427.366 148.528C427.664 148.29 427.89 147.967 428.042 147.559C428.198 147.151 428.276 146.692 428.276 146.182C428.276 145.678 428.2 145.226 428.047 144.825C427.898 144.424 427.673 144.107 427.371 143.875C427.073 143.643 426.7 143.527 426.252 143.527C425.821 143.527 425.457 143.638 425.159 143.86C424.864 144.082 424.64 144.392 424.487 144.79C424.335 145.187 424.259 145.652 424.259 146.182ZM434.659 150.154C433.943 150.154 433.319 149.99 432.785 149.662C432.251 149.334 431.837 148.875 431.542 148.285C431.247 147.695 431.1 147.005 431.1 146.217C431.1 145.424 431.247 144.732 431.542 144.138C431.837 143.545 432.251 143.085 432.785 142.756C433.319 142.428 433.943 142.264 434.659 142.264C435.375 142.264 436 142.428 436.534 142.756C437.067 143.085 437.481 143.545 437.776 144.138C438.071 144.732 438.219 145.424 438.219 146.217C438.219 147.005 438.071 147.695 437.776 148.285C437.481 148.875 437.067 149.334 436.534 149.662C436 149.99 435.375 150.154 434.659 150.154ZM434.664 148.906C435.128 148.906 435.513 148.784 435.818 148.538C436.123 148.293 436.348 147.967 436.494 147.559C436.643 147.151 436.718 146.702 436.718 146.212C436.718 145.724 436.643 145.277 436.494 144.869C436.348 144.458 436.123 144.129 435.818 143.88C435.513 143.631 435.128 143.507 434.664 143.507C434.197 143.507 433.809 143.631 433.501 143.88C433.196 144.129 432.969 144.458 432.82 144.869C432.674 145.277 432.601 145.724 432.601 146.212C432.601 146.702 432.674 147.151 432.82 147.559C432.969 147.967 433.196 148.293 433.501 148.538C433.809 148.784 434.197 148.906 434.664 148.906ZM439.878 150V142.364H441.365V150H439.878ZM440.629 141.185C440.37 141.185 440.148 141.099 439.963 140.927C439.78 140.751 439.689 140.542 439.689 140.3C439.689 140.055 439.78 139.846 439.963 139.674C440.148 139.498 440.37 139.411 440.629 139.411C440.887 139.411 441.108 139.498 441.29 139.674C441.476 139.846 441.569 140.055 441.569 140.3C441.569 140.542 441.476 140.751 441.29 140.927C441.108 141.099 440.887 141.185 440.629 141.185ZM444.851 145.466V150H443.365V142.364H444.791V143.607H444.886C445.061 143.202 445.337 142.877 445.711 142.632C446.089 142.387 446.565 142.264 447.138 142.264C447.658 142.264 448.114 142.374 448.505 142.592C448.896 142.808 449.2 143.129 449.415 143.557C449.63 143.984 449.738 144.513 449.738 145.143V150H448.252V145.322C448.252 144.768 448.107 144.336 447.819 144.024C447.531 143.709 447.135 143.552 446.631 143.552C446.286 143.552 445.98 143.626 445.711 143.776C445.446 143.925 445.235 144.143 445.08 144.432C444.927 144.717 444.851 145.062 444.851 145.466ZM455.296 142.364V143.557H451.125V142.364H455.296ZM452.244 140.534H453.73V147.758C453.73 148.046 453.773 148.263 453.86 148.409C453.946 148.552 454.057 148.649 454.193 148.702C454.332 148.752 454.483 148.777 454.645 148.777C454.764 148.777 454.869 148.769 454.958 148.752C455.048 148.736 455.117 148.722 455.167 148.712L455.436 149.94C455.349 149.973 455.227 150.007 455.068 150.04C454.909 150.076 454.71 150.096 454.471 150.099C454.08 150.106 453.715 150.036 453.377 149.891C453.039 149.745 452.766 149.519 452.557 149.214C452.348 148.91 452.244 148.527 452.244 148.066V140.534ZM468.983 139.818V150H467.571L462.396 142.533H462.301V150H460.765V139.818H462.187L467.367 147.295H467.462V139.818H468.983Z" fill="#007D88"/>
<path d="M166.979 222H165.348L169.012 211.818H170.787L174.451 222H172.82L169.942 213.668H169.862L166.979 222ZM167.252 218.013H172.542V219.305H167.252V218.013ZM175.921 222V211.818H179.551C180.343 211.818 180.999 211.962 181.519 212.251C182.04 212.539 182.429 212.933 182.688 213.434C182.946 213.931 183.075 214.491 183.075 215.114C183.075 215.741 182.945 216.304 182.683 216.805C182.424 217.302 182.033 217.696 181.509 217.988C180.989 218.276 180.334 218.42 179.546 218.42H177.05V217.118H179.406C179.907 217.118 180.313 217.032 180.624 216.859C180.936 216.684 181.165 216.445 181.311 216.143C181.456 215.842 181.529 215.499 181.529 215.114C181.529 214.73 181.456 214.388 181.311 214.09C181.165 213.792 180.934 213.558 180.619 213.389C180.308 213.22 179.897 213.136 179.387 213.136H177.458V222H175.921ZM186.413 211.818V222H184.876V211.818H186.413ZM192.355 222V211.818H198.738V213.141H193.891V216.243H198.405V217.56H193.891V220.678H198.798V222H192.355ZM202.158 217.466V222H200.671V214.364H202.098V215.607H202.192C202.368 215.202 202.643 214.877 203.018 214.632C203.396 214.387 203.871 214.264 204.445 214.264C204.965 214.264 205.421 214.374 205.812 214.592C206.203 214.808 206.506 215.129 206.722 215.557C206.937 215.984 207.045 216.513 207.045 217.143V222H205.558V217.322C205.558 216.768 205.414 216.336 205.126 216.024C204.837 215.709 204.441 215.552 203.938 215.552C203.593 215.552 203.286 215.626 203.018 215.776C202.753 215.925 202.542 216.143 202.386 216.432C202.234 216.717 202.158 217.062 202.158 217.466ZM211.897 222.149C211.281 222.149 210.73 221.992 210.246 221.677C209.766 221.359 209.388 220.906 209.113 220.32C208.841 219.73 208.705 219.022 208.705 218.197C208.705 217.371 208.843 216.665 209.118 216.079C209.396 215.492 209.777 215.043 210.261 214.732C210.745 214.42 211.294 214.264 211.907 214.264C212.381 214.264 212.762 214.344 213.05 214.503C213.342 214.659 213.567 214.841 213.727 215.05C213.889 215.259 214.015 215.442 214.104 215.602H214.194V211.818H215.68V222H214.229V220.812H214.104C214.015 220.974 213.886 221.16 213.717 221.369C213.551 221.577 213.322 221.76 213.031 221.915C212.739 222.071 212.361 222.149 211.897 222.149ZM212.225 220.881C212.653 220.881 213.014 220.769 213.309 220.543C213.607 220.315 213.833 219.998 213.985 219.594C214.141 219.189 214.219 218.719 214.219 218.182C214.219 217.652 214.143 217.187 213.99 216.79C213.838 216.392 213.614 216.082 213.319 215.86C213.024 215.638 212.659 215.527 212.225 215.527C211.778 215.527 211.405 215.643 211.107 215.875C210.808 216.107 210.583 216.424 210.43 216.825C210.281 217.226 210.207 217.678 210.207 218.182C210.207 218.692 210.283 219.151 210.435 219.559C210.588 219.967 210.813 220.29 211.112 220.528C211.413 220.764 211.784 220.881 212.225 220.881ZM217.802 224.864V214.364H219.254V215.602H219.378C219.464 215.442 219.588 215.259 219.751 215.05C219.913 214.841 220.139 214.659 220.427 214.503C220.715 214.344 221.097 214.264 221.57 214.264C222.187 214.264 222.737 214.42 223.221 214.732C223.705 215.043 224.084 215.492 224.36 216.079C224.638 216.665 224.777 217.371 224.777 218.197C224.777 219.022 224.64 219.73 224.365 220.32C224.089 220.906 223.712 221.359 223.231 221.677C222.75 221.992 222.202 222.149 221.585 222.149C221.121 222.149 220.742 222.071 220.447 221.915C220.155 221.76 219.927 221.577 219.761 221.369C219.595 221.16 219.468 220.974 219.378 220.812H219.289V224.864H217.802ZM219.259 218.182C219.259 218.719 219.337 219.189 219.492 219.594C219.648 219.998 219.874 220.315 220.169 220.543C220.463 220.769 220.825 220.881 221.252 220.881C221.696 220.881 222.068 220.764 222.366 220.528C222.664 220.29 222.89 219.967 223.042 219.559C223.198 219.151 223.276 218.692 223.276 218.182C223.276 217.678 223.2 217.226 223.047 216.825C222.898 216.424 222.673 216.107 222.371 215.875C222.073 215.643 221.7 215.527 221.252 215.527C220.821 215.527 220.457 215.638 220.159 215.86C219.864 216.082 219.64 216.392 219.487 216.79C219.335 217.187 219.259 217.652 219.259 218.182ZM229.659 222.154C228.943 222.154 228.319 221.99 227.785 221.662C227.251 221.334 226.837 220.875 226.542 220.285C226.247 219.695 226.1 219.005 226.1 218.217C226.1 217.424 226.247 216.732 226.542 216.138C226.837 215.545 227.251 215.085 227.785 214.756C228.319 214.428 228.943 214.264 229.659 214.264C230.375 214.264 231 214.428 231.534 214.756C232.067 215.085 232.481 215.545 232.776 216.138C233.071 216.732 233.219 217.424 233.219 218.217C233.219 219.005 233.071 219.695 232.776 220.285C232.481 220.875 232.067 221.334 231.534 221.662C231 221.99 230.375 222.154 229.659 222.154ZM229.664 220.906C230.128 220.906 230.513 220.784 230.818 220.538C231.123 220.293 231.348 219.967 231.494 219.559C231.643 219.151 231.718 218.702 231.718 218.212C231.718 217.724 231.643 217.277 231.494 216.869C231.348 216.458 231.123 216.129 230.818 215.88C230.513 215.631 230.128 215.507 229.664 215.507C229.197 215.507 228.809 215.631 228.501 215.88C228.196 216.129 227.969 216.458 227.82 216.869C227.674 217.277 227.601 217.724 227.601 218.212C227.601 218.702 227.674 219.151 227.82 219.559C227.969 219.967 228.196 220.293 228.501 220.538C228.809 220.784 229.197 220.906 229.664 220.906ZM234.878 222V214.364H236.365V222H234.878ZM235.629 213.185C235.37 213.185 235.148 213.099 234.963 212.927C234.78 212.751 234.689 212.542 234.689 212.3C234.689 212.055 234.78 211.846 234.963 211.674C235.148 211.498 235.37 211.411 235.629 211.411C235.887 211.411 236.108 211.498 236.29 211.674C236.476 211.846 236.569 212.055 236.569 212.3C236.569 212.542 236.476 212.751 236.29 212.927C236.108 213.099 235.887 213.185 235.629 213.185ZM239.851 217.466V222H238.365V214.364H239.791V215.607H239.886C240.061 215.202 240.337 214.877 240.711 214.632C241.089 214.387 241.565 214.264 242.138 214.264C242.658 214.264 243.114 214.374 243.505 214.592C243.896 214.808 244.2 215.129 244.415 215.557C244.63 215.984 244.738 216.513 244.738 217.143V222H243.252V217.322C243.252 216.768 243.107 216.336 242.819 216.024C242.531 215.709 242.135 215.552 241.631 215.552C241.286 215.552 240.98 215.626 240.711 215.776C240.446 215.925 240.235 216.143 240.08 216.432C239.927 216.717 239.851 217.062 239.851 217.466ZM250.296 214.364V215.557H246.125V214.364H250.296ZM247.244 212.534H248.73V219.758C248.73 220.046 248.773 220.263 248.86 220.409C248.946 220.552 249.057 220.649 249.193 220.702C249.332 220.752 249.483 220.777 249.645 220.777C249.764 220.777 249.869 220.769 249.958 220.752C250.048 220.736 250.117 220.722 250.167 220.712L250.436 221.94C250.349 221.973 250.227 222.007 250.068 222.04C249.909 222.076 249.71 222.096 249.471 222.099C249.08 222.106 248.715 222.036 248.377 221.891C248.039 221.745 247.766 221.519 247.557 221.214C247.348 220.91 247.244 220.527 247.244 220.066V212.534ZM263.983 211.818V222H262.571L257.396 214.533H257.301V222H255.765V211.818H257.187L262.367 219.295H262.462V211.818H263.983Z" fill="#6554C0"/>
<path d="M371.979 267H370.348L374.012 256.818H375.787L379.451 267H377.82L374.942 258.668H374.862L371.979 267ZM372.252 263.013H377.542V264.305H372.252V263.013ZM380.921 267V256.818H384.551C385.343 256.818 385.999 256.962 386.519 257.251C387.04 257.539 387.429 257.933 387.688 258.434C387.946 258.931 388.075 259.491 388.075 260.114C388.075 260.741 387.945 261.304 387.683 261.805C387.424 262.302 387.033 262.696 386.509 262.988C385.989 263.276 385.334 263.42 384.546 263.42H382.05V262.118H384.406C384.907 262.118 385.313 262.032 385.624 261.859C385.936 261.684 386.165 261.445 386.311 261.143C386.456 260.842 386.529 260.499 386.529 260.114C386.529 259.73 386.456 259.388 386.311 259.09C386.165 258.792 385.934 258.558 385.619 258.389C385.308 258.22 384.897 258.136 384.387 258.136H382.458V267H380.921ZM391.413 256.818V267H389.876V256.818H391.413ZM397.355 267V256.818H403.738V258.141H398.891V261.243H403.405V262.56H398.891V265.678H403.798V267H397.355ZM407.158 262.466V267H405.671V259.364H407.098V260.607H407.192C407.368 260.202 407.643 259.877 408.018 259.632C408.396 259.387 408.871 259.264 409.445 259.264C409.965 259.264 410.421 259.374 410.812 259.592C411.203 259.808 411.506 260.129 411.722 260.557C411.937 260.984 412.045 261.513 412.045 262.143V267H410.558V262.322C410.558 261.768 410.414 261.336 410.126 261.024C409.837 260.709 409.441 260.552 408.938 260.552C408.593 260.552 408.286 260.626 408.018 260.776C407.753 260.925 407.542 261.143 407.386 261.432C407.234 261.717 407.158 262.062 407.158 262.466ZM416.897 267.149C416.281 267.149 415.73 266.992 415.246 266.677C414.766 266.359 414.388 265.906 414.113 265.32C413.841 264.73 413.705 264.022 413.705 263.197C413.705 262.371 413.843 261.665 414.118 261.079C414.396 260.492 414.777 260.043 415.261 259.732C415.745 259.42 416.294 259.264 416.907 259.264C417.381 259.264 417.762 259.344 418.05 259.503C418.342 259.659 418.567 259.841 418.727 260.05C418.889 260.259 419.015 260.442 419.104 260.602H419.194V256.818H420.68V267H419.229V265.812H419.104C419.015 265.974 418.886 266.16 418.717 266.369C418.551 266.577 418.322 266.76 418.031 266.915C417.739 267.071 417.361 267.149 416.897 267.149ZM417.225 265.881C417.653 265.881 418.014 265.769 418.309 265.543C418.607 265.315 418.833 264.998 418.985 264.594C419.141 264.189 419.219 263.719 419.219 263.182C419.219 262.652 419.143 262.187 418.99 261.79C418.838 261.392 418.614 261.082 418.319 260.86C418.024 260.638 417.659 260.527 417.225 260.527C416.778 260.527 416.405 260.643 416.107 260.875C415.808 261.107 415.583 261.424 415.43 261.825C415.281 262.226 415.207 262.678 415.207 263.182C415.207 263.692 415.283 264.151 415.435 264.559C415.588 264.967 415.813 265.29 416.112 265.528C416.413 265.764 416.784 265.881 417.225 265.881ZM422.802 269.864V259.364H424.254V260.602H424.378C424.464 260.442 424.588 260.259 424.751 260.05C424.913 259.841 425.139 259.659 425.427 259.503C425.715 259.344 426.097 259.264 426.57 259.264C427.187 259.264 427.737 259.42 428.221 259.732C428.705 260.043 429.084 260.492 429.36 261.079C429.638 261.665 429.777 262.371 429.777 263.197C429.777 264.022 429.64 264.73 429.365 265.32C429.089 265.906 428.712 266.359 428.231 266.677C427.75 266.992 427.202 267.149 426.585 267.149C426.121 267.149 425.742 267.071 425.447 266.915C425.155 266.76 424.927 266.577 424.761 266.369C424.595 266.16 424.468 265.974 424.378 265.812H424.289V269.864H422.802ZM424.259 263.182C424.259 263.719 424.337 264.189 424.492 264.594C424.648 264.998 424.874 265.315 425.169 265.543C425.463 265.769 425.825 265.881 426.252 265.881C426.696 265.881 427.068 265.764 427.366 265.528C427.664 265.29 427.89 264.967 428.042 264.559C428.198 264.151 428.276 263.692 428.276 263.182C428.276 262.678 428.2 262.226 428.047 261.825C427.898 261.424 427.673 261.107 427.371 260.875C427.073 260.643 426.7 260.527 426.252 260.527C425.821 260.527 425.457 260.638 425.159 260.86C424.864 261.082 424.64 261.392 424.487 261.79C424.335 262.187 424.259 262.652 424.259 263.182ZM434.659 267.154C433.943 267.154 433.319 266.99 432.785 266.662C432.251 266.334 431.837 265.875 431.542 265.285C431.247 264.695 431.1 264.005 431.1 263.217C431.1 262.424 431.247 261.732 431.542 261.138C431.837 260.545 432.251 260.085 432.785 259.756C433.319 259.428 433.943 259.264 434.659 259.264C435.375 259.264 436 259.428 436.534 259.756C437.067 260.085 437.481 260.545 437.776 261.138C438.071 261.732 438.219 262.424 438.219 263.217C438.219 264.005 438.071 264.695 437.776 265.285C437.481 265.875 437.067 266.334 436.534 266.662C436 266.99 435.375 267.154 434.659 267.154ZM434.664 265.906C435.128 265.906 435.513 265.784 435.818 265.538C436.123 265.293 436.348 264.967 436.494 264.559C436.643 264.151 436.718 263.702 436.718 263.212C436.718 262.724 436.643 262.277 436.494 261.869C436.348 261.458 436.123 261.129 435.818 260.88C435.513 260.631 435.128 260.507 434.664 260.507C434.197 260.507 433.809 260.631 433.501 260.88C433.196 261.129 432.969 261.458 432.82 261.869C432.674 262.277 432.601 262.724 432.601 263.212C432.601 263.702 432.674 264.151 432.82 264.559C432.969 264.967 433.196 265.293 433.501 265.538C433.809 265.784 434.197 265.906 434.664 265.906ZM439.878 267V259.364H441.365V267H439.878ZM440.629 258.185C440.37 258.185 440.148 258.099 439.963 257.927C439.78 257.751 439.689 257.542 439.689 257.3C439.689 257.055 439.78 256.846 439.963 256.674C440.148 256.498 440.37 256.411 440.629 256.411C440.887 256.411 441.108 256.498 441.29 256.674C441.476 256.846 441.569 257.055 441.569 257.3C441.569 257.542 441.476 257.751 441.29 257.927C441.108 258.099 440.887 258.185 440.629 258.185ZM444.851 262.466V267H443.365V259.364H444.791V260.607H444.886C445.061 260.202 445.337 259.877 445.711 259.632C446.089 259.387 446.565 259.264 447.138 259.264C447.658 259.264 448.114 259.374 448.505 259.592C448.896 259.808 449.2 260.129 449.415 260.557C449.63 260.984 449.738 261.513 449.738 262.143V267H448.252V262.322C448.252 261.768 448.107 261.336 447.819 261.024C447.531 260.709 447.135 260.552 446.631 260.552C446.286 260.552 445.98 260.626 445.711 260.776C445.446 260.925 445.235 261.143 445.08 261.432C444.927 261.717 444.851 262.062 444.851 262.466ZM455.296 259.364V260.557H451.125V259.364H455.296ZM452.244 257.534H453.73V264.758C453.73 265.046 453.773 265.263 453.86 265.409C453.946 265.552 454.057 265.649 454.193 265.702C454.332 265.752 454.483 265.777 454.645 265.777C454.764 265.777 454.869 265.769 454.958 265.752C455.048 265.736 455.117 265.722 455.167 265.712L455.436 266.94C455.349 266.973 455.227 267.007 455.068 267.04C454.909 267.076 454.71 267.096 454.471 267.099C454.08 267.106 453.715 267.036 453.377 266.891C453.039 266.745 452.766 266.519 452.557 266.214C452.348 265.91 452.244 265.527 452.244 265.066V257.534ZM468.983 256.818V267H467.571L462.396 259.533H462.301V267H460.765V256.818H462.187L467.367 264.295H467.462V256.818H468.983Z" fill="#007D88"/>
<path d="M196.333 177.75C196.158 177.75 195.985 177.784 195.823 177.851C195.661 177.919 195.514 178.017 195.391 178.141C195.267 178.264 195.168 178.411 195.101 178.573C195.034 178.735 195 178.908 195 179.083C195 179.258 195.034 179.432 195.101 179.594C195.168 179.755 195.267 179.902 195.391 180.026C195.514 180.15 195.661 180.248 195.823 180.315C195.985 180.382 196.158 180.417 196.333 180.417C196.508 180.417 196.682 180.382 196.844 180.315C197.005 180.248 197.152 180.15 197.276 180.026C197.4 179.902 197.498 179.755 197.565 179.594C197.632 179.432 197.667 179.258 197.667 179.083C197.667 178.908 197.632 178.735 197.565 178.573C197.498 178.411 197.4 178.264 197.276 178.141C197.152 178.017 197.005 177.919 196.844 177.851C196.682 177.784 196.508 177.75 196.333 177.75ZM196.333 184.417C195.98 184.417 195.641 184.557 195.391 184.807C195.14 185.057 195 185.396 195 185.75C195 186.104 195.14 186.443 195.391 186.693C195.641 186.943 195.98 187.083 196.333 187.083C196.687 187.083 197.026 186.943 197.276 186.693C197.526 186.443 197.667 186.104 197.667 185.75C197.667 185.396 197.526 185.057 197.276 184.807C197.026 184.557 196.687 184.417 196.333 184.417ZM196.333 191.083C195.98 191.083 195.641 191.224 195.391 191.474C195.14 191.724 195 192.063 195 192.417C195 192.77 195.14 193.109 195.391 193.359C195.641 193.61 195.98 193.75 196.333 193.75C196.687 193.75 197.026 193.61 197.276 193.359C197.526 193.109 197.667 192.77 197.667 192.417C197.667 192.063 197.526 191.724 197.276 191.474C197.026 191.224 196.687 191.083 196.333 191.083Z" fill="#6554C0"/>
<path d="M417.667 117.5C417.535 117.5 417.405 117.526 417.284 117.576C417.163 117.626 417.052 117.7 416.96 117.793C416.867 117.886 416.793 117.996 416.743 118.117C416.693 118.239 416.667 118.369 416.667 118.5C416.667 118.631 416.693 118.761 416.743 118.883C416.793 119.004 416.867 119.114 416.96 119.207C417.052 119.3 417.163 119.374 417.284 119.424C417.405 119.474 417.535 119.5 417.667 119.5C417.798 119.5 417.928 119.474 418.049 119.424C418.171 119.374 418.281 119.3 418.374 119.207C418.467 119.114 418.54 119.004 418.591 118.883C418.641 118.761 418.667 118.631 418.667 118.5C418.667 118.369 418.641 118.239 418.591 118.117C418.54 117.996 418.467 117.886 418.374 117.793C418.281 117.7 418.171 117.626 418.049 117.576C417.928 117.526 417.798 117.5 417.667 117.5ZM417.667 122.5C417.401 122.5 417.147 122.605 416.96 122.793C416.772 122.98 416.667 123.235 416.667 123.5C416.667 123.765 416.772 124.02 416.96 124.207C417.147 124.395 417.401 124.5 417.667 124.5C417.932 124.5 418.186 124.395 418.374 124.207C418.561 124.02 418.667 123.765 418.667 123.5C418.667 123.235 418.561 122.98 418.374 122.793C418.186 122.605 417.932 122.5 417.667 122.5ZM417.667 127.5C417.401 127.5 417.147 127.605 416.96 127.793C416.772 127.98 416.667 128.235 416.667 128.5C416.667 128.765 416.772 129.02 416.96 129.207C417.147 129.395 417.401 129.5 417.667 129.5C417.932 129.5 418.186 129.395 418.374 129.207C418.561 129.02 418.667 128.765 418.667 128.5C418.667 128.235 418.561 127.98 418.374 127.793C418.186 127.605 417.932 127.5 417.667 127.5Z" fill="#0096A6"/>
<path d="M417.667 234.5C417.535 234.5 417.405 234.526 417.284 234.576C417.163 234.626 417.052 234.7 416.96 234.793C416.867 234.886 416.793 234.996 416.743 235.117C416.693 235.239 416.667 235.369 416.667 235.5C416.667 235.631 416.693 235.761 416.743 235.883C416.793 236.004 416.867 236.114 416.96 236.207C417.052 236.3 417.163 236.374 417.284 236.424C417.405 236.474 417.535 236.5 417.667 236.5C417.798 236.5 417.928 236.474 418.049 236.424C418.171 236.374 418.281 236.3 418.374 236.207C418.467 236.114 418.54 236.004 418.591 235.883C418.641 235.761 418.667 235.631 418.667 235.5C418.667 235.369 418.641 235.239 418.591 235.117C418.54 234.996 418.467 234.886 418.374 234.793C418.281 234.7 418.171 234.626 418.049 234.576C417.928 234.526 417.798 234.5 417.667 234.5ZM417.667 239.5C417.401 239.5 417.147 239.605 416.96 239.793C416.772 239.98 416.667 240.235 416.667 240.5C416.667 240.765 416.772 241.02 416.96 241.207C417.147 241.395 417.401 241.5 417.667 241.5C417.932 241.5 418.186 241.395 418.374 241.207C418.561 241.02 418.667 240.765 418.667 240.5C418.667 240.235 418.561 239.98 418.374 239.793C418.186 239.605 417.932 239.5 417.667 239.5ZM417.667 244.5C417.401 244.5 417.147 244.605 416.96 244.793C416.772 244.98 416.667 245.235 416.667 245.5C416.667 245.765 416.772 246.02 416.96 246.207C417.147 246.395 417.401 246.5 417.667 246.5C417.932 246.5 418.186 246.395 418.374 246.207C418.561 246.02 418.667 245.765 418.667 245.5C418.667 245.235 418.561 244.98 418.374 244.793C418.186 244.605 417.932 244.5 417.667 244.5Z" fill="#0096A6"/>
<path d="M566.333 156C566.158 156 565.985 156.03 565.823 156.089C565.661 156.147 565.514 156.233 565.391 156.342C565.267 156.45 565.169 156.579 565.102 156.72C565.035 156.862 565 157.013 565 157.167C565 157.32 565.035 157.472 565.102 157.613C565.169 157.755 565.267 157.883 565.391 157.992C565.514 158.1 565.661 158.186 565.823 158.245C565.985 158.303 566.158 158.333 566.333 158.333C566.508 158.333 566.682 158.303 566.844 158.245C567.005 158.186 567.152 158.1 567.276 157.992C567.4 157.883 567.498 157.755 567.565 157.613C567.632 157.472 567.667 157.32 567.667 157.167C567.667 157.013 567.632 156.862 567.565 156.72C567.498 156.579 567.4 156.45 567.276 156.342C567.152 156.233 567.005 156.147 566.844 156.089C566.682 156.03 566.508 156 566.333 156ZM566.333 161.833C565.98 161.833 565.641 161.956 565.391 162.175C565.14 162.394 565 162.691 565 163C565 163.309 565.14 163.606 565.391 163.825C565.641 164.044 565.98 164.167 566.333 164.167C566.687 164.167 567.026 164.044 567.276 163.825C567.526 163.606 567.667 163.309 567.667 163C567.667 162.691 567.526 162.394 567.276 162.175C567.026 161.956 566.687 161.833 566.333 161.833ZM566.333 167.667C565.98 167.667 565.641 167.79 565.391 168.008C565.14 168.227 565 168.524 565 168.833C565 169.143 565.14 169.439 565.391 169.658C565.641 169.877 565.98 170 566.333 170C566.687 170 567.026 169.877 567.276 169.658C567.526 169.439 567.667 169.143 567.667 168.833C567.667 168.524 567.526 168.227 567.276 168.008C567.026 167.79 566.687 167.667 566.333 167.667Z" fill="#0096A6"/>
</g>
<defs>
<clipPath id="clip0_16_1296">
<rect width="681" height="310" rx="4" fill="white"/>
</clipPath>
</defs>
</svg>
