<svg width="450" height="270" viewBox="0 0 450 270" fill="none" xmlns="http://www.w3.org/2000/svg">
<g clip-path="url(#clip0_2_3)">
<rect width="450" height="270" fill="white"/>
<path d="M151.131 154.937L193.452 151.187V5.53251L151.131 0V154.937Z" fill="url(#paint0_linear_2_3)"/>
<path style="mix-blend-mode:multiply" d="M174.312 75.8769L189.116 75.9701V147.209L174.312 148.553V75.8769Z" fill="url(#paint1_linear_2_3)"/>
<path style="mix-blend-mode:multiply" d="M169.999 75.8497V148.945L155.309 150.278V75.7585L169.999 75.8497Z" fill="url(#paint2_linear_2_3)"/>
<path style="mix-blend-mode:multiply" d="M155.309 71.1403V4.90744L189.116 9.39945V71.2742L155.309 71.1403Z" fill="url(#paint3_linear_2_3)"/>
<path d="M155.309 17.5429V4.90744L189.116 9.39945L155.309 17.5429Z" fill="#D9DBDF"/>
<path d="M151.131 154.924L132.239 151.517V9.98375L151.131 0V154.924Z" fill="#D9DBDF"/>
<path style="mix-blend-mode:multiply" d="M111.884 222.504L50.1204 252.576L0 248.093L89.0495 217.074L111.884 222.504Z" fill="url(#paint4_linear_2_3)"/>
<path d="M100.935 210.358C93.0461 210.358 86.6539 213.658 86.6539 217.725C86.6539 221.791 93.05 225.101 100.935 225.101C108.819 225.101 115.215 221.801 115.215 217.725C115.215 213.648 108.821 210.358 100.935 210.358Z" fill="#C4C8CD"/>
<path d="M118.724 195.039H83.1495L86.6752 217.888C86.6752 218.88 93.0597 219.683 100.939 219.683C108.817 219.683 115.202 218.88 115.202 217.888L118.724 195.039Z" fill="#C4C8CD"/>
<path style="mix-blend-mode:multiply" d="M88.9778 207.863C91.5982 204.736 94.806 207.712 98.225 207.05C101.836 206.353 105.505 205.817 108.709 208.255C108.127 207.82 113.004 214.102 116.822 207.362L118.724 195.039H83.1495L85.9154 212.039C87.0492 210.334 88.532 208.393 88.9778 207.863Z" fill="url(#paint5_linear_2_3)"/>
<path d="M121.468 190.118L118.127 199.364C118.127 197.297 110.426 195.622 100.933 195.622C91.4393 195.622 83.7465 197.297 83.7465 199.364L80.4031 190.118H121.468Z" fill="url(#paint6_linear_2_3)"/>
<path d="M100.935 193.003C91.3987 193.003 83.6671 195.758 83.6671 199.155C83.6671 202.552 91.3987 205.308 100.935 205.308C110.471 205.308 118.202 202.554 118.202 199.155C118.202 195.756 110.478 193.003 100.935 193.003Z" fill="url(#paint7_linear_2_3)"/>
<path d="M100.935 197.023C112.274 197.023 121.466 193.932 121.466 190.118C121.466 186.305 112.274 183.213 100.935 183.213C89.5954 183.213 80.4031 186.305 80.4031 190.118C80.4031 193.932 89.5954 197.023 100.935 197.023Z" fill="url(#paint8_linear_2_3)"/>
<path d="M100.935 184.805C90.6311 184.805 82.2793 187.179 82.2793 190.111C82.2793 193.042 90.6311 195.414 100.935 195.414C111.238 195.414 119.588 193.048 119.588 190.118C119.588 187.189 111.236 184.805 100.935 184.805Z" fill="#697182"/>
<path d="M108.478 156.683C106.817 159.878 103.069 189.06 103.069 189.06L104.47 189.755C105.995 169.51 106.964 164.209 108.734 156.894C108.763 156.78 110.137 153.485 108.478 156.683Z" fill="#3C4456"/>
<path d="M111.136 108.581C101.092 133.646 108.482 157.005 108.482 157.005C119.826 152.47 120.842 138.796 120.842 138.796C108.313 145.876 121.458 134.267 121.458 134.267C126.721 115.4 111.136 108.581 111.136 108.581Z" fill="#0078EF"/>
<path d="M103.418 137.082C103.418 137.082 115.434 148.805 103.45 140.842C103.45 140.842 102.14 153.183 108.49 157.005C108.49 157.005 118.981 133.984 110.759 108.261C110.752 108.261 99.5198 117.885 103.418 137.082Z" fill="#3C4456"/>
<path d="M119.976 150.405C119.976 150.405 118.037 152.862 121.666 155.805C125.294 158.748 117.937 157.541 117.495 152.276C117.053 147.011 110.343 154.044 114.08 161.435C117.537 168.27 106.437 176.149 101.908 190.514C102.53 190.281 103.166 190.086 103.813 189.932C106.298 183.386 111.219 171.879 117.931 163.263C127.851 150.519 145.729 150.797 145.729 150.797C145.729 150.797 130.258 144.21 119.976 150.405Z" fill="#3C4456"/>
<path d="M102.059 181.798C102.381 183.244 103.735 187.04 104.716 189.722C104.995 189.672 105.278 189.639 105.559 189.602C104.741 187.338 103.658 185.267 103.158 183.481C99.043 168.743 105.455 163.139 107.356 152.142C82.3026 177.854 101.545 179.467 102.059 181.798Z" fill="#3C4456"/>
<path d="M124.158 159.043C123.189 162.246 125.345 165.773 123.067 166.109C120.79 166.445 124.953 159.573 122.081 160.025C119.208 160.478 117.006 164.135 117.006 164.135C117.15 176.211 115.665 165.556 115.665 165.556C110.992 174.262 114.537 178.651 114.537 178.651C109.472 181.474 105.695 186.339 103.369 190.035C103.747 189.932 104.129 189.841 104.516 189.761C107.079 185.514 111.661 179.94 119.154 176.85C132.367 171.399 137.677 159.185 137.677 159.185C137.677 159.185 125.118 155.842 124.158 159.043Z" fill="#0078EF"/>
<path d="M123.676 167.14C114.665 169.188 114.537 178.653 114.537 178.653C109.219 181.789 105.526 186.492 103.295 190.056C103.699 189.942 104.106 189.845 104.52 189.763C107.083 185.516 111.665 179.942 119.158 176.852C132.371 171.401 137.681 159.187 137.681 159.187C137.681 159.187 132.685 165.088 123.676 167.14Z" fill="#3C4456"/>
<path d="M96.6841 165.476C97.3354 172.672 102.429 185.164 104.404 189.788C105.057 189.654 105.718 189.562 106.383 189.511C104.381 186.228 98.6301 176.143 97.1687 166.228C95.3894 154.163 103.311 148.636 92.517 133.927C92.517 133.927 82.5158 150.966 90.2589 131.109C90.2589 131.109 85.6673 127.481 84.0237 125.235C84.0237 125.235 84.0489 127.914 81.9149 130.523C81.9149 130.523 83.1244 120.952 71.1462 122.583C71.1462 122.583 65.4226 131.278 75.8851 138.334C75.8851 138.334 81.3994 141.456 83.3124 143.618C83.3124 143.618 78.2052 140.829 74.604 142.548C74.604 142.548 76.1235 150.234 79.6181 150.948C83.1127 151.663 83.4713 152.047 83.4713 152.047C83.4713 152.047 83.9345 153.864 86.2546 153.631C88.5746 153.398 88.6405 155.184 88.6405 155.184C88.6405 155.184 84.7137 153.493 81.6843 154.602C81.6843 154.602 81.5583 159.321 87.0454 160.359C92.5325 161.398 95.872 156.525 96.6841 165.476Z" fill="#0078EF"/>
<path d="M96.6822 165.476C97.3354 172.673 102.429 185.162 104.404 189.788C105.057 189.654 105.718 189.562 106.383 189.511C104.381 186.23 98.6301 176.143 97.1706 166.23C96.7132 163.135 96.8954 160.474 97.2346 157.975C98.0099 152.315 99.5876 147.502 96.4263 140.46C95.5386 138.48 94.2749 136.329 92.517 133.929C92.517 133.929 82.5158 150.968 90.2589 131.111C90.2589 131.111 85.6673 127.485 84.0256 125.239C84.0256 125.239 84.0489 127.917 81.9149 130.526C81.9149 130.526 83.1224 120.956 71.1462 122.589C71.1462 122.589 70.2275 129.915 80.69 136.971C80.69 136.971 96.5523 156.131 93.519 157.238C93.519 157.238 81.5583 159.313 87.0454 160.344C92.5325 161.375 95.872 156.523 96.6822 165.476Z" fill="#3C4456"/>
<path d="M94.8487 150.96C94.4882 155.213 97.2346 157.975 97.2346 157.975C98.0099 152.315 99.5876 147.503 96.4264 140.46C97.7172 146.703 95.215 146.703 94.8487 150.96Z" fill="#0078EF"/>
<path d="M100.751 191.017C99.5217 187.055 96.6241 179.612 91.1176 174.893C91.1176 174.893 95.4631 171.298 92.61 161.835C92.61 161.835 89.0417 171.981 91.5769 160.177C91.5769 160.177 90.1465 156.155 87.4195 155.13C84.6924 154.105 87.4195 161.677 85.2448 160.895C83.0701 160.113 85.8824 157.082 85.5762 153.753C85.27 150.424 72.2955 151.222 72.2955 151.222C72.2955 151.222 75.0808 164.246 86.9485 172.214C95.746 178.123 98.8278 187.195 99.8357 191.497C100.136 191.32 100.438 191.159 100.751 191.017Z" fill="#0078EF"/>
<path d="M100.787 190.994C99.6419 187.172 96.878 180.074 91.1156 174.882C91.1156 174.882 92.86 165.581 84.4443 161.78C76.0285 157.979 72.2955 151.222 72.2955 151.222C72.2955 151.222 75.0808 164.246 86.9485 172.214C95.746 178.123 98.8278 187.195 99.8357 191.497C100.15 191.312 100.466 191.147 100.787 190.994Z" fill="#3C4456"/>
<path d="M100.097 189.88C94.7673 183.64 86.115 181.546 87.026 177.908C87.9854 174.074 82.6166 171.789 83.2911 174.22C83.9656 176.65 79.684 178.18 81.3742 176.369C83.0643 174.557 81.4381 173.705 81.4381 173.705C74.0303 172.276 65.7502 177.306 65.7502 177.306C65.7502 177.306 76.6391 174.804 84.9986 179.247C91.294 182.588 96.876 187.839 99.2484 190.229C99.5236 190.105 99.8182 189.992 100.097 189.88Z" fill="#3C4456"/>
<path d="M292.716 107.771H326.334V5.36362L292.716 6.37306V107.771Z" fill="url(#paint9_linear_2_3)"/>
<path d="M254.009 107.771H286.763V6.69144L254.009 7.67564V107.771Z" fill="url(#paint10_linear_2_3)"/>
<path d="M378.957 104.77H412.575V2.36249L378.957 3.37193V104.77Z" fill="url(#paint11_linear_2_3)"/>
<path d="M340.248 104.77H373.004V3.69028L340.248 4.67448V104.77Z" fill="url(#paint12_linear_2_3)"/>
<path d="M135.481 135.455L146.766 138.608V268.519L135.481 268.045V135.455Z" fill="url(#paint13_linear_2_3)"/>
<path d="M368.401 207.826L381.036 209.552V265.042L368.401 264.782V207.826Z" fill="url(#paint14_linear_2_3)"/>
<path d="M418.866 170.541L381.036 209.552V265.042L418.866 227.497V170.541Z" fill="url(#paint15_linear_2_3)"/>
<path d="M233.646 109.305L146.766 138.608V268.519L233.646 241.897V109.305Z" fill="url(#paint16_linear_2_3)"/>
<path d="M300.056 195.676C300.056 195.676 301.775 223.63 287.521 249.642C273.267 275.655 247.949 263.386 248.049 252.554C248.15 241.722 253.626 186.552 253.626 186.552L300.056 195.676Z" fill="url(#paint17_linear_2_3)"/>
<path d="M449.996 143.956L226.847 93.2063L119.534 126.254L387.735 214.19L449.996 143.956Z" fill="url(#paint18_linear_2_3)"/>
<path d="M387.735 224.773L119.518 132.772L119.534 126.254L387.735 214.19V224.773Z" fill="url(#paint19_linear_2_3)"/>
<path d="M387.735 224.773L450 150.459L449.994 143.942L387.735 214.19V224.773Z" fill="url(#paint20_linear_2_3)"/>
<path style="mix-blend-mode:multiply" d="M406.679 151.131L365.618 197.627L250.838 160.889L298.838 126.698L406.679 151.131Z" fill="url(#paint21_linear_2_3)"/>
<path style="mix-blend-mode:multiply" d="M295.617 123.443L240.738 162.017L150.165 132.178L208.709 104.535L295.617 123.443Z" fill="url(#paint22_linear_2_3)"/>
<path d="M273.979 125.077L227.719 114.661L216.431 120.696L264.78 133.924L273.979 125.077Z" fill="#697182"/>
<path d="M264.811 135.667L216.454 122.035L216.431 120.696L264.78 133.924L264.811 135.667Z" fill="#414A5C"/>
<path d="M273.979 125.081L264.78 133.924L264.811 135.667L274.004 126.553L273.979 125.081Z" fill="#202735"/>
<path d="M234.625 101.101L263.148 105.717C263.358 105.743 263.55 105.846 263.686 106.008C263.822 106.169 263.892 106.376 263.883 106.587L262.881 125.598L259.494 129.008L233.91 101.755C233.91 101.664 233.929 101.574 233.966 101.491C234.003 101.407 234.057 101.332 234.124 101.271C234.191 101.209 234.27 101.162 234.357 101.133C234.443 101.104 234.534 101.093 234.625 101.101Z" fill="#202735"/>
<path d="M231.524 100.323L259.872 104.904C260.081 104.929 260.272 105.033 260.407 105.193C260.542 105.354 260.612 105.56 260.601 105.77L259.494 129.005L230.349 121.296L230.822 100.973C230.823 100.883 230.841 100.795 230.878 100.712C230.914 100.63 230.966 100.556 231.032 100.495C231.098 100.434 231.175 100.387 231.26 100.358C231.345 100.328 231.435 100.316 231.524 100.323Z" fill="#414A5C"/>
<g style="mix-blend-mode:multiply">
<path style="mix-blend-mode:multiply" d="M231.524 100.323L259.872 104.904C260.081 104.929 260.272 105.033 260.407 105.193C260.542 105.354 260.612 105.56 260.601 105.77L259.547 125.283L230.404 117.575L230.822 100.973C230.823 100.883 230.841 100.795 230.877 100.712C230.914 100.63 230.966 100.556 231.032 100.495C231.098 100.434 231.175 100.387 231.26 100.358C231.345 100.328 231.435 100.316 231.524 100.323Z" fill="url(#paint23_linear_2_3)"/>
</g>
<path d="M298.557 57.3013C298.17 72.5166 296.978 118.244 296.83 121.329C296.654 125.017 292.654 125.173 292.654 125.173L294.867 52.1434C297.991 52.4132 298.631 54.469 298.557 57.3013Z" fill="#414A5C"/>
<path d="M211.184 44.759L294.293 52.0929C295.679 52.2152 296.631 53.2188 296.592 54.5292L294.524 124.48L208.709 104.535L209.262 46.7448C209.271 45.6519 210.217 44.6735 211.184 44.759Z" fill="#697182"/>
<path d="M212.622 48.0726L291.12 55.5949C292.419 55.7192 293.307 56.6684 293.272 57.9011L291.374 123.75L210.238 104.891L210.783 49.944C210.795 48.9054 211.696 47.9833 212.622 48.0726Z" fill="black"/>
<g style="mix-blend-mode:multiply">
<path style="mix-blend-mode:multiply" d="M251.499 88.5201C242.799 80.8639 241.421 69.3815 231.067 63.6025C223.155 59.1901 216.796 67.5995 209.099 63.7966L209.262 46.7487C209.262 45.6558 210.217 44.6774 211.184 44.7628L294.293 52.0968C295.679 52.2191 296.631 53.2227 296.592 54.5331L295.747 83.1002C295.559 83.2244 277.34 111.258 251.499 88.5201Z" fill="url(#paint24_linear_2_3)"/>
</g>
<path d="M293.878 126.813C293.779 127.077 293.585 127.294 293.334 127.424C293.084 127.553 292.794 127.585 292.522 127.514L208.682 107.441C208.632 107.428 208.584 107.404 208.543 107.372C208.502 107.339 208.468 107.299 208.443 107.253C208.418 107.207 208.402 107.157 208.397 107.105C208.392 107.053 208.397 107 208.413 106.95L208.717 104.535L294.609 124.499L293.878 126.813Z" fill="#414A5C"/>
<path d="M213.7 52.8092L289.783 60.943L289.818 59.5803L213.733 51.9182L213.7 52.8092Z" fill="#414A5C"/>
<path d="M213.642 54.3409L216.987 54.733L217.02 53.8206L213.675 53.4479L213.642 54.3409Z" fill="#414A5C"/>
<path d="M256.99 59.4347L289.721 63.2822L289.756 61.9175L257.027 58.2738L256.99 59.4347Z" fill="#414A5C"/>
<path d="M223.3 55.4745L250.803 58.7067L250.838 57.5847L223.335 54.5233L223.3 55.4745Z" fill="#414A5C"/>
<path d="M271.692 63.3191L289.661 65.6214L289.696 64.2586L271.727 62.067L271.692 63.3191Z" fill="#414A5C"/>
<path d="M213.584 55.8706L229.725 57.9399L229.76 56.948L213.619 54.9796L213.584 55.8706Z" fill="#414A5C"/>
<path d="M235.654 58.6989L261.667 62.034L261.702 60.844L235.689 57.6701L235.654 58.6989Z" fill="#414A5C"/>
<path d="M213.27 60.4092L289.448 72.0876L289.479 70.721L213.314 59.2017L213.27 60.4092Z" fill="#414A5C"/>
<path d="M213.192 62.4824L217.652 63.1812L217.697 61.9641L213.237 61.273L213.192 62.4824Z" fill="#414A5C"/>
<path d="M262.082 70.1503L289.391 74.4345L289.424 73.066L262.121 68.8399L262.082 70.1503Z" fill="#414A5C"/>
<path d="M225.709 64.445L256.128 69.2165L256.167 67.9198L225.752 63.2123L225.709 64.445Z" fill="#414A5C"/>
<path d="M275.146 74.5064L289.337 76.7834L289.37 75.4149L275.18 73.1669L275.146 74.5064Z" fill="#414A5C"/>
<path d="M213.115 64.5576L233.458 67.8208L233.499 66.5687L213.159 63.3482L213.115 64.5576Z" fill="#414A5C"/>
<path d="M240.238 68.9079L266.393 73.1029L266.429 71.7809L240.279 67.6422L240.238 68.9079Z" fill="#414A5C"/>
<path d="M213.022 67.0346L289.271 79.5885L289.302 78.218L213.066 65.8252L213.022 67.0346Z" fill="#414A5C"/>
<path d="M212.942 69.1136L217.406 69.863L217.453 68.6439L212.989 67.9023L212.942 69.1136Z" fill="#414A5C"/>
<path d="M261.879 77.3445L289.217 81.9413L289.248 80.5708L261.915 76.0302L261.879 77.3445Z" fill="#414A5C"/>
<path d="M225.471 71.2199L255.917 76.3408L255.955 75.0402L225.514 69.9833L225.471 71.2199Z" fill="#414A5C"/>
<path d="M274.956 81.8578L289.161 84.296L289.194 82.9236L274.991 80.5145L274.956 81.8578Z" fill="#414A5C"/>
<path d="M212.865 71.1927L233.226 74.6908L233.268 73.4348L212.909 69.9814L212.865 71.1927Z" fill="#414A5C"/>
<path d="M240.013 75.8556L266.191 80.3514L266.228 79.0275L240.054 74.586L240.013 75.8556Z" fill="#414A5C"/>
<path d="M212.778 73.5086L289.101 86.9205L289.134 85.5462L212.824 72.2973L212.778 73.5086Z" fill="#414A5C"/>
<path d="M212.7 75.5935L217.168 76.3933L217.212 75.1703L212.745 74.3783L212.7 75.5935Z" fill="#414A5C"/>
<path d="M261.679 84.3737L289.045 89.2792L289.077 87.9048L261.716 83.0556L261.679 84.3737Z" fill="#414A5C"/>
<path d="M225.236 77.8395L255.711 83.304L255.75 81.9995L225.281 76.601L225.236 77.8395Z" fill="#414A5C"/>
<path d="M274.768 89.0404L288.99 91.6397L289.021 90.2653L274.804 87.6951L274.768 89.0404Z" fill="#414A5C"/>
<path d="M212.621 77.6764L232.999 81.4036L233.042 80.1457L212.667 76.4632L212.621 77.6764Z" fill="#414A5C"/>
<path d="M239.792 82.646L265.997 87.4369L266.032 86.1091L239.833 81.3725L239.792 82.646Z" fill="#414A5C"/>
<path d="M212.543 79.7632L217.013 80.596L217.057 79.3711L212.588 78.548L212.543 79.7632Z" fill="#414A5C"/>
<path d="M261.551 88.8987L288.934 94.0041L288.967 92.6259L261.588 87.5786L261.551 88.8987Z" fill="#414A5C"/>
<path d="M225.087 82.1024L255.579 87.7864L255.618 86.4799L225.132 80.86L225.087 82.1024Z" fill="#414A5C"/>
<path d="M274.647 93.6644L288.88 96.3685L288.911 94.9902L274.682 92.3172L274.647 93.6644Z" fill="#414A5C"/>
<path d="M212.464 81.852L232.854 85.7248L232.896 84.4649L212.51 80.6349L212.464 81.852Z" fill="#414A5C"/>
<path d="M239.651 87.0157L265.869 91.9969L265.906 90.6671L239.692 85.7422L239.651 87.0157Z" fill="#414A5C"/>
<path d="M212.376 84.1776L288.818 99.0047L288.851 97.6245L212.423 82.9604L212.376 84.1776Z" fill="#414A5C"/>
<path d="M212.299 86.2683L216.772 87.1516L216.817 85.9247L212.343 85.0492L212.299 86.2683Z" fill="#414A5C"/>
<path d="M261.349 95.9589L288.764 101.373L288.795 99.9928L261.386 94.635L261.349 95.9589Z" fill="#414A5C"/>
<path d="M224.853 88.7492L255.372 94.7787L255.411 93.4683L224.897 87.5029L224.853 88.7492Z" fill="#414A5C"/>
<path d="M274.46 100.88L288.707 103.745L288.738 102.363L274.496 99.5289L274.46 100.88Z" fill="#414A5C"/>
<path d="M212.219 88.361L232.625 92.4667L232.668 91.2029L212.266 87.1419L212.219 88.361Z" fill="#414A5C"/>
<path d="M239.43 93.8333L265.674 99.1134L265.71 97.7798L239.471 92.556L239.43 93.8333Z" fill="#414A5C"/>
<path d="M212.126 90.8613L288.641 106.581L288.672 105.197L212.171 89.6402L212.126 90.8613Z" fill="#414A5C"/>
<path d="M212.047 92.9578L216.524 93.8935L216.569 92.6627L212.093 91.7368L212.047 92.9578Z" fill="#414A5C"/>
<path d="M261.142 103.221L288.585 108.957L288.618 107.571L261.181 101.893L261.142 103.221Z" fill="#414A5C"/>
<path d="M224.612 95.5843L255.161 101.971L255.199 100.657L224.655 94.3361L224.612 95.5843Z" fill="#414A5C"/>
<path d="M274.268 108.303L288.529 111.335L288.562 109.949L274.302 106.946L274.268 108.303Z" fill="#414A5C"/>
<path d="M211.969 95.0562L232.392 99.3988L232.435 98.1331L212.016 93.8333L211.969 95.0562Z" fill="#414A5C"/>
<path d="M239.201 100.847L265.47 106.432L265.509 105.096L239.242 99.5657L239.201 100.847Z" fill="#414A5C"/>
<path d="M211.88 97.3935L288.467 113.985L288.5 112.597L211.927 96.1705L211.88 97.3935Z" fill="#414A5C"/>
<path d="M211.803 99.4958L216.282 100.482L216.328 99.2474L211.849 98.2709L211.803 99.4958Z" fill="#414A5C"/>
<path d="M260.94 110.318L288.413 116.367L288.446 114.979L260.979 108.987L260.94 110.318Z" fill="#414A5C"/>
<path d="M224.376 102.264L254.951 108.998L254.99 107.682L224.421 101.014L224.376 102.264Z" fill="#414A5C"/>
<path d="M274.08 115.558L288.357 118.753L288.389 117.363L274.114 114.197L274.08 115.558Z" fill="#414A5C"/>
<path d="M211.723 101.598L232.164 106.174L232.206 104.904L211.77 100.373L211.723 101.598Z" fill="#414A5C"/>
<path d="M238.978 107.699L265.272 113.585L265.311 112.246L239.019 106.416L238.978 107.699Z" fill="#414A5C"/>
<path d="M379.218 153.282L322.281 140.411L308.202 147.869L367.661 164.215L379.218 153.282Z" fill="#697182"/>
<path d="M367.661 166.365L308.202 149.523V147.869L367.661 164.215V166.365Z" fill="#414A5C"/>
<path d="M379.218 153.287L367.661 164.215V166.365L379.218 155.104V153.287Z" fill="#202735"/>
<path d="M331.104 123.656L366.252 129.362C366.509 129.392 366.745 129.52 366.91 129.72C367.075 129.92 367.157 130.176 367.139 130.435L365.494 153.924L361.23 158.139L330.218 124.462C330.238 123.981 330.674 123.585 331.104 123.656Z" fill="#202735"/>
<path d="M327.291 122.696L362.222 128.354C362.478 128.385 362.712 128.513 362.877 128.712C363.041 128.911 363.122 129.166 363.104 129.424L361.235 158.135L325.378 148.609L326.4 123.497C326.429 123.022 326.863 122.626 327.291 122.696Z" fill="#414A5C"/>
<g style="mix-blend-mode:multiply">
<path style="mix-blend-mode:multiply" d="M327.291 122.696L362.222 128.354C362.478 128.385 362.712 128.513 362.877 128.712C363.041 128.911 363.122 129.166 363.104 129.424L361.381 153.536L325.535 144.01L326.409 123.497C326.429 123.022 326.863 122.626 327.291 122.696Z" fill="url(#paint25_linear_2_3)"/>
</g>
<path d="M411.048 69.5329C410.234 88.3338 407.784 144.837 407.536 148.652C407.237 153.21 402.291 153.4 402.291 153.4L406.597 63.1599C410.455 63.5015 411.199 66.0329 411.048 69.5329Z" fill="#414A5C"/>
<path d="M303.354 54.0361L405.886 63.0978C407.598 63.2492 408.751 64.4896 408.673 66.1086L404.613 152.544L299.005 127.89L300.936 56.4898C300.972 55.1407 302.168 53.9313 303.354 54.0361Z" fill="#697182"/>
<path d="M305.056 58.1302L401.903 67.4248C403.504 67.5781 404.582 68.7526 404.512 70.2765L400.746 151.641L300.891 128.346L302.75 60.4422C302.783 59.161 303.913 58.0195 305.056 58.1302Z" fill="black"/>
<g style="mix-blend-mode:multiply">
<path style="mix-blend-mode:multiply" d="M352.227 108.105C341.642 98.6456 340.194 84.4552 327.514 77.3153C317.835 71.8624 309.797 82.2538 300.368 77.5541L300.935 56.4898C300.972 55.1407 302.162 53.9313 303.354 54.0361L405.886 63.0978C407.598 63.2492 408.751 64.4896 408.673 66.1086L407.026 101.408C406.785 101.567 383.666 136.206 352.227 108.105Z" fill="url(#paint26_linear_2_3)"/>
</g>
<path d="M403.77 155.427C403.554 156.079 402.8 156.467 402.07 156.294L298.904 131.491C298.843 131.473 298.786 131.443 298.736 131.402C298.687 131.362 298.646 131.312 298.616 131.255C298.585 131.199 298.567 131.137 298.561 131.073C298.555 131.009 298.562 130.945 298.581 130.884L299.009 127.898L404.715 152.567L403.77 155.427Z" fill="#414A5C"/>
<path d="M306.291 63.9849L400.126 74.0327L400.197 72.3497L306.351 62.8842L306.291 63.9849Z" fill="#414A5C"/>
<path d="M306.186 65.8757L310.311 66.361L310.373 65.2331L306.246 64.7731L306.186 65.8757Z" fill="#414A5C"/>
<path d="M359.64 72.1691L400.002 76.9232L400.073 75.2382L359.708 70.7365L359.64 72.1691Z" fill="#414A5C"/>
<path d="M318.095 67.2772L352.01 71.2723L352.077 69.8863L318.159 66.1028L318.095 67.2772Z" fill="#414A5C"/>
<path d="M377.72 76.9698L399.876 79.8157L399.947 78.1307L377.792 75.4226L377.72 76.9698Z" fill="#414A5C"/>
<path d="M306.082 67.7664L325.981 70.323L326.045 69.0981L306.142 66.6638L306.082 67.7664Z" fill="#414A5C"/>
<path d="M333.292 71.2626L365.362 75.3819L365.432 73.9124L333.356 69.9911L333.292 71.2626Z" fill="#414A5C"/>
<path d="M305.595 73.3747L399.473 87.8058L399.54 86.1169L305.676 71.8838L305.595 73.3747Z" fill="#414A5C"/>
<path d="M305.453 75.9351L310.95 76.8009L311.032 75.2965L305.535 74.4423L305.453 75.9351Z" fill="#414A5C"/>
<path d="M365.701 85.4122L399.354 90.704L399.422 89.0151L365.775 83.7932L365.701 85.4122Z" fill="#414A5C"/>
<path d="M320.88 78.3617L358.363 84.2572L358.439 82.6537L320.959 76.8359L320.88 78.3617Z" fill="#414A5C"/>
<path d="M381.75 90.7933L399.236 93.6062L399.304 91.9154L381.821 89.1394L381.75 90.7933Z" fill="#414A5C"/>
<path d="M305.314 78.4995L330.381 82.5314L330.46 80.9843L305.395 77.0048L305.314 78.4995Z" fill="#414A5C"/>
<path d="M338.737 83.8748L370.961 89.0578L371.035 87.4272L338.814 82.3121L338.737 83.8748Z" fill="#414A5C"/>
<path d="M305.145 81.5628L399.093 97.0732L399.162 95.3804L305.227 80.0661L305.145 81.5628Z" fill="#414A5C"/>
<path d="M305.004 84.1291L310.503 85.057L310.584 83.5487L305.087 82.6343L305.004 84.1291Z" fill="#414A5C"/>
<path d="M365.292 94.2992L398.974 99.9811L399.044 98.2865L365.368 92.6763L365.292 94.2992Z" fill="#414A5C"/>
<path d="M320.438 86.7323L357.948 93.0607L358.024 91.4534L320.517 85.2045L320.438 86.7323Z" fill="#414A5C"/>
<path d="M381.354 99.8763L398.856 102.891L398.926 101.194L381.426 98.2166L381.354 99.8763Z" fill="#414A5C"/>
<path d="M304.862 86.6993L329.947 91.0205L330.026 89.4694L304.944 85.2026L304.862 86.6993Z" fill="#414A5C"/>
<path d="M343.859 91.8241L338.386 90.8923L338.308 92.4608L343.859 93.4179V91.8241Z" fill="#414A5C"/>
<path d="M345.879 92.1677V93.7654L352.056 94.8292V93.2199L345.879 92.1677Z" fill="#414A5C"/>
<path d="M354.312 93.6042V95.2174L370.558 98.0166L370.632 96.3802L354.312 93.6042Z" fill="#414A5C"/>
<path d="M304.705 89.5626L398.724 106.133L398.794 104.434L304.787 88.062L304.705 89.5626Z" fill="#414A5C"/>
<path d="M304.564 92.1366L310.066 93.1247L310.148 91.6145L304.647 90.6361L304.564 92.1366Z" fill="#414A5C"/>
<path d="M364.895 102.986L398.604 109.049L398.674 107.348L364.97 101.358L364.895 102.986Z" fill="#414A5C"/>
<path d="M320.008 94.9126L357.545 101.664L357.621 100.051L320.087 93.381L320.008 94.9126Z" fill="#414A5C"/>
<path d="M380.968 108.754L398.486 111.964L398.556 110.266L381.04 107.09L380.968 108.754Z" fill="#414A5C"/>
<path d="M304.422 94.7107L329.52 99.3153L329.602 97.7623L304.504 93.2101L304.422 94.7107Z" fill="#414A5C"/>
<path d="M347.74 101.051L337.967 99.2784L337.888 100.851L347.74 102.658V101.051Z" fill="#414A5C"/>
<path d="M356.768 102.687V104.314L370.165 106.77L370.238 105.131L356.768 102.687Z" fill="#414A5C"/>
<path d="M304.279 97.2887L309.783 98.3195L309.867 96.8053L304.362 95.7881L304.279 97.2887Z" fill="#414A5C"/>
<path d="M364.639 108.579L398.366 114.886L398.438 113.183L364.713 106.948L364.639 108.579Z" fill="#414A5C"/>
<path d="M319.73 100.179L357.285 107.203L357.361 105.587L319.81 98.6436L319.73 100.179Z" fill="#414A5C"/>
<path d="M380.722 114.467L398.248 117.809L398.317 116.105L380.794 112.801L380.722 114.467Z" fill="#414A5C"/>
<path d="M304.137 99.8705L329.247 104.656L329.328 103.099L304.221 98.3661L304.137 99.8705Z" fill="#414A5C"/>
<path d="M337.618 106.251L369.909 112.407L369.985 110.765L337.698 104.677L337.618 106.251Z" fill="#414A5C"/>
<path d="M303.98 102.744L398.116 121.065L398.184 119.36L304.062 101.239L303.98 102.744Z" fill="#414A5C"/>
<path d="M303.839 105.327L309.345 106.42L309.429 104.902L303.92 103.821L303.839 105.327Z" fill="#414A5C"/>
<path d="M364.24 117.301L397.996 123.992L398.065 122.286L364.313 115.666L364.24 117.301Z" fill="#414A5C"/>
<path d="M319.298 108.393L356.878 115.843L356.954 114.224L319.378 106.853L319.298 108.393Z" fill="#414A5C"/>
<path d="M380.333 123.383L397.876 126.924L397.945 125.215L380.406 121.713L380.333 123.383Z" fill="#414A5C"/>
<path d="M303.695 107.913L328.823 112.985L328.902 111.425L303.779 106.407L303.695 107.913Z" fill="#414A5C"/>
<path d="M356.768 116.99V118.627L369.514 121.199L369.587 119.551L356.768 116.99Z" fill="#414A5C"/>
<path d="M347.74 115.187L337.277 113.098L337.198 114.676L347.74 116.804V115.187Z" fill="#414A5C"/>
<path d="M303.525 111.003L397.732 130.425L397.802 128.717L303.608 109.495L303.525 111.003Z" fill="#414A5C"/>
<path d="M303.383 113.595L308.894 114.75L308.977 113.228L303.467 112.085L303.383 113.595Z" fill="#414A5C"/>
<path d="M363.827 126.275L397.614 133.363L397.684 131.65L363.902 124.635L363.827 126.275Z" fill="#414A5C"/>
<path d="M318.852 116.839L356.462 124.73L356.537 123.105L318.934 115.296L318.852 116.839Z" fill="#414A5C"/>
<path d="M379.935 132.555L397.494 136.302L397.563 134.589L380.007 130.88L379.935 132.555Z" fill="#414A5C"/>
<path d="M303.24 116.187L328.383 121.552L328.462 119.987L303.323 114.676L303.24 116.187Z" fill="#414A5C"/>
<path d="M336.765 123.342L369.107 130.243L369.18 128.591L336.845 121.758L336.765 123.342Z" fill="#414A5C"/>
<path d="M303.081 119.075L397.36 139.576L397.43 137.86L303.164 117.563L303.081 119.075Z" fill="#414A5C"/>
<path d="M302.94 121.671L308.454 122.89L308.537 121.366L303.023 120.158L302.94 121.671Z" fill="#414A5C"/>
<path d="M363.426 135.044L397.24 142.519L397.31 140.803L363.499 133.401L363.426 135.044Z" fill="#414A5C"/>
<path d="M318.418 125.093L356.053 133.415L356.128 131.786L318.5 123.546L318.418 125.093Z" fill="#414A5C"/>
<path d="M379.546 141.518L397.12 145.466L397.189 143.75L379.619 139.839L379.546 141.518Z" fill="#414A5C"/>
<path d="M302.796 124.27L327.954 129.923L328.034 128.356L302.88 122.756L302.796 124.27Z" fill="#414A5C"/>
<path d="M336.343 131.81L368.707 139.081L368.783 137.426L336.42 130.222L336.343 131.81Z" fill="#414A5C"/>
<path d="M271.727 153.035C271.33 151.595 271.033 150.129 270.837 148.648C270.589 146.512 271.194 141.929 270.955 138.839C270.717 135.748 272.853 134.883 270.411 132.864C267.968 130.845 268.085 133.726 266.699 133.984C266.699 133.984 266.414 134.89 267.005 135.601C267.005 135.601 266.23 134.436 264.753 132.229C263.276 130.022 261.086 131.676 261.086 131.676C261.086 131.676 259.134 129.896 257.519 131.225C255.905 132.555 255.99 128.119 253.616 128.084C251.242 128.049 251.689 129.995 248.166 130.431C244.642 130.868 245.658 145.998 253.459 150.484C261.26 154.97 271.727 153.035 271.727 153.035Z" fill="#F1A259"/>
<path d="M134.551 216.61L201.949 201.51C202.225 201.366 202.531 201.288 202.842 201.281C203.154 201.273 203.462 201.337 203.745 201.467L270.358 221.689C273.072 223.047 276.053 232.785 267.612 235.813L197.535 257.166C197.263 257.318 196.961 257.405 196.65 257.424C196.339 257.442 196.029 257.39 195.741 257.271L134.003 230.065C128.444 227.802 130.587 217.664 134.551 216.61Z" fill="url(#paint27_linear_2_3)"/>
<path d="M136.433 215.877L202.083 194.267C202.36 194.124 202.666 194.046 202.978 194.04C203.289 194.033 203.598 194.098 203.881 194.23L269.463 220.996C272.176 222.354 273.235 229.063 267.784 231.189L197.667 252.317C197.394 252.467 197.091 252.553 196.781 252.57C196.47 252.586 196.16 252.532 195.872 252.412L133.865 224.847C130.696 223.422 130.863 217.202 136.433 215.877Z" fill="url(#paint28_linear_2_3)"/>
<path d="M146.68 177.067C151.491 166.66 153.212 150.108 153.212 150.108L201.896 168.707C202.185 168.901 300.056 187.925 300.056 195.69C300.056 213.885 238.765 237.976 188.633 237.976C183.012 237.976 160.661 237.587 146.816 223.927C133.404 210.697 141.878 187.474 146.68 177.067Z" fill="#0078EE"/>
<path style="mix-blend-mode:multiply" d="M146.68 177.067C151.491 166.66 153.212 150.108 153.212 150.108L201.896 168.707C202.185 168.901 300.056 187.925 300.056 195.69C300.056 200.9 295.016 206.594 286.668 212.066C279.034 206.048 221.771 190.507 223.946 201.286C227.262 217.721 200.594 231.781 217.051 235.693C207.502 237.143 197.879 237.976 188.633 237.976C183.012 237.976 160.661 237.587 146.816 223.927C133.404 210.697 141.878 187.474 146.68 177.067Z" fill="url(#paint29_linear_2_3)"/>
<path d="M221.265 39.1546C221.265 39.1546 224.265 45.2947 218.358 49.581C218.358 49.581 220.596 58.0331 219.55 63.488C218.503 68.9428 215.652 70.2318 215.497 73.099C215.342 75.9662 216.863 83.1798 205.657 93.9381C205.657 93.9381 200.485 93.744 197.241 92.7734C193.996 91.8028 197.745 106.944 197.745 106.944L172.606 93.2762C172.606 93.2762 177.857 82.5994 180.041 74.6403C182.683 65.0235 175.166 51.5222 185.918 42.1519C196.669 32.7816 211.235 44.0096 221.265 39.1546Z" fill="#F1A259"/>
<path style="mix-blend-mode:multiply" d="M180.029 74.6462C180.388 73.2664 180.583 71.8493 180.611 70.424C181.062 70.4401 181.495 70.6015 181.847 70.8841C186.941 74.9781 195.301 76.8223 195.442 83.8787C195.504 85.5772 191.566 97.2363 192.203 103.953L172.596 93.2762C172.596 93.2762 177.863 82.5916 180.029 74.6462Z" fill="url(#paint30_linear_2_3)"/>
<path d="M182.111 46.7604C178.041 54.1371 180.894 62.9599 180.621 70.424C180.555 70.4104 180.512 70.424 180.444 70.4065C180.495 62.8959 177.911 54.1079 182.111 46.7604Z" fill="#F1A259"/>
<path d="M221.265 39.1546C221.265 39.1546 224.207 45.1957 218.49 49.4762C215.958 48.8433 216.047 54.6864 215.908 57.509C215.695 61.8457 212.21 63.8898 211.062 69.729C211.042 69.837 210.986 69.9349 210.903 70.0063C210.819 70.0776 210.714 70.1182 210.604 70.1212C210.495 70.1241 210.387 70.0893 210.3 70.0225C210.213 69.9557 210.152 69.861 210.126 69.7543C209.066 65.4408 206.862 65.0099 202.342 69.3912C200.102 71.5615 198.435 73.9823 196.345 76.2263C192.209 80.6717 179.708 77.5405 179.274 77.558C179.582 76.6013 179.84 75.6294 180.049 74.6462C182.101 64.8876 175.174 51.528 185.926 42.1577C196.677 32.7874 211.235 44.0097 221.265 39.1546Z" fill="black"/>
<g style="mix-blend-mode:multiply">
<path style="mix-blend-mode:multiply" d="M208.327 65.9126C208.489 66.1665 208.544 66.474 208.482 66.7685C208.419 67.063 208.243 67.3211 207.992 67.4869C207.918 67.5393 205.416 69.3544 204.133 75.4168C204.074 75.6968 203.912 75.9445 203.68 76.1111C203.447 76.2778 203.161 76.3514 202.877 76.3175C202.843 76.3136 202.81 76.3078 202.776 76.3001C202.629 76.2689 202.49 76.2091 202.366 76.1239C202.242 76.0387 202.136 75.9299 202.054 75.8037C201.972 75.6775 201.916 75.5364 201.889 75.3884C201.861 75.2404 201.863 75.0884 201.894 74.9412C203.412 67.7587 206.612 65.6485 206.74 65.5631C206.867 65.4807 207.009 65.4243 207.158 65.3972C207.306 65.3701 207.459 65.3729 207.607 65.4054C207.754 65.4379 207.894 65.4995 208.018 65.5866C208.142 65.6736 208.247 65.7844 208.327 65.9126Z" fill="url(#paint31_linear_2_3)"/>
</g>
<path d="M222.027 160.124C216.718 169.675 223.048 182.819 218.606 202.709C218.606 202.709 164.799 199.891 149.382 182.093C149.382 182.093 148.489 145.274 148.489 133.543C148.489 121.012 146.111 84.5464 181.142 92.1425C210.405 98.4884 238.88 129.81 222.027 160.124Z" fill="white"/>
<path d="M226.19 149.281C224.257 148.467 222.386 147.514 220.592 146.427C214.848 142.978 209.795 138.2 204.773 133.809C199.72 129.383 194.258 125.299 190.077 119.999C186.228 115.115 183.146 109.68 179.155 104.9C175.944 101.06 175.366 95.66 178.058 91.5737C146.254 86.7381 148.489 121.391 148.489 133.543C148.489 145.274 149.382 182.093 149.382 182.093C164.799 199.891 218.606 202.709 218.606 202.709C223.048 182.819 216.718 169.675 222.027 160.124C223.934 156.732 225.337 153.079 226.19 149.281Z" fill="url(#paint32_linear_2_3)"/>
<path style="mix-blend-mode:screen" opacity="0.5" d="M169.177 127.595C169.177 128.011 169.177 128.442 169.177 128.871C169.179 128.334 169.213 127.798 169.278 127.265C169.278 127.265 169.255 127.38 169.177 127.595Z" fill="url(#paint33_linear_2_3)"/>
<path d="M205.486 103.677C212.374 103.349 224.409 110.848 229.603 116.602C234.798 122.356 238.542 122.216 240.378 126.986C242.213 131.755 247.968 133.469 248.381 135.383C248.794 137.297 255.488 135.884 258.109 143.562C258.109 143.562 263.964 142.096 267.309 146.412C270.655 150.727 274.407 146.994 275 159.466C275.448 168.829 269.457 172.267 263.615 172.546C257.773 172.826 247.169 171.288 242.903 167.278C235.759 160.557 203.34 150.517 197.597 133.861C191.855 117.206 190.399 104.399 205.486 103.677Z" fill="white"/>
<path d="M275 159.466C274.694 153.06 273.552 150.925 272.06 149.785C271.612 153.28 269.829 156.5 266.16 158.583C261.051 161.483 255.054 160.157 249.931 158.036C248.985 157.647 248.057 157.211 247.127 156.785L245.314 155.955C245.173 155.894 244.814 155.739 244.097 155.419C240.211 153.693 236.465 151.664 232.576 149.954C225.12 146.674 217.629 144.109 210.764 139.567C204.792 135.607 199.462 130.754 194.958 125.176C195.646 127.91 196.549 130.821 197.597 133.861C203.34 150.517 235.759 160.557 242.903 167.278C247.167 171.288 257.771 172.826 263.615 172.546C269.459 172.267 275.448 168.829 275 159.466Z" fill="url(#paint34_linear_2_3)"/>
<path d="M132.574 147.437L206.488 172.738C207.71 173.154 208.772 173.942 209.524 174.991C210.277 176.041 210.682 177.301 210.684 178.593V218.992C210.684 219.993 210.442 220.979 209.978 221.866C209.515 222.752 208.843 223.513 208.021 224.083C207.2 224.652 206.252 225.014 205.261 225.137C204.269 225.259 203.262 225.139 202.327 224.787L128.405 196.94C127.228 196.497 126.214 195.705 125.498 194.67C124.782 193.634 124.398 192.405 124.399 191.145V153.291C124.4 152.307 124.635 151.338 125.085 150.463C125.535 149.588 126.186 148.834 126.985 148.261C127.785 147.689 128.708 147.316 129.68 147.172C130.652 147.029 131.644 147.119 132.574 147.437Z" fill="url(#paint35_linear_2_3)"/>
<path d="M132.105 149.743L202.445 173.814C203.606 174.213 204.614 174.966 205.327 175.967C206.04 176.968 206.422 178.167 206.42 179.397V217.833C206.42 218.785 206.189 219.722 205.748 220.565C205.307 221.408 204.669 222.132 203.888 222.674C203.107 223.216 202.207 223.56 201.264 223.678C200.321 223.795 199.363 223.682 198.474 223.348L128.132 196.852C127.012 196.43 126.047 195.677 125.366 194.691C124.685 193.706 124.319 192.536 124.319 191.337V155.318C124.319 154.38 124.542 153.457 124.971 152.623C125.399 151.789 126.019 151.07 126.78 150.525C127.542 149.979 128.422 149.624 129.348 149.488C130.274 149.352 131.219 149.439 132.105 149.743Z" fill="url(#paint36_linear_2_3)"/>
<path d="M204.451 219.297V180.861C204.451 179.631 204.068 178.433 203.354 177.433C202.64 176.433 201.631 175.682 200.47 175.285L130.13 151.214C128.712 150.717 127.157 150.79 125.79 151.416C126.559 150.542 127.569 149.917 128.693 149.619C129.817 149.321 131.004 149.364 132.103 149.743L202.443 173.814C203.605 174.213 204.613 174.965 205.326 175.966C206.039 176.967 206.422 178.167 206.42 179.397V217.833C206.422 218.964 206.097 220.07 205.485 221.02C204.874 221.97 204.001 222.723 202.972 223.187C203.927 222.117 204.453 220.732 204.451 219.297Z" fill="white"/>
<path d="M161.841 179.659C163.933 180.123 165.38 181.643 165.38 183.375V264.277C165.38 266.473 163.087 268.226 160.341 268.133C157.75 268.047 155.705 266.347 155.705 264.277V183.375C155.693 180.822 158.75 178.982 161.841 179.659Z" fill="url(#paint37_linear_2_3)"/>
<path d="M160.581 181.523C161.391 181.75 162.103 182.237 162.611 182.908C163.118 183.579 163.393 184.398 163.392 185.24V266.143C163.392 266.663 163.287 267.178 163.083 267.657C162.879 268.135 162.581 268.568 162.206 268.928C161.831 269.288 161.387 269.568 160.901 269.752C160.415 269.936 159.897 270.02 159.378 269.998C158.386 269.954 157.45 269.529 156.764 268.81C156.078 268.092 155.695 267.137 155.695 266.143V185.24C155.695 184.645 155.833 184.058 156.097 183.525C156.361 182.992 156.744 182.527 157.218 182.167C157.691 181.807 158.24 181.562 158.824 181.45C159.408 181.338 160.009 181.363 160.581 181.523Z" fill="url(#paint38_linear_2_3)"/>
<path d="M386.969 173.82H364.47L367.736 194.092C367.854 196.377 371.419 198.182 375.72 198.182C380.021 198.182 383.583 196.379 383.703 194.106L386.969 173.82Z" fill="#0078EF"/>
<path style="mix-blend-mode:multiply" d="M378.66 188.086C375.454 190.114 371.43 192.289 367.591 193.191L367.736 194.092C367.854 196.377 371.419 198.182 375.72 198.182C380.021 198.182 383.583 196.379 383.703 194.106L385.789 181.154C383.898 183.917 381.474 186.274 378.66 188.086Z" fill="url(#paint39_linear_2_3)"/>
<path d="M375.72 170.875C382.102 170.875 387.138 172.191 386.961 173.771C386.8 175.307 381.765 176.518 375.72 176.518C369.674 176.518 364.631 175.307 364.478 173.771C364.302 172.187 369.337 170.875 375.72 170.875Z" fill="#49A3FE"/>
<path d="M375.72 171.411C381.662 171.411 386.368 172.478 386.233 173.763C386.099 175.018 381.387 176.011 375.72 176.011C370.052 176.011 365.339 175.018 365.207 173.763C365.071 172.482 369.777 171.411 375.72 171.411Z" fill="#414A5C"/>
</g>
<defs>
<linearGradient id="paint0_linear_2_3" x1="172.292" y1="5.05497" x2="172.292" y2="125.743" gradientUnits="userSpaceOnUse">
<stop stop-color="white"/>
<stop offset="1" stop-color="#D8DCDF"/>
</linearGradient>
<linearGradient id="paint1_linear_2_3" x1="12117.5" y1="3688.59" x2="12117.5" y2="46081.8" gradientUnits="userSpaceOnUse">
<stop stop-color="white"/>
<stop offset="1" stop-color="#D8DCDF"/>
</linearGradient>
<linearGradient id="paint2_linear_2_3" x1="13450.7" y1="3780.15" x2="13450.7" y2="47249.1" gradientUnits="userSpaceOnUse">
<stop stop-color="white"/>
<stop offset="1" stop-color="#D8DCDF"/>
</linearGradient>
<linearGradient id="paint3_linear_2_3" x1="29085.8" y1="3307.32" x2="29085.8" y2="42098.7" gradientUnits="userSpaceOnUse">
<stop stop-color="white"/>
<stop offset="1" stop-color="#D8DCDF"/>
</linearGradient>
<linearGradient id="paint4_linear_2_3" x1="-82512" y1="32047.3" x2="-80893.5" y2="22844.1" gradientUnits="userSpaceOnUse">
<stop stop-color="white"/>
<stop offset="1" stop-color="#D8DCDF"/>
</linearGradient>
<linearGradient id="paint5_linear_2_3" x1="32441.4" y1="18764.6" x2="32325.7" y2="17675.9" gradientUnits="userSpaceOnUse">
<stop stop-color="white"/>
<stop offset="1" stop-color="#D8DCDF"/>
</linearGradient>
<linearGradient id="paint6_linear_2_3" x1="39923.5" y1="9465.71" x2="35431.9" y2="9465.71" gradientUnits="userSpaceOnUse">
<stop stop-color="white"/>
<stop offset="1" stop-color="#D8DCDF"/>
</linearGradient>
<linearGradient id="paint7_linear_2_3" x1="33579.7" y1="12817.5" x2="29802.2" y2="12817.5" gradientUnits="userSpaceOnUse">
<stop stop-color="white"/>
<stop offset="1" stop-color="#D8DCDF"/>
</linearGradient>
<linearGradient id="paint8_linear_2_3" x1="30689.4" y1="13708.2" x2="34215.5" y2="13708.2" gradientUnits="userSpaceOnUse">
<stop stop-color="white"/>
<stop offset="1" stop-color="#D8DCDF"/>
</linearGradient>
<linearGradient id="paint9_linear_2_3" x1="34939.5" y1="41314.6" x2="45262.3" y2="10523.8" gradientUnits="userSpaceOnUse">
<stop stop-color="white"/>
<stop offset="1" stop-color="#D8DCDF"/>
</linearGradient>
<linearGradient id="paint10_linear_2_3" x1="27466.2" y1="40974.4" x2="37622.5" y2="11069.5" gradientUnits="userSpaceOnUse">
<stop stop-color="white"/>
<stop offset="1" stop-color="#D8DCDF"/>
</linearGradient>
<linearGradient id="paint11_linear_2_3" x1="49811.7" y1="39728.4" x2="60134.6" y2="8936.53" gradientUnits="userSpaceOnUse">
<stop stop-color="white"/>
<stop offset="1" stop-color="#D8DCDF"/>
</linearGradient>
<linearGradient id="paint12_linear_2_3" x1="41955.9" y1="39408.7" x2="52111.8" y2="9502.36" gradientUnits="userSpaceOnUse">
<stop stop-color="white"/>
<stop offset="1" stop-color="#D8DCDF"/>
</linearGradient>
<linearGradient id="paint13_linear_2_3" x1="141.124" y1="222.019" x2="141.124" y2="142.407" gradientUnits="userSpaceOnUse">
<stop stop-color="white"/>
<stop offset="1" stop-color="#C4C8CD"/>
</linearGradient>
<linearGradient id="paint14_linear_2_3" x1="-5226.49" y1="72433.1" x2="-5226.49" y2="62343.7" gradientUnits="userSpaceOnUse">
<stop stop-color="white"/>
<stop offset="1" stop-color="#C4C8CD"/>
</linearGradient>
<linearGradient id="paint15_linear_2_3" x1="-23712.2" y1="114722" x2="-14826.8" y2="109698" gradientUnits="userSpaceOnUse">
<stop stop-color="white"/>
<stop offset="1" stop-color="#C4C8CD"/>
</linearGradient>
<linearGradient id="paint16_linear_2_3" x1="41993.7" y1="178698" x2="67774.5" y2="102734" gradientUnits="userSpaceOnUse">
<stop stop-color="white"/>
<stop offset="1" stop-color="#C4C8CD"/>
</linearGradient>
<linearGradient id="paint17_linear_2_3" x1="278.644" y1="247.691" x2="272.905" y2="218.819" gradientUnits="userSpaceOnUse">
<stop stop-color="white"/>
<stop offset="0.95" stop-color="#0078EE"/>
</linearGradient>
<linearGradient id="paint18_linear_2_3" x1="407.115" y1="165.667" x2="245.336" y2="146.329" gradientUnits="userSpaceOnUse">
<stop stop-color="white"/>
<stop offset="0.95" stop-color="#D8DCDF"/>
</linearGradient>
<linearGradient id="paint19_linear_2_3" x1="279298" y1="81174.2" x2="387068" y2="170470" gradientUnits="userSpaceOnUse">
<stop stop-color="white"/>
<stop offset="1" stop-color="#C4C8CD"/>
</linearGradient>
<linearGradient id="paint20_linear_2_3" x1="136916" y1="78211.3" x2="160065" y2="72285.5" gradientUnits="userSpaceOnUse">
<stop stop-color="white"/>
<stop offset="1" stop-color="#C4C8CD"/>
</linearGradient>
<linearGradient id="paint21_linear_2_3" x1="320.866" y1="181.985" x2="327.395" y2="160.559" gradientUnits="userSpaceOnUse">
<stop stop-color="white"/>
<stop offset="0.31" stop-color="#F9F9FA"/>
<stop offset="0.73" stop-color="#E7E9EB"/>
<stop offset="1" stop-color="#D8DCDF"/>
</linearGradient>
<linearGradient id="paint22_linear_2_3" x1="161804" y1="45238.1" x2="162574" y2="38833.3" gradientUnits="userSpaceOnUse">
<stop stop-color="white"/>
<stop offset="0.31" stop-color="#F9F9FA"/>
<stop offset="0.73" stop-color="#E7E9EB"/>
<stop offset="1" stop-color="#D8DCDF"/>
</linearGradient>
<linearGradient id="paint23_linear_2_3" x1="243.59" y1="120.851" x2="244.829" y2="116.108" gradientUnits="userSpaceOnUse">
<stop stop-color="white"/>
<stop offset="1" stop-color="#46495F"/>
</linearGradient>
<linearGradient id="paint24_linear_2_3" x1="-27796.3" y1="12328.4" x2="-24433.9" y2="1280.95" gradientUnits="userSpaceOnUse">
<stop stop-color="white"/>
<stop offset="1" stop-color="#D8DCDF"/>
</linearGradient>
<linearGradient id="paint25_linear_2_3" x1="66500.2" y1="23651.4" x2="66706.4" y2="22695.3" gradientUnits="userSpaceOnUse">
<stop stop-color="white"/>
<stop offset="1" stop-color="#46495F"/>
</linearGradient>
<linearGradient id="paint26_linear_2_3" x1="18857.8" y1="28349.1" x2="24025.1" y2="11378.2" gradientUnits="userSpaceOnUse">
<stop stop-color="white"/>
<stop offset="1" stop-color="#D8DCDF"/>
</linearGradient>
<linearGradient id="paint27_linear_2_3" x1="11692.8" y1="66538.1" x2="116509" y2="66538.1" gradientUnits="userSpaceOnUse">
<stop stop-color="white"/>
<stop offset="1" stop-color="#C4C8CD"/>
</linearGradient>
<linearGradient id="paint28_linear_2_3" x1="63037.3" y1="74606.8" x2="63037.3" y2="66790.8" gradientUnits="userSpaceOnUse">
<stop stop-color="white"/>
<stop offset="1" stop-color="#C4C8CD"/>
</linearGradient>
<linearGradient id="paint29_linear_2_3" x1="228.613" y1="225.643" x2="211.753" y2="182.767" gradientUnits="userSpaceOnUse">
<stop stop-color="white"/>
<stop offset="1" stop-color="#0057A8"/>
</linearGradient>
<linearGradient id="paint30_linear_2_3" x1="195.952" y1="81.9141" x2="182.844" y2="89.1416" gradientUnits="userSpaceOnUse">
<stop stop-color="white"/>
<stop offset="1" stop-color="#BA734B"/>
</linearGradient>
<linearGradient id="paint31_linear_2_3" x1="1592.98" y1="7403.91" x2="1872.96" y2="7024.33" gradientUnits="userSpaceOnUse">
<stop stop-color="white"/>
<stop offset="1" stop-color="#BA654B"/>
</linearGradient>
<linearGradient id="paint32_linear_2_3" x1="82601.4" y1="57173.1" x2="67776.7" y2="84762.7" gradientUnits="userSpaceOnUse">
<stop stop-color="white"/>
<stop offset="0.95" stop-color="#D8DCDF"/>
</linearGradient>
<linearGradient id="paint33_linear_2_3" x1="191.821" y1="54.842" x2="172.601" y2="117.271" gradientUnits="userSpaceOnUse">
<stop stop-color="white"/>
<stop offset="1"/>
</linearGradient>
<linearGradient id="paint34_linear_2_3" x1="101861" y1="28081.4" x2="98670.9" y2="42477" gradientUnits="userSpaceOnUse">
<stop stop-color="white"/>
<stop offset="0.95" stop-color="#D8DCDF"/>
</linearGradient>
<linearGradient id="paint35_linear_2_3" x1="161.419" y1="210.251" x2="173.473" y2="162.913" gradientUnits="userSpaceOnUse">
<stop stop-color="white"/>
<stop offset="1" stop-color="#697182"/>
</linearGradient>
<linearGradient id="paint36_linear_2_3" x1="54913.6" y1="80339.1" x2="50902" y2="62903.1" gradientUnits="userSpaceOnUse">
<stop stop-color="white"/>
<stop offset="1" stop-color="#C4C8CD"/>
</linearGradient>
<linearGradient id="paint37_linear_2_3" x1="6563.48" y1="108447" x2="6563.48" y2="84242.2" gradientUnits="userSpaceOnUse">
<stop stop-color="white"/>
<stop offset="1" stop-color="#697182"/>
</linearGradient>
<linearGradient id="paint38_linear_2_3" x1="5292.15" y1="109303" x2="5292.15" y2="85097.2" gradientUnits="userSpaceOnUse">
<stop stop-color="white"/>
<stop offset="1" stop-color="#C4C8CD"/>
</linearGradient>
<linearGradient id="paint39_linear_2_3" x1="36296.9" y1="16818.4" x2="35058" y2="16818.4" gradientUnits="userSpaceOnUse">
<stop stop-color="white"/>
<stop offset="1" stop-color="#0057A8"/>
</linearGradient>
<clipPath id="clip0_2_3">
<rect width="450" height="270" fill="white"/>
</clipPath>
</defs>
</svg>
