<?xml version="1.0" encoding="UTF-8"?>
<svg xmlns="http://www.w3.org/2000/svg" xmlns:xlink="http://www.w3.org/1999/xlink" width="250px" height="250px" viewBox="0 0 250 250" version="1.1">
<g id="surface1">
<path style=" stroke:none;fill-rule:nonzero;fill:rgb(0%,0%,0%);fill-opacity:1;" d="M 240.789062 151.457031 L 232.160156 146.476562 C 233.613281 139.277344 234.34375 132.0625 234.34375 125 C 234.34375 117.832031 233.625 110.613281 232.199219 103.503906 L 240.789062 98.542969 C 243.445312 97.003906 245.351562 94.523438 246.144531 91.5625 C 246.941406 88.59375 246.53125 85.496094 244.992188 82.839844 L 221.511719 42.160156 C 219.972656 39.503906 217.492188 37.597656 214.53125 36.804688 C 211.5625 36.007812 208.464844 36.417969 205.808594 37.957031 L 197.214844 42.917969 C 186.355469 33.367188 173.582031 25.976562 159.980469 21.375 L 159.980469 11.496094 C 159.980469 5.15625 154.824219 0 148.484375 0 L 101.515625 0 C 95.175781 0 90.019531 5.15625 90.019531 11.496094 L 90.019531 21.375 C 76.492188 25.957031 63.738281 33.359375 52.839844 42.941406 L 44.191406 37.957031 C 41.535156 36.417969 38.4375 36.007812 35.46875 36.804688 C 32.5 37.597656 30.027344 39.503906 28.488281 42.160156 L 5.007812 82.839844 C 3.46875 85.496094 3.058594 88.59375 3.855469 91.5625 C 4.648438 94.523438 6.554688 97.003906 9.210938 98.542969 L 17.839844 103.523438 C 16.386719 110.722656 15.65625 117.9375 15.65625 125 C 15.65625 132.160156 16.375 139.382812 17.800781 146.496094 L 9.210938 151.457031 C 3.722656 154.628906 1.835938 161.671875 5.007812 167.160156 L 28.488281 207.839844 C 31.660156 213.328125 38.703125 215.214844 44.191406 212.042969 L 52.785156 207.082031 C 63.644531 216.632812 76.417969 224.023438 90.019531 228.625 L 90.019531 238.503906 C 90.019531 244.84375 95.175781 250 101.515625 250 L 148.484375 250 C 154.824219 250 159.980469 244.84375 159.980469 238.503906 L 159.980469 228.625 C 173.507812 224.042969 186.269531 216.640625 197.160156 207.058594 L 205.808594 212.042969 C 211.296875 215.214844 218.339844 213.328125 221.511719 207.839844 L 244.992188 167.160156 C 248.164062 161.671875 246.277344 154.628906 240.789062 151.457031 Z M 238.640625 163.496094 L 215.15625 204.167969 C 214.011719 206.152344 211.457031 206.835938 209.472656 205.691406 L 198.523438 199.363281 C 197.128906 198.5625 195.378906 198.757812 194.191406 199.851562 C 182.996094 210.207031 169.519531 218.019531 155.226562 222.449219 C 153.691406 222.929688 152.644531 224.347656 152.644531 225.957031 L 152.644531 238.503906 C 152.644531 240.792969 150.773438 242.664062 148.484375 242.664062 L 101.515625 242.664062 C 99.226562 242.664062 97.355469 240.792969 97.355469 238.503906 L 97.355469 225.957031 C 97.355469 224.347656 96.308594 222.929688 94.773438 222.453125 C 80.390625 217.996094 66.902344 210.1875 55.753906 199.875 C 55.058594 199.238281 54.167969 198.898438 53.261719 198.898438 C 52.636719 198.898438 52 199.0625 51.433594 199.394531 L 40.527344 205.691406 C 38.535156 206.835938 35.988281 206.152344 34.84375 204.167969 L 11.359375 163.496094 C 10.214844 161.511719 10.898438 158.957031 12.882812 157.8125 L 23.777344 151.523438 C 25.167969 150.714844 25.878906 149.101562 25.519531 147.539062 C 23.847656 140.097656 22.996094 132.511719 22.996094 125 C 22.996094 117.609375 23.859375 110.039062 25.558594 102.488281 C 25.910156 100.917969 25.207031 99.304688 23.816406 98.503906 L 12.882812 92.1875 C 11.921875 91.632812 11.230469 90.734375 10.945312 89.660156 C 10.65625 88.585938 10.808594 87.46875 11.359375 86.503906 L 34.84375 45.832031 C 35.398438 44.871094 36.296875 44.179688 37.371094 43.894531 C 38.445312 43.605469 39.5625 43.757812 40.527344 44.308594 L 51.476562 50.632812 C 52.871094 51.4375 54.628906 51.242188 55.808594 50.148438 C 67.003906 39.792969 80.480469 31.980469 94.773438 27.546875 C 96.308594 27.070312 97.355469 25.652344 97.355469 24.042969 L 97.355469 11.496094 C 97.355469 9.207031 99.226562 7.335938 101.515625 7.335938 L 148.484375 7.335938 C 150.773438 7.335938 152.644531 9.207031 152.644531 11.496094 L 152.644531 24.042969 C 152.644531 25.652344 153.691406 27.070312 155.226562 27.546875 C 169.609375 32.003906 183.097656 39.8125 194.246094 50.125 C 195.421875 51.210938 197.179688 51.40625 198.566406 50.605469 L 209.480469 44.308594 C 210.4375 43.757812 211.554688 43.605469 212.628906 43.894531 C 213.703125 44.179688 214.601562 44.871094 215.15625 45.832031 L 238.640625 86.503906 C 239.191406 87.46875 239.34375 88.585938 239.054688 89.660156 C 238.769531 90.734375 238.078125 91.632812 237.117188 92.1875 L 226.222656 98.476562 C 224.832031 99.285156 224.121094 100.898438 224.480469 102.460938 C 226.160156 109.902344 227.003906 117.488281 227.003906 125 C 227.003906 132.390625 226.144531 139.960938 224.441406 147.511719 C 224.089844 149.082031 224.792969 150.695312 226.183594 151.496094 L 237.117188 157.8125 C 239.101562 158.957031 239.785156 161.511719 238.640625 163.496094 Z M 238.640625 163.496094 "/>
<path style=" stroke:none;fill-rule:nonzero;fill:rgb(0%,0%,0%);fill-opacity:1;" d="M 125 50.878906 C 84.128906 50.878906 50.878906 84.128906 50.878906 125 C 50.878906 165.871094 84.128906 199.121094 125 199.121094 C 165.871094 199.121094 199.121094 165.871094 199.121094 125 C 199.121094 84.128906 165.871094 50.878906 125 50.878906 Z M 125 191.785156 C 88.175781 191.785156 58.214844 161.824219 58.214844 125 C 58.214844 88.175781 88.175781 58.214844 125 58.214844 C 161.824219 58.214844 191.785156 88.175781 191.785156 125 C 191.785156 161.824219 161.824219 191.785156 125 191.785156 Z M 125 191.785156 "/>
<path style=" stroke:none;fill-rule:nonzero;fill:rgb(0%,0%,0%);fill-opacity:1;" d="M 138.699219 105.675781 L 125 105.675781 C 122.976562 105.675781 121.328125 107.316406 121.328125 109.34375 L 121.328125 140.65625 C 121.328125 142.683594 122.976562 144.324219 125 144.324219 C 127.023438 144.324219 128.671875 142.683594 128.671875 140.65625 L 128.671875 132.585938 L 138.699219 132.585938 C 146.121094 132.585938 152.15625 126.550781 152.15625 119.128906 C 152.15625 111.710938 146.121094 105.675781 138.699219 105.675781 Z M 138.699219 125.246094 L 128.671875 125.246094 L 128.671875 113.015625 L 138.699219 113.015625 C 142.070312 113.015625 144.8125 115.753906 144.8125 119.128906 C 144.8125 122.5 142.070312 125.246094 138.699219 125.246094 Z M 138.699219 125.246094 "/>
<path style=" stroke:none;fill-rule:nonzero;fill:rgb(0%,0%,0%);fill-opacity:1;" d="M 104.953125 108.054688 C 104.414062 106.621094 103.046875 105.675781 101.515625 105.675781 L 97.605469 105.675781 C 96.074219 105.675781 94.707031 106.621094 94.167969 108.054688 L 82.429688 139.367188 C 81.710938 141.261719 82.675781 143.378906 84.570312 144.089844 C 86.472656 144.804688 88.585938 143.839844 89.296875 141.945312 L 91.339844 136.496094 L 107.78125 136.496094 L 109.824219 141.945312 C 110.378906 143.417969 111.769531 144.324219 113.253906 144.324219 C 113.683594 144.324219 114.121094 144.25 114.542969 144.089844 C 116.445312 143.378906 117.402344 141.261719 116.691406 139.367188 Z M 94.089844 129.160156 L 99.558594 114.578125 L 105.027344 129.160156 Z M 94.089844 129.160156 "/>
<path style=" stroke:none;fill-rule:nonzero;fill:rgb(0%,0%,0%);fill-opacity:1;" d="M 160.226562 105.675781 C 158.195312 105.675781 156.554688 107.316406 156.554688 109.34375 L 156.554688 140.65625 C 156.554688 142.683594 158.195312 144.324219 160.226562 144.324219 C 162.253906 144.324219 163.894531 142.683594 163.894531 140.65625 L 163.894531 109.34375 C 163.894531 107.316406 162.253906 105.675781 160.226562 105.675781 Z M 160.226562 105.675781 "/>
<path style=" stroke:none;fill-rule:nonzero;fill:rgb(0%,0%,0%);fill-opacity:1;" d="M 151.25 42.707031 C 153.796875 43.523438 156.335938 44.464844 158.796875 45.515625 C 159.265625 45.710938 159.746094 45.808594 160.226562 45.808594 C 161.652344 45.808594 163.015625 44.96875 163.605469 43.574219 C 164.402344 41.707031 163.527344 39.550781 161.667969 38.761719 C 158.996094 37.625 156.242188 36.601562 153.476562 35.714844 C 151.550781 35.105469 149.480469 36.171875 148.867188 38.097656 C 148.25 40.03125 149.316406 42.097656 151.25 42.707031 Z M 151.25 42.707031 "/>
<path style=" stroke:none;fill-rule:nonzero;fill:rgb(0%,0%,0%);fill-opacity:1;" d="M 49.140625 166.296875 C 48.171875 164.511719 45.945312 163.859375 44.167969 164.832031 C 42.390625 165.800781 41.730469 168.027344 42.703125 169.8125 C 44.226562 172.597656 45.910156 175.34375 47.707031 177.96875 C 48.425781 179.003906 49.570312 179.558594 50.734375 179.558594 C 51.453125 179.558594 52.175781 179.347656 52.8125 178.914062 C 54.484375 177.765625 54.910156 175.480469 53.761719 173.816406 C 52.101562 171.394531 50.546875 168.867188 49.140625 166.296875 Z M 49.140625 166.296875 "/>
<path style=" stroke:none;fill-rule:nonzero;fill:rgb(0%,0%,0%);fill-opacity:1;" d="M 117.488281 211.027344 C 97.824219 209.335938 79.160156 200.8125 64.933594 187.039062 C 63.476562 185.625 61.152344 185.664062 59.746094 187.117188 C 58.332031 188.574219 58.371094 190.898438 59.832031 192.304688 C 75.265625 207.253906 95.515625 216.496094 116.855469 218.339844 C 116.960938 218.347656 117.070312 218.351562 117.175781 218.351562 C 119.054688 218.351562 120.664062 216.90625 120.828125 215 C 121.003906 212.980469 119.503906 211.203125 117.488281 211.027344 Z M 117.488281 211.027344 "/>
<path style=" stroke:none;fill-rule:nonzero;fill:rgb(0%,0%,0%);fill-opacity:1;" d="M 177.800781 47.597656 C 176.125 46.453125 173.847656 46.882812 172.703125 48.554688 C 171.554688 50.226562 171.984375 52.511719 173.660156 53.652344 C 190.710938 65.304688 203.039062 82.644531 208.378906 102.46875 C 208.820312 104.109375 210.304688 105.183594 211.921875 105.183594 C 212.238281 105.183594 212.558594 105.144531 212.878906 105.058594 C 214.835938 104.53125 215.996094 102.511719 215.46875 100.558594 C 209.667969 79.042969 196.289062 60.234375 177.800781 47.597656 Z M 177.800781 47.597656 "/>
</g>
</svg>
