<svg width="401" height="252" viewBox="0 0 401 252" fill="none" xmlns="http://www.w3.org/2000/svg">
<g clip-path="url(#clip0_5_2)">
<rect width="400.161" height="252" fill="white"/>
<path d="M3.58482 171.447L9.00417 180.965C9.5957 181.997 10.5704 182.751 11.7155 183.065C12.8606 183.379 14.0831 183.226 15.1161 182.64L18.382 180.772C22.5233 184.784 27.574 187.729 33.1012 189.356L33.0805 193.158C33.0781 194.347 33.5456 195.489 34.381 196.334C35.2164 197.179 36.3517 197.659 37.5389 197.668L48.4763 197.725C49.6629 197.728 50.8024 197.26 51.6462 196.424C52.49 195.588 52.9696 194.452 52.9805 193.264L53.0012 189.404C58.5005 187.814 63.5356 184.919 67.6791 180.963H67.6974L71.0458 182.923C72.0722 183.52 73.2927 183.686 74.4409 183.385C75.5891 183.083 76.5716 182.339 77.1738 181.315L82.7033 171.861C83.2994 170.833 83.4652 169.61 83.1644 168.46C82.8636 167.31 82.1207 166.325 81.0979 165.722L77.7472 163.762L77.7128 163.742C79.0892 158.189 79.1199 152.388 77.8022 146.821C77.8142 146.815 77.8257 146.808 77.8366 146.8L81.208 144.877C82.2373 144.285 82.9908 143.309 83.304 142.161C83.6172 141.014 83.4648 139.79 82.8799 138.755L77.4605 129.237C76.8686 128.205 75.8929 127.45 74.7467 127.136C73.6006 126.823 72.3772 126.977 71.344 127.564L67.9749 129.489H67.9566C63.8521 125.489 58.8445 122.54 53.359 120.892L53.3773 117.033C53.3798 115.844 52.9124 114.703 52.0775 113.858C51.2425 113.013 50.1078 112.534 48.9212 112.525L37.9839 112.468C36.7933 112.465 35.6502 112.935 34.806 113.776C33.9618 114.617 33.4855 115.76 33.4819 116.952L33.4612 120.755C27.9179 122.322 22.837 125.214 18.6549 129.181L15.4051 127.282C14.3788 126.684 13.1582 126.518 12.01 126.82C10.8618 127.121 9.87933 127.865 9.27709 128.89L3.75912 138.341C3.16299 139.369 2.99721 140.592 3.29801 141.742C3.59881 142.893 4.34173 143.877 5.36451 144.48L8.5753 146.364C7.17743 151.978 7.15304 157.847 8.50421 163.473L5.25672 165.325C4.22744 165.917 3.47394 166.894 3.16071 168.041C2.84747 169.188 2.99994 170.412 3.58482 171.447ZM30.8169 155.037C30.8296 152.577 31.5702 150.176 32.945 148.138C34.3197 146.1 36.2669 144.517 38.5403 143.587C40.8137 142.658 43.3111 142.425 45.7168 142.917C48.1225 143.41 50.3283 144.606 52.0554 146.354C53.7824 148.102 54.9531 150.325 55.4194 152.74C55.8857 155.154 55.6266 157.654 54.675 159.921C53.7233 162.189 52.1218 164.122 50.073 165.478C48.0242 166.834 45.6201 167.55 43.1647 167.537C39.8728 167.519 36.7229 166.192 34.4074 163.848C32.0919 161.504 30.8004 158.334 30.8169 155.037Z" fill="#C2CFE0"/>
<path d="M194.097 84.3403L196.033 92.9557C196.246 93.8902 196.819 94.7023 197.628 95.2145C198.437 95.7268 199.415 95.8976 200.349 95.6896L203.305 95.0211C205.55 99.0889 208.746 102.551 212.619 105.111L211.701 108.036C211.419 108.951 211.51 109.941 211.955 110.789C212.399 111.637 213.161 112.275 214.073 112.562L222.487 115.19C223.403 115.477 224.395 115.389 225.246 114.944C226.096 114.499 226.736 113.734 227.024 112.817L227.941 109.849C232.554 109.923 237.118 108.881 241.243 106.811V106.825L243.364 109.123C244.015 109.825 244.917 110.241 245.872 110.279C246.828 110.318 247.76 109.977 248.465 109.329L254.944 103.342C255.645 102.691 256.06 101.787 256.099 100.83C256.137 99.873 255.796 98.9392 255.15 98.2329L253.029 95.9354L253.006 95.9102C255.373 91.9577 256.762 87.4951 257.056 82.8953H257.088L260.139 82.206C261.07 81.9922 261.88 81.4178 262.391 80.6083C262.902 79.7987 263.072 78.8196 262.865 77.8846L260.93 69.2692C260.717 68.3349 260.144 67.5229 259.336 67.0106C258.528 66.4982 257.55 66.3274 256.616 66.5353L253.566 67.2245H253.55C251.328 63.173 248.163 59.7187 244.323 57.1549L245.24 54.1843C245.521 53.2688 245.429 52.2792 244.985 51.4313C244.54 50.5834 243.779 49.9461 242.867 49.6584L234.452 47.0302C233.541 46.7557 232.559 46.8513 231.718 47.2962C230.877 47.7411 230.244 48.4997 229.957 49.408L229.04 52.3326C224.4 52.233 219.805 53.2618 215.648 55.3308L213.584 53.1C212.934 52.3978 212.032 51.9819 211.077 51.9432C210.121 51.9045 209.189 52.246 208.484 52.8932L202.019 58.8734C201.318 59.5255 200.903 60.4287 200.865 61.386C200.827 62.3432 201.168 63.2768 201.814 63.9829L203.851 66.1953C201.447 70.1879 200.043 74.7035 199.757 79.3572L196.824 80.0189C195.892 80.2327 195.082 80.8071 194.571 81.6166C194.061 82.4262 193.89 83.4053 194.097 84.3403ZM218.942 78.1258C219.531 76.2342 220.666 74.56 222.205 73.3149C223.744 72.0698 225.616 71.3097 227.586 71.1307C229.556 70.9517 231.535 71.3619 233.272 72.3093C235.009 73.2568 236.427 74.699 237.346 76.4536C238.265 78.2082 238.644 80.1963 238.436 82.1667C238.227 84.1371 237.439 86.0012 236.173 87.5233C234.906 89.0455 233.218 90.1572 231.321 90.7181C229.424 91.279 227.403 91.2637 225.515 90.6743C222.982 89.8832 220.867 88.1168 219.634 85.7636C218.402 83.4103 218.152 80.663 218.942 78.1258Z" fill="#C2CFE0"/>
<path d="M53.1755 96.9096L59.3677 114.887C60.0449 116.837 61.4649 118.439 63.3175 119.343C65.1702 120.247 67.3047 120.379 69.2547 119.712L75.4262 117.577C81.2099 125.749 88.8861 132.393 97.7963 136.94L96.5441 143.421C96.1596 145.448 96.5916 147.546 97.7459 149.255C98.9001 150.965 100.683 152.147 102.704 152.544L121.341 156.149C123.364 156.535 125.458 156.103 127.165 154.947C128.871 153.792 130.053 152.007 130.45 149.982L131.721 143.405C141.617 142.462 151.139 139.141 159.48 133.724L159.505 133.747L164.592 138.167C166.153 139.515 168.182 140.19 170.238 140.043C172.293 139.897 174.207 138.941 175.562 137.386L188.003 123.018C189.349 121.454 190.022 119.422 189.875 117.363C189.729 115.305 188.776 113.388 187.224 112.031L182.137 107.613L182.082 107.565C186.206 98.5365 188.114 88.6503 187.646 78.7324L187.714 78.7094L194.079 76.5176C196.026 75.8393 197.625 74.4164 198.528 72.56C199.43 70.7036 199.562 68.5648 198.895 66.6111L192.703 48.6338C192.026 46.6835 190.605 45.0812 188.752 44.1771C186.899 43.273 184.764 43.1407 182.813 43.8092L176.449 46.0101L176.417 46.0239C170.691 37.8767 163.086 31.235 154.249 26.6635L155.513 20.0951C155.897 18.0684 155.466 15.9715 154.312 14.2623C153.159 12.553 151.378 11.3702 149.357 10.9721L130.716 7.36511C128.692 6.97918 126.599 7.41104 124.892 8.56638C123.185 9.72172 122.004 11.5067 121.607 13.5314L120.357 20.001C110.399 20.8971 100.806 24.1995 92.4022 29.6249L87.469 25.3471C85.909 23.9993 83.88 23.3248 81.8251 23.4707C79.7702 23.6166 77.8565 24.5712 76.5019 26.1259L64.06 40.494C62.7161 42.0565 62.0436 44.088 62.1892 46.1454C62.3349 48.2027 63.2869 50.1188 64.8375 51.4757L69.7386 55.7305C65.5437 64.8528 63.6136 74.856 64.1128 84.8872L57.9962 87.0031C56.0486 87.6805 54.4479 89.103 53.5445 90.9595C52.6411 92.816 52.5084 94.9553 53.1755 96.9096ZM104.878 77.6663C105.685 73.4742 107.714 69.6157 110.709 66.579C113.705 63.5423 117.532 61.4639 121.707 60.6065C125.882 59.7492 130.217 60.1516 134.164 61.7627C138.111 63.3738 141.492 66.1213 143.88 69.6576C146.267 73.194 147.554 77.3602 147.578 81.6294C147.601 85.8986 146.361 90.0789 144.012 93.6415C141.664 97.2041 138.313 99.989 134.385 101.644C130.456 103.299 126.126 103.749 121.941 102.938C116.335 101.851 111.388 98.5783 108.189 93.8397C104.989 89.1011 103.799 83.2839 104.878 77.6663Z" fill="#5E6C84"/>
<path d="M15.8546 45.5667L17.9692 51.3999C18.2009 52.0317 18.6725 52.5461 19.2813 52.831C19.89 53.116 20.5866 53.1482 21.219 52.9208L23.2211 52.1925C25.1478 54.8287 27.6843 56.9573 30.6128 58.3955L30.2367 60.5138C30.122 61.1783 30.2748 61.8613 30.6617 62.4133C31.0485 62.9653 31.6379 63.3413 32.3008 63.4591L38.399 64.5411C39.0625 64.6566 39.7446 64.5038 40.2958 64.1162C40.847 63.7286 41.2222 63.1378 41.3392 62.4735L41.7199 60.3231C44.9424 59.9631 48.0308 58.8307 50.7238 57.0217L52.4072 58.4369C52.9216 58.8686 53.5853 59.0794 54.254 59.0235C54.9227 58.9676 55.5423 58.6494 55.9781 58.1382L59.9618 53.3871C60.3906 52.8706 60.5982 52.2052 60.5393 51.5361C60.4805 50.8669 60.1599 50.2481 59.6476 49.8146L57.9665 48.3994L57.9481 48.3833C59.2449 45.4214 59.8165 42.1919 59.6154 38.9639H59.6384L61.7025 38.2149C62.0185 38.1011 62.309 37.9257 62.557 37.6988C62.805 37.4719 63.0057 37.198 63.1475 36.893C63.2893 36.5879 63.3694 36.2578 63.3831 35.9216C63.3969 35.5854 63.344 35.2498 63.2276 34.9342L61.1153 29.1011C60.8832 28.4696 60.4114 27.9557 59.8027 27.6713C59.194 27.3868 58.4977 27.3549 57.8656 27.5825L55.8015 28.3337C53.8928 25.7064 51.3802 23.5786 48.4763 22.1307L48.8455 20.001C48.9602 19.3366 48.8073 18.6539 48.4204 18.1023C48.0335 17.5507 47.4442 17.1751 46.7815 17.0579L40.6832 15.9759C40.0214 15.8601 39.3408 16.0114 38.7899 16.3966C38.239 16.7819 37.8627 17.3698 37.7431 18.0321L37.367 20.1526C34.124 20.4962 31.0125 21.6219 28.2988 23.4333L26.6681 22.0548C26.1525 21.6232 25.4872 21.4135 24.8177 21.4716C24.1482 21.5297 23.5289 21.8509 23.095 22.365L19.1182 27.123C18.6879 27.6398 18.4789 28.3061 18.5369 28.9766C18.5949 29.647 18.9151 30.2674 19.4278 30.7024L21.0447 32.0624C19.723 35.0577 19.1446 38.3289 19.359 41.5968L17.3729 42.3181C16.7438 42.5503 16.2315 43.0216 15.9473 43.6298C15.663 44.2381 15.6297 44.934 15.8546 45.5667ZM32.6219 39.0236C32.8644 37.6529 33.5071 36.385 34.4689 35.3802C35.4307 34.3754 36.6683 33.6788 38.0252 33.3785C39.3821 33.0782 40.7975 33.1877 42.0923 33.6931C43.3871 34.1985 44.5033 35.0771 45.2997 36.2179C46.0961 37.3587 46.5369 38.7104 46.5665 40.1022C46.5961 41.494 46.2131 42.8633 45.4659 44.037C44.7187 45.2107 43.6409 46.1362 42.3688 46.6963C41.0966 47.2565 39.6872 47.4262 38.3187 47.1841C36.483 46.8586 34.8516 45.8161 33.7832 44.2857C32.7149 42.7554 32.2971 40.8625 32.6219 39.0236Z" fill="#97A0AF"/>
<path d="M129.597 160.316L129.79 164.911C129.812 165.409 130.03 165.877 130.396 166.214C130.762 166.551 131.247 166.729 131.744 166.71L133.317 166.646C134.095 168.935 135.416 171.001 137.165 172.667L136.429 174.078C136.2 174.52 136.155 175.035 136.304 175.511C136.452 175.986 136.783 176.384 137.223 176.616L141.273 178.753C141.713 178.98 142.225 179.024 142.697 178.875C143.169 178.726 143.564 178.397 143.795 177.958L144.545 176.525C146.898 176.993 149.329 176.886 151.632 176.212L152.504 177.591C152.771 178.01 153.194 178.307 153.679 178.416C154.164 178.525 154.672 178.437 155.093 178.172L158.964 175.711C159.383 175.443 159.679 175.02 159.788 174.534C159.897 174.048 159.809 173.539 159.544 173.117L158.673 171.739C158.673 171.734 158.673 171.728 158.673 171.723C160.25 169.921 161.374 167.767 161.952 165.442H161.969L163.592 165.373C164.089 165.351 164.557 165.132 164.894 164.766C165.231 164.399 165.41 163.913 165.39 163.415L165.2 158.821C165.177 158.323 164.959 157.854 164.593 157.517C164.227 157.18 163.743 157.001 163.246 157.019L161.622 157.086C160.861 154.806 159.562 152.744 157.836 151.074L158.583 149.642C158.813 149.2 158.858 148.685 158.709 148.209C158.561 147.733 158.23 147.336 157.79 147.104L153.724 144.981C153.283 144.754 152.772 144.71 152.299 144.859C151.827 145.008 151.432 145.337 151.201 145.776L150.462 147.186C148.098 146.703 145.652 146.801 143.334 147.474L142.488 146.141C142.221 145.721 141.798 145.425 141.313 145.316C140.828 145.207 140.32 145.295 139.899 145.56L136.018 148.025C135.599 148.293 135.303 148.716 135.195 149.202C135.087 149.688 135.175 150.198 135.441 150.619L136.278 151.94C135.479 152.85 134.793 153.852 134.234 154.926C133.675 155.996 133.247 157.129 132.961 158.301L131.4 158.368C130.903 158.39 130.436 158.606 130.098 158.971C129.761 159.336 129.581 159.819 129.597 160.316ZM142.899 159.455C143.375 158.541 144.112 157.79 145.015 157.296C145.917 156.803 146.946 156.588 147.971 156.68C148.996 156.771 149.97 157.165 150.771 157.812C151.572 158.458 152.164 159.328 152.471 160.312C152.779 161.295 152.789 162.348 152.499 163.337C152.209 164.325 151.633 165.206 150.844 165.867C150.055 166.528 149.088 166.94 148.065 167.05C147.042 167.16 146.01 166.964 145.098 166.487C143.876 165.846 142.958 164.746 142.545 163.427C142.133 162.108 142.26 160.679 142.899 159.455Z" fill="#97A0AF"/>
<g opacity="0.1">
<path opacity="0.1" d="M386.111 209.98C359.345 207.402 332.03 204.893 305.154 206.021C294.81 206.458 284.972 209.327 274.348 209.573C262.644 209.844 250.935 209.245 239.319 207.781C223.691 205.812 207.979 206.198 192.129 205.334C159.308 203.542 126.661 199.4 94.6589 209.159C89.3221 210.786 83.4005 213.357 81.7286 218.689C80.1025 223.879 83.5243 229.579 88.1983 232.347C92.8723 235.116 98.4912 235.653 103.901 236.127L168.367 241.758C188.909 243.552 209.997 246.977 230.572 245.84C247.669 244.896 265.75 253.102 283.119 254.426C321.244 257.33 360.283 249.188 393.721 230.496C398.84 227.633 404.594 222.684 402.819 217.095C401.255 212.162 395.021 210.841 389.886 210.345L386.111 209.98Z" fill="#36353D"/>
</g>
<path d="M310.853 136.758C315.21 138.679 315.151 143.605 311.541 146.437C309.312 148.188 306.298 148.664 303.48 148.367C300.661 148.071 297.975 147.076 295.297 146.146C290.439 144.459 285.586 142.729 280.619 141.36C278.649 140.816 276.688 140.152 274.722 139.642C272.55 139.077 270.619 139.074 268.688 137.721C266.757 136.368 265.248 134.234 262.994 133.39C261.287 132.749 259.393 132.947 257.581 133.161C256.166 133.321 253.602 134.096 252.306 133.643C253.201 132.494 256.205 131.764 257.607 131.311C259.444 130.685 261.374 130.369 263.315 130.378C265.764 130.434 268.131 131.162 270.388 132.076C271.42 132.494 272.509 133.209 273.599 133.388C274.541 133.542 275.52 133.468 276.484 133.666C278.224 134.021 279.974 134.335 281.733 134.606C285.173 135.132 288.646 135.488 292.123 135.672C295.503 135.851 298.887 135.869 302.276 135.725C305.03 135.598 308.31 135.64 310.853 136.758Z" fill="#FEB287"/>
<path d="M352.547 134.872C349.795 141.413 345.734 147.63 339.789 151.483C331.407 156.916 320.593 156.891 310.789 155.011C303.943 153.7 296.397 150.828 293.879 144.317C292.377 140.432 293.304 135.518 296.615 133.002C299.565 130.76 303.567 130.76 307.165 129.928C314.843 128.161 321.338 121.963 323.476 114.368C324.749 109.844 324.554 105.061 324.685 100.365C324.914 91.8414 329.432 76.1661 340.869 79.3388C351.55 82.3002 354.387 91.359 356.091 101.015C358.097 112.325 357.001 124.24 352.547 134.872Z" fill="#F5F6F7"/>
<g opacity="0.1">
<path opacity="0.1" d="M257.632 131.302C259.47 130.675 261.399 130.36 263.34 130.369C265.789 130.424 268.156 131.153 270.413 132.067C271.445 132.485 272.534 133.2 273.624 133.379C274.566 133.533 275.546 133.459 276.509 133.657C278.249 134.012 279.999 134.325 281.759 134.597C285.199 135.123 288.671 135.479 292.148 135.663C292.866 135.701 293.584 135.731 294.301 135.754C294.855 134.678 295.638 133.737 296.595 132.998C299.544 130.755 303.546 130.755 307.144 129.924C314.823 128.157 321.318 121.958 323.455 114.363C324.728 109.839 324.533 105.056 324.664 100.36C324.893 91.8368 329.411 76.1615 340.849 79.3343C351.529 82.2956 354.366 91.3544 356.07 101.01C358.068 112.33 356.971 124.244 352.517 134.868C349.765 141.408 345.704 147.625 339.759 151.478C331.377 156.911 320.563 156.886 310.759 155.007C304.505 153.81 297.673 151.308 294.615 145.923C289.976 144.315 285.341 142.672 280.605 141.365C278.635 140.82 276.674 140.156 274.709 139.646C272.537 139.081 270.606 139.079 268.675 137.726C266.744 136.372 265.234 134.238 262.98 133.395C261.274 132.754 259.379 132.952 257.568 133.165C256.152 133.326 253.588 134.1 252.293 133.648C253.226 132.483 256.226 131.755 257.632 131.302Z" fill="#172B4D"/>
</g>
<path d="M311.619 18.9418C307.977 16.2952 302.711 16.9683 299.959 20.5638C298.638 22.2781 298.013 24.4287 298.207 26.5854C298.436 29.0183 299.633 31.2239 300.588 33.4294C301.558 35.6717 302.303 38.0518 301.654 40.4917C301.085 42.6214 299.682 44.4088 298.338 46.1066C296.994 47.8044 295.572 49.5527 294.732 51.5837C293.799 53.8627 293.551 56.3738 293.765 58.8137C294.251 64.3436 297.09 69.3037 299.705 74.0709C302.106 78.436 304.782 82.8516 309.082 85.5924C313.424 88.3494 318.646 89.4981 323.558 90.7892C329.154 92.2688 334.831 93.6105 340.617 94.047C343.408 94.273 346.214 94.2345 348.997 93.9321C351.82 93.6082 354.522 92.8868 357.221 92.0183C359.996 91.1246 362.799 90.2355 365.746 90.2608C368.516 90.2838 371.303 90.9179 374.069 90.4906C376.189 90.1727 378.121 89.0942 379.506 87.4557C380.864 85.8704 381.74 83.9176 382.394 81.9418C383.13 79.7271 383.6 77.4343 384.08 75.1529C384.678 72.3133 385.21 69.4484 385.41 66.5491C385.784 61.0858 384.71 55.6892 381.802 51.0093C380.426 48.7854 378.532 46.952 377.096 44.7695C376.345 43.6397 375.809 42.3801 375.516 41.0546C375.243 39.8025 375.117 38.5274 374.846 37.2684C374.388 35.1502 373.394 33.411 371.521 32.2715C369.805 31.2262 367.831 30.7345 365.994 29.958C365.046 29.5822 364.158 29.0699 363.358 28.4371C362.549 27.7351 361.89 26.8753 361.423 25.9099C360.478 24.072 359.994 22.0273 359.058 20.1824C358.162 18.418 356.827 17.0763 354.896 16.5066C352.754 15.884 350.476 16.1275 348.318 15.5876C343.621 14.4159 342.956 9.01926 339.899 5.98436C337.019 3.15623 332.617 2.52673 328.774 3.31015C324.148 4.25439 320.389 7.32376 317.307 10.7745C315.632 12.6538 314.123 14.6801 312.623 16.6881C312.509 16.842 312.743 17.0281 312.853 16.8742C315.809 12.8996 318.868 8.7987 323.056 6.04179C326.602 3.7145 331.044 2.61403 335.202 3.72139C337.222 4.23466 339.029 5.37498 340.362 6.97914C341.699 8.6264 342.509 10.6183 343.663 12.3896C344.768 14.0874 346.206 15.3762 348.199 15.8977C350.309 16.4445 352.534 16.2171 354.639 16.7777C359.141 17.9769 359.414 22.9922 361.361 26.4567C362.294 28.1178 363.675 29.2481 365.39 30.0384C367.156 30.8494 369.06 31.3204 370.789 32.221C371.689 32.6645 372.487 33.2904 373.133 34.0589C373.927 35.0468 374.326 36.2598 374.578 37.4867C374.83 38.7135 374.952 39.9104 375.215 41.1097C375.458 42.241 375.879 43.3265 376.461 44.3261C377.724 46.4926 379.564 48.2478 380.979 50.2994C382.489 52.5117 383.621 54.9606 384.327 57.5455C385.848 63.0823 385.07 68.835 383.935 74.3649C383.458 76.6807 382.992 79.0149 382.291 81.2756C381.665 83.2858 380.839 85.2938 379.52 86.9548C378.131 88.7419 376.097 89.9103 373.855 90.208C371.145 90.5756 368.42 89.9667 365.707 89.9461C362.994 89.9254 360.389 90.672 357.824 91.4922C355.086 92.3698 352.368 93.1808 349.509 93.5599C343.952 94.2836 338.312 93.7161 332.835 92.657C330.102 92.1286 327.393 91.4739 324.698 90.7754C322.07 90.0862 319.423 89.4085 316.839 88.6159C314.509 87.9037 312.199 87.0582 310.078 85.8429C307.858 84.5502 305.905 82.8439 304.326 80.8161C302.778 78.8633 301.505 76.7129 300.301 74.5372C298.975 72.1479 297.643 69.7494 296.51 67.2613C294.368 62.5608 292.969 57.0286 294.881 52.0041C296.409 47.9905 300.207 45.3599 301.688 41.3394C302.429 39.3292 302.282 37.2592 301.615 35.2513C300.854 32.9538 299.59 30.8494 298.9 28.5221C298.228 26.2476 298.345 23.9089 299.496 21.809C300.055 20.77 300.837 19.8675 301.785 19.1661C302.733 18.4648 303.824 17.9818 304.979 17.7518C306.094 17.5389 307.241 17.5548 308.349 17.7985C309.457 18.0421 310.505 18.5084 311.429 19.1693C311.584 19.2842 311.77 19.0498 311.614 18.9395L311.619 18.9418Z" fill="#0B2E4E"/>
<path d="M321.859 6.54952C323.803 5.60455 325.9 5.01629 328.051 4.81267C333.326 4.3348 338.672 6.33127 342.553 9.87849C344.277 11.4545 345.284 14.347 347.038 15.6565C349.332 17.3635 351.921 16.8052 353.861 19.5805C355.506 21.9377 356.302 24.8095 357.971 27.1482C360.868 31.2055 365.867 33.0342 370.145 35.589C374.397 38.1627 378.08 41.579 380.969 45.6286C383.857 49.6782 385.889 54.2758 386.942 59.1399C387.687 62.6848 387.806 66.6732 385.694 69.6116C383.898 72.1112 380.619 73.6849 379.977 76.6945C379.724 77.8639 379.931 79.077 379.951 80.2716C380.041 85.9486 375.782 90.9684 370.704 93.4933C364.952 96.3513 359.038 96.2502 352.887 96.7235C346.736 97.1968 341 99.8457 334.957 100.443C329.122 101.017 322.875 100.487 316.99 100.553C315.013 100.576 312.683 100.604 310.88 99.655C308.929 98.6258 308.864 97.0451 307.566 95.6276C305.147 92.9833 299.732 92.7489 299.734 88.0254C299.734 85.6798 301.544 83.7637 302.312 81.549C304.399 75.5274 297.849 71.9595 296.196 66.8455C294.033 60.1508 298.365 53.4492 297.842 46.5615C297.56 42.8351 296.856 39.1385 296.806 35.4006C296.753 31.5501 297.448 27.3251 299.966 24.2696C302.36 21.3702 305.39 21.106 308.55 19.6747C311.495 18.3376 312.105 16.2745 313.825 13.6555C315.812 10.6022 318.589 8.14632 321.859 6.54952Z" fill="#0B2E4E"/>
<g opacity="0.2">
<path opacity="0.2" d="M310.188 27.4239C311.27 23.8767 314.398 21.0623 318.077 20.4811C321.756 19.8998 325.545 21.5609 327.71 24.5682C328.737 25.9949 329.636 27.5824 331.402 28.1706C333.026 28.7105 334.794 28.4003 336.448 28.1706C338.234 27.9225 339.977 27.8719 341.745 28.2809C343.488 28.6889 345.133 29.4351 346.589 30.4772C348.049 31.5083 349.285 32.8243 350.224 34.3461C351.238 36.0117 351.742 37.8956 352.219 39.7703C352.678 41.5898 353.137 43.4462 354.07 45.1003C354.955 46.6465 356.263 47.7814 357.786 48.6728C359.308 49.5642 360.962 50.2397 362.487 51.1448C364.107 52.0876 365.47 53.4166 366.455 55.0137C368.429 58.2669 368.87 62.2598 368.484 65.9862C367.62 74.3098 362.953 82.6403 365.585 91.0948C365.887 92.0634 366.293 92.9963 366.796 93.877C366.89 94.0424 367.163 93.9183 367.067 93.7506C364.801 89.7784 364.819 85.0204 365.59 80.6415C366.351 76.3108 367.842 72.141 368.542 67.8012C369.147 64.0495 369.088 60.1002 367.578 56.5576C366.907 54.9368 365.889 53.4829 364.597 52.2981C363.242 51.0828 361.588 50.2925 359.971 49.4907C358.285 48.6521 356.552 47.763 355.295 46.3179C353.933 44.7534 353.302 42.7363 352.786 40.7651C352.295 38.895 351.891 36.972 351.043 35.2237C350.295 33.7008 349.259 32.3377 347.993 31.2101C345.447 28.9126 342.03 27.5618 338.59 27.6537C336.755 27.7042 334.945 28.2303 333.099 28.1568C332.124 28.1508 331.172 27.8567 330.363 27.3113C329.553 26.7301 328.987 25.8938 328.427 25.0828C327.382 23.555 326.196 22.2662 324.556 21.3702C323.039 20.5352 321.34 20.0877 319.609 20.0676C316.096 20.0492 312.777 22.0158 310.949 24.9978C310.506 25.7236 310.156 26.5024 309.908 27.3159C309.853 27.4997 310.137 27.6077 310.188 27.4239Z" fill="#7BA5D5"/>
<path opacity="0.2" d="M367.023 93.9781C366.991 93.9937 366.956 94.0015 366.92 94.001C366.884 94.0014 366.849 93.992 366.819 93.9738C366.788 93.9556 366.763 93.9292 366.746 93.8976C366.241 93.0146 365.834 92.0795 365.53 91.1086C363.792 85.5258 365.248 79.9224 366.656 74.5028C367.381 71.7068 368.133 68.8166 368.427 65.977C368.734 63.0133 368.633 58.7103 366.406 55.039C365.427 53.4472 364.068 52.1235 362.453 51.1862C361.675 50.7267 360.847 50.3132 360.049 49.918C359.288 49.5412 358.499 49.1507 357.756 48.7142C356.059 47.7194 354.836 46.5454 354.022 45.1233C353.125 43.5542 352.671 41.7691 352.235 40.0437L352.167 39.7795C351.655 37.7715 351.153 35.9772 350.176 34.369C349.241 32.8516 348.01 31.5389 346.557 30.5094C345.109 29.4731 343.473 28.7295 341.741 28.3199C340.19 27.9615 338.512 27.9271 336.466 28.2119L336.067 28.2671C334.512 28.4968 332.906 28.7266 331.4 28.2142C329.852 27.6996 328.955 26.4131 328.086 25.1679C327.955 24.9795 327.82 24.7842 327.684 24.5958C326.613 23.1026 325.152 21.9334 323.461 21.2158C321.771 20.4982 319.916 20.26 318.1 20.5271C314.493 21.0968 311.339 23.8744 310.252 27.4354C310.244 27.4662 310.228 27.4942 310.205 27.5165C310.183 27.5388 310.154 27.5544 310.124 27.5618C310.087 27.5694 310.05 27.5674 310.014 27.5562C309.979 27.5449 309.947 27.5247 309.922 27.4974C309.897 27.4716 309.88 27.4396 309.872 27.4048C309.865 27.3699 309.867 27.3336 309.878 27.2999C310.126 26.4822 310.477 25.6994 310.922 24.9703C311.841 23.4763 313.118 22.2358 314.637 21.361C316.152 20.4794 317.873 20.0156 319.625 20.017C321.364 20.0351 323.071 20.4834 324.595 21.322C326.072 22.1307 327.272 23.2817 328.494 25.0507L328.515 25.0806C329.06 25.8755 329.625 26.6888 330.416 27.2677C331.217 27.809 332.16 28.1001 333.127 28.104C334.148 28.1138 335.168 28.0308 336.175 27.8558C336.982 27.7244 337.796 27.6393 338.612 27.6008C342.094 27.553 345.464 28.8287 348.043 31.171C349.315 32.3012 350.355 33.6692 351.105 35.1984C351.811 36.6573 352.215 38.254 352.607 39.7933C352.687 40.1103 352.767 40.4274 352.85 40.7421C353.332 42.58 353.962 44.6822 355.35 46.2766C356.643 47.763 358.51 48.6912 360.01 49.4356L360.258 49.5596C361.781 50.3132 363.356 51.0943 364.647 52.2522C365.938 53.443 366.952 54.9033 367.617 56.53C368.957 59.6752 369.282 63.4682 368.585 67.8012C368.221 70.0641 367.633 72.3133 367.065 74.4867C366.539 76.4923 365.998 78.5669 365.634 80.6438C364.684 86.0427 365.175 90.3206 367.104 93.7184C367.12 93.7454 367.129 93.7764 367.129 93.808C367.129 93.8397 367.12 93.8707 367.104 93.8976C367.085 93.9315 367.057 93.9594 367.023 93.9781ZM315.293 21.3335C316.166 20.8913 317.102 20.5867 318.068 20.4306C319.902 20.1502 321.778 20.3938 323.48 21.1336C325.186 21.8583 326.662 23.0355 327.749 24.5384C327.884 24.7291 328.021 24.9243 328.152 25.1127C329.01 26.3441 329.897 27.6169 331.416 28.1223C332.9 28.6163 334.493 28.3889 336.037 28.1706L336.436 28.1155C338.5 27.8283 340.188 27.865 341.752 28.2257C343.5 28.6371 345.152 29.3855 346.614 30.429C348.077 31.4682 349.317 32.7918 350.258 34.3208C351.245 35.929 351.749 37.7394 352.261 39.7565L352.329 40.023C352.765 41.7415 353.215 43.5174 354.107 45.0773C354.912 46.4834 356.12 47.6459 357.804 48.6315C358.547 49.068 359.334 49.4562 360.097 49.833C360.9 50.2305 361.728 50.6394 362.51 51.1058C364.138 52.0514 365.508 53.3861 366.496 54.9907C368.739 58.685 368.84 63.0134 368.53 65.9931C368.234 68.8373 367.484 71.7367 366.757 74.5326C365.354 79.9385 363.902 85.5281 365.631 91.0741C365.932 92.0387 366.337 92.9677 366.838 93.8448C366.846 93.8613 366.859 93.875 366.875 93.8843C366.89 93.8937 366.909 93.8983 366.927 93.8976C366.946 93.8977 366.965 93.8931 366.982 93.8843C367 93.8755 367.014 93.8627 367.026 93.8471C367.033 93.835 367.037 93.8211 367.037 93.8069C367.037 93.7927 367.033 93.7788 367.026 93.7667C365.076 90.3481 364.59 86.0496 365.544 80.6254C365.909 78.5462 366.462 76.4694 366.978 74.4614C367.544 72.2904 368.124 70.0435 368.496 67.7851C369.184 63.4705 368.867 59.6982 367.535 56.5691C366.865 54.9534 365.847 53.5059 364.553 52.3303C363.271 51.1816 361.703 50.4028 360.196 49.6515L359.948 49.5275C358.439 48.7785 356.563 47.8457 355.256 46.3455C353.855 44.7373 353.219 42.6237 352.733 40.7697C352.65 40.4549 352.57 40.1379 352.49 39.8208C352.1 38.2793 351.696 36.6872 350.995 35.226C350.25 33.709 349.218 32.3513 347.956 31.2285C345.348 28.8874 341.938 27.5939 338.594 27.6858C337.781 27.7225 336.971 27.8068 336.168 27.9386C335.155 28.1133 334.129 28.1971 333.101 28.189C332.12 28.1801 331.163 27.883 330.349 27.3343C329.542 26.7554 328.973 25.9237 328.423 25.1196L328.402 25.092C327.198 23.3368 326.01 22.195 324.547 21.3955C323.038 20.562 321.346 20.1167 319.623 20.0997C316.183 20.0791 312.873 21.9607 311.007 25.007C310.567 25.7263 310.219 26.4982 309.972 27.3045C309.967 27.3213 309.966 27.3393 309.969 27.3566C309.973 27.374 309.981 27.39 309.993 27.4033C310.007 27.4176 310.024 27.4284 310.042 27.4348C310.061 27.4412 310.081 27.443 310.101 27.44C310.114 27.4361 310.127 27.4284 310.137 27.4179C310.146 27.4074 310.153 27.3943 310.156 27.3803L310.204 27.3964L310.156 27.3803C310.569 26.0813 311.235 24.8777 312.117 23.8395C312.999 22.8013 314.079 21.9494 315.293 21.3335Z" fill="#EAEEF7"/>
</g>
<path d="M335.088 81.9786C335.088 79.9109 335.088 78.6818 336.092 77.2022C336.89 76.0283 337.727 75.339 337.381 73.6458C337.035 71.9526 335.892 70.6293 334.934 69.2417C333.975 67.854 333.14 66.1378 333.558 64.4929C333.822 63.4361 334.553 62.6067 335.129 61.7061C335.704 60.8055 336.142 59.6384 335.739 58.6321C335.099 57.0239 332.831 56.8333 332.028 55.3078C331.388 54.0878 331.952 52.583 331.799 51.2046C331.569 49.2701 329.888 47.7975 328.106 47.299C325.905 46.6878 323.978 47.3954 321.859 47.6321C319.437 47.9032 316.926 47.3495 314.502 47.6321C311.963 47.6596 311.701 47.3426 310.328 45.0383C309.21 43.1527 308.227 41.1904 307.385 39.1661C306.995 38.2471 304.991 34.4908 305.349 33.5879C302.622 40.3444 301.447 47.6283 301.909 54.9011C302.09 57.6718 302.525 60.4862 303.743 62.9559C304.333 64.1437 305.119 65.2533 305.383 66.5698C306.071 69.8505 302.016 71.4564 302.124 74.6107C302.22 77.3975 305.631 78.7576 306.548 81.3812C307.131 83.0423 306.599 84.8756 306.693 86.6401C306.878 90.2263 309.832 93.275 313.153 94.0102C316.474 94.7454 319.969 93.4634 322.595 91.2349C324.091 89.9667 325.577 88.3057 327.501 88.3195C328.648 88.3195 329.758 88.965 330.911 88.9398C332.365 88.9099 333.64 87.7911 334.312 86.4402C334.993 85.0319 335.074 83.5041 335.088 81.9786Z" fill="#061F33"/>
<path d="M335.558 62.8066C337.197 61.7038 339.356 57.4972 341.328 58.4162C343.731 59.535 346.678 67.3762 348.025 69.607L354.602 80.5128C355.802 82.5024 357.061 84.7906 356.627 87.0122C356.146 89.4682 353.836 90.7364 351.758 91.7082L344.055 95.3105C341.511 96.5006 338.835 97.7136 335.996 97.392C333.156 97.0704 332.831 94.8419 332.661 91.7128C332.491 88.5423 332.576 89.521 333.578 86.6378C334.725 83.3433 333.578 76.1133 333.067 72.5017C332.556 68.8902 332.838 64.6307 335.558 62.8066Z" fill="#FFAB7B"/>
<path d="M321.4 46.9222C320.666 46.7215 319.942 46.4918 319.226 46.233C318.29 45.8929 317.222 45.5437 316.387 44.99C315.731 44.509 315.052 44.062 314.35 43.6506C310.33 41.5163 306.991 38.3022 305.115 34.1094C305.429 34.8124 305.062 35.6349 304.996 36.3563C304.766 38.8421 304.915 41.4474 305.709 43.8528C306.56 46.4305 308.326 48.4155 309.674 50.7198C310.988 52.9667 312.16 55.4364 312.087 58.0394C312.064 58.8206 312.032 59.8061 312.734 60.1531C313.078 60.3231 313.486 60.2633 313.857 60.3529C314.871 60.6034 314.791 61.6487 315.029 62.439C315.325 63.4177 315.738 64.4125 316.109 65.3659C317.215 68.174 319.311 70.4772 322.001 71.8378C329.111 75.3942 337.523 71.229 341.534 65.019C342.977 62.7859 344.013 60.3208 344.853 57.8028C345.231 56.6656 345.415 55.2756 345.986 54.2326C346.444 53.3757 347.057 52.8082 347.337 51.818C348.364 48.1605 346.018 44.5673 342.037 45.0682C340.431 45.2703 338.936 45.932 337.411 46.4466C333.503 47.7674 329.348 48.186 325.256 47.6711C323.954 47.5134 322.666 47.2631 321.4 46.9222Z" fill="#FEB287"/>
<path d="M316.777 52.6795C314.63 47.6964 311.786 44.1331 310.426 44.7189C309.066 45.3048 309.711 49.8261 311.86 54.8069C314.009 59.7878 316.85 63.3557 318.21 62.7675C319.57 62.1794 318.926 57.6626 316.777 52.6795ZM317.857 62.1219C316.745 62.6044 314.229 59.2525 312.24 54.6415C310.252 50.0306 309.541 45.9113 310.653 45.4197C311.766 44.928 314.277 48.2891 316.27 52.9001C318.263 57.511 318.967 61.6395 317.857 62.1219Z" fill="#303243"/>
<path d="M311.325 54.166C309.3 49.4999 307.021 46.0101 306.239 46.3547C305.456 46.6993 306.468 50.775 308.491 55.441C310.514 60.1071 312.795 63.5969 313.58 63.2523C314.364 62.9077 313.35 58.8274 311.325 54.166ZM313.268 62.6366C312.626 62.9261 310.585 59.6614 308.711 55.3468C306.837 51.0323 305.833 47.3058 306.475 47.0049C307.117 46.7039 309.158 49.9915 311.034 54.2946C312.91 58.5977 313.91 62.3471 313.268 62.6366Z" fill="#303243"/>
<path d="M340.488 42.5892L316.926 53.6536L316.603 52.9644L340.133 42.286C340.25 42.3848 340.362 42.4836 340.488 42.5892Z" fill="#303243"/>
<path d="M223.914 159.112C232.737 154.288 243.215 152.491 253.299 153.27C266.228 154.269 278.587 159.204 289.854 165.632C297.157 169.798 305.775 174.76 313.389 171.194C321.098 167.585 322.744 157.617 324.341 149.245C326.386 138.521 330.074 127.895 336.794 119.298C343.514 110.701 353.554 104.316 364.443 103.749C386.295 102.6 394.668 123.491 396.258 141.967C398.253 165.145 393.361 191.168 376.603 207.79C345.931 238.217 298.276 235.922 258.428 231.479C247.3 230.238 236.032 228.357 226.028 223.318C216.024 218.28 207.328 209.637 204.592 198.764C201.422 186.167 206.993 172.288 216.896 163.907C219.067 162.075 221.419 160.469 223.914 159.112Z" fill="#6554C0"/>
<path d="M282.488 199.752C281.45 199.877 280.427 200.108 279.435 200.441C276.302 201.504 275.394 207.448 277.532 209.794C280.165 212.684 284.412 213.734 287.799 215.441C293.045 218.092 298.383 220.542 303.812 222.792C314.385 227.181 325.263 230.79 336.36 233.59C341.543 234.898 347.158 236.255 350.593 240.356C351.295 241.195 352.226 242.247 353.254 241.87C354.545 241.397 354.127 239.453 353.38 238.298C349.912 232.954 344.61 229.758 339.803 225.807C337.61 224.001 335.312 222.253 333.489 220.063C331.611 217.812 329.996 215.11 327.155 213.966C323.32 212.422 319.001 214.469 314.882 214.145C312.734 213.977 310.708 213.155 308.892 212.022C307.076 210.889 305.638 209.224 303.846 208.075C299.948 205.564 296.436 202.637 292.019 200.999C289.017 199.889 285.694 199.349 282.488 199.752Z" fill="#FEB287"/>
<path d="M323.031 158.129C326.807 154.273 328.961 149.111 329.049 143.71C329.109 138.325 327.095 133.142 324.868 128.246C322.641 123.351 320.144 118.485 319.134 113.196C319.134 110.625 318.54 108.371 319.123 105.768C320.04 101.725 322.806 100.163 324.857 96.8085C327.235 92.9307 329.12 88.7698 330.466 84.423C331.503 81.0734 332.886 78.4497 336.365 77.2849L344.312 74.6475C346.188 74.0249 348.139 73.3931 350.105 73.6228C352.976 73.9606 353.861 76.0168 354.967 78.2935C355.946 80.3061 362.058 97.8216 362.888 101.346C363.698 104.792 364.035 108.369 364.902 111.788C366.458 122.037 366.779 132.437 365.861 142.764C364.714 155.4 361.503 168.304 353.962 177.852C351.412 181.083 348.171 183.989 344.33 184.515C340.488 185.041 336.723 183.086 333.23 181.184L318.891 173.372C315.681 171.624 306.656 169.991 305.624 165.853C304.789 162.496 309.408 164.245 311.552 164.015C315.681 163.579 319.861 161.237 322.79 158.368C322.873 158.29 322.953 158.209 323.031 158.129Z" fill="#DADADA"/>
<path d="M273.853 189.953C275.296 190.872 276.766 191.756 278.252 192.606C279.3 193.208 280.254 194.068 281.311 194.601C284.277 196.094 287.733 196.981 290.852 198.13C291.253 198.279 291.68 198.447 291.921 198.8C292.038 199.003 292.104 199.231 292.112 199.464C292.12 199.698 292.07 199.93 291.967 200.14C291.757 200.557 291.485 200.939 291.159 201.272C289.459 203.228 287.975 205.362 286.733 207.639C286.176 208.663 285.768 209.757 285.029 210.653C284.341 211.498 283.862 212.684 282.944 213.322C281.729 214.149 280.091 213.593 278.741 213.019C260.054 205.065 241.287 197.077 223.834 186.684C221.391 185.229 218.855 183.598 217.614 181.039C215.972 177.655 217.121 173.412 219.579 170.567C222.038 167.723 225.57 166.044 229.113 164.794C243.309 159.783 259.464 160.608 273.08 167.036C276.202 168.509 279.259 170.319 281.433 173.009C282.809 174.705 283.763 177.207 282.525 179.001C281.217 180.89 278.429 180.747 276.167 180.354C273.906 179.961 271.161 179.7 269.72 181.487C268.601 182.879 268.858 185.002 269.835 186.495C270.812 187.989 272.363 188.988 273.853 189.953Z" fill="#27272D"/>
<path d="M206.775 185.475C207.5 181.296 203.716 174.218 198.978 175.137C195.143 175.874 192.022 178.96 188.802 180.949C183.803 184.039 178.925 187.313 174.167 190.773C164.899 197.506 156.135 204.908 147.944 212.92C144.121 216.663 140.03 220.745 134.741 221.531C133.661 221.692 132.278 221.938 132.062 223.011C131.789 224.362 133.668 225.023 135.044 224.989C141.63 224.816 147.793 221.929 153.85 219.321C159.907 216.713 166.376 214.292 172.913 215.117C175.05 215.388 177.174 216.003 179.323 215.84C181.472 215.677 183.756 214.462 184.279 212.362C184.818 210.2 183.348 208.084 183.011 205.881C182.483 202.435 184.866 199.094 187.827 197.245C190.788 195.396 194.274 194.649 197.588 193.569C201.656 192.221 206.041 189.712 206.775 185.475Z" fill="#FEB287"/>
<path d="M278.002 147.559C287.101 151.135 296.356 154.269 305.768 156.962C321.183 161.373 336.918 164.571 352.829 166.526C354.976 166.788 359.678 166.163 360.024 168.52C360.253 170.129 358.497 172.594 357.751 173.88C355.77 177.301 353.428 180.773 350.765 183.695C346.285 188.656 340.743 192.537 334.553 195.049C320.375 200.733 304.03 198.626 289.955 192.685C282.353 189.468 275.254 185.209 268.468 180.531C265.232 178.3 261.744 176.086 258.788 173.485C257.013 171.921 255.171 168.327 252.738 168.297C250.511 168.268 245.399 173.623 243.493 174.942C239.941 177.385 236.293 179.677 232.549 181.818C226.847 185.082 216.236 192.616 209.552 192.682C204.094 192.728 194.808 180.145 197.079 175.011C198.425 171.964 206.865 168.235 209.63 165.968C213.912 162.46 217.953 158.669 222.178 155.094C230.725 147.86 240.697 141.25 251.878 140.829C260.932 140.487 269.567 144.243 278.002 147.559Z" fill="#36353D"/>
<path d="M314.99 138.141C319.348 140.06 319.288 144.988 315.678 147.818C313.449 149.569 310.433 150.044 307.617 149.748C304.801 149.452 302.113 148.457 299.434 147.529C294.574 145.84 289.724 144.112 284.756 142.741C282.788 142.196 280.825 141.532 278.86 141.022C276.69 140.457 274.759 140.455 272.828 139.102C270.897 137.749 269.388 135.614 267.133 134.773C265.425 134.13 263.533 134.328 261.721 134.532C260.304 134.693 257.742 135.467 256.446 135.015C257.338 133.866 260.345 133.138 261.746 132.685C263.584 132.056 265.513 131.74 267.454 131.75C269.904 131.805 272.271 132.533 274.527 133.448C275.559 133.866 276.649 134.58 277.738 134.76C278.681 134.914 279.66 134.84 280.621 135.038C282.364 135.393 284.115 135.706 285.873 135.977C289.315 136.504 292.778 136.859 296.262 137.043C299.643 137.225 303.032 137.241 306.413 137.096C309.172 136.979 312.447 137.02 314.99 138.141Z" fill="#FEB287"/>
<path d="M356.685 136.251C353.933 142.791 349.869 149.008 343.924 152.861C335.544 158.294 324.73 158.269 314.926 156.39C308.078 155.08 300.535 152.206 298.017 145.695C296.514 141.813 297.441 136.899 300.753 134.381C303.702 132.141 307.704 132.138 311.302 131.309C318.983 129.54 325.478 123.344 327.616 115.746C328.886 111.223 328.691 106.442 328.822 101.732C329.051 93.2084 333.569 77.5331 345.009 80.7058C355.687 83.6672 358.524 92.7282 360.228 102.382C362.235 113.706 361.138 125.62 356.685 136.251Z" fill="#F0F3F5"/>
<path d="M242.419 136.581L293.09 153.858C293.83 154.11 294.639 154.059 295.341 153.714C296.043 153.37 296.579 152.76 296.833 152.02L296.849 151.97C297.102 151.229 297.05 150.418 296.706 149.715C296.362 149.012 295.754 148.474 295.014 148.22L244.337 130.939C243.971 130.813 243.584 130.761 243.197 130.786C242.811 130.81 242.434 130.911 242.086 131.081C241.739 131.252 241.428 131.49 241.173 131.781C240.917 132.072 240.721 132.41 240.596 132.777L240.578 132.827C240.452 133.195 240.4 133.584 240.425 133.972C240.45 134.359 240.55 134.738 240.721 135.087C240.892 135.436 241.13 135.747 241.422 136.004C241.713 136.26 242.052 136.456 242.419 136.581Z" fill="#333333"/>
<path d="M243.215 134.397C243.071 134.463 242.915 134.5 242.756 134.506C242.597 134.512 242.438 134.486 242.289 134.431C242.14 134.376 242.003 134.291 241.887 134.183C241.77 134.074 241.676 133.944 241.61 133.799L214.869 75.1392C214.803 74.9942 214.765 74.8376 214.76 74.6783C214.754 74.519 214.78 74.3601 214.835 74.2108C214.891 74.0614 214.975 73.9245 215.084 73.8079C215.192 73.6912 215.323 73.5971 215.467 73.531C215.612 73.4647 215.768 73.4276 215.927 73.4218C216.086 73.4161 216.245 73.4418 216.394 73.4975C216.543 73.5532 216.68 73.6377 216.796 73.7464C216.913 73.855 217.007 73.9856 217.073 74.1306L243.809 132.791C243.943 133.083 243.955 133.416 243.844 133.717C243.732 134.018 243.506 134.262 243.215 134.397Z" fill="#666666"/>
<path d="M184.804 175.1C184.329 174.641 183.857 174.181 183.38 173.71C180.509 170.851 178.484 167.253 177.529 163.312C176.355 158.421 176.062 153.433 178.775 148.935C181.297 144.779 185.82 142.334 190.639 143.265C192.689 143.684 194.579 144.677 196.088 146.13C197.838 147.791 198.672 149.606 199.503 151.825C199.666 152.264 199.826 152.762 199.62 153.178C199.317 153.785 198.4 153.803 197.854 153.408C197.308 153.013 197.028 152.351 196.707 151.749C195.885 150.198 194.722 148.854 193.305 147.819C191.888 146.784 190.255 146.085 188.529 145.776C185.577 145.273 182.596 146.196 181.19 148.919C179.61 151.971 178.981 155.427 179.385 158.841C180.199 165.504 185.485 171.808 191.496 174.537C193.189 175.307 195.003 175.845 196.558 176.865C197.365 177.393 199.221 179.371 197.679 180.081C196.574 180.596 194.365 180.177 193.221 179.959C189.696 179.286 187.221 177.391 184.804 175.1Z" fill="#5B5758"/>
<path d="M237.924 229.756C237.798 229.377 237.674 228.998 237.532 228.635C237.073 227.465 236.609 226.296 236.14 225.129L233.292 217.945L230.443 210.763C229.544 208.493 228.253 206.113 227.661 203.749C227.184 202.543 226.7 201.311 226.632 200.018C226.515 197.835 227.728 195.609 229.677 194.631C231.627 193.652 234.209 194.054 235.688 195.66C236.803 196.873 237.232 198.582 237.273 200.232C237.369 203.841 235.83 207.354 235.973 210.961C236.115 214.568 237.938 217.922 239.546 221.187C240.234 222.547 240.649 224.017 241.11 225.462C241.286 226.009 241.387 226.707 241.66 227.21C241.986 227.815 242.665 228.359 243.119 228.885C243.387 229.188 243.665 229.515 243.722 229.914C243.741 230.107 243.718 230.302 243.655 230.485C243.591 230.668 243.488 230.835 243.353 230.974C243.08 231.247 242.749 231.457 242.385 231.587C241.39 231.978 240.295 232.033 239.266 231.743C238.406 231.481 238.197 230.551 237.924 229.756Z" fill="#5B5758"/>
<path d="M204.229 208.44C202.819 211.388 202.594 214.77 202.789 218.034C202.899 219.707 203.094 221.37 203.287 223.038C203.379 223.838 203.408 224.665 203.532 225.457C203.64 226.147 204.112 226.634 204.514 227.201C204.885 227.73 205.275 228.368 205.062 228.979C204.881 229.501 204.307 229.786 203.762 229.859C203.317 229.917 202.866 229.874 202.441 229.733C202.016 229.593 201.627 229.358 201.305 229.046C200.007 227.773 200.278 225.182 200.099 223.502L199.397 216.89L197.994 203.68C197.863 202.462 197.764 201.153 198.39 200.098C199.438 198.368 201.865 198.274 203.881 198.382C205.977 198.493 208.092 198.166 210.176 198.515C210.761 198.612 212.6 198.842 212.862 199.492C213.263 200.496 209.628 202.097 208.842 202.77C206.979 204.369 205.294 206.21 204.229 208.44Z" fill="#5B5758"/>
<path d="M247.671 163.027C248.566 170.338 249.433 177.933 247.121 184.924C245.451 189.967 242.234 194.343 238.89 198.458C235.546 202.573 232.01 206.602 229.487 211.285C228.014 214.03 226.93 217.028 226.535 220.123C226.18 222.916 225.772 225.747 227.177 228.341C227.423 228.8 227.714 229.232 227.822 229.735C227.91 230.187 227.849 230.656 227.648 231.071C227.447 231.485 227.117 231.823 226.707 232.033C225.872 232.437 224.554 232.111 223.845 231.527C222.958 230.794 222.9 229.273 222.822 228.228C222.185 219.476 221.548 210.726 220.912 201.975C219.877 203.935 217.394 204.744 215.194 204.503C212.995 204.261 210.981 203.205 208.988 202.242C206.995 201.279 204.86 200.379 202.654 200.507C199.244 200.705 196.462 203.283 194.377 205.996C190.919 210.533 188.549 215.806 187.451 221.407C187.267 222.357 187.12 223.312 187.008 224.272C186.9 225.207 187.251 226.085 187.487 226.992C187.632 227.546 187.76 228.189 187.419 228.649C187.211 228.904 186.913 229.069 186.586 229.108C186.263 229.146 185.935 229.132 185.616 229.069C184.04 228.821 183.552 227.757 183.726 226.28C184.491 220.058 185.255 213.836 186.02 207.613C186.352 204.907 186.687 202.198 187.072 199.499C187.818 194.279 188.758 189.091 189.891 183.936C190.535 181.05 191.246 178.121 192.666 175.537C194.086 172.952 196.308 170.662 199.129 169.779C202.431 168.75 206.009 169.745 209.22 171.057C212.431 172.369 215.575 174.013 219.02 174.335C223.902 174.795 228.943 172.249 231.494 168.052C233.328 165.028 234.032 161.173 236.796 158.965C237.832 158.137 239.08 157.619 240.397 157.471C241.714 157.322 243.046 157.548 244.24 158.125C245.434 158.701 246.441 159.603 247.146 160.727C247.851 161.851 248.225 163.152 248.224 164.479" fill="#6D686A"/>
<path d="M236.241 156.077C235.868 156.177 235.497 156.289 235.129 156.415C235.08 156.266 235.032 156.114 234.989 155.956L236.241 156.077Z" fill="#7B7275"/>
<path d="M244.555 150.676C244.525 150.559 244.497 150.446 244.47 150.325L244.534 150.297L244.555 150.676Z" fill="#595051"/>
<g opacity="0.05">
<path opacity="0.05" d="M240.63 156.353C240.507 156.353 240.381 156.339 240.257 156.33C240.382 156.331 240.506 156.339 240.63 156.353Z" fill="#172B4D"/>
</g>
<g opacity="0.05">
<path opacity="0.05" d="M243.156 157.205H242.658L242.864 157.12L243.156 157.205Z" fill="#172B4D"/>
</g>
<g opacity="0.05">
<path opacity="0.05" d="M253.403 159.427L253.547 159.556L253.139 159.452L253.403 159.427Z" fill="#172B4D"/>
</g>
<g opacity="0.05">
<path opacity="0.05" d="M255.419 159.2C255.527 159.214 255.634 159.235 255.74 159.264C255.632 159.246 255.526 159.225 255.419 159.2Z" fill="#172B4D"/>
</g>
<path d="M241.527 153.527C241.209 153.651 240.876 153.757 240.564 153.881L238.899 154.517L235.571 155.79C235.094 155.972 234.473 156.128 234.097 155.77C233.782 155.466 233.867 154.991 233.959 154.596C234.021 154.366 234.085 154.136 234.154 153.906C235.347 152.85 236.193 151.48 236.906 150.088C237.72 148.514 238.413 146.872 239.429 145.413C239.741 144.967 240.346 144.354 240.988 144.71C241.679 145.117 242.223 145.732 242.543 146.467C242.867 147.214 242.922 148.023 242.972 148.813C243.062 149.702 243.062 150.598 242.972 151.487C242.961 151.815 242.928 152.142 242.874 152.466C242.764 152.838 242.351 153.137 242.009 153.316C241.852 153.394 241.691 153.465 241.527 153.527Z" fill="#6B6465"/>
<path d="M243.213 145.815C243.884 147.893 244.555 149.973 245.227 152.055L243.83 152.613C243.387 152.79 242.596 153.302 242.252 152.788C241.928 152.276 241.718 151.701 241.637 151.101C241.555 150.455 241.528 149.803 241.557 149.153C241.576 148.081 241.593 147.009 241.61 145.937C241.629 145.807 241.621 145.676 241.587 145.55C241.553 145.424 241.494 145.306 241.413 145.204C241.314 145.122 241.195 145.069 241.068 145.049C240.941 145.029 240.812 145.044 240.693 145.091C240.309 145.252 239.972 145.504 239.709 145.826C239.413 146.216 239.158 146.635 238.947 147.076C238.265 148.37 237.511 149.625 236.688 150.835C236.275 151.441 235.84 152.027 235.402 152.617C235.253 152.817 235.191 153.045 235.053 153.249C234.945 153.392 234.825 153.524 234.693 153.644C234.62 153.718 234.395 153.874 234.367 153.957C235.274 150.878 236.704 147.978 238.594 145.385C238.952 144.84 239.415 144.371 239.956 144.007C240.24 143.822 240.564 143.71 240.901 143.679C241.238 143.648 241.577 143.7 241.89 143.83C242.644 144.193 242.965 145.045 243.213 145.815Z" fill="#595051"/>
<path d="M257.185 159.503L257.088 159.59C256.756 159.537 256.441 159.404 256.171 159.204C255.221 158.593 254.288 157.952 253.38 157.277C253.47 156.802 253.671 156.356 253.967 155.974C254.383 155.467 254.843 154.999 255.343 154.575C256.043 153.924 256.696 153.225 257.297 152.482C257.413 152.317 257.558 152.174 257.723 152.059C257.805 152.004 257.901 151.973 257.999 151.969C258.098 151.965 258.195 151.99 258.281 152.039C258.397 152.143 258.477 152.281 258.51 152.434C258.916 153.631 259.035 154.908 258.856 156.16C258.677 157.427 258.09 158.6 257.185 159.503Z" fill="#6B6465"/>
<path d="M258.228 158.765C258.038 159.101 257.799 159.455 257.439 159.563C257.326 159.598 257.206 159.61 257.088 159.597L257.185 159.51C258.097 158.61 258.69 157.436 258.875 156.167C259.054 154.915 258.935 153.638 258.529 152.441C258.496 152.288 258.415 152.15 258.299 152.045C258.214 151.996 258.116 151.972 258.018 151.976C257.919 151.98 257.824 152.011 257.742 152.066C257.576 152.181 257.432 152.324 257.315 152.489C256.714 153.232 256.061 153.931 255.361 154.582C254.861 155.006 254.401 155.474 253.985 155.981C253.689 156.362 253.488 156.809 253.398 157.284C252.31 156.479 251.252 155.631 250.226 154.738C250.356 154.635 250.507 154.562 250.668 154.525C250.829 154.488 250.996 154.487 251.157 154.522L250.715 154.805L257.013 150.851C257.255 150.673 257.534 150.552 257.829 150.497C258.041 150.488 258.252 150.534 258.441 150.63C258.629 150.727 258.79 150.871 258.907 151.048C259.138 151.41 259.289 151.818 259.347 152.243C259.748 154.481 259.352 156.789 258.228 158.765Z" fill="#595051"/>
<path d="M258.889 161.175C259.007 161.463 259.1 161.759 259.168 162.062C259.23 162.333 259.267 162.608 259.281 162.885C259.314 163.651 259.195 164.416 258.93 165.136C258.811 165.467 258.629 165.752 258.625 166.094C258.647 166.498 258.632 166.904 258.581 167.305C258.397 167.126 258.266 166.901 258.201 166.652C257.774 167.509 257.177 168.269 256.448 168.888C256.43 168.701 256.464 168.512 256.547 168.343C256.021 168.99 255.415 169.567 254.744 170.062C254.76 169.855 254.776 169.651 254.79 169.446C254.269 169.999 253.62 170.416 252.9 170.659C252.9 170.482 252.9 170.305 252.919 170.131C252.603 170.34 252.255 170.495 251.889 170.59C251.61 170.666 251.323 170.705 251.034 170.705C251.038 170.606 251.068 170.509 251.121 170.425C250.946 170.714 250.288 170.668 249.995 170.698C249.749 170.721 249.504 170.742 249.261 170.758C246.509 170.946 243.679 170.758 241.073 169.894C240.346 169.656 239.637 169.364 238.952 169.021C237.728 168.401 236.607 167.595 235.629 166.632C235.355 166.342 235.123 166.015 234.941 165.66C234.87 165.782 234.801 165.904 234.732 166.025C234.599 165.816 234.464 165.609 234.331 165.403C234.294 165.481 234.257 165.559 234.218 165.632C233.934 165.573 233.883 165.196 233.854 164.906C233.826 164.629 233.758 164.358 233.652 164.1C233.633 164.042 233.599 163.989 233.553 163.948C233.508 163.92 233.455 163.906 233.402 163.909C233.349 163.913 233.298 163.933 233.257 163.967C233.176 164.036 233.111 164.122 233.067 164.22C232.954 163.669 232.927 163.105 232.987 162.547L232.702 162.756C232.721 162.255 232.551 161.72 232.613 161.233C232.627 161.179 232.627 161.123 232.612 161.07C232.597 161.016 232.568 160.968 232.528 160.93C232.5 160.985 232.471 161.042 232.439 161.095C232.246 159.868 232.143 158.453 232.537 157.261L232.404 157.343C232.505 156.783 232.671 156.238 232.9 155.717C233.039 155.338 233.092 154.667 233.466 154.437C233.395 154.481 233.264 154.517 233.195 154.566C233.7 153.936 234.237 153.339 234.714 152.686C234.439 152.666 234.17 152.6 233.918 152.491L235.906 151.731C235.829 151.677 235.74 151.645 235.646 151.637C235.553 151.629 235.459 151.645 235.374 151.685C236.279 151.218 237.209 150.803 238.161 150.442C238.713 150.231 239.294 150.309 239.876 150.249C240.504 150.186 241.136 150.176 241.766 150.221C243.665 150.352 245.502 150.911 247.286 151.568C250.44 152.725 253.477 154.179 256.357 155.912L256.189 157.585C256.175 157.734 256.864 158.193 256.98 158.274C257.33 158.517 257.718 158.701 258.127 158.818C257.991 158.915 257.834 158.976 257.669 158.997C257.935 159.27 258.245 159.496 258.586 159.666C258.437 159.692 258.293 159.741 258.159 159.811L258.889 161.175Z" fill="#6D686A"/>
<g opacity="0.1">
<path opacity="0.1" d="M253.114 168.036C252.893 168.967 252.475 169.839 251.889 170.595C251.61 170.671 251.323 170.71 251.034 170.71C251.038 170.61 251.068 170.514 251.121 170.43C250.946 170.719 250.288 170.673 249.995 170.703C249.749 170.726 249.504 170.747 249.261 170.763C246.509 170.951 243.679 170.763 241.073 169.899C240.475 169.681 239.889 169.431 239.316 169.152C237.972 168.491 236.73 167.64 235.629 166.625C236.068 166.062 236.554 165.536 237.08 165.054C237.069 165.098 237.069 165.145 237.08 165.189C237.096 165.265 237.137 165.333 237.196 165.382C237.255 165.432 237.329 165.46 237.406 165.462C238.215 164.276 239.195 163.216 240.312 162.315C240.269 162.393 240.256 162.484 240.274 162.57C240.293 162.657 240.342 162.735 240.413 162.788C240.517 162.852 240.637 162.884 240.759 162.881C240.881 162.878 241 162.841 241.101 162.772C241.291 162.638 241.461 162.476 241.603 162.292C242.358 161.5 243.374 161.011 244.463 160.914C245.143 160.825 245.834 160.889 246.486 161.101C247.138 161.313 247.735 161.667 248.233 162.138C248.692 162.568 249.27 162.754 249.804 163.082C250.429 163.467 250.986 163.954 251.451 164.523C251.99 165.184 252.387 165.95 252.618 166.772C252.741 167.121 252.796 167.489 252.781 167.859C252.758 168.072 252.632 168.265 252.662 168.472C252.771 168.45 252.871 168.397 252.951 168.319C253.031 168.242 253.087 168.144 253.114 168.036Z" fill="#F2F2F2"/>
</g>
<g opacity="0.05">
<path opacity="0.05" d="M242.381 159.455L241.147 159.99C241.406 159.967 241.666 160.022 241.894 160.149C240.537 160.382 239.162 160.495 237.784 160.486L238.424 160.098L236.344 159.792C236.399 159.689 236.482 159.603 236.583 159.544C236.683 159.485 236.798 159.455 236.915 159.457C236.277 159.024 235.537 158.766 234.769 158.708L235.133 159.234L234.693 159.264L235.278 159.779C234.624 159.395 233.851 159.271 233.111 159.432C233.112 159.564 233.158 159.693 233.242 159.796C233.325 159.899 233.44 159.972 233.569 160.001L232.652 160.321L233.507 160.852L232.452 161.008V160.978C232.052 158.95 232.302 156.847 233.166 154.97C233.431 155.182 233.723 155.359 234.032 155.499L233.723 154.952L234.606 155.289L234.289 154.699C235.2 155.142 236.064 155.675 236.869 156.289C236.869 156.167 236.885 156.045 236.892 155.924C237.186 156.603 237.718 157.15 238.388 157.463L237.422 157.444C238.236 157.707 239.077 157.874 239.929 157.943C239.581 157.938 239.234 157.985 238.899 158.083L241.135 158.772L240.761 158.818L242.44 158.848L241.819 159.11L242.381 159.455Z" fill="#172B4D"/>
</g>
<g opacity="0.05">
<path opacity="0.05" d="M259.288 163.131C259.239 162.986 259.184 162.839 259.127 162.694C258.695 162.788 258.25 162.795 257.815 162.715L258.733 163.312C257.823 163.021 256.946 162.636 256.116 162.163C256.448 162.381 256.75 162.639 257.017 162.933L254.552 162.117C254.662 162.212 254.781 162.303 254.887 162.395L253.281 161.359L253.74 161.982L253.052 161.931C253.358 162.346 253.663 162.764 253.969 163.183C253.741 163.002 253.467 162.886 253.178 162.848C254.353 163.909 255.606 164.879 256.928 165.75L256.508 165.003L258.545 166.007L258.639 166.053C258.641 165.991 258.633 165.929 258.616 165.869C258.552 165.676 258.426 165.51 258.258 165.396C258.443 165.401 258.627 165.417 258.811 165.444L259.288 163.131Z" fill="#172B4D"/>
</g>
<path d="M247.875 157.915L241.092 155.618C240.862 155.974 241.374 156.537 242.238 156.996C243.2 157.48 244.233 157.805 245.298 157.959C246.173 158.105 247.066 158.094 247.937 157.927L247.875 157.915Z" fill="#686165"/>
<path d="M249.408 158.281C249.508 158.72 250.325 159.282 251.327 159.671C252.314 160.044 253.357 160.249 254.412 160.277C255.329 160.277 256.017 160.105 256.428 159.818H256.384L253.873 159.262L252.341 158.922L249.408 158.281Z" fill="#686165"/>
<path d="M248.967 154.2C249.561 154.208 250.142 154.376 250.648 154.688C250.906 154.853 251.128 155.07 251.298 155.325C251.469 155.58 251.586 155.867 251.641 156.169C251.832 157.318 251.063 158.497 251.183 159.659C251.281 160.59 251.933 161.318 252.153 162.218C252.316 163.038 252.219 163.888 251.875 164.649C251.534 165.407 251.113 166.126 250.621 166.795C250.38 165.973 250.097 165.164 249.772 164.371C249.649 164 249.444 163.663 249.171 163.383C248.632 162.908 247.811 162.995 247.135 163.282C246.458 163.569 245.839 164.024 245.144 164.245C244.449 164.465 243.605 164.387 243.206 163.772C242.935 163.353 242.931 162.793 242.949 162.269C242.968 161.745 243 161.279 243.046 160.783C243.059 160.456 243.128 160.134 243.25 159.831C243.589 159.11 244.396 158.825 245.142 158.731C245.838 158.639 246.543 158.65 247.236 158.765C247.343 158.799 247.457 158.81 247.569 158.797C247.682 158.784 247.79 158.747 247.887 158.69C248.116 158.508 248.116 158.161 248.1 157.869C248.069 156.839 248.197 155.81 248.479 154.818C248.516 154.639 248.599 154.472 248.72 154.334C248.747 154.301 248.781 154.274 248.82 154.254C248.858 154.235 248.9 154.224 248.943 154.221C248.986 154.219 249.029 154.225 249.069 154.239C249.11 154.254 249.147 154.277 249.178 154.306L248.967 154.2Z" fill="#B19C9B"/>
<path d="M249.855 161.901C249.778 161.973 249.684 162.024 249.582 162.049C249.48 162.073 249.374 162.071 249.273 162.041C249.172 162.012 249.081 161.956 249.008 161.881C248.935 161.805 248.883 161.712 248.857 161.61C248.809 161.442 248.802 161.221 248.651 161.15C248.58 161.131 248.506 161.123 248.433 161.125C248.357 161.114 248.285 161.081 248.227 161.031C248.169 160.98 248.127 160.914 248.105 160.84C248.082 160.761 248.08 160.678 248.098 160.598C248.115 160.517 248.152 160.443 248.206 160.381C248.259 160.324 248.324 160.279 248.396 160.248C248.468 160.218 248.545 160.203 248.623 160.204C248.774 160.209 248.923 160.236 249.066 160.284L249.768 160.489C249.974 160.538 250.173 160.615 250.359 160.718C250.551 160.827 250.695 161.003 250.763 161.212C250.797 161.323 250.801 161.44 250.774 161.553C250.747 161.665 250.69 161.768 250.609 161.851C250.571 161.889 250.525 161.917 250.474 161.936C250.424 161.954 250.37 161.961 250.316 161.956C250.263 161.952 250.211 161.936 250.164 161.909C250.117 161.883 250.077 161.846 250.045 161.803L249.855 161.901Z" fill="#230A20"/>
<circle opacity="0.52" cx="126.5" cy="82.5" r="38.5" fill="white"/>
<circle opacity="0.69" cx="126.5" cy="81.5" r="37.5" stroke="white" stroke-width="2"/>
<path d="M113 87L115.862 75.21H119.228L122 87H120.02L119.462 84.75H115.466L114.944 87H113ZM119.066 83.076L117.734 76.884H117.338L115.844 83.076H119.066ZM126.644 83.22H124.862V87H122.99V75.21H126.698C128.066 75.21 129.062 75.528 129.686 76.164C130.322 76.788 130.64 77.772 130.64 79.116C130.64 81.852 129.308 83.22 126.644 83.22ZM126.41 76.866H124.862V81.51H126.41C127.214 81.51 127.802 81.324 128.174 80.952C128.546 80.568 128.732 79.956 128.732 79.116C128.732 78.276 128.54 77.694 128.156 77.37C127.784 77.034 127.202 76.866 126.41 76.866ZM132.656 87V85.326H134.978V76.884H132.656V75.21H139.01V76.884H136.85V85.326H139.01V87H132.656Z" fill="#5E6C84"/>
</g>
<defs>
<clipPath id="clip0_5_2">
<rect width="400.161" height="252" fill="white"/>
</clipPath>
</defs>
</svg>
