<svg width="350" height="212" viewBox="0 0 350 212" fill="none" xmlns="http://www.w3.org/2000/svg">
<rect width="350" height="211" fill="white"/>
<path d="M72.6343 181.961L64.814 183.902C63.3504 184.265 61.7933 183.865 60.7196 182.813C52.2022 174.469 45.2793 148.062 45.2793 148.062L67.2606 142.607C67.2606 142.607 66.2403 161.559 75.2651 175.43C76.881 177.915 75.5189 181.244 72.6317 181.961H72.6343Z" fill="#5E6C84"/>
<path d="M59.0322 109.821L37.0502 115.276L46.6718 153.577L68.6538 148.121L59.0322 109.821Z" fill="#5E6C84"/>
<path d="M46.6655 153.855C46.6147 153.855 46.5667 153.842 46.5239 153.815C46.4598 153.778 46.4144 153.717 46.3984 153.645L36.7779 115.345C36.7592 115.273 36.7726 115.199 36.81 115.135C36.8474 115.072 36.9088 115.026 36.9809 115.011L58.9648 109.555C59.1144 109.52 59.264 109.608 59.3014 109.757L68.9218 148.057C68.9592 148.206 68.8684 148.354 68.7189 148.392L46.7376 153.847C46.7162 153.852 46.6922 153.855 46.6708 153.855H46.6655ZM37.3815 115.48L46.8658 153.244L68.3102 147.924L58.826 110.16L37.3815 115.48Z" fill="#97A0AF"/>
<path d="M45.8268 150.239L37.8863 118.621C30.2583 120.514 25.619 128.194 27.5233 135.774L28.5703 139.939C30.4746 147.521 38.2015 152.132 45.8268 150.239Z" fill="#CCD3DD"/>
<path d="M42.3814 150.919C35.8859 150.919 29.9619 146.541 28.3193 140.002L27.2723 135.837C25.3359 128.13 30.0687 120.296 37.8222 118.371C37.889 118.355 37.9585 118.366 38.0172 118.401C38.076 118.435 38.1187 118.493 38.1347 118.56L46.0752 150.178C46.0913 150.244 46.0806 150.314 46.0458 150.372C46.0111 150.43 45.9524 150.473 45.8856 150.489C44.7131 150.781 43.5352 150.919 42.3761 150.919H42.3814ZM37.6994 118.934C30.3732 120.893 25.9315 128.364 27.7771 135.712L28.8241 139.878C30.6696 147.226 38.1214 151.742 45.517 150.051L37.7021 118.937L37.6994 118.934Z" fill="#97A0AF"/>
<path d="M39.7292 134.895L28.0308 137.796L28.5677 139.939C28.6104 140.106 28.6585 140.271 28.7066 140.435L40.3916 137.536L39.7266 134.892L39.7292 134.895Z" fill="#A5ADBA"/>
<path d="M41.1315 140.472L29.8711 143.268C30.3599 144.165 30.9421 144.993 31.5991 145.75L41.8206 143.215L41.1315 140.475V140.472Z" fill="#A5ADBA"/>
<path d="M38.2549 129.02L27.1121 131.786C27.0773 132.665 27.1254 133.557 27.2616 134.454L38.8933 131.568L38.2549 129.022V129.02Z" fill="#A5ADBA"/>
<path d="M59.8676 113.166L63.8391 128.975L67.8107 144.784C67.8107 144.784 91.1194 141.943 122.737 149.185L106.405 84.157C84.744 104.123 59.8676 113.166 59.8676 113.166Z" fill="#CCD3DD"/>
<path d="M122.737 149.44C122.718 149.44 122.697 149.44 122.678 149.432C91.472 142.286 68.0725 145.01 67.8401 145.036C67.7119 145.052 67.589 144.97 67.557 144.842L59.6165 113.224C59.5844 113.097 59.6539 112.967 59.7794 112.921C60.0278 112.831 84.8589 103.664 106.229 83.9659C106.295 83.9048 106.391 83.8809 106.48 83.9075C106.568 83.934 106.634 84.003 106.656 84.0906L122.988 149.119C123.01 149.207 122.986 149.297 122.921 149.361C122.873 149.411 122.807 149.438 122.737 149.438V149.44ZM79.9792 143.993C89.8107 143.993 104.856 144.866 122.382 148.84L106.258 84.6402C85.9513 103.229 62.6693 112.377 60.1747 113.325L68.0057 144.502C69.0126 144.396 73.2913 143.993 79.9792 143.993Z" fill="#97A0AF"/>
<path d="M106.183 83.2755L122.823 149.53C123.405 151.843 125.761 153.25 128.09 152.674C130.416 152.095 131.832 149.753 131.252 147.439L122.932 114.312L114.612 81.1862C114.03 78.8739 111.674 77.4669 109.345 78.043C107.019 78.6217 105.604 80.9632 106.183 83.2782V83.2755Z" fill="#5E6C84"/>
<path d="M127.029 153.077C126.201 153.077 125.387 152.854 124.66 152.421C123.603 151.79 122.855 150.786 122.556 149.597L105.916 83.3418C105.617 82.1525 105.801 80.918 106.437 79.8641C107.073 78.8128 108.082 78.0695 109.279 77.7721C110.475 77.4748 111.717 77.658 112.778 78.2898C113.838 78.9216 114.583 79.9251 114.882 81.1145L131.522 147.367C131.821 148.556 131.637 149.791 131.001 150.845C130.365 151.896 129.356 152.639 128.159 152.937C127.785 153.029 127.406 153.075 127.032 153.075L127.029 153.077ZM106.453 83.2064L123.092 149.461C123.354 150.51 124.014 151.391 124.943 151.949C125.875 152.504 126.968 152.666 128.02 152.406C129.075 152.145 129.962 151.49 130.52 150.566C131.078 149.639 131.241 148.553 130.98 147.508L114.34 81.2525C114.078 80.2039 113.419 79.3225 112.489 78.7677C111.557 78.2128 110.465 78.0482 109.412 78.311C108.357 78.5712 107.47 79.2269 106.912 80.1508C106.354 81.0773 106.191 82.1631 106.453 83.2091V83.2064Z" fill="#97A0AF"/>
<path d="M65.6046 162.868L72.1029 160.229C73.1712 159.796 73.684 158.583 73.246 157.521L72.4875 155.676C72.0521 154.614 70.8315 154.105 69.7632 154.54L63.265 157.179C61.6838 157.821 60.9253 159.616 61.5716 161.188C62.218 162.759 64.0235 163.513 65.6046 162.871V162.868Z" fill="#FFC25F"/>
<path d="M64.4401 163.362C63.1153 163.362 61.8574 162.579 61.3258 161.286C60.9866 160.46 60.992 159.552 61.3392 158.729C61.6864 157.906 62.3354 157.269 63.1661 156.932L69.6643 154.293C70.2465 154.057 70.8876 154.06 71.4671 154.301C72.0467 154.543 72.4981 154.997 72.7358 155.575L73.4943 157.42C73.732 157.999 73.7294 158.636 73.4863 159.212C73.2433 159.788 72.7865 160.237 72.2043 160.473L65.7061 163.112C65.2921 163.28 64.8621 163.359 64.4401 163.359V163.362ZM70.5537 154.649C70.3213 154.649 70.0863 154.694 69.8646 154.784L63.3664 157.423C62.6666 157.707 62.1218 158.243 61.8306 158.936C61.5395 159.629 61.5342 160.391 61.82 161.087C62.4102 162.52 64.0608 163.21 65.5031 162.624L72.0013 159.985C72.4527 159.802 72.8052 159.457 72.9922 159.011C73.1818 158.565 73.1818 158.071 73.0002 157.625L72.2417 155.78C72.0574 155.331 71.7102 154.981 71.2615 154.795C71.0345 154.699 70.7941 154.652 70.5564 154.652L70.5537 154.649Z" fill="#FF9736"/>
<path d="M67.3005 168.852L75.0701 165.698C76.1811 165.247 76.7126 163.986 76.2613 162.881L75.5668 161.188C75.1128 160.083 73.8441 159.555 72.733 160.004L64.9635 163.157C63.3823 163.8 62.6238 165.594 63.2702 167.166C63.9165 168.738 65.722 169.492 67.3032 168.849L67.3005 168.852Z" fill="#FFC25F"/>
<path d="M66.136 169.346C64.8113 169.346 63.5533 168.562 63.0218 167.27C62.322 165.565 63.1473 163.611 64.862 162.916L72.6316 159.762C73.8762 159.257 75.3051 159.852 75.8126 161.089L76.507 162.783C76.7527 163.383 76.7501 164.041 76.499 164.639C76.248 165.236 75.7752 165.701 75.1716 165.945L67.402 169.099C66.988 169.266 66.558 169.346 66.136 169.346ZM73.553 160.11C73.3127 160.11 73.0696 160.155 72.8346 160.25L65.065 163.404C63.6227 163.991 62.9283 165.632 63.5186 167.065C64.1088 168.499 65.7594 169.189 67.2017 168.602L74.9713 165.448C75.4413 165.257 75.8099 164.894 76.0076 164.429C76.2052 163.962 76.2079 163.447 76.0156 162.979L75.3212 161.286C75.0194 160.553 74.3062 160.107 73.553 160.107V160.11Z" fill="#FF9736"/>
<path d="M69.9447 174.398L76.1865 171.865C77.2148 171.448 77.7062 170.283 77.2869 169.261L76.467 167.267C76.0476 166.245 74.8751 165.757 73.8468 166.173L67.605 168.706C66.0239 169.348 65.2654 171.143 65.9117 172.715C66.5581 174.286 68.3636 175.04 69.9447 174.398Z" fill="#FFC25F"/>
<path d="M68.7803 174.892C67.4556 174.892 66.1976 174.108 65.6661 172.816C64.9663 171.111 65.7916 169.157 67.5063 168.462L73.7481 165.929C74.3117 165.701 74.9287 165.703 75.4896 165.937C76.0504 166.171 76.4858 166.609 76.7155 167.169L77.5354 169.163C78.0109 170.317 77.45 171.642 76.2881 172.112L70.0463 174.645C69.6323 174.812 69.2023 174.892 68.7803 174.892ZM74.6082 166.287C74.3838 166.287 74.1621 166.33 73.9485 166.418L67.7066 168.95C66.2644 169.537 65.5699 171.178 66.1602 172.611C66.7505 174.045 68.4011 174.735 69.846 174.148L76.0878 171.616C76.9772 171.254 77.4046 170.24 77.0413 169.356L76.2214 167.363C76.0451 166.935 75.7112 166.601 75.2839 166.42C75.0676 166.33 74.8379 166.285 74.6082 166.285V166.287Z" fill="#FF9736"/>
<path d="M72.1803 180.108L76.7715 178.245C77.6396 177.891 78.0589 176.904 77.7037 176.041L76.6514 173.479C76.2961 172.617 75.3026 172.2 74.4345 172.553L69.8433 174.416C68.2622 175.059 67.5036 176.853 68.15 178.425C68.7963 179.997 70.6018 180.751 72.183 180.108H72.1803Z" fill="#FFC25F"/>
<path d="M71.0105 180.604C70.5698 180.604 70.1291 180.517 69.7097 180.342C68.8818 179.997 68.2408 179.351 67.9016 178.526C67.2018 176.821 68.0271 174.868 69.7418 174.172L74.333 172.308C75.3373 171.9 76.4884 172.38 76.8971 173.378L77.9494 175.94C78.147 176.423 78.1444 176.954 77.9414 177.437C77.7384 177.918 77.3591 178.292 76.8704 178.491L72.2791 180.355C71.8678 180.522 71.4378 180.604 71.0078 180.604H71.0105ZM75.0755 172.693C74.8966 172.693 74.7123 172.728 74.536 172.8L69.9448 174.663C68.5025 175.25 67.8081 176.891 68.3983 178.324C68.6841 179.02 69.2237 179.561 69.9208 179.851C70.6178 180.143 71.3844 180.145 72.0842 179.861L76.6754 177.998C77.0306 177.854 77.3057 177.581 77.4553 177.23C77.6022 176.88 77.6049 176.492 77.4606 176.139L76.4083 173.577C76.1813 173.025 75.6444 172.691 75.0809 172.691L75.0755 172.693Z" fill="#FF9736"/>
<path d="M68.441 150.175C67.7332 148.455 65.7568 147.629 64.0261 148.333L49.2909 154.314L35.8243 169.21L45.0388 185.266L60.2094 181.929L56.3233 172.104C57.7842 170.901 58.8579 169.215 59.2639 167.222C59.9289 163.948 58.6069 160.736 56.1283 158.811L66.5874 154.566C68.3182 153.863 69.1488 151.898 68.441 150.178V150.175Z" fill="#FFC25F"/>
<path d="M44.9053 185.566L35.4958 169.173L49.1333 154.091L63.9245 148.086C65.7888 147.33 67.9255 148.222 68.6867 150.075C69.0553 150.972 69.05 151.96 68.6734 152.854C68.2968 153.749 67.589 154.442 66.6862 154.808L56.6438 158.886C59.0609 160.965 60.164 164.134 59.5256 167.272C59.1383 169.178 58.1181 170.912 56.6411 172.181L60.5699 182.118L44.9026 185.566H44.9053ZM36.1528 169.245L45.175 184.964L59.8461 181.735L56.0054 172.022L56.155 171.9C57.616 170.7 58.6282 169.019 59.0021 167.169C59.6271 164.081 58.4626 160.959 55.9627 159.019L55.5994 158.737L66.4832 154.317C67.2551 154.004 67.8561 153.412 68.1793 152.647C68.5024 151.883 68.5051 151.041 68.1899 150.274C67.5409 148.692 65.7167 147.93 64.1249 148.577L49.4458 154.537L36.1475 169.245H36.1528Z" fill="#FF9736"/>
<path d="M35.2981 167.814L45.7092 186.042L39.4086 189.599L28.9521 171.395L35.2981 167.814Z" fill="white"/>
<path d="M39.4086 189.856C39.3178 189.856 39.2324 189.809 39.1843 189.726L28.7278 171.525C28.6931 171.467 28.6851 171.395 28.7038 171.329C28.7225 171.262 28.7652 171.207 28.8266 171.172L35.1753 167.591C35.2341 167.556 35.3062 167.548 35.3729 167.567C35.4397 167.586 35.4958 167.628 35.5279 167.689L45.9389 185.917C46.0084 186.042 45.9656 186.198 45.8428 186.267L39.5395 189.825C39.4994 189.848 39.454 189.859 39.4113 189.859L39.4086 189.856ZM29.3047 171.493L39.5048 189.248L45.3567 185.946L35.202 168.164L29.3047 171.493Z" fill="#0747A6"/>
<path d="M0.267151 184.889L29.4491 170.055L40.8243 189.857L0.352619 211.458L0.267151 184.889Z" fill="#65A8FF"/>
<path d="M0.352555 211.724C0.304479 211.724 0.259074 211.71 0.216341 211.687C0.136214 211.639 0.0854679 211.554 0.0854679 211.458L0 184.892C0 184.791 0.0560883 184.701 0.144227 184.656L29.3262 169.821C29.4544 169.757 29.6093 169.802 29.6787 169.924L41.054 189.726C41.0887 189.787 41.0994 189.862 41.078 189.931C41.0593 190 41.0112 190.058 40.9471 190.09L0.478086 211.692C0.438023 211.713 0.395289 211.724 0.352555 211.724ZM0.534174 185.054L0.616971 211.015L40.4557 189.753L29.3422 170.408L0.534174 185.051V185.054Z" fill="#448CEA"/>
<path d="M166.085 40.6706L175.52 76.3843L163 98.4841H181.224L192.082 139.087L338.5 146V4.5L166.085 40.6706Z" fill="#7A869A"/>
<path d="M165.594 33.2426L165.053 33.3331L165.193 33.8639L174.591 69.3159L162.152 91.1985L161.727 91.9456H162.587H180.456L191.232 132.103L191.326 132.454L191.689 132.473L337.684 140.238L338.21 140.266V139.739V4.98096V4.39045L337.628 4.4878L165.594 33.2426Z" fill="#EFFFF8" stroke="#5E6C84"/>
<path d="M153.503 61.6021L131.853 75.6033L138.781 77.443L121.712 89.1505L147.095 75.6033L139.82 73.0653L153.503 61.6021Z" fill="#2DB463"/>
<path d="M121.711 89.3817C121.631 89.3817 121.557 89.3418 121.511 89.2702C121.447 89.164 121.476 89.0286 121.578 88.9569L138.231 77.5361L131.791 75.8264C131.703 75.8025 131.636 75.7282 131.62 75.6379C131.607 75.5477 131.647 75.4574 131.725 75.407L153.375 61.4084C153.479 61.342 153.618 61.3659 153.69 61.4642C153.765 61.5624 153.749 61.7004 153.652 61.7801L140.282 72.9805L147.17 75.3804C147.258 75.4123 147.32 75.4893 147.325 75.5822C147.333 75.6751 147.285 75.7627 147.202 75.8052L121.818 89.3525C121.784 89.371 121.746 89.379 121.709 89.379L121.711 89.3817ZM132.422 75.5132L138.842 77.2175C138.931 77.2414 138.997 77.3131 139.013 77.4034C139.029 77.4936 138.992 77.5839 138.915 77.6343L125.306 86.9685L146.516 75.6486L139.743 73.2885C139.662 73.2619 139.604 73.1929 139.59 73.1106C139.574 73.0283 139.606 72.9434 139.67 72.8903L150.461 63.8508L132.422 75.5132Z" fill="#2DB463"/>
<path d="M172.859 137.056L147.21 134.032L152.603 129.333L132.083 126.349L160.877 127.323L155.482 132.8L172.859 137.056Z" fill="#2DB463"/>
<path d="M172.859 137.287C172.859 137.287 172.84 137.287 172.832 137.287L147.184 134.266C147.093 134.255 147.015 134.191 146.989 134.104C146.962 134.016 146.989 133.921 147.058 133.86L152.069 129.492L132.051 126.583C131.928 126.564 131.84 126.455 131.85 126.331C131.861 126.209 131.968 126.121 132.091 126.118L160.885 127.093C160.979 127.095 161.059 127.154 161.094 127.239C161.128 127.324 161.11 127.422 161.043 127.488L155.936 132.673L172.915 136.83C173.035 136.859 173.113 136.976 173.089 137.098C173.067 137.21 172.971 137.29 172.859 137.29V137.287ZM147.758 133.862L169.128 136.379L155.426 133.023C155.343 133.002 155.279 132.941 155.258 132.861C155.234 132.782 155.258 132.694 155.317 132.636L160.338 127.539L136.276 126.724L152.635 129.102C152.726 129.116 152.801 129.179 152.825 129.267C152.851 129.354 152.825 129.447 152.755 129.508L147.758 133.862Z" fill="#2DB463"/>
<path d="M159.237 102.071L139.43 110.349L141.393 104.75L125.312 110.962L146.548 99.921L144.908 106.083L159.237 102.071Z" fill="#2DB463"/>
<path d="M125.314 111.249C125.205 111.249 125.101 111.185 125.053 111.082C124.989 110.944 125.045 110.779 125.181 110.71L146.417 99.6661C146.519 99.613 146.641 99.6263 146.73 99.6953C146.818 99.767 146.858 99.8838 146.828 99.9927L145.317 105.669L159.16 101.795C159.307 101.755 159.459 101.832 159.51 101.976C159.56 102.119 159.491 102.276 159.349 102.334L139.545 110.612C139.441 110.657 139.318 110.633 139.235 110.556C139.152 110.479 139.123 110.36 139.16 110.253L140.915 105.241L125.419 111.23C125.384 111.244 125.349 111.249 125.314 111.249ZM141.393 104.463C141.465 104.463 141.537 104.49 141.593 104.543C141.674 104.62 141.703 104.737 141.666 104.843L139.919 109.834L154.828 103.603L144.988 106.356C144.889 106.385 144.782 106.356 144.708 106.284C144.633 106.213 144.604 106.107 144.63 106.006L146.105 100.473L130.042 108.828L141.292 104.482C141.326 104.469 141.361 104.463 141.396 104.463H141.393Z" fill="#2DB463"/>
<path d="M205.494 81.4335C205.482 81.3722 205.465 81.3132 205.444 81.257C204.924 79.5167 204.369 77.7904 203.735 76.076C205.124 75.7576 206.51 75.4397 207.88 75.1248C208.158 75.0609 208.396 74.8811 208.533 74.6308C208.67 74.3805 208.693 74.0836 208.597 73.8147C208.146 72.5532 207.644 71.3063 207.12 70.0719C206.926 69.6155 206.427 69.3697 205.947 69.4942L205.944 69.4949C204.454 69.8816 202.964 70.2683 201.458 70.6578C201.387 70.5117 201.315 70.3661 201.243 70.2209C201.76 70.0781 202.282 69.9351 202.804 69.792C203.814 69.5149 204.824 69.2378 205.802 68.9627C206.083 68.8835 206.315 68.6853 206.438 68.4202C206.56 68.155 206.561 67.8495 206.439 67.5839C205.843 66.2865 205.171 65.0093 204.45 63.7487C204.218 63.3437 203.738 63.1522 203.291 63.2872C198.827 64.6376 194.342 65.9909 189.823 67.2978C189.511 67.3881 189.262 67.6245 189.156 67.9316C189.051 68.2387 189.101 68.5783 189.291 68.8421C192.611 73.4502 194.564 78.1955 196.114 83.1518C196.263 83.6272 196.739 83.9211 197.231 83.8409L197.234 83.8404C199.639 83.4483 202.05 83.0552 204.458 82.6386C204.554 82.6441 204.652 82.6359 204.749 82.6124C205.266 82.4884 205.595 81.9817 205.498 81.459L205.494 81.4335Z" fill="#A7EEB2" stroke="#5E6C84" stroke-width="2" stroke-linejoin="round"/>
<path d="M230.914 66.2784C230.892 66.2026 230.861 66.1313 230.824 66.0652C229.845 62.8496 228.001 60.5294 225.277 59.2372C222.505 57.9215 219.325 57.9378 215.962 59.0017L215.962 59.0017C213.218 59.8704 211.037 61.2881 209.556 63.2031L209.556 63.2038C208.552 64.5044 207.972 65.8971 207.818 67.3943C207.665 68.8822 207.939 70.4107 208.544 71.9829C209.814 75.2877 211.899 77.5865 215.038 78.8916L215.039 78.8923C217.476 79.9 220.118 80.1774 222.926 79.6598C226.091 79.0765 228.537 77.5623 230.046 74.9918C231.569 72.4377 231.847 69.4565 230.914 66.2784ZM221.543 68.8714C221.566 68.9447 221.598 69.0135 221.636 69.0773C222.031 70.3645 222.072 71.3505 221.913 72.0424C221.832 72.3977 221.709 72.6096 221.59 72.738C221.477 72.8593 221.322 72.9556 221.077 73.0082C220.642 73.102 220.205 73.003 219.664 72.4511C219.087 71.8629 218.545 70.9165 218.053 69.4969L218.048 69.4814C217.531 68.067 217.434 67.0761 217.576 66.4443C217.579 66.4344 217.581 66.4244 217.583 66.4145C217.653 66.0496 217.773 65.8174 217.899 65.6681C218.021 65.5255 218.188 65.4115 218.443 65.3409L218.443 65.341L218.456 65.3373C218.953 65.1933 219.402 65.2815 219.898 65.7541C220.449 66.2792 221.028 67.2681 221.543 68.8714Z" fill="#A7EEB2" stroke="#5E6C84" stroke-width="2" stroke-linejoin="round"/>
<path d="M254.246 72.859C254.386 72.8287 254.519 72.7684 254.634 72.6824L254.68 72.6474C254.902 72.4813 255.045 72.2303 255.075 71.9546C255.105 71.6788 255.019 71.403 254.837 71.1931C252.645 68.6596 250.491 66.2387 248.299 63.9292C249.175 63.1585 249.84 62.2788 250.259 61.2908C250.817 59.9767 250.908 58.544 250.57 57.0492L250.569 57.0465C250.258 55.686 249.697 54.5074 248.835 53.5702C247.969 52.6297 246.847 51.9834 245.497 51.6196C243.354 51.0377 240.517 51.4382 237.183 52.5335C236.016 52.9093 234.859 53.287 233.702 53.6649C232.366 54.101 231.029 54.5374 229.675 54.9717C229.419 55.0536 229.207 55.2349 229.087 55.4747C228.967 55.7144 228.948 55.9926 229.035 56.2466C231.229 62.6581 232.976 69.081 234.632 76.0105C234.758 76.5365 235.279 76.8676 235.808 76.7581L242.812 75.3093C243.076 75.2545 243.307 75.0951 243.452 74.8672C243.597 74.6394 243.644 74.3625 243.581 74.0996C243.398 73.3307 243.218 72.5635 243.038 71.7986C242.896 71.1953 242.755 70.5935 242.612 69.9935C243.643 71.3236 244.671 72.691 245.696 74.0958C245.93 74.4153 246.329 74.5674 246.716 74.484L254.246 72.859ZM240.42 61.0745C240.218 60.3194 240.016 59.5648 239.813 58.8024C240.378 58.7018 240.751 58.7385 240.985 58.8263C241.225 58.9161 241.448 59.1067 241.586 59.6384C241.695 60.1458 241.623 60.5746 241.366 60.9898C241.166 61.2893 240.914 61.5207 240.584 61.6909C240.529 61.4853 240.474 61.2798 240.42 61.0745Z" fill="#A7EEB2" stroke="#5E6C84" stroke-width="2" stroke-linejoin="round"/>
<path d="M255.36 71.5882C255.476 72.1224 255.999 72.4655 256.535 72.3585C256.651 72.3353 256.759 72.2927 256.855 72.2348C261.052 71.3055 265.22 70.3571 269.385 69.4094L269.386 69.409C269.919 69.2879 270.255 68.7618 270.142 68.2275L270.127 68.1572C269.711 66.1989 269.304 64.2805 268.952 62.3797C268.902 62.108 268.741 61.8691 268.508 61.7198C268.276 61.5704 267.992 61.5239 267.724 61.5914L267.718 61.5928C266.094 62.0014 264.47 62.4099 262.832 62.8211C262.719 62.273 262.608 61.7266 262.502 61.1803C263.086 61.0227 263.67 60.867 264.256 60.711L264.257 60.7107C265.138 60.4758 266.023 60.24 266.914 59.9965C267.415 59.8595 267.727 59.3616 267.632 58.8509L267.63 58.8402L267.628 58.8296L267.626 58.819L267.624 58.8084L267.622 58.7978L267.62 58.7872L267.618 58.7766L267.616 58.766L267.615 58.7554L267.613 58.7448L267.611 58.7342L267.609 58.7236L267.607 58.713L267.605 58.7023L267.603 58.6917L267.601 58.6811L267.599 58.6705L267.597 58.6599L267.595 58.6493L267.593 58.6387L267.591 58.6281L267.589 58.6175L267.587 58.6069L267.585 58.5963L267.583 58.5857L267.581 58.5751L267.579 58.5646L267.577 58.554L267.575 58.5434L267.573 58.5328L267.571 58.5222L267.569 58.5116L267.567 58.501L267.565 58.4904L267.563 58.4798L267.561 58.4692L267.56 58.4586L267.558 58.448L267.556 58.4374L267.554 58.4268L267.552 58.4163L267.55 58.4057L267.548 58.3951L267.546 58.3845L267.544 58.3739L267.542 58.3633L267.54 58.3527L267.538 58.3422L267.536 58.3316L267.534 58.321L267.532 58.3104L267.53 58.2998L267.528 58.2892L267.526 58.2787L267.524 58.2681L267.522 58.2575L267.52 58.2469L267.518 58.2363L267.516 58.2258L267.514 58.2152L267.512 58.2046L267.51 58.194L267.509 58.1834L267.507 58.1729L267.505 58.1623L267.503 58.1517L267.501 58.1411L267.499 58.1306L267.497 58.12L267.495 58.1094L267.493 58.0988L267.491 58.0883L267.489 58.0777L267.487 58.0671L267.485 58.0566L267.483 58.046L267.481 58.0354L267.479 58.0248L267.477 58.0143L267.475 58.0037L267.473 57.9931L267.471 57.9826L267.469 57.972L267.467 57.9614L267.465 57.9509L267.463 57.9403L267.462 57.9297L267.46 57.9192L267.458 57.9086L267.456 57.898L267.454 57.8875L267.452 57.8769L267.45 57.8664L267.448 57.8558L267.446 57.8452L267.444 57.8347L267.442 57.8241L267.44 57.8136L267.438 57.803L267.436 57.7924L267.434 57.7819L267.432 57.7713L267.43 57.7608L267.428 57.7502L267.426 57.7397L267.424 57.7291L267.422 57.7185L267.42 57.708L267.418 57.6974L267.417 57.6869L267.415 57.6763L267.413 57.6658L267.411 57.6552L267.409 57.6447L267.407 57.6341L267.405 57.6236L267.403 57.613L267.401 57.6025L267.399 57.5919L267.397 57.5814L267.395 57.5708L267.393 57.5603L267.391 57.5497L267.389 57.5392L267.387 57.5286L267.385 57.5181L267.383 57.5075L267.381 57.497L267.379 57.4864L267.377 57.4759L267.375 57.4653L267.373 57.4548L267.372 57.4442L267.37 57.4337L267.368 57.4232L267.366 57.4126L267.364 57.4021L267.362 57.3915L267.36 57.381L267.358 57.3705L267.356 57.3599L267.354 57.3494L267.352 57.3388L267.35 57.3283L267.348 57.3178L267.346 57.3072L267.344 57.2967L267.342 57.2861L267.34 57.2756L267.338 57.2651L267.336 57.2545L267.334 57.244L267.332 57.2335L267.331 57.2229L267.329 57.2124L267.327 57.2019L267.325 57.1913L267.323 57.1808L267.321 57.1703L267.319 57.1597L267.317 57.1492L267.315 57.1387L267.313 57.1281L267.311 57.1176L267.309 57.1071L267.307 57.0965L267.305 57.086L267.303 57.0755L267.301 57.0649L267.299 57.0544L267.297 57.0439L267.295 57.0334L267.293 57.0228L267.291 57.0123L267.29 57.0018L267.288 56.9912L267.286 56.9807L267.284 56.9702L267.282 56.9597L267.28 56.9491L267.278 56.9386L267.276 56.9281L267.274 56.9176L267.272 56.907L267.27 56.8965L267.268 56.886L267.266 56.8755L267.264 56.865L267.262 56.8544L267.26 56.8439L267.258 56.8334L267.256 56.8229L267.254 56.8124L267.252 56.8018L267.251 56.7913L267.249 56.7808L267.247 56.7703L267.245 56.7598L267.243 56.7492L267.241 56.7387L267.239 56.7282L267.237 56.7177L267.235 56.7072L267.233 56.6967L267.231 56.6861L267.229 56.6756L267.227 56.6651L267.225 56.6546L267.223 56.6441L267.221 56.6336L267.219 56.6231L267.217 56.6125L267.215 56.602L267.214 56.5915L267.212 56.581L267.21 56.5705L267.208 56.56L267.206 56.5495L267.204 56.539L267.202 56.5284L267.2 56.5179L267.198 56.5074L267.196 56.4969L267.194 56.4864L267.192 56.4759L267.19 56.4654L267.188 56.4549L267.186 56.4444L267.184 56.4339L267.182 56.4234L267.18 56.4128L267.178 56.4023L267.177 56.3918L267.175 56.3813L267.173 56.3708L267.171 56.3603L267.169 56.3498L267.167 56.3393L267.165 56.3288L267.163 56.3183L267.161 56.3078L267.159 56.2973L267.157 56.2868L267.155 56.2763L267.153 56.2658L267.151 56.2553L267.149 56.2448L267.147 56.2343L267.145 56.2238L267.143 56.2133L267.141 56.2028L267.14 56.1923L267.138 56.1818L267.136 56.1713L267.134 56.1608L267.132 56.1503L267.13 56.1398L267.128 56.1293L267.126 56.1188L267.124 56.1083L267.122 56.0978L267.12 56.0873L267.118 56.0768L267.116 56.0663L267.114 56.0558L267.112 56.0453L267.11 56.0348L267.108 56.0243L267.106 56.0138L267.105 56.0033L267.103 55.9928L267.101 55.9823L267.099 55.9718L267.097 55.9613L267.095 55.9508L267.093 55.9403L267.091 55.9298L267.089 55.9194L267.087 55.9089L267.085 55.8984L267.083 55.8879L267.081 55.8774L267.079 55.8669L267.077 55.8564L267.075 55.8459L267.073 55.8354L267.071 55.8249L267.07 55.8144L267.068 55.8039L267.066 55.7935L267.064 55.783L267.062 55.7725L267.06 55.762L267.058 55.7515L267.056 55.741L267.054 55.7305L267.052 55.72L267.05 55.7095L267.048 55.6991L267.046 55.6886L267.044 55.6781L267.042 55.6676L267.04 55.6571L267.038 55.6466L267.036 55.6361L267.035 55.6256L267.033 55.6152L267.031 55.6047L267.029 55.5942L267.027 55.5837L267.025 55.5732L267.023 55.5627L267.021 55.5522L267.019 55.5418L267.017 55.5313L267.015 55.5208L267.013 55.5103L267.011 55.4998L267.009 55.4893L267.007 55.4789L267.005 55.4684L267.003 55.4579L267.001 55.4474L267 55.4369L266.998 55.4264L266.996 55.416L266.994 55.4055L266.992 55.395L266.99 55.3845L266.988 55.374L266.986 55.3636L266.984 55.3531L266.982 55.3426L266.98 55.3321L266.978 55.3216L266.976 55.3112L266.974 55.3007L266.972 55.2902L266.97 55.2797L266.968 55.2692L266.967 55.2588L266.965 55.2483L266.963 55.2378L266.961 55.2273L266.959 55.2169L266.957 55.2064L266.955 55.1959L266.953 55.1854L266.951 55.1749L266.949 55.1645L266.947 55.154L266.945 55.1435L266.943 55.133L266.941 55.1226L266.939 55.1121L266.937 55.1016L266.935 55.0911L266.934 55.0807L266.932 55.0702L266.93 55.0597L266.928 55.0492L266.926 55.0388L266.924 55.0283L266.922 55.0178L266.92 55.0073L266.918 54.9969L266.916 54.9864L266.914 54.9759L266.912 54.9654L266.91 54.955L266.908 54.9445L266.906 54.934L266.904 54.9235L266.902 54.9131L266.901 54.9026L266.899 54.8921L266.897 54.8817L266.895 54.8712L266.893 54.8607L266.891 54.8502L266.889 54.8398L266.887 54.8293L266.885 54.8188L266.883 54.8083L266.881 54.7979L266.879 54.7874L266.877 54.7769L266.875 54.7665L266.873 54.756L266.871 54.7455L266.869 54.7351L266.868 54.7246L266.866 54.7141L266.864 54.7036L266.862 54.6932L266.86 54.6827L266.858 54.6722L266.856 54.6618L266.854 54.6513L266.852 54.6408L266.85 54.6304L266.848 54.6199L266.846 54.6094L266.844 54.5989L266.842 54.5885L266.84 54.578L266.838 54.5675L266.837 54.5571L266.835 54.5466L266.833 54.5361L266.831 54.5257L266.829 54.5152L266.827 54.5047L266.825 54.4943L266.823 54.4838L266.821 54.4733L266.819 54.4629L266.817 54.4524L266.815 54.4419L266.813 54.4315L266.811 54.421L266.809 54.4105L266.807 54.4001L266.805 54.3896L266.804 54.3791L266.802 54.3687L266.8 54.3582L266.798 54.3477L266.796 54.3373L266.794 54.3268L266.792 54.3163L266.79 54.3059L266.788 54.2954L266.786 54.2849L266.784 54.2745L266.782 54.264L266.78 54.2535L266.778 54.2431L266.776 54.2326L266.774 54.2222L266.772 54.2117L266.771 54.2012L266.769 54.1908L266.767 54.1803L266.765 54.1698L266.763 54.1594L266.761 54.1489L266.759 54.1384L266.757 54.128L266.755 54.1175L266.753 54.107L266.751 54.0966L266.749 54.0861L266.747 54.0756L266.745 54.0652L266.743 54.0547L266.741 54.0443L266.74 54.0338L266.738 54.0233L266.736 54.0129L266.734 54.0024L266.732 53.9919L266.73 53.9815L266.728 53.971L266.726 53.9606L266.724 53.9501L266.722 53.9396L266.72 53.9292L266.718 53.9187L266.716 53.9082L266.714 53.8978L266.712 53.8873L266.71 53.8768L266.709 53.8664L266.707 53.8559L266.705 53.8455L266.703 53.835L266.701 53.8245L266.699 53.8141L266.697 53.8036L266.695 53.7931L266.693 53.7827L266.691 53.7722L266.689 53.7618L266.687 53.7513L266.685 53.7408L266.683 53.7304L266.681 53.7199L266.679 53.7094L266.677 53.699L266.676 53.6885L266.674 53.6781L266.672 53.6676L266.67 53.6571L266.668 53.6467L266.666 53.6362L266.664 53.6257L266.662 53.6153L266.66 53.6048L266.658 53.5944L266.656 53.5839L266.654 53.5734L266.652 53.563L266.65 53.5525L266.648 53.5421L266.646 53.5316L266.645 53.5211L266.643 53.5107L266.641 53.5002L266.639 53.4897L266.637 53.4793L266.635 53.4688C266.583 53.1914 266.417 52.9485 266.177 52.8C265.937 52.6515 265.646 52.6112 265.374 52.6891C264.473 52.9479 263.58 53.2117 262.691 53.4743L262.689 53.4749C262.151 53.6338 261.614 53.7923 261.077 53.9494L261.076 53.9446L261.075 53.938L261.074 53.9314L261.073 53.9249L261.071 53.9183L261.07 53.9117L261.069 53.9051L261.068 53.8986L261.066 53.892L261.065 53.8854L261.064 53.8788L261.063 53.8723L261.062 53.8657L261.06 53.8591L261.059 53.8525L261.058 53.846L261.057 53.8394L261.055 53.8328L261.054 53.8262L261.053 53.8196L261.052 53.8131L261.051 53.8065L261.049 53.7999L261.048 53.7933L261.047 53.7868L261.046 53.7802L261.044 53.7736L261.043 53.767L261.042 53.7605L261.041 53.7539L261.04 53.7473L261.038 53.7407L261.037 53.7342L261.036 53.7276L261.035 53.721L261.034 53.7144L261.032 53.7079L261.031 53.7013L261.03 53.6947L261.029 53.6881L261.027 53.6815L261.026 53.675L261.025 53.6684L261.024 53.6618L261.023 53.6552L261.021 53.6487L261.02 53.6421L261.019 53.6355L261.018 53.6289L261.016 53.6224L261.015 53.6158L261.014 53.6092L261.013 53.6026L261.012 53.5961L261.01 53.5895L261.009 53.5829L261.008 53.5763L261.007 53.5698L261.005 53.5632L261.004 53.5566L261.003 53.55L261.002 53.5435L261.001 53.5369L260.999 53.5303L260.998 53.5237L260.997 53.5171L260.996 53.5106L260.995 53.504L260.993 53.4974L260.992 53.4908L260.991 53.4843L260.99 53.4777L260.988 53.4711L260.987 53.4645L260.986 53.458L260.985 53.4514L260.984 53.4448L260.982 53.4382L260.981 53.4317L260.98 53.4251L260.979 53.4185L260.977 53.4119L260.976 53.4054L260.975 53.3988L260.974 53.3922L260.973 53.3856L260.971 53.379L260.97 53.3725L260.969 53.3659L260.968 53.3593L260.966 53.3527L260.965 53.3462L260.964 53.3396L260.963 53.333L260.962 53.3264L260.96 53.3199L260.959 53.3133L260.958 53.3067L260.957 53.3001L260.956 53.2936L260.954 53.287L260.953 53.2804L260.952 53.2738L260.951 53.2673L260.949 53.2607L260.948 53.2541L260.947 53.2475L260.946 53.241L260.945 53.2344L260.943 53.2278L260.942 53.2212L260.941 53.2146L260.94 53.2081L260.938 53.2015L260.937 53.1949L260.936 53.1883L260.935 53.1818L260.934 53.1752L260.932 53.1686L260.931 53.162L260.93 53.1555L260.929 53.1489L260.927 53.1423L260.926 53.1357L260.925 53.1292L260.924 53.1226L260.923 53.116L260.921 53.1094L260.92 53.1029L260.919 53.0963L260.918 53.0897L260.917 53.0831L260.915 53.0765L260.914 53.07L260.913 53.0634L260.912 53.0568L260.91 53.0502L260.909 53.0437L260.908 53.0371L260.907 53.0305L260.906 53.0239L260.904 53.0174L260.903 53.0108L260.902 53.0042L260.901 52.9976L260.899 52.9911L260.898 52.9845L260.897 52.9779L260.896 52.9713L260.895 52.9648L260.893 52.9582L260.892 52.9516L260.891 52.945L260.89 52.9385L260.889 52.9319L260.887 52.9253L260.886 52.9187L260.885 52.9121L260.884 52.9056L260.882 52.899L260.881 52.8924L260.88 52.8858L260.879 52.8793L260.878 52.8727L260.876 52.8661L260.875 52.8595L260.874 52.853L260.873 52.8464L260.871 52.8398L260.87 52.8332L260.869 52.8267L260.868 52.8201L260.867 52.8135L260.865 52.8069L260.864 52.8004L260.863 52.7938L260.862 52.7872L260.86 52.7806L260.859 52.774L260.858 52.7675L260.857 52.7609L260.856 52.7543L260.854 52.7477L260.853 52.7412L260.852 52.7346L260.851 52.728L260.85 52.7214L260.848 52.7149L260.847 52.7083L260.846 52.7017L260.845 52.6951L260.843 52.6886L260.842 52.682L260.841 52.6754L260.84 52.6688L260.839 52.6623L260.837 52.6557L260.836 52.6491L260.835 52.6425L260.834 52.636L260.832 52.6294L260.831 52.6228L260.83 52.6162L260.829 52.6096L260.828 52.6031L260.826 52.5965L260.825 52.5899L260.824 52.5833L260.823 52.5768L260.821 52.5702L260.82 52.5636L260.819 52.557L260.818 52.5505L260.817 52.5476C261.604 52.3076 262.398 52.0622 263.188 51.818C264.133 51.526 265.073 51.2357 265.986 50.9586C266.463 50.8139 266.76 50.3402 266.683 49.8479C266.389 47.9753 266.096 46.1106 265.83 44.2423C265.788 43.9474 265.616 43.6865 265.362 43.5306C265.108 43.3748 264.798 43.3401 264.516 43.4362C260.136 44.9286 255.698 46.4053 251.232 47.8878C250.751 48.0475 250.466 48.5419 250.569 49.0383C252.104 56.4624 253.672 63.7741 255.36 71.5882Z" fill="#A7EEB2" stroke="#5E6C84" stroke-width="2" stroke-linejoin="round"/>
<path d="M284.163 65.1616C284.192 65.6387 283.876 66.078 283.4 66.1927C281.168 66.7309 278.908 67.2498 276.676 67.7623L276.393 67.8274C275.934 67.9329 275.463 67.7033 275.263 67.2764C271.512 59.2736 268.231 51.7926 265.125 44.3875C265.017 44.1309 265.021 43.8411 265.136 43.5879C265.251 43.3347 265.466 43.1408 265.73 43.053C268.214 42.2259 270.697 41.3991 273.154 40.5772C273.411 40.4914 273.691 40.5131 273.931 40.6371C274.171 40.7611 274.351 40.977 274.43 41.2356C275.111 43.477 275.822 45.7389 276.559 47.9957L284.163 65.1616ZM284.163 65.1616C284.622 56.0588 285.427 47.1205 287.246 37.4279C287.312 37.0799 287.188 36.7231 286.921 36.49C286.654 36.2569 286.284 36.1821 285.948 36.2936C284.777 36.6815 283.616 37.0714 282.454 37.4616C281.1 37.9161 279.745 38.371 278.374 38.8234C277.999 38.9469 277.733 39.2788 277.693 39.671C277.38 42.7525 277.157 45.7362 276.985 48.7072L276.985 48.7103C276.976 48.8868 276.967 49.0637 276.959 49.2407L284.163 65.1616Z" fill="#A7EEB2" stroke="#5E6C84" stroke-width="2" stroke-linejoin="round"/>
<path d="M290.86 63.3634C290.918 63.6254 291.079 63.8532 291.307 63.9956C291.535 64.1379 291.81 64.1828 292.071 64.1201C294.164 63.6178 296.307 63.1029 298.451 62.5881C300.591 62.074 302.732 61.5598 304.821 61.0582C305.08 60.9961 305.304 60.8333 305.442 60.6059C305.58 60.3785 305.622 60.1053 305.558 59.8468C305.031 57.7178 304.556 55.5793 304.131 53.4315C304.078 53.1623 303.916 52.9266 303.684 52.7798C303.452 52.6329 303.17 52.5878 302.904 52.655C301.937 52.8991 300.964 53.1443 299.991 53.3897L299.985 53.391C299.355 53.5498 298.725 53.7086 298.097 53.8671C297.96 53.1628 297.829 52.4538 297.706 51.7474C298.279 51.5955 298.854 51.4417 299.427 51.2883L299.428 51.288C300.298 51.0551 301.164 50.8233 302.024 50.5991C302.522 50.4694 302.839 49.9833 302.758 49.4753C302.433 47.4327 302.135 45.396 301.909 43.3248C301.877 43.0306 301.716 42.7657 301.47 42.6012C301.224 42.4367 300.918 42.3895 300.634 42.4724C299.718 42.7396 298.831 42.9908 297.938 43.2442C297.495 43.3696 297.051 43.4956 296.6 43.6242C296.532 42.9632 296.465 42.3019 296.404 41.6442C298.086 41.1289 299.764 40.6175 301.445 40.1254C301.898 39.9927 302.196 39.5611 302.16 39.0902C301.992 36.9018 301.896 34.6739 301.876 32.4317C301.873 32.1127 301.718 31.814 301.458 31.6278C301.199 31.4416 300.867 31.3902 300.563 31.4894C299.658 31.7857 298.75 32.0826 297.84 32.3801C294.486 33.4762 291.106 34.5811 287.729 35.7017C287.303 35.8431 287.023 36.2515 287.046 36.7002C287.51 45.8657 288.902 54.5315 290.86 63.3634Z" fill="#A7EEB2" stroke="#5E6C84" stroke-width="2" stroke-linejoin="round"/>
<path d="M325.963 56.0016C326.49 55.8765 326.822 55.3535 326.71 54.8228C326.658 54.5783 326.521 54.3732 326.335 54.2327C323.748 51.2078 321.345 48.0864 319.175 44.92C321.33 42.7494 322.055 39.8809 321.719 36.3922C321.404 32.9262 320.4 30.1124 318.136 28.5429C316.236 27.2216 313.594 27.3368 310.457 28.3192L310.457 28.3192L310.451 28.321C309.282 28.6948 308.118 29.0674 306.956 29.44L306.955 29.4401C305.792 29.8127 304.63 30.1851 303.461 30.5588C303.048 30.6909 302.767 31.0744 302.766 31.5083C302.747 41.4316 304.288 50.6003 306.524 59.6311C306.656 60.1656 307.196 60.493 307.731 60.3636C308.878 60.0862 310.019 59.81 311.16 59.5338C312.301 59.2576 313.441 58.9815 314.588 58.7042C314.849 58.6412 315.073 58.476 315.211 58.2459C315.349 58.0157 315.388 57.7399 315.32 57.4803C314.868 55.7513 314.438 54.0131 314.044 52.2626C315.115 53.9763 316.236 55.6804 317.407 57.3747C317.641 57.714 318.06 57.8748 318.461 57.7797L325.963 56.0016ZM312.757 40.776C312.594 41.0834 312.413 41.313 312.215 41.4825C312.029 39.9433 311.887 38.389 311.779 36.8039C312.246 36.7409 312.475 36.8434 312.592 36.9365C312.786 37.0907 313.044 37.5009 313.132 38.4972C313.21 39.4229 313.079 40.1688 312.757 40.776Z" fill="#A7EEB2" stroke="#5E6C84" stroke-width="2" stroke-linejoin="round"/>
<path d="M213.571 111.622C213.79 111.355 213.854 110.993 213.742 110.666L212.796 110.99L213.742 110.666L213.742 110.666L213.742 110.665L213.741 110.662L213.736 110.648L213.718 110.595L213.647 110.389C213.586 110.211 213.498 109.953 213.391 109.637C213.175 109.003 212.88 108.134 212.564 107.191C212.133 105.907 211.664 104.495 211.298 103.351C211.321 103.353 211.345 103.355 211.368 103.357C212.62 103.468 213.888 103.581 215.134 103.67C215.455 103.692 215.767 103.56 215.973 103.313C216.179 103.066 216.253 102.736 216.173 102.424C215.791 100.937 215.411 99.4585 215.066 98.0275C214.96 97.5869 214.571 97.2724 214.118 97.2612C213.234 97.2392 212.344 97.2185 211.455 97.1978L211.454 97.1977L211.454 97.1977C210.819 97.1829 210.184 97.1681 209.552 97.1529C209.504 96.9673 209.455 96.7828 209.407 96.5998L209.406 96.5961C209.402 96.5826 209.399 96.569 209.395 96.5555C210.88 96.541 212.354 96.516 213.84 96.4883C214.142 96.4827 214.426 96.3403 214.611 96.1011C214.796 95.8619 214.863 95.5517 214.793 95.2573C214.63 94.5777 214.467 93.8722 214.305 93.1687C214.125 92.3913 213.946 91.6162 213.769 90.8807C213.654 90.4058 213.213 90.0826 212.726 90.1165C208.368 90.4192 203.974 90.6758 199.52 90.891C199.218 90.9056 198.939 91.0558 198.761 91.2998C198.583 91.5438 198.524 91.8552 198.603 92.1472C199.307 94.7786 200.854 99.3602 202.213 103.252C202.894 105.205 203.533 106.996 204 108.298C204.234 108.949 204.426 109.478 204.559 109.845C204.625 110.028 204.677 110.171 204.712 110.268L204.752 110.378L204.763 110.406L204.765 110.414L204.766 110.416L204.766 110.416C204.766 110.416 204.766 110.416 205.706 110.074L204.766 110.416C204.895 110.767 205.208 111.018 205.579 111.066L212.669 111.981C213.012 112.026 213.353 111.89 213.571 111.622Z" fill="#A7EEB2" stroke="#5E6C84" stroke-width="2" stroke-linejoin="round"/>
<path d="M240.038 114.981C240.35 115.009 240.657 114.89 240.867 114.659C241.078 114.428 241.168 114.112 241.111 113.804L241.102 113.753C241.077 113.618 241.024 113.489 240.947 113.375C238.478 109.727 236.104 106.363 233.779 103.251C234.689 102.675 235.386 101.92 235.83 100.988C236.436 99.7134 236.511 98.2272 236.173 96.6442L236.173 96.6422C235.539 93.6995 233.907 91.5119 231.269 90.2171L231.267 90.2159C229.177 89.1966 226.408 88.9707 223.071 89.2633L223.069 89.2634C220.82 89.4634 218.566 89.6426 216.288 89.8238C216.05 89.8426 215.813 89.8615 215.575 89.8804C215.285 89.9035 215.02 90.0516 214.848 90.2862C214.677 90.5208 214.616 90.8186 214.681 91.1019C214.866 91.8997 215.052 92.7054 215.239 93.5192C216.529 99.1186 217.908 105.105 219.786 111.583C219.89 111.943 220.187 112.215 220.556 112.287C223.006 112.765 225.439 113.166 227.887 113.536C228.217 113.586 228.551 113.467 228.776 113.22C229 112.973 229.087 112.629 229.005 112.305C228.677 110.994 228.357 109.704 228.051 108.436C229.106 110.099 230.183 111.829 231.281 113.63C231.438 113.888 231.703 114.061 232.003 114.102C234.672 114.46 237.349 114.736 240.038 114.981ZM226.818 98.6309L226.802 98.6492C226.63 98.8583 226.373 99.0242 225.935 99.0736C225.694 98.0112 225.464 96.9659 225.24 95.937C225.68 95.9925 226.005 96.1082 226.242 96.2556C226.59 96.4722 226.855 96.8234 226.99 97.4452C227.127 98.0773 227.013 98.4045 226.818 98.6309Z" fill="#A7EEB2" stroke="#5E6C84" stroke-width="2" stroke-linejoin="round"/>
<path d="M243.446 114.381C243.556 114.877 244.017 115.207 244.512 115.161C249.089 115.499 253.664 115.68 258.262 115.701C258.565 115.702 258.852 115.566 259.043 115.33C259.234 115.095 259.307 114.785 259.243 114.489C258.702 112.003 258.176 109.594 257.663 107.26C257.56 106.789 257.134 106.458 256.651 106.475C254.819 106.538 253.002 106.579 251.184 106.601C251.091 106.156 250.996 105.713 250.903 105.274L250.891 105.217C250.829 104.927 250.767 104.64 250.707 104.354C252.197 104.301 253.685 104.231 255.171 104.146C255.463 104.129 255.734 103.985 255.911 103.751C256.087 103.517 256.152 103.217 256.088 102.931C255.644 100.939 255.231 98.9892 254.826 97.0787C254.804 96.9779 254.783 96.8771 254.762 96.7765C254.657 96.2826 254.201 95.9437 253.698 95.9866C252.129 96.12 250.576 96.2319 249.002 96.3439C248.873 95.7532 248.749 95.1699 248.628 94.588C250.308 94.429 252.001 94.2647 253.675 94.0862C253.959 94.056 254.216 93.9063 254.382 93.6748C254.548 93.4432 254.607 93.1518 254.544 92.8737C254.114 90.9595 253.715 89.0863 253.325 87.2523C253.303 87.1512 253.282 87.0502 253.26 86.9493C253.151 86.4369 252.665 86.0952 252.146 86.1659C247.759 86.7635 243.346 87.3397 238.922 87.8393C238.641 87.8709 238.388 88.0194 238.223 88.2482C238.058 88.4769 237.998 88.7647 238.057 89.0405C238.609 91.6294 239.169 94.3078 239.75 97.0887C240.869 102.442 242.068 108.175 243.446 114.381Z" fill="#A7EEB2" stroke="#5E6C84" stroke-width="2" stroke-linejoin="round"/>
<path d="M269.135 103.251C270.627 103.101 272.131 102.947 273.617 102.779C273.9 102.747 274.157 102.595 274.321 102.362C274.485 102.13 274.542 101.838 274.478 101.56C273.954 99.3076 273.444 97.1322 272.939 94.9827C272.822 94.4839 272.347 94.1539 271.838 94.2186C270.289 94.4156 268.763 94.6087 267.223 94.7889C267.066 94.0938 266.912 93.4094 266.758 92.7289C268.431 92.5006 270.103 92.2578 271.788 92.0124C272.063 91.9723 272.308 91.8197 272.466 91.591C272.624 91.3623 272.679 91.0782 272.619 90.8069C272.367 89.6763 272.105 88.5316 271.845 87.4018C271.617 86.4086 271.392 85.4269 271.179 84.4763C271.063 83.958 270.562 83.6203 270.038 83.7074C265.675 84.4324 261.337 85.1264 256.963 85.7484C256.688 85.7875 256.441 85.9391 256.283 86.1669C256.124 86.3947 256.068 86.6782 256.127 86.9496C257.939 95.2897 259.923 104.416 262.239 114.905L262.241 114.913C262.329 115.39 262.747 115.735 263.232 115.732C267.865 115.701 272.506 115.456 277.117 115.083C277.407 115.059 277.673 114.911 277.844 114.675C278.015 114.44 278.075 114.142 278.009 113.858C277.748 112.749 277.493 111.652 277.242 110.568C276.894 109.072 276.553 107.602 276.21 106.167C276.094 105.681 275.638 105.356 275.141 105.403C273.333 105.577 271.536 105.75 269.736 105.89C269.614 105.346 269.488 104.797 269.364 104.254C269.286 103.916 269.21 103.58 269.135 103.251Z" fill="#A7EEB2" stroke="#5E6C84" stroke-width="2" stroke-linejoin="round"/>
</svg>
