<?xml version="1.0" encoding="utf-8"?><svg version="1.1" id="Layer_1" xmlns="http://www.w3.org/2000/svg" xmlns:xlink="http://www.w3.org/1999/xlink" x="0px" y="0px" viewBox="0 0 122.88 73.31" style="enable-background:new 0 0 122.88 73.31" xml:space="preserve"><style type="text/css">.st0{fill-rule:evenodd;clip-rule:evenodd;fill:#4BA042;} .st1{fill:#393939;}</style><g><path class="st0" d="M20.91,0H118c2.66,0,4.85,2.2,4.85,4.85v30.5c0,2.64-2.21,4.84-4.85,4.84H43.26 c-0.86-0.48-1.87-0.84-3.07-1.04c-0.15-0.04-0.3-0.07-0.46-0.09l-0.05-0.01c-0.27-0.49-0.6-0.95-0.99-1.38 c-1.1-1.23-2.6-2.1-4.64-2.47l0,0c-0.2-0.05-0.37-0.08-0.51-0.09l0,0l-0.03,0c-0.2-0.02-0.39-0.04-0.55-0.04h-0.07 c-0.26-0.39-0.56-0.76-0.91-1.11c-1.01-1.01-2.31-1.75-4-2.12v-2.48c0-2.19-0.51-4.08-1.35-5.65c-1-1.88-2.47-3.24-4.13-4.08 c-0.62-0.32-1.3-0.56-2-0.73c-0.73-0.18-1.44-0.26-2.11-0.26c-0.71,0-1.42,0.08-2.12,0.25c-0.07,0.02-0.14,0.03-0.21,0.05V4.85 C16.06,2.18,18.25,0,20.91,0L20.91,0z M49.2,7.35h11.86v5.09h-4.84v4.87h4.29v4.83h-4.29v10.7H49.2V7.35L49.2,7.35z M62.76,7.35 h4.96c3.31,0,5.54,0.12,6.71,0.36c1.17,0.24,2.12,0.86,2.86,1.85c0.74,0.99,1.11,2.57,1.11,4.74c0,1.98-0.26,3.31-0.78,4 c-0.52,0.68-1.54,1.09-3.08,1.22c1.39,0.33,2.32,0.76,2.8,1.31c0.48,0.54,0.77,1.05,0.89,1.5c0.12,0.46,0.18,1.71,0.18,3.77v6.73 H71.9v-8.48c0-1.36-0.11-2.21-0.34-2.53c-0.22-0.33-0.81-0.49-1.77-0.49v11.5h-7.02V7.35L62.76,7.35z M69.78,11.7v5.67 c0.78,0,1.33-0.1,1.64-0.31c0.31-0.2,0.47-0.87,0.47-1.99v-1.4c0-0.81-0.15-1.34-0.45-1.6C71.14,11.82,70.58,11.7,69.78,11.7 L69.78,11.7z M81.11,7.35H92.8v5.09h-4.67v4.87h4.36v4.83h-4.36v5.61h5.15v5.09H81.11V7.35L81.11,7.35z M95.27,7.35h11.69v5.09 h-4.67v4.87h4.36v4.83h-4.36v5.61h5.15v5.09H95.27V7.35L95.27,7.35z"/><path class="st1" d="M12.53,50.14c-0.07-0.04-0.13-0.08-0.2-0.13c-0.82-0.65-1.71-1.38-2.49-2.01C8.73,47.07,7.43,46,6.52,45.26 c-0.62-0.51-1.33-0.87-1.99-1c-0.43-0.08-0.82-0.08-1.12,0.05c-0.25,0.1-0.46,0.3-0.61,0.62c-0.19,0.41-0.28,1.01-0.23,1.81 c0.05,0.71,0.29,1.48,0.62,2.23c0.49,1.1,1.14,2.11,1.63,2.76c0.03,0.04,0.05,0.08,0.08,0.12l9.76,13.94 c0.13,0.18,0.2,0.38,0.22,0.59h0c0.19,1.61,0.54,2.82,1.04,3.57c0.37,0.55,0.84,0.83,1.43,0.81h0.03v0h15.22c0.04,0,0.07,0,0.11,0 c0.95-0.01,1.82-0.3,2.61-0.85c0.87-0.6,1.67-1.54,2.39-2.8c0.01-0.02,0.03-0.05,0.04-0.07c0.28-0.48,0.65-1.09,1.01-1.68 c1.56-2.56,2.91-4.79,3.08-7.97L41.75,53c-0.01-0.06-0.01-0.13-0.01-0.19c0-0.06,0.01-0.47,0.01-1.03 c0.04-2.89,0.08-6.48-2.57-6.93h-1.69h-0.02c-0.01,0.82-0.06,1.64-0.11,2.45c-0.05,0.72-0.09,1.41-0.09,2.07 c0,0.71-0.58,1.29-1.29,1.29c-0.71,0-1.29-0.58-1.29-1.29c0-0.66,0.05-1.43,0.1-2.23c0.17-2.72,0.37-5.85-1.81-6.25h-1.69 c-0.1,0-0.19-0.01-0.28-0.03c0.02,0.99-0.05,2.01-0.11,3c-0.05,0.72-0.09,1.41-0.09,2.07c0,0.71-0.58,1.29-1.29,1.29 c-0.71,0-1.29-0.58-1.29-1.29c0-0.66,0.05-1.43,0.1-2.23c0.17-2.72,0.37-5.85-1.81-6.25h-1.69c-0.12,0-0.23-0.02-0.33-0.05v4.98 c0,0.71-0.58,1.29-1.29,1.29s-1.29-0.58-1.29-1.29V29.04c0-2.24-0.91-3.65-2.08-4.24c-0.43-0.22-0.89-0.33-1.34-0.33 c-0.45,0-0.91,0.11-1.33,0.32c-1.15,0.59-2.06,2-2.06,4.3v23.43c0,0.71-0.58,1.29-1.29,1.29c-0.71,0-1.29-0.58-1.29-1.29 L12.53,50.14L12.53,50.14L12.53,50.14z M118.72,43.9v20.08h4.16v5.01h-11.07V43.9H118.72L118.72,43.9z M106.38,43.9l3.95,25.1 h-7.05l-0.37-4.51h-2.49l-0.37,4.51h-7.14l3.5-25.1H106.38L106.38,43.9z M102.71,60.05c-0.33-2.85-0.68-6.37-1.05-10.57 c-0.68,4.82-1.11,8.34-1.3,10.57H102.71L102.71,60.05z M91.42,43.9v25.1h-6.91V43.9H91.42L91.42,43.9z M66.14,43.9h4.88 c3.25,0,5.46,0.12,6.61,0.35c1.15,0.24,2.09,0.85,2.82,1.82c0.73,0.97,1.09,2.53,1.09,4.67c0,1.95-0.26,3.26-0.77,3.93 c-0.51,0.67-1.52,1.07-3.03,1.21c1.36,0.32,2.29,0.75,2.76,1.29c0.47,0.53,0.76,1.03,0.87,1.48c0.12,0.45,0.17,1.69,0.17,3.71v6.63 h-6.41v-8.35c0-1.34-0.11-2.17-0.34-2.5c-0.22-0.32-0.8-0.48-1.74-0.48v11.33h-6.91V43.9L66.14,43.9z M73.05,48.18v5.58 c0.77,0,1.31-0.1,1.62-0.3c0.31-0.2,0.46-0.86,0.46-1.96v-1.38c0-0.8-0.15-1.32-0.45-1.57C74.39,48.3,73.84,48.18,73.05,48.18 L73.05,48.18z M64.27,43.9v5.01h-4.06v20.08h-6.91V48.91H49.2V43.9H64.27L64.27,43.9z M24.5,34.93c0.11-0.03,0.22-0.05,0.33-0.05 h1.77c0.1,0,0.2,0.01,0.29,0.03c2.36,0.37,3.42,1.75,3.85,3.53c0.16-0.08,0.35-0.12,0.54-0.12h1.77c0.1,0,0.2,0.01,0.29,0.03 c2.54,0.39,3.57,1.96,3.94,3.94c0.06-0.01,0.13-0.02,0.2-0.02h1.77c0.1,0,0.2,0.01,0.29,0.03c4.87,0.75,4.81,5.59,4.76,9.5 c0,0.14,0,0.28,0,0.98v0.03l0.1,4.51c0,0.05,0,0.1,0,0.14c-0.19,3.83-1.7,6.33-3.45,9.2c-0.29,0.48-0.59,0.97-0.98,1.64 c-0.01,0.02-0.02,0.03-0.03,0.05c-0.91,1.59-1.97,2.81-3.17,3.64c-1.22,0.85-2.58,1.28-4.06,1.3c-0.04,0-0.08,0-0.12,0H17.39v0 c-1.53,0.03-2.72-0.64-3.59-1.95c-0.7-1.05-1.17-2.52-1.42-4.38L2.82,53.31c-0.01-0.02-0.03-0.03-0.04-0.05 C2.2,52.5,1.43,51.31,0.85,50c-0.44-0.99-0.77-2.06-0.83-3.1c-0.08-1.24,0.09-2.24,0.44-3.02c0.44-0.97,1.14-1.6,1.98-1.95 c0.79-0.32,1.68-0.37,2.58-0.19c1.08,0.21,2.18,0.76,3.13,1.54c0.78,0.64,2.07,1.7,3.33,2.73l1.05,0.86V29.09 c0-3.41,1.52-5.6,3.46-6.59c0.78-0.4,1.64-0.59,2.5-0.59c0.86,0,1.72,0.2,2.5,0.6c1.96,0.99,3.5,3.19,3.5,6.53V34.93L24.5,34.93 L24.5,34.93z"/></g></svg>