<svg width="517" height="276" viewBox="0 0 517 276" fill="none" xmlns="http://www.w3.org/2000/svg">
<rect width="517" height="276" fill="white"/>
<path d="M290.995 127.269C290.406 105.947 279.47 87.1447 263.004 75.7077C261.998 75.0041 260.98 74.3304 259.929 73.6796C250.484 67.8715 239.453 64.3787 227.64 64.0384C226.986 64.0177 226.331 64.0062 225.677 64.0062C225.024 64.0062 224.368 64.0177 223.727 64.0384C212.169 64.381 201.353 67.722 192.047 73.3163C190.996 73.9464 189.955 74.6086 188.948 75.303C172.148 86.6963 160.946 105.689 160.355 127.269C160.334 127.878 160.323 128.485 160.323 129.094C160.323 129.704 160.334 130.322 160.355 130.931C160.946 152.201 171.827 170.938 188.207 182.384C189.216 183.088 190.232 183.773 191.285 184.412C200.762 190.285 211.857 193.807 223.724 194.15C224.366 194.171 225.022 194.182 225.675 194.182C226.328 194.182 226.982 194.171 227.637 194.15C239.772 193.798 251.071 190.124 260.689 184.028C261.739 183.366 262.769 182.672 263.776 181.945C279.803 170.457 290.416 151.92 290.995 130.929C291.018 130.32 291.027 129.713 291.027 129.092C291.027 128.471 291.016 127.876 290.995 127.266V127.269ZM261.34 164.615C251.937 173.971 239.737 178.857 227.423 179.275C226.268 179.333 225.103 179.333 223.939 179.275C211.615 178.866 199.425 173.98 190.019 164.615C170.326 145.001 170.326 113.196 190.019 93.5829C199.423 84.2176 211.613 79.3223 223.939 78.913C225.103 78.8647 226.268 78.8647 227.423 78.913C239.737 79.3315 251.937 84.2268 261.34 93.5829C281.024 113.196 281.035 145.001 261.34 164.615Z" fill="#FFF7FF"/>
<path d="M227.231 25.6598V83.3025C226.199 83.2588 225.16 83.2588 224.119 83.3025V25.6598H227.231Z" fill="#448CEA"/>
<path d="M227.231 174.587V233.308H224.119V174.587C225.158 174.638 226.199 174.638 227.231 174.587Z" fill="#448CEA"/>
<path d="M180.286 33.7597C180.529 29.1029 176.935 25.1319 172.259 24.8903C167.583 24.6487 163.596 28.2279 163.354 32.8847C163.111 37.5416 166.705 41.5125 171.381 41.7541C176.056 41.9957 180.044 38.4165 180.286 33.7597Z" fill="#7572E9"/>
<path d="M287.981 33.7567C288.222 29.0998 284.627 25.1301 279.951 24.8901C275.275 24.6501 271.289 28.2307 271.048 32.8876C270.807 37.5445 274.403 41.5142 279.078 41.7542C283.754 41.9942 287.74 38.4136 287.981 33.7567Z" fill="#7572E9"/>
<path d="M288.006 225.041C288.162 220.381 284.495 216.477 279.815 216.321C275.136 216.166 271.216 219.818 271.06 224.478C270.904 229.139 274.571 233.043 279.25 233.198C283.93 233.354 287.85 229.702 288.006 225.041Z" fill="#7572E9"/>
<path d="M180.298 225.051C180.461 220.391 176.801 216.481 172.121 216.319C167.442 216.156 163.517 219.802 163.353 224.462C163.19 229.122 166.851 233.032 171.53 233.195C176.209 233.358 180.135 229.712 180.298 225.051Z" fill="#7572E9"/>
<path d="M176.784 127.641H132.286V130.552H176.784V127.641Z" fill="#7572E9"/>
<path d="M170.566 202.855H145.776V199.944H170.566C176.714 199.944 182.348 196.592 185.264 191.195L196.65 170.041L199.224 171.416L187.838 192.573C184.412 198.917 177.795 202.855 170.566 202.855Z" fill="#448CEA"/>
<path d="M197.467 88.1725L185.261 65.5146C182.338 60.1065 176.708 56.7449 170.566 56.7449H146.337V53.8339H170.566C177.786 53.8339 184.402 57.7819 187.835 64.1373L200.044 86.7975L197.47 88.1725H197.467Z" fill="#448CEA"/>
<path d="M149.652 53.8362C149.319 49.9066 147.65 46.0689 144.633 43.0637C137.847 36.315 126.86 36.315 120.075 43.0637C113.299 49.8215 113.299 60.7641 120.075 67.522C126.86 74.2706 137.847 74.2706 144.633 67.522C147.65 64.5167 149.322 60.6791 149.652 56.7495C149.737 55.7814 149.737 54.8134 149.652 53.8385V53.8362ZM141.17 64.0752C136.303 68.9223 128.403 68.9223 123.534 64.0752C118.667 59.2282 118.667 51.3575 123.534 46.5104C128.4 41.6634 136.301 41.6634 141.17 46.5104C146.036 51.3575 146.036 59.2282 141.17 64.0752Z" fill="#7572E9"/>
<path d="M137.201 60.1226C134.525 62.7875 130.178 62.7875 127.502 60.1226C124.826 57.4576 124.826 53.1279 127.502 50.463C130.178 47.798 134.525 47.798 137.201 50.463C139.877 53.1279 139.877 57.4576 137.201 60.1226Z" fill="#7572E9"/>
<path d="M135.663 127.643C135.356 123.688 133.678 119.816 130.644 116.795C123.859 110.037 112.863 110.037 106.089 116.795C99.3037 123.544 99.3037 134.495 106.089 141.244C112.865 148.002 123.861 148.002 130.644 141.244C133.636 138.264 135.306 134.452 135.656 130.557C135.742 129.589 135.751 128.611 135.666 127.646L135.663 127.643ZM127.184 137.804C122.308 142.651 114.414 142.651 109.547 137.804C104.671 132.948 104.671 125.086 109.547 120.239C114.414 115.383 122.308 115.383 127.184 120.239C132.05 125.086 132.05 132.948 127.184 137.804Z" fill="#7572E9"/>
<path d="M123.213 133.852C120.53 136.517 116.19 136.517 113.514 133.852C110.833 131.18 110.833 126.857 113.514 124.192C116.19 121.52 120.532 121.52 123.213 124.192C125.888 126.859 125.888 131.182 123.213 133.852Z" fill="#7572E9"/>
<path d="M149.652 199.944C149.319 196.022 147.65 192.184 144.633 189.181C137.847 182.423 126.86 182.423 120.075 189.181C113.299 195.93 113.299 206.882 120.075 213.63C126.86 220.388 137.847 220.388 144.633 213.63C147.65 210.625 149.322 206.787 149.652 202.858C149.737 201.89 149.737 200.915 149.652 199.947V199.944ZM141.17 210.181C136.303 215.037 128.403 215.037 123.534 210.181C118.667 205.334 118.667 197.473 123.534 192.616C128.4 187.769 136.301 187.769 141.17 192.616C146.036 197.473 146.036 205.334 141.17 210.181Z" fill="#7572E9"/>
<path d="M137.201 206.233C134.525 208.905 130.178 208.905 127.502 206.233C124.826 203.568 124.826 199.243 127.502 196.574C130.178 193.909 134.525 193.909 137.201 196.574C139.877 199.245 139.877 203.568 137.201 206.233Z" fill="#7572E9"/>
<path d="M319.711 127.641H275.213V130.552H319.711V127.641Z" fill="#7572E9"/>
<path d="M306.223 202.855H281.433C274.206 202.855 267.59 198.917 264.163 192.575L255.723 176.893L252.045 170.057L254.818 168.94L258.297 175.516L266.738 191.198C269.654 196.592 275.284 199.947 281.433 199.947H306.223V202.858V202.855Z" fill="#448CEA"/>
<path d="M254.529 88.1725L251.955 86.7975L264.161 64.1396C267.596 57.7819 274.213 53.8362 281.432 53.8362H305.662V56.7472H281.432C275.291 56.7472 269.66 60.1088 266.735 65.5192L254.529 88.1748V88.1725Z" fill="#448CEA"/>
<path d="M331.921 43.0637C325.136 36.315 314.149 36.315 307.366 43.0637C304.349 46.0689 302.677 49.9066 302.347 53.8362C302.262 54.8134 302.262 55.7791 302.347 56.7472C302.679 60.6768 304.349 64.5144 307.366 67.5197C314.151 74.2683 325.138 74.2683 331.921 67.5197C338.697 60.7618 338.697 49.8192 331.921 43.0614V43.0637ZM328.461 64.0752C323.594 68.9223 315.691 68.9223 310.825 64.0752C305.958 59.2282 305.958 51.3575 310.825 46.5104C315.691 41.6634 323.594 41.6634 328.461 46.5104C333.327 51.3575 333.327 59.2282 328.461 64.0752Z" fill="#7572E9"/>
<path d="M324.494 60.1226C321.819 62.7875 317.471 62.7875 314.796 60.1226C312.12 57.4576 312.12 53.1279 314.796 50.463C317.471 47.798 321.819 47.798 324.494 50.463C327.17 53.1279 327.17 57.4576 324.494 60.1226Z" fill="#7572E9"/>
<path d="M345.91 116.793C339.134 110.035 328.138 110.035 321.355 116.793C318.319 119.814 316.64 123.686 316.333 127.641C316.248 128.609 316.257 129.584 316.342 130.552C316.691 134.45 318.362 138.26 321.355 141.24C328.14 147.997 339.134 147.997 345.91 141.24C352.695 134.491 352.695 123.539 345.91 116.79V116.793ZM342.449 137.804C337.582 142.651 329.689 142.651 324.813 137.804C319.946 132.948 319.946 125.087 324.813 120.239C329.689 115.383 337.582 115.383 342.449 120.239C347.325 125.087 347.325 132.948 342.449 137.804Z" fill="#7572E9"/>
<path d="M338.483 133.852C335.807 136.517 331.464 136.517 328.784 133.852C326.108 131.18 326.108 126.857 328.784 124.192C331.464 121.52 335.807 121.52 338.483 124.192C341.163 126.859 341.163 131.182 338.483 133.852Z" fill="#7572E9"/>
<path d="M331.921 189.181C325.136 182.423 314.149 182.423 307.366 189.181C304.349 192.186 302.677 196.024 302.347 199.944C302.262 200.912 302.262 201.887 302.347 202.855C302.679 206.785 304.349 210.623 307.366 213.628C314.151 220.386 325.138 220.386 331.921 213.628C338.697 206.879 338.697 195.927 331.921 189.179V189.181ZM328.461 210.184C323.594 215.04 315.691 215.04 310.825 210.184C305.958 205.336 305.958 197.475 310.825 192.619C315.691 187.772 323.594 187.772 328.461 192.619C333.327 197.475 333.327 205.336 328.461 210.184Z" fill="#7572E9"/>
<path d="M137.201 60.1226C134.525 62.7875 130.178 62.7875 127.502 60.1226C124.826 57.4576 124.826 53.1279 127.502 50.463C130.178 47.798 134.525 47.798 137.201 50.463C139.877 53.1279 139.877 57.4576 137.201 60.1226Z" fill="#448CEA"/>
<path d="M123.213 133.852C120.53 136.517 116.19 136.517 113.514 133.852C110.833 131.18 110.833 126.857 113.514 124.192C116.19 121.52 120.532 121.52 123.213 124.192C125.888 126.859 125.888 131.182 123.213 133.852Z" fill="#448CEA"/>
<path d="M137.201 206.233C134.525 208.905 130.178 208.905 127.502 206.233C124.826 203.568 124.826 199.243 127.502 196.574C130.178 193.909 134.525 193.909 137.201 196.574C139.877 199.245 139.877 203.568 137.201 206.233Z" fill="#448CEA"/>
<path d="M324.494 60.1226C321.819 62.7875 317.471 62.7875 314.796 60.1226C312.12 57.4576 312.12 53.1279 314.796 50.463C317.471 47.798 321.819 47.798 324.494 50.463C327.17 53.1279 327.17 57.4576 324.494 60.1226Z" fill="#448CEA"/>
<path d="M338.483 133.852C335.807 136.517 331.464 136.517 328.784 133.852C326.108 131.18 326.108 126.857 328.784 124.192C331.464 121.52 335.807 121.52 338.483 124.192C341.163 126.859 341.163 131.182 338.483 133.852Z" fill="#448CEA"/>
<path d="M324.494 206.233C321.819 208.905 317.471 208.905 314.796 206.233C312.12 203.568 312.12 199.243 314.796 196.574C317.471 193.909 321.819 193.909 324.494 196.574C327.17 199.245 327.17 203.568 324.494 206.233Z" fill="#448CEA"/>
<path d="M295.705 127.643C295.218 103.831 282.688 82.9138 263.944 70.6973C263.127 70.1616 262.307 69.6442 261.465 69.1522C251.406 63.1669 239.719 59.6282 227.233 59.3638C226.714 59.3477 226.192 59.3385 225.673 59.3385C225.153 59.3385 224.641 59.3477 224.121 59.3638C211.839 59.619 200.332 63.0474 190.384 68.8624C189.532 69.3453 188.697 69.8558 187.879 70.3823C168.879 82.5643 156.146 103.636 155.65 127.643C155.641 128.126 155.634 128.611 155.634 129.094C155.634 129.577 155.643 130.071 155.65 130.554C156.137 154.316 168.615 175.199 187.291 187.415C188.108 187.958 188.934 188.475 189.779 188.97C199.864 195.005 211.592 198.572 224.121 198.834C224.641 198.85 225.153 198.859 225.673 198.859C226.192 198.859 226.712 198.85 227.233 198.834C239.968 198.562 251.867 194.886 262.06 188.68C262.896 188.179 263.722 187.652 264.533 187.1C282.945 174.842 295.218 154.111 295.705 130.554C295.714 130.071 295.721 129.577 295.721 129.094C295.721 128.611 295.712 128.126 295.705 127.643ZM261.695 181.839C260.885 182.382 260.068 182.918 259.232 183.426C249.882 189.181 238.936 192.603 227.233 192.883C226.714 192.892 226.192 192.899 225.673 192.899C225.153 192.899 224.641 192.89 224.121 192.883C212.615 192.612 201.849 189.291 192.601 183.716C191.765 183.214 190.938 182.697 190.128 182.154C173.318 170.956 162.11 152.051 161.625 130.557C161.616 130.074 161.609 129.579 161.609 129.097C161.609 128.614 161.618 128.128 161.625 127.646C162.112 105.905 173.584 86.8044 190.717 75.6571C191.525 75.1213 192.36 74.604 193.205 74.1119C202.309 68.7544 212.862 65.579 224.121 65.3076C224.641 65.2984 225.153 65.2915 225.673 65.2915C226.192 65.2915 226.712 65.3007 227.233 65.3076C238.689 65.579 249.411 68.8648 258.634 74.3993C259.47 74.9006 260.296 75.4179 261.104 75.9606C277.972 87.1585 289.234 106.098 289.718 127.643C289.728 128.126 289.737 128.611 289.737 129.094C289.737 129.577 289.728 130.071 289.718 130.554C289.241 151.846 278.237 170.598 261.693 181.837L261.695 181.839Z" fill="#7572E9"/>
<path d="M225.689 219.944C206.183 219.944 187.579 213.885 171.885 202.425L172.736 201.267L172.725 199.795H173.226L173.611 200.078C188.8 211.17 206.808 217.033 225.689 217.033C244.569 217.033 262.647 211.147 277.852 200.009L279.583 202.352C263.87 213.858 245.234 219.942 225.687 219.942L225.689 219.944Z" fill="#448CEA"/>
<path d="M276.261 57.0253C261.395 46.6529 243.907 41.1689 225.689 41.1689C207.471 41.1689 190.084 46.6138 175.271 56.915L173.598 54.5305C188.904 43.8868 206.917 38.2603 225.689 38.2603C244.461 38.2603 262.58 43.9259 277.937 54.6432L276.259 57.0276L276.261 57.0253Z" fill="#448CEA"/>
<path d="M277.609 127.643C277.141 110.69 268.446 95.7419 255.353 86.6479C254.552 86.0869 253.742 85.5534 252.909 85.0361C245.398 80.419 236.628 77.6413 227.236 77.37C226.716 77.3539 226.195 77.3447 225.675 77.3447C225.156 77.3447 224.634 77.3539 224.124 77.37C214.935 77.6413 206.335 80.2994 198.936 84.7464C198.1 85.2476 197.273 85.7742 196.472 86.326C183.114 95.3832 174.207 110.485 173.739 127.643C173.722 128.126 173.713 128.611 173.713 129.094C173.713 129.577 173.722 130.071 173.739 130.554C174.207 147.464 182.86 162.364 195.884 171.464C196.685 172.026 197.495 172.568 198.331 173.076C205.866 177.746 214.688 180.547 224.124 180.818C224.634 180.834 225.156 180.844 225.675 180.844C226.195 180.844 226.714 180.834 227.236 180.818C236.884 180.538 245.867 177.618 253.513 172.771C254.349 172.244 255.166 171.692 255.968 171.115C268.712 161.98 277.148 147.243 277.609 130.554C277.628 130.071 277.635 129.586 277.635 129.094C277.635 128.602 277.625 128.126 277.609 127.643ZM257.519 160.812C249.125 169.165 238.23 173.529 227.236 173.902C226.204 173.952 225.165 173.952 224.124 173.902C213.12 173.536 202.235 169.174 193.838 160.812C176.253 143.297 176.253 114.902 193.838 97.3883C202.235 89.0255 213.118 84.6544 224.124 84.2888C225.163 84.2451 226.204 84.2451 227.236 84.2888C238.23 84.6613 249.125 89.0347 257.519 97.3883C275.095 114.902 275.104 143.297 257.519 160.812Z" fill="#448CEA"/>
<path d="M311.831 102.274C308.269 102.274 305.381 99.398 305.381 95.8501C305.381 92.3021 308.269 89.4257 311.831 89.4257C315.393 89.4257 318.282 92.3021 318.282 95.8501C318.282 99.398 315.393 102.274 311.831 102.274Z" fill="#448CEA"/>
<path d="M311.831 168.763C308.269 168.763 305.381 165.886 305.381 162.338C305.381 158.79 308.269 155.914 311.831 155.914C315.393 155.914 318.282 158.79 318.282 162.338C318.282 165.886 315.393 168.763 311.831 168.763Z" fill="#448CEA"/>
<path d="M139.517 155.912C143.079 155.912 145.967 158.788 145.967 162.336C145.967 165.884 143.079 168.76 139.517 168.76C135.954 168.76 133.066 165.884 133.066 162.336C133.066 158.788 135.954 155.912 139.517 155.912Z" fill="#448CEA"/>
<path d="M139.517 89.4257C143.079 89.4257 145.967 92.3021 145.967 95.8501C145.967 99.398 143.079 102.274 139.517 102.274C135.954 102.274 133.066 99.398 133.066 95.8501C133.066 92.3021 135.954 89.4257 139.517 89.4257Z" fill="#448CEA"/>
<path d="M234.598 18.918C234.598 23.8272 230.604 27.8051 225.675 27.8051C220.746 27.8051 216.752 23.8249 216.752 18.918C216.752 14.0112 220.746 10.031 225.675 10.031C230.604 10.031 234.598 14.0112 234.598 18.918Z" fill="#448CEA"/>
<path d="M198.746 11.4244C198.746 14.9723 195.858 17.8488 192.296 17.8488C188.734 17.8488 185.845 14.9723 185.845 11.4244C185.845 7.8765 188.734 5 192.296 5C195.858 5 198.746 7.8765 198.746 11.4244Z" fill="#448CEA"/>
<path d="M259.054 17.8488C262.617 17.8488 265.505 14.9725 265.505 11.4244C265.505 7.87631 262.617 5 259.054 5C255.492 5 252.604 7.87631 252.604 11.4244C252.604 14.9725 255.492 17.8488 259.054 17.8488Z" fill="#448CEA"/>
<path d="M216.752 239.27C216.752 234.361 220.746 230.383 225.675 230.383C230.604 230.383 234.598 234.363 234.598 239.27C234.598 244.177 230.604 248.157 225.675 248.157C220.746 248.157 216.752 244.177 216.752 239.27Z" fill="#448CEA"/>
<path d="M252.601 246.764C252.601 243.216 255.49 240.34 259.052 240.34C262.614 240.34 265.502 243.216 265.502 246.764C265.502 250.312 262.614 253.188 259.052 253.188C255.49 253.188 252.601 250.312 252.601 246.764Z" fill="#448CEA"/>
<path d="M198.749 246.963C198.855 243.416 196.054 240.456 192.493 240.35C188.933 240.244 185.96 243.033 185.853 246.58C185.747 250.126 188.548 253.087 192.109 253.193C195.669 253.299 198.642 250.509 198.749 246.963Z" fill="#448CEA"/>
<path d="M197.377 136.753L194.914 144.712H186.803L197.375 113.712H207.639L218.366 144.712H209.948L207.279 136.753H197.375H197.377ZM206.153 131.509L203.996 124.932C203.38 123.093 202.764 120.794 202.251 118.952H202.147C201.635 120.791 201.12 123.139 200.556 124.932L198.504 131.509H206.15H206.153Z" fill="#448CEA"/>
<path d="M222.979 114.125C225.391 113.757 228.778 113.482 233.552 113.482C238.327 113.482 241.815 114.309 244.124 115.965C246.331 117.528 247.82 120.104 247.82 123.139C247.82 126.174 246.691 128.749 244.636 130.497C241.968 132.75 238.015 133.762 233.398 133.762C232.37 133.762 231.447 133.716 230.729 133.624V144.709H222.979V114.121V114.125ZM230.729 128.2C231.396 128.338 232.218 128.384 233.347 128.384C237.503 128.384 240.07 126.498 240.07 123.323C240.07 120.469 237.863 118.77 233.963 118.77C232.373 118.77 231.294 118.908 230.731 119.046V128.2H230.729Z" fill="#448CEA"/>
<path d="M260.643 113.712V144.712H252.791V113.712H260.643Z" fill="#448CEA"/>
<path d="M17.3636 238.256C16.0227 238.256 14.8693 237.972 13.9034 237.403C12.9432 236.83 12.2045 236.034 11.6875 235.017C11.1761 234 10.9205 232.83 10.9205 231.506C10.9205 230.165 11.179 228.989 11.696 227.977C12.2188 226.96 12.9602 226.168 13.9205 225.599C14.8807 225.026 16.0227 224.739 17.3466 224.739C18.4886 224.739 19.4886 224.946 20.3466 225.361C21.2045 225.776 21.8835 226.358 22.3835 227.108C22.8835 227.858 23.1591 228.739 23.2102 229.75H19.7841C19.6875 229.097 19.4318 228.571 19.017 228.173C18.608 227.77 18.071 227.568 17.4062 227.568C16.8438 227.568 16.3523 227.722 15.9318 228.028C15.517 228.33 15.1932 228.77 14.9602 229.349C14.7273 229.929 14.6108 230.631 14.6108 231.455C14.6108 232.29 14.7244 233 14.9517 233.585C15.1847 234.17 15.5114 234.616 15.9318 234.923C16.3523 235.23 16.8438 235.384 17.4062 235.384C17.821 235.384 18.1932 235.298 18.5227 235.128C18.858 234.957 19.1335 234.71 19.3494 234.386C19.571 234.057 19.7159 233.662 19.7841 233.202H23.2102C23.1534 234.202 22.8807 235.082 22.392 235.844C21.9091 236.599 21.2415 237.19 20.3892 237.616C19.5369 238.043 18.5284 238.256 17.3636 238.256ZM25.5348 238V224.909H29.0547V227.193H29.1911C29.4297 226.381 29.8303 225.767 30.3928 225.352C30.9553 224.932 31.603 224.722 32.3359 224.722C32.5178 224.722 32.7138 224.733 32.924 224.756C33.1342 224.778 33.3189 224.81 33.478 224.849V228.071C33.3075 228.02 33.0717 227.974 32.7706 227.935C32.4695 227.895 32.1939 227.875 31.9439 227.875C31.4098 227.875 30.9325 227.991 30.5121 228.224C30.0973 228.452 29.7678 228.77 29.5234 229.179C29.2848 229.588 29.1655 230.06 29.1655 230.594V238H25.5348ZM37.4709 238H33.5163L39.5419 220.545H44.2976L50.3146 238H46.3601L41.9879 224.534H41.8516L37.4709 238ZM37.2237 231.139H46.5646V234.02H37.2237V231.139ZM52.4155 238V220.545H59.3018C60.6257 220.545 61.7536 220.798 62.6854 221.304C63.6172 221.804 64.3274 222.5 64.8161 223.392C65.3104 224.278 65.5575 225.301 65.5575 226.46C65.5575 227.619 65.3075 228.642 64.8075 229.528C64.3075 230.415 63.5831 231.105 62.6342 231.599C61.6911 232.094 60.549 232.341 59.2081 232.341H54.8189V229.384H58.6115C59.3217 229.384 59.907 229.261 60.3672 229.017C60.8331 228.767 61.1797 228.423 61.407 227.986C61.6399 227.543 61.7564 227.034 61.7564 226.46C61.7564 225.881 61.6399 225.375 61.407 224.943C61.1797 224.506 60.8331 224.168 60.3672 223.929C59.9013 223.685 59.3104 223.562 58.5945 223.562H56.1058V238H52.4155ZM71.6449 220.545V238H67.9545V220.545H71.6449Z" fill="#2C72DC"/>
<path d="M365.517 220.545H370.068L374.875 232.273H375.08L379.886 220.545H384.438V238H380.858V226.639H380.713L376.196 237.915H373.759L369.241 226.597H369.097V238H365.517V220.545ZM391.143 238.247C390.308 238.247 389.563 238.102 388.91 237.812C388.256 237.517 387.739 237.082 387.359 236.509C386.984 235.929 386.796 235.207 386.796 234.344C386.796 233.616 386.93 233.006 387.197 232.511C387.464 232.017 387.827 231.619 388.288 231.318C388.748 231.017 389.271 230.79 389.856 230.636C390.447 230.483 391.066 230.375 391.714 230.312C392.475 230.233 393.089 230.159 393.555 230.091C394.021 230.017 394.359 229.909 394.569 229.767C394.779 229.625 394.884 229.415 394.884 229.136V229.085C394.884 228.545 394.714 228.128 394.373 227.832C394.038 227.537 393.56 227.389 392.941 227.389C392.288 227.389 391.768 227.534 391.381 227.824C390.995 228.108 390.739 228.466 390.614 228.898L387.256 228.625C387.427 227.83 387.762 227.142 388.262 226.562C388.762 225.977 389.407 225.528 390.197 225.216C390.992 224.898 391.913 224.739 392.958 224.739C393.685 224.739 394.381 224.824 395.046 224.994C395.717 225.165 396.31 225.429 396.827 225.787C397.35 226.145 397.762 226.605 398.063 227.168C398.364 227.724 398.515 228.392 398.515 229.17V238H395.072V236.185H394.969C394.759 236.594 394.478 236.955 394.126 237.267C393.773 237.574 393.35 237.815 392.856 237.991C392.362 238.162 391.79 238.247 391.143 238.247ZM392.183 235.741C392.717 235.741 393.188 235.636 393.597 235.426C394.006 235.21 394.327 234.92 394.56 234.557C394.793 234.193 394.91 233.781 394.91 233.321V231.932C394.796 232.006 394.64 232.074 394.441 232.136C394.248 232.193 394.029 232.247 393.785 232.298C393.54 232.344 393.296 232.386 393.052 232.426C392.808 232.46 392.586 232.491 392.387 232.52C391.961 232.582 391.589 232.682 391.271 232.818C390.952 232.955 390.705 233.139 390.529 233.372C390.353 233.599 390.265 233.884 390.265 234.224C390.265 234.719 390.444 235.097 390.802 235.358C391.165 235.614 391.626 235.741 392.183 235.741ZM404.962 220.545V238H401.332V220.545H404.962ZM417.408 225.565C417.339 224.878 417.047 224.344 416.53 223.963C416.013 223.582 415.311 223.392 414.425 223.392C413.822 223.392 413.314 223.477 412.899 223.648C412.484 223.812 412.166 224.043 411.945 224.338C411.729 224.634 411.621 224.969 411.621 225.344C411.609 225.656 411.675 225.929 411.817 226.162C411.964 226.395 412.166 226.597 412.422 226.767C412.678 226.932 412.973 227.077 413.308 227.202C413.643 227.321 414.001 227.423 414.382 227.509L415.95 227.884C416.712 228.054 417.411 228.281 418.047 228.565C418.683 228.849 419.234 229.199 419.7 229.614C420.166 230.028 420.527 230.517 420.783 231.08C421.044 231.642 421.178 232.287 421.183 233.014C421.178 234.082 420.905 235.009 420.365 235.793C419.831 236.571 419.058 237.176 418.047 237.608C417.041 238.034 415.828 238.247 414.408 238.247C412.999 238.247 411.771 238.031 410.726 237.599C409.686 237.168 408.874 236.528 408.288 235.682C407.709 234.83 407.405 233.776 407.376 232.52H410.947C410.987 233.105 411.155 233.594 411.45 233.986C411.751 234.372 412.152 234.665 412.652 234.864C413.158 235.057 413.729 235.153 414.365 235.153C414.99 235.153 415.533 235.062 415.993 234.881C416.459 234.699 416.82 234.446 417.075 234.122C417.331 233.798 417.459 233.426 417.459 233.006C417.459 232.614 417.342 232.284 417.109 232.017C416.882 231.75 416.547 231.523 416.104 231.335C415.666 231.148 415.129 230.977 414.493 230.824L412.592 230.347C411.121 229.989 409.959 229.429 409.107 228.668C408.254 227.906 407.831 226.881 407.837 225.591C407.831 224.534 408.112 223.611 408.68 222.821C409.254 222.031 410.041 221.415 411.041 220.972C412.041 220.528 413.178 220.307 414.45 220.307C415.746 220.307 416.876 220.528 417.842 220.972C418.814 221.415 419.57 222.031 420.109 222.821C420.649 223.611 420.928 224.526 420.945 225.565H417.408ZM429.512 238.256C428.171 238.256 427.018 237.972 426.052 237.403C425.092 236.83 424.353 236.034 423.836 235.017C423.325 234 423.069 232.83 423.069 231.506C423.069 230.165 423.327 228.989 423.844 227.977C424.367 226.96 425.109 226.168 426.069 225.599C427.029 225.026 428.171 224.739 429.495 224.739C430.637 224.739 431.637 224.946 432.495 225.361C433.353 225.776 434.032 226.358 434.532 227.108C435.032 227.858 435.308 228.739 435.359 229.75H431.933C431.836 229.097 431.58 228.571 431.165 228.173C430.756 227.77 430.219 227.568 429.555 227.568C428.992 227.568 428.501 227.722 428.08 228.028C427.665 228.33 427.342 228.77 427.109 229.349C426.876 229.929 426.759 230.631 426.759 231.455C426.759 232.29 426.873 233 427.1 233.585C427.333 234.17 427.66 234.616 428.08 234.923C428.501 235.23 428.992 235.384 429.555 235.384C429.969 235.384 430.342 235.298 430.671 235.128C431.006 234.957 431.282 234.71 431.498 234.386C431.719 234.057 431.864 233.662 431.933 233.202H435.359C435.302 234.202 435.029 235.082 434.54 235.844C434.058 236.599 433.39 237.19 432.538 237.616C431.685 238.043 430.677 238.256 429.512 238.256ZM441.314 230.432V238H437.683V220.545H441.212V227.219H441.365C441.661 226.446 442.138 225.841 442.797 225.403C443.456 224.96 444.283 224.739 445.277 224.739C446.186 224.739 446.979 224.938 447.655 225.335C448.337 225.727 448.865 226.293 449.24 227.031C449.621 227.764 449.808 228.642 449.803 229.665V238H446.172V230.312C446.178 229.506 445.973 228.878 445.558 228.429C445.149 227.98 444.575 227.756 443.837 227.756C443.342 227.756 442.905 227.861 442.524 228.071C442.149 228.281 441.854 228.588 441.638 228.991C441.428 229.389 441.32 229.869 441.314 230.432ZM458.626 238.256C457.279 238.256 456.12 237.983 455.148 237.438C454.183 236.886 453.438 236.108 452.915 235.102C452.393 234.091 452.131 232.895 452.131 231.514C452.131 230.168 452.393 228.986 452.915 227.969C453.438 226.952 454.174 226.159 455.123 225.591C456.077 225.023 457.197 224.739 458.481 224.739C459.344 224.739 460.148 224.878 460.893 225.156C461.643 225.429 462.296 225.841 462.853 226.392C463.415 226.943 463.853 227.636 464.165 228.472C464.478 229.301 464.634 230.273 464.634 231.386V232.384H453.58V230.134H461.217C461.217 229.611 461.103 229.148 460.876 228.744C460.648 228.341 460.333 228.026 459.93 227.798C459.532 227.565 459.069 227.449 458.54 227.449C457.989 227.449 457.501 227.577 457.075 227.832C456.654 228.082 456.325 228.42 456.086 228.847C455.847 229.267 455.725 229.736 455.719 230.253V232.392C455.719 233.04 455.839 233.599 456.077 234.071C456.322 234.543 456.665 234.906 457.109 235.162C457.552 235.418 458.077 235.545 458.685 235.545C459.089 235.545 459.458 235.489 459.793 235.375C460.129 235.261 460.415 235.091 460.654 234.864C460.893 234.636 461.075 234.358 461.2 234.028L464.558 234.25C464.387 235.057 464.038 235.761 463.509 236.364C462.987 236.96 462.31 237.426 461.481 237.761C460.657 238.091 459.705 238.256 458.626 238.256ZM467.004 238V224.909H470.464V227.219H470.617C470.89 226.452 471.344 225.847 471.981 225.403C472.617 224.96 473.379 224.739 474.265 224.739C475.163 224.739 475.927 224.963 476.558 225.412C477.188 225.855 477.609 226.457 477.819 227.219H477.955C478.222 226.469 478.705 225.869 479.404 225.42C480.109 224.966 480.941 224.739 481.901 224.739C483.123 224.739 484.114 225.128 484.876 225.906C485.643 226.679 486.026 227.776 486.026 229.196V238H482.404V229.912C482.404 229.185 482.211 228.639 481.825 228.276C481.438 227.912 480.955 227.73 480.376 227.73C479.717 227.73 479.202 227.94 478.833 228.361C478.464 228.776 478.279 229.324 478.279 230.006V238H474.759V229.835C474.759 229.193 474.575 228.682 474.205 228.301C473.842 227.92 473.362 227.73 472.765 227.73C472.362 227.73 471.998 227.832 471.674 228.037C471.356 228.236 471.103 228.517 470.915 228.881C470.728 229.239 470.634 229.659 470.634 230.142V238H467.004ZM492.627 238.247C491.792 238.247 491.048 238.102 490.394 237.812C489.741 237.517 489.224 237.082 488.843 236.509C488.468 235.929 488.281 235.207 488.281 234.344C488.281 233.616 488.414 233.006 488.681 232.511C488.948 232.017 489.312 231.619 489.772 231.318C490.232 231.017 490.755 230.79 491.34 230.636C491.931 230.483 492.55 230.375 493.198 230.312C493.96 230.233 494.573 230.159 495.039 230.091C495.505 230.017 495.843 229.909 496.053 229.767C496.263 229.625 496.369 229.415 496.369 229.136V229.085C496.369 228.545 496.198 228.128 495.857 227.832C495.522 227.537 495.045 227.389 494.425 227.389C493.772 227.389 493.252 227.534 492.866 227.824C492.479 228.108 492.224 228.466 492.099 228.898L488.741 228.625C488.911 227.83 489.246 227.142 489.746 226.562C490.246 225.977 490.891 225.528 491.681 225.216C492.477 224.898 493.397 224.739 494.442 224.739C495.17 224.739 495.866 224.824 496.531 224.994C497.201 225.165 497.795 225.429 498.312 225.787C498.835 226.145 499.246 226.605 499.548 227.168C499.849 227.724 499.999 228.392 499.999 229.17V238H496.556V236.185H496.454C496.244 236.594 495.962 236.955 495.61 237.267C495.258 237.574 494.835 237.815 494.34 237.991C493.846 238.162 493.275 238.247 492.627 238.247ZM493.667 235.741C494.201 235.741 494.673 235.636 495.082 235.426C495.491 235.21 495.812 234.92 496.045 234.557C496.278 234.193 496.394 233.781 496.394 233.321V231.932C496.281 232.006 496.124 232.074 495.925 232.136C495.732 232.193 495.513 232.247 495.269 232.298C495.025 232.344 494.781 232.386 494.536 232.426C494.292 232.46 494.07 232.491 493.871 232.52C493.445 232.582 493.073 232.682 492.755 232.818C492.437 232.955 492.19 233.139 492.013 233.372C491.837 233.599 491.749 233.884 491.749 234.224C491.749 234.719 491.928 235.097 492.286 235.358C492.65 235.614 493.11 235.741 493.667 235.741Z" fill="#7572E9"/>
<path d="M14.108 249.455V250.648H10.2386V249.455H14.108ZM11.206 256V248.837C11.206 248.396 11.2969 248.03 11.4787 247.737C11.6634 247.445 11.9105 247.226 12.2202 247.081C12.5298 246.936 12.8736 246.864 13.2514 246.864C13.5185 246.864 13.7557 246.885 13.9631 246.928C14.1705 246.97 14.3239 247.009 14.4233 247.043L14.1165 248.236C14.0511 248.216 13.9688 248.196 13.8693 248.176C13.7699 248.153 13.6591 248.142 13.5369 248.142C13.25 248.142 13.0469 248.212 12.9276 248.351C12.8111 248.487 12.7528 248.683 12.7528 248.939V256H11.206ZM18.0691 256.128C17.4299 256.128 16.8759 255.987 16.4071 255.706C15.9384 255.425 15.5748 255.031 15.3162 254.526C15.0605 254.02 14.9327 253.429 14.9327 252.753C14.9327 252.077 15.0605 251.484 15.3162 250.976C15.5748 250.467 15.9384 250.072 16.4071 249.791C16.8759 249.51 17.4299 249.369 18.0691 249.369C18.7083 249.369 19.2623 249.51 19.731 249.791C20.1998 250.072 20.562 250.467 20.8177 250.976C21.0762 251.484 21.2054 252.077 21.2054 252.753C21.2054 253.429 21.0762 254.02 20.8177 254.526C20.562 255.031 20.1998 255.425 19.731 255.706C19.2623 255.987 18.7083 256.128 18.0691 256.128ZM18.0776 254.892C18.4242 254.892 18.714 254.797 18.9469 254.607C19.1799 254.413 19.3532 254.155 19.4668 253.831C19.5833 253.507 19.6415 253.146 19.6415 252.749C19.6415 252.348 19.5833 251.986 19.4668 251.662C19.3532 251.335 19.1799 251.075 18.9469 250.882C18.714 250.689 18.4242 250.592 18.0776 250.592C17.7225 250.592 17.427 250.689 17.1912 250.882C16.9583 251.075 16.7836 251.335 16.6671 251.662C16.5534 251.986 16.4966 252.348 16.4966 252.749C16.4966 253.146 16.5534 253.507 16.6671 253.831C16.7836 254.155 16.9583 254.413 17.1912 254.607C17.427 254.797 17.7225 254.892 18.0776 254.892ZM22.6587 256V249.455H24.1545V250.545H24.2227C24.342 250.168 24.5465 249.876 24.8363 249.672C25.1289 249.464 25.4627 249.361 25.8377 249.361C25.9229 249.361 26.0181 249.365 26.1232 249.374C26.2312 249.379 26.3207 249.389 26.3917 249.403V250.822C26.3264 250.8 26.2227 250.78 26.0806 250.763C25.9414 250.743 25.8065 250.733 25.6758 250.733C25.3945 250.733 25.1417 250.794 24.9173 250.916C24.6957 251.036 24.521 251.202 24.3931 251.415C24.2653 251.628 24.2014 251.874 24.2014 252.152V256H22.6587ZM35.8544 251.185L34.4482 251.338C34.4084 251.196 34.3388 251.062 34.2394 250.938C34.1428 250.812 34.0121 250.712 33.8473 250.635C33.6825 250.558 33.4808 250.52 33.2422 250.52C32.9212 250.52 32.6513 250.589 32.4325 250.729C32.2166 250.868 32.1101 251.048 32.1129 251.27C32.1101 251.46 32.1797 251.615 32.3217 251.734C32.4666 251.854 32.7053 251.952 33.0376 252.028L34.1541 252.267C34.7734 252.401 35.2337 252.612 35.5348 252.902C35.8388 253.192 35.9922 253.571 35.995 254.04C35.9922 254.452 35.8715 254.815 35.6328 255.131C35.397 255.443 35.0689 255.687 34.6484 255.864C34.228 256.04 33.745 256.128 33.1996 256.128C32.3984 256.128 31.7536 255.96 31.2649 255.625C30.7763 255.287 30.4851 254.817 30.3913 254.214L31.8956 254.07C31.9638 254.365 32.1087 254.588 32.3303 254.739C32.5519 254.889 32.8402 254.964 33.1953 254.964C33.5618 254.964 33.8558 254.889 34.0774 254.739C34.3019 254.588 34.4141 254.402 34.4141 254.18C34.4141 253.993 34.3416 253.838 34.1967 253.716C34.0547 253.594 33.8331 253.5 33.532 253.435L32.4155 253.2C31.7876 253.07 31.3232 252.849 31.022 252.54C30.7209 252.227 30.5717 251.832 30.5746 251.355C30.5717 250.952 30.6811 250.602 30.9027 250.307C31.1271 250.009 31.4382 249.778 31.8359 249.616C32.2365 249.452 32.6982 249.369 33.2209 249.369C33.9879 249.369 34.5916 249.533 35.032 249.859C35.4751 250.186 35.7493 250.628 35.8544 251.185ZM40.3088 256.128C39.6525 256.128 39.0858 255.991 38.6085 255.719C38.1341 255.443 37.769 255.054 37.5133 254.551C37.2576 254.045 37.1298 253.45 37.1298 252.766C37.1298 252.092 37.2576 251.501 37.5133 250.993C37.7718 250.482 38.1326 250.084 38.5957 249.8C39.0588 249.513 39.6028 249.369 40.2278 249.369C40.6312 249.369 41.0119 249.435 41.3699 249.565C41.7307 249.693 42.0488 249.892 42.3244 250.162C42.6028 250.432 42.8216 250.776 42.9807 251.193C43.1397 251.608 43.2193 252.102 43.2193 252.676V253.149H37.8542V252.109H41.7406C41.7378 251.814 41.6738 251.551 41.5488 251.321C41.4238 251.088 41.2491 250.905 41.0247 250.771C40.8031 250.638 40.5446 250.571 40.2491 250.571C39.9338 250.571 39.6568 250.648 39.4182 250.801C39.1795 250.952 38.9934 251.151 38.8599 251.398C38.7292 251.642 38.6625 251.911 38.6596 252.203V253.111C38.6596 253.491 38.7292 253.818 38.8684 254.091C39.0076 254.361 39.2022 254.568 39.4522 254.713C39.7022 254.855 39.9949 254.926 40.3301 254.926C40.5545 254.926 40.7576 254.895 40.9395 254.832C41.1213 254.767 41.2789 254.672 41.4125 254.547C41.546 254.422 41.6468 254.267 41.715 254.082L43.1554 254.244C43.0645 254.625 42.8912 254.957 42.6355 255.241C42.3826 255.523 42.0588 255.741 41.6639 255.898C41.269 256.051 40.8173 256.128 40.3088 256.128ZM47.5234 256.128C46.87 256.128 46.309 255.984 45.8402 255.697C45.3743 255.411 45.0149 255.014 44.7621 254.509C44.5121 254 44.3871 253.415 44.3871 252.753C44.3871 252.088 44.5149 251.501 44.7706 250.993C45.0263 250.482 45.3871 250.084 45.853 249.8C46.3217 249.513 46.8757 249.369 47.5149 249.369C48.0462 249.369 48.5163 249.467 48.9254 249.663C49.3374 249.857 49.6655 250.131 49.9098 250.486C50.1541 250.838 50.2933 251.25 50.3274 251.722H48.853C48.7933 251.406 48.6513 251.143 48.4269 250.933C48.2053 250.72 47.9084 250.614 47.5362 250.614C47.2209 250.614 46.9439 250.699 46.7053 250.869C46.4666 251.037 46.2805 251.278 46.147 251.594C46.0163 251.909 45.951 252.287 45.951 252.727C45.951 253.173 46.0163 253.557 46.147 253.878C46.2777 254.196 46.4609 254.442 46.6967 254.615C46.9354 254.786 47.2152 254.871 47.5362 254.871C47.7635 254.871 47.9666 254.828 48.1456 254.743C48.3274 254.655 48.4794 254.528 48.6016 254.364C48.7237 254.199 48.8075 253.999 48.853 253.763H50.3274C50.2905 254.226 50.1541 254.636 49.9183 254.994C49.6825 255.349 49.3615 255.628 48.9553 255.83C48.549 256.028 48.0717 256.128 47.5234 256.128ZM55.91 253.247V249.455H57.4526V256H55.9569V254.837H55.8887C55.741 255.203 55.4981 255.503 55.16 255.736C54.8248 255.969 54.4114 256.085 53.9199 256.085C53.491 256.085 53.1117 255.99 52.7821 255.8C52.4554 255.607 52.1998 255.327 52.0151 254.96C51.8304 254.591 51.7381 254.145 51.7381 253.622V249.455H53.2807V253.384C53.2807 253.798 53.3944 254.128 53.6216 254.372C53.8489 254.616 54.1472 254.739 54.5165 254.739C54.7438 254.739 54.964 254.683 55.177 254.572C55.3901 254.462 55.5648 254.297 55.7012 254.078C55.8404 253.857 55.91 253.58 55.91 253.247ZM59.1829 256V249.455H60.6786V250.545H60.7468C60.8661 250.168 61.0707 249.876 61.3605 249.672C61.6531 249.464 61.9869 249.361 62.3619 249.361C62.4471 249.361 62.5423 249.365 62.6474 249.374C62.7553 249.379 62.8448 249.389 62.9158 249.403V250.822C62.8505 250.8 62.7468 250.78 62.6048 250.763C62.4656 250.743 62.3306 250.733 62.1999 250.733C61.9187 250.733 61.6658 250.794 61.4414 250.916C61.2198 251.036 61.0451 251.202 60.9173 251.415C60.7894 251.628 60.7255 251.874 60.7255 252.152V256H59.1829ZM64.0847 256V249.455H65.6273V256H64.0847ZM64.8603 248.526C64.616 248.526 64.4057 248.445 64.2296 248.283C64.0535 248.118 63.9654 247.92 63.9654 247.69C63.9654 247.457 64.0535 247.26 64.2296 247.098C64.4057 246.933 64.616 246.851 64.8603 246.851C65.1074 246.851 65.3177 246.933 65.491 247.098C65.6671 247.26 65.7552 247.457 65.7552 247.69C65.7552 247.92 65.6671 248.118 65.491 248.283C65.3177 248.445 65.1074 248.526 64.8603 248.526ZM70.6261 249.455V250.648H66.8633V249.455H70.6261ZM67.7923 247.886H69.3349V254.031C69.3349 254.239 69.3661 254.398 69.4286 254.509C69.494 254.616 69.5792 254.69 69.6843 254.73C69.7894 254.77 69.9059 254.79 70.0337 254.79C70.1303 254.79 70.2184 254.783 70.298 254.768C70.3803 254.754 70.4428 254.741 70.4855 254.73L70.7454 255.936C70.663 255.964 70.5451 255.996 70.3917 256.03C70.2411 256.064 70.0565 256.084 69.8377 256.089C69.4514 256.101 69.1034 256.043 68.7937 255.915C68.484 255.784 68.2383 255.582 68.0565 255.31C67.8775 255.037 67.7894 254.696 67.7923 254.287V247.886ZM73.019 258.455C72.8088 258.455 72.6142 258.438 72.4352 258.403C72.2591 258.372 72.1184 258.335 72.0133 258.293L72.3713 257.091C72.5957 257.156 72.796 257.188 72.9721 257.185C73.1483 257.182 73.3031 257.126 73.4366 257.018C73.573 256.913 73.688 256.737 73.7818 256.49L73.9139 256.136L71.5403 249.455H73.1767L74.6852 254.398H74.7534L76.2662 249.455H77.9068L75.2861 256.793C75.1639 257.139 75.002 257.436 74.8003 257.683C74.5986 257.933 74.3514 258.124 74.0588 258.254C73.769 258.388 73.4224 258.455 73.019 258.455ZM85.5073 249.455V250.648H81.7445V249.455H85.5073ZM82.6735 247.886H84.2161V254.031C84.2161 254.239 84.2474 254.398 84.3099 254.509C84.3752 254.616 84.4604 254.69 84.5655 254.73C84.6707 254.77 84.7871 254.79 84.915 254.79C85.0116 254.79 85.0996 254.783 85.1792 254.768C85.2616 254.754 85.3241 254.741 85.3667 254.73L85.6266 255.936C85.5442 255.964 85.4263 255.996 85.2729 256.03C85.1224 256.064 84.9377 256.084 84.7189 256.089C84.3326 256.101 83.9846 256.043 83.6749 255.915C83.3653 255.784 83.1195 255.582 82.9377 255.31C82.7587 255.037 82.6707 254.696 82.6735 254.287V247.886ZM89.7688 256.128C89.1126 256.128 88.5458 255.991 88.0686 255.719C87.5941 255.443 87.2291 255.054 86.9734 254.551C86.7177 254.045 86.5899 253.45 86.5899 252.766C86.5899 252.092 86.7177 251.501 86.9734 250.993C87.2319 250.482 87.5927 250.084 88.0558 249.8C88.5188 249.513 89.0629 249.369 89.6879 249.369C90.0913 249.369 90.472 249.435 90.8299 249.565C91.1907 249.693 91.5089 249.892 91.7845 250.162C92.0629 250.432 92.2816 250.776 92.4407 251.193C92.5998 251.608 92.6794 252.102 92.6794 252.676V253.149H87.3143V252.109H91.2007C91.1978 251.814 91.1339 251.551 91.0089 251.321C90.8839 251.088 90.7092 250.905 90.4847 250.771C90.2632 250.638 90.0046 250.571 89.7092 250.571C89.3938 250.571 89.1169 250.648 88.8782 250.801C88.6396 250.952 88.4535 251.151 88.32 251.398C88.1893 251.642 88.1225 251.911 88.1197 252.203V253.111C88.1197 253.491 88.1893 253.818 88.3285 254.091C88.4677 254.361 88.6623 254.568 88.9123 254.713C89.1623 254.855 89.4549 254.926 89.7901 254.926C90.0146 254.926 90.2177 254.895 90.3995 254.832C90.5813 254.767 90.739 254.672 90.8725 254.547C91.0061 254.422 91.1069 254.267 91.1751 254.082L92.6154 254.244C92.5245 254.625 92.3512 254.957 92.0955 255.241C91.8427 255.523 91.5188 255.741 91.124 255.898C90.7291 256.051 90.2774 256.128 89.7688 256.128ZM99.3017 251.185L97.8954 251.338C97.8557 251.196 97.7861 251.062 97.6866 250.938C97.59 250.812 97.4594 250.712 97.2946 250.635C97.1298 250.558 96.9281 250.52 96.6895 250.52C96.3685 250.52 96.0986 250.589 95.8798 250.729C95.6639 250.868 95.5574 251.048 95.5602 251.27C95.5574 251.46 95.627 251.615 95.769 251.734C95.9139 251.854 96.1525 251.952 96.4849 252.028L97.6014 252.267C98.2207 252.401 98.681 252.612 98.9821 252.902C99.2861 253.192 99.4395 253.571 99.4423 254.04C99.4395 254.452 99.3187 254.815 99.0801 255.131C98.8443 255.443 98.5162 255.687 98.0957 255.864C97.6753 256.04 97.1923 256.128 96.6469 256.128C95.8457 256.128 95.2008 255.96 94.7122 255.625C94.2236 255.287 93.9324 254.817 93.8386 254.214L95.3429 254.07C95.4111 254.365 95.556 254.588 95.7775 254.739C95.9991 254.889 96.2875 254.964 96.6426 254.964C97.0091 254.964 97.3031 254.889 97.5247 254.739C97.7491 254.588 97.8614 254.402 97.8614 254.18C97.8614 253.993 97.7889 253.838 97.644 253.716C97.502 253.594 97.2804 253.5 96.9793 253.435L95.8628 253.2C95.2349 253.07 94.7704 252.849 94.4693 252.54C94.1682 252.227 94.019 251.832 94.0219 251.355C94.019 250.952 94.1284 250.602 94.35 250.307C94.5744 250.009 94.8855 249.778 95.2832 249.616C95.6838 249.452 96.1454 249.369 96.6682 249.369C97.4352 249.369 98.0389 249.533 98.4793 249.859C98.9224 250.186 99.1966 250.628 99.3017 251.185ZM104.127 249.455V250.648H100.364V249.455H104.127ZM101.293 247.886H102.836V254.031C102.836 254.239 102.867 254.398 102.929 254.509C102.995 254.616 103.08 254.69 103.185 254.73C103.29 254.77 103.407 254.79 103.534 254.79C103.631 254.79 103.719 254.783 103.799 254.768C103.881 254.754 103.944 254.741 103.986 254.73L104.246 255.936C104.164 255.964 104.046 255.996 103.892 256.03C103.742 256.064 103.557 256.084 103.338 256.089C102.952 256.101 102.604 256.043 102.294 255.915C101.985 255.784 101.739 255.582 101.557 255.31C101.378 255.037 101.29 254.696 101.293 254.287V247.886ZM105.561 256V249.455H107.104V256H105.561ZM106.336 248.526C106.092 248.526 105.882 248.445 105.706 248.283C105.53 248.118 105.442 247.92 105.442 247.69C105.442 247.457 105.53 247.26 105.706 247.098C105.882 246.933 106.092 246.851 106.336 246.851C106.584 246.851 106.794 246.933 106.967 247.098C107.143 247.26 107.231 247.457 107.231 247.69C107.231 247.92 107.143 248.118 106.967 248.283C106.794 248.445 106.584 248.526 106.336 248.526ZM110.376 252.165V256H108.834V249.455H110.308V250.567H110.385C110.536 250.2 110.776 249.909 111.105 249.693C111.438 249.477 111.848 249.369 112.337 249.369C112.788 249.369 113.182 249.466 113.517 249.659C113.855 249.852 114.117 250.132 114.301 250.499C114.489 250.865 114.581 251.31 114.578 251.832V256H113.036V252.071C113.036 251.634 112.922 251.291 112.695 251.044C112.47 250.797 112.159 250.673 111.761 250.673C111.492 250.673 111.251 250.733 111.041 250.852C110.834 250.969 110.67 251.138 110.551 251.359C110.435 251.581 110.376 251.849 110.376 252.165ZM119.137 258.591C118.583 258.591 118.107 258.516 117.709 258.365C117.312 258.217 116.992 258.018 116.751 257.768C116.509 257.518 116.341 257.241 116.248 256.938L117.637 256.601C117.699 256.729 117.79 256.855 117.91 256.98C118.029 257.108 118.189 257.213 118.391 257.295C118.596 257.381 118.853 257.423 119.162 257.423C119.6 257.423 119.962 257.317 120.249 257.104C120.536 256.893 120.68 256.547 120.68 256.064V254.824H120.603C120.523 254.983 120.407 255.146 120.253 255.314C120.103 255.482 119.903 255.622 119.653 255.736C119.405 255.849 119.094 255.906 118.719 255.906C118.216 255.906 117.761 255.788 117.351 255.553C116.945 255.314 116.621 254.959 116.38 254.487C116.141 254.013 116.022 253.419 116.022 252.706C116.022 251.987 116.141 251.381 116.38 250.886C116.621 250.389 116.947 250.013 117.356 249.757C117.765 249.499 118.221 249.369 118.724 249.369C119.107 249.369 119.422 249.435 119.67 249.565C119.92 249.693 120.118 249.848 120.266 250.03C120.414 250.209 120.526 250.378 120.603 250.537H120.688V249.455H122.209V256.107C122.209 256.666 122.076 257.129 121.809 257.496C121.542 257.862 121.177 258.136 120.714 258.318C120.251 258.5 119.725 258.591 119.137 258.591ZM119.15 254.696C119.476 254.696 119.755 254.616 119.985 254.457C120.215 254.298 120.39 254.07 120.509 253.771C120.628 253.473 120.688 253.115 120.688 252.697C120.688 252.286 120.628 251.925 120.509 251.615C120.393 251.305 120.219 251.065 119.989 250.895C119.762 250.722 119.482 250.635 119.15 250.635C118.806 250.635 118.519 250.724 118.289 250.903C118.059 251.082 117.886 251.328 117.769 251.641C117.653 251.95 117.594 252.303 117.594 252.697C117.594 253.098 117.653 253.449 117.769 253.75C117.888 254.048 118.063 254.281 118.293 254.449C118.526 254.614 118.812 254.696 119.15 254.696Z" fill="#5E6C84"/>
<path d="M313.108 249.455V250.648H309.239V249.455H313.108ZM310.206 256V248.837C310.206 248.396 310.297 248.03 310.479 247.737C310.663 247.445 310.911 247.226 311.22 247.081C311.53 246.936 311.874 246.864 312.251 246.864C312.518 246.864 312.756 246.885 312.963 246.928C313.17 246.97 313.324 247.009 313.423 247.043L313.116 248.236C313.051 248.216 312.969 248.196 312.869 248.176C312.77 248.153 312.659 248.142 312.537 248.142C312.25 248.142 312.047 248.212 311.928 248.351C311.811 248.487 311.753 248.683 311.753 248.939V256H310.206ZM317.069 256.128C316.43 256.128 315.876 255.987 315.407 255.706C314.938 255.425 314.575 255.031 314.316 254.526C314.061 254.02 313.933 253.429 313.933 252.753C313.933 252.077 314.061 251.484 314.316 250.976C314.575 250.467 314.938 250.072 315.407 249.791C315.876 249.51 316.43 249.369 317.069 249.369C317.708 249.369 318.262 249.51 318.731 249.791C319.2 250.072 319.562 250.467 319.818 250.976C320.076 251.484 320.205 252.077 320.205 252.753C320.205 253.429 320.076 254.02 319.818 254.526C319.562 255.031 319.2 255.425 318.731 255.706C318.262 255.987 317.708 256.128 317.069 256.128ZM317.078 254.892C317.424 254.892 317.714 254.797 317.947 254.607C318.18 254.413 318.353 254.155 318.467 253.831C318.583 253.507 318.642 253.146 318.642 252.749C318.642 252.348 318.583 251.986 318.467 251.662C318.353 251.335 318.18 251.075 317.947 250.882C317.714 250.689 317.424 250.592 317.078 250.592C316.722 250.592 316.427 250.689 316.191 250.882C315.958 251.075 315.784 251.335 315.667 251.662C315.553 251.986 315.497 252.348 315.497 252.749C315.497 253.146 315.553 253.507 315.667 253.831C315.784 254.155 315.958 254.413 316.191 254.607C316.427 254.797 316.722 254.892 317.078 254.892ZM321.659 256V249.455H323.154V250.545H323.223C323.342 250.168 323.547 249.876 323.836 249.672C324.129 249.464 324.463 249.361 324.838 249.361C324.923 249.361 325.018 249.365 325.123 249.374C325.231 249.379 325.321 249.389 325.392 249.403V250.822C325.326 250.8 325.223 250.78 325.081 250.763C324.941 250.743 324.806 250.733 324.676 250.733C324.395 250.733 324.142 250.794 323.917 250.916C323.696 251.036 323.521 251.202 323.393 251.415C323.265 251.628 323.201 251.874 323.201 252.152V256H321.659ZM334.854 251.185L333.448 251.338C333.408 251.196 333.339 251.062 333.239 250.938C333.143 250.812 333.012 250.712 332.847 250.635C332.683 250.558 332.481 250.52 332.242 250.52C331.921 250.52 331.651 250.589 331.433 250.729C331.217 250.868 331.11 251.048 331.113 251.27C331.11 251.46 331.18 251.615 331.322 251.734C331.467 251.854 331.705 251.952 332.038 252.028L333.154 252.267C333.773 252.401 334.234 252.612 334.535 252.902C334.839 253.192 334.992 253.571 334.995 254.04C334.992 254.452 334.871 254.815 334.633 255.131C334.397 255.443 334.069 255.687 333.648 255.864C333.228 256.04 332.745 256.128 332.2 256.128C331.398 256.128 330.754 255.96 330.265 255.625C329.776 255.287 329.485 254.817 329.391 254.214L330.896 254.07C330.964 254.365 331.109 254.588 331.33 254.739C331.552 254.889 331.84 254.964 332.195 254.964C332.562 254.964 332.856 254.889 333.077 254.739C333.302 254.588 333.414 254.402 333.414 254.18C333.414 253.993 333.342 253.838 333.197 253.716C333.055 253.594 332.833 253.5 332.532 253.435L331.415 253.2C330.788 253.07 330.323 252.849 330.022 252.54C329.721 252.227 329.572 251.832 329.575 251.355C329.572 250.952 329.681 250.602 329.903 250.307C330.127 250.009 330.438 249.778 330.836 249.616C331.237 249.452 331.698 249.369 332.221 249.369C332.988 249.369 333.592 249.533 334.032 249.859C334.475 250.186 334.749 250.628 334.854 251.185ZM339.266 256.128C338.613 256.128 338.052 255.984 337.583 255.697C337.117 255.411 336.758 255.014 336.505 254.509C336.255 254 336.13 253.415 336.13 252.753C336.13 252.088 336.258 251.501 336.513 250.993C336.769 250.482 337.13 250.084 337.596 249.8C338.064 249.513 338.618 249.369 339.258 249.369C339.789 249.369 340.259 249.467 340.668 249.663C341.08 249.857 341.408 250.131 341.653 250.486C341.897 250.838 342.036 251.25 342.07 251.722H340.596C340.536 251.406 340.394 251.143 340.17 250.933C339.948 250.72 339.651 250.614 339.279 250.614C338.964 250.614 338.687 250.699 338.448 250.869C338.209 251.037 338.023 251.278 337.89 251.594C337.759 251.909 337.694 252.287 337.694 252.727C337.694 253.173 337.759 253.557 337.89 253.878C338.02 254.196 338.204 254.442 338.439 254.615C338.678 254.786 338.958 254.871 339.279 254.871C339.506 254.871 339.709 254.828 339.888 254.743C340.07 254.655 340.222 254.528 340.344 254.364C340.466 254.199 340.55 253.999 340.596 253.763H342.07C342.033 254.226 341.897 254.636 341.661 254.994C341.425 255.349 341.104 255.628 340.698 255.83C340.292 256.028 339.814 256.128 339.266 256.128ZM345.023 252.165V256H343.481V247.273H344.989V250.567H345.066C345.219 250.197 345.457 249.906 345.778 249.693C346.102 249.477 346.514 249.369 347.014 249.369C347.468 249.369 347.864 249.464 348.202 249.655C348.54 249.845 348.802 250.124 348.987 250.49C349.174 250.857 349.268 251.304 349.268 251.832V256H347.725V252.071C347.725 251.631 347.612 251.288 347.384 251.044C347.16 250.797 346.844 250.673 346.438 250.673C346.165 250.673 345.921 250.733 345.705 250.852C345.492 250.969 345.325 251.138 345.202 251.359C345.083 251.581 345.023 251.849 345.023 252.165ZM353.882 256.128C353.226 256.128 352.659 255.991 352.182 255.719C351.707 255.443 351.342 255.054 351.086 254.551C350.831 254.045 350.703 253.45 350.703 252.766C350.703 252.092 350.831 251.501 351.086 250.993C351.345 250.482 351.706 250.084 352.169 249.8C352.632 249.513 353.176 249.369 353.801 249.369C354.204 249.369 354.585 249.435 354.943 249.565C355.304 249.693 355.622 249.892 355.898 250.162C356.176 250.432 356.395 250.776 356.554 251.193C356.713 251.608 356.792 252.102 356.792 252.676V253.149H351.427V252.109H355.314C355.311 251.814 355.247 251.551 355.122 251.321C354.997 251.088 354.822 250.905 354.598 250.771C354.376 250.638 354.118 250.571 353.822 250.571C353.507 250.571 353.23 250.648 352.991 250.801C352.753 250.952 352.567 251.151 352.433 251.398C352.302 251.642 352.236 251.911 352.233 252.203V253.111C352.233 253.491 352.302 253.818 352.442 254.091C352.581 254.361 352.775 254.568 353.025 254.713C353.275 254.855 353.568 254.926 353.903 254.926C354.128 254.926 354.331 254.895 354.513 254.832C354.694 254.767 354.852 254.672 354.986 254.547C355.119 254.422 355.22 254.267 355.288 254.082L356.729 254.244C356.638 254.625 356.464 254.957 356.209 255.241C355.956 255.523 355.632 255.741 355.237 255.898C354.842 256.051 354.39 256.128 353.882 256.128ZM358.241 256V249.455H359.716V250.567H359.793C359.929 250.192 360.155 249.899 360.47 249.689C360.786 249.476 361.162 249.369 361.599 249.369C362.043 249.369 362.416 249.477 362.72 249.693C363.027 249.906 363.243 250.197 363.368 250.567H363.436C363.581 250.203 363.825 249.913 364.169 249.697C364.516 249.479 364.926 249.369 365.401 249.369C366.003 249.369 366.494 249.56 366.875 249.94C367.256 250.321 367.446 250.876 367.446 251.607V256H365.899V251.845C365.899 251.439 365.791 251.142 365.575 250.955C365.359 250.764 365.095 250.669 364.783 250.669C364.411 250.669 364.119 250.786 363.909 251.018C363.702 251.249 363.598 251.548 363.598 251.918V256H362.085V251.781C362.085 251.443 361.983 251.173 361.778 250.972C361.577 250.77 361.313 250.669 360.986 250.669C360.764 250.669 360.563 250.726 360.381 250.839C360.199 250.95 360.054 251.108 359.946 251.312C359.838 251.514 359.784 251.75 359.784 252.02V256H358.241ZM371.039 256.132C370.624 256.132 370.25 256.058 369.918 255.911C369.588 255.76 369.327 255.538 369.134 255.246C368.943 254.953 368.848 254.592 368.848 254.163C368.848 253.794 368.916 253.489 369.053 253.247C369.189 253.006 369.375 252.812 369.611 252.668C369.847 252.523 370.112 252.413 370.408 252.339C370.706 252.263 371.014 252.207 371.333 252.173C371.716 252.134 372.027 252.098 372.266 252.067C372.504 252.033 372.678 251.982 372.786 251.913C372.896 251.842 372.952 251.733 372.952 251.585V251.56C372.952 251.239 372.857 250.99 372.666 250.814C372.476 250.638 372.202 250.55 371.844 250.55C371.466 250.55 371.166 250.632 370.945 250.797C370.726 250.962 370.578 251.156 370.502 251.381L369.061 251.176C369.175 250.778 369.362 250.446 369.624 250.179C369.885 249.909 370.205 249.707 370.583 249.574C370.96 249.438 371.378 249.369 371.835 249.369C372.151 249.369 372.465 249.406 372.777 249.48C373.09 249.554 373.375 249.676 373.634 249.847C373.892 250.014 374.1 250.243 374.256 250.533C374.415 250.822 374.495 251.185 374.495 251.619V256H373.012V255.101H372.96C372.867 255.283 372.735 255.453 372.564 255.612C372.396 255.768 372.185 255.895 371.929 255.991C371.676 256.085 371.379 256.132 371.039 256.132ZM371.439 254.999C371.749 254.999 372.017 254.937 372.245 254.815C372.472 254.69 372.646 254.526 372.769 254.321C372.894 254.116 372.956 253.893 372.956 253.652V252.881C372.908 252.92 372.825 252.957 372.709 252.991C372.595 253.026 372.468 253.055 372.325 253.081C372.183 253.107 372.043 253.129 371.904 253.149C371.764 253.169 371.644 253.186 371.541 253.2C371.311 253.232 371.105 253.283 370.923 253.354C370.742 253.425 370.598 253.524 370.493 253.652C370.388 253.777 370.335 253.939 370.335 254.138C370.335 254.422 370.439 254.636 370.646 254.781C370.854 254.926 371.118 254.999 371.439 254.999ZM382.165 256.128C381.512 256.128 380.951 255.984 380.482 255.697C380.016 255.411 379.657 255.014 379.404 254.509C379.154 254 379.029 253.415 379.029 252.753C379.029 252.088 379.157 251.501 379.412 250.993C379.668 250.482 380.029 250.084 380.495 249.8C380.964 249.513 381.518 249.369 382.157 249.369C382.688 249.369 383.158 249.467 383.567 249.663C383.979 249.857 384.307 250.131 384.552 250.486C384.796 250.838 384.935 251.25 384.969 251.722H383.495C383.435 251.406 383.293 251.143 383.069 250.933C382.847 250.72 382.55 250.614 382.178 250.614C381.863 250.614 381.586 250.699 381.347 250.869C381.109 251.037 380.922 251.278 380.789 251.594C380.658 251.909 380.593 252.287 380.593 252.727C380.593 253.173 380.658 253.557 380.789 253.878C380.92 254.196 381.103 254.442 381.339 254.615C381.577 254.786 381.857 254.871 382.178 254.871C382.405 254.871 382.609 254.828 382.787 254.743C382.969 254.655 383.121 254.528 383.243 254.364C383.366 254.199 383.449 253.999 383.495 253.763H384.969C384.932 254.226 384.796 254.636 384.56 254.994C384.324 255.349 384.003 255.628 383.597 255.83C383.191 256.028 382.714 256.128 382.165 256.128ZM389.235 256.128C388.596 256.128 388.042 255.987 387.573 255.706C387.104 255.425 386.741 255.031 386.482 254.526C386.227 254.02 386.099 253.429 386.099 252.753C386.099 252.077 386.227 251.484 386.482 250.976C386.741 250.467 387.104 250.072 387.573 249.791C388.042 249.51 388.596 249.369 389.235 249.369C389.874 249.369 390.428 249.51 390.897 249.791C391.366 250.072 391.728 250.467 391.984 250.976C392.242 251.484 392.371 252.077 392.371 252.753C392.371 253.429 392.242 254.02 391.984 254.526C391.728 255.031 391.366 255.425 390.897 255.706C390.428 255.987 389.874 256.128 389.235 256.128ZM389.244 254.892C389.59 254.892 389.88 254.797 390.113 254.607C390.346 254.413 390.519 254.155 390.633 253.831C390.749 253.507 390.808 253.146 390.808 252.749C390.808 252.348 390.749 251.986 390.633 251.662C390.519 251.335 390.346 251.075 390.113 250.882C389.88 250.689 389.59 250.592 389.244 250.592C388.889 250.592 388.593 250.689 388.357 250.882C388.124 251.075 387.95 251.335 387.833 251.662C387.719 251.986 387.663 252.348 387.663 252.749C387.663 253.146 387.719 253.507 387.833 253.831C387.95 254.155 388.124 254.413 388.357 254.607C388.593 254.797 388.889 254.892 389.244 254.892ZM395.367 252.165V256H393.825V249.455H395.299V250.567H395.376C395.526 250.2 395.767 249.909 396.096 249.693C396.428 249.477 396.839 249.369 397.328 249.369C397.779 249.369 398.173 249.466 398.508 249.659C398.846 249.852 399.107 250.132 399.292 250.499C399.48 250.865 399.572 251.31 399.569 251.832V256H398.026V252.071C398.026 251.634 397.913 251.291 397.686 251.044C397.461 250.797 397.15 250.673 396.752 250.673C396.482 250.673 396.242 250.733 396.032 250.852C395.825 250.969 395.661 251.138 395.542 251.359C395.426 251.581 395.367 251.849 395.367 252.165ZM404.597 249.455V250.648H400.727V249.455H404.597ZM401.695 256V248.837C401.695 248.396 401.786 248.03 401.967 247.737C402.152 247.445 402.399 247.226 402.709 247.081C403.018 246.936 403.362 246.864 403.74 246.864C404.007 246.864 404.244 246.885 404.452 246.928C404.659 246.97 404.813 247.009 404.912 247.043L404.605 248.236C404.54 248.216 404.457 248.196 404.358 248.176C404.259 248.153 404.148 248.142 404.026 248.142C403.739 248.142 403.536 248.212 403.416 248.351C403.3 248.487 403.241 248.683 403.241 248.939V256H401.695ZM408.558 256.128C407.919 256.128 407.365 255.987 406.896 255.706C406.427 255.425 406.063 255.031 405.805 254.526C405.549 254.02 405.421 253.429 405.421 252.753C405.421 252.077 405.549 251.484 405.805 250.976C406.063 250.467 406.427 250.072 406.896 249.791C407.365 249.51 407.919 249.369 408.558 249.369C409.197 249.369 409.751 249.51 410.22 249.791C410.688 250.072 411.051 250.467 411.306 250.976C411.565 251.484 411.694 252.077 411.694 252.753C411.694 253.429 411.565 254.02 411.306 254.526C411.051 255.031 410.688 255.425 410.22 255.706C409.751 255.987 409.197 256.128 408.558 256.128ZM408.566 254.892C408.913 254.892 409.203 254.797 409.436 254.607C409.669 254.413 409.842 254.155 409.955 253.831C410.072 253.507 410.13 253.146 410.13 252.749C410.13 252.348 410.072 251.986 409.955 251.662C409.842 251.335 409.669 251.075 409.436 250.882C409.203 250.689 408.913 250.592 408.566 250.592C408.211 250.592 407.916 250.689 407.68 250.882C407.447 251.075 407.272 251.335 407.156 251.662C407.042 251.986 406.985 252.348 406.985 252.749C406.985 253.146 407.042 253.507 407.156 253.831C407.272 254.155 407.447 254.413 407.68 254.607C407.916 254.797 408.211 254.892 408.566 254.892ZM413.147 256V249.455H414.643V250.545H414.711C414.831 250.168 415.035 249.876 415.325 249.672C415.618 249.464 415.951 249.361 416.326 249.361C416.412 249.361 416.507 249.365 416.612 249.374C416.72 249.379 416.809 249.389 416.88 249.403V250.822C416.815 250.8 416.711 250.78 416.569 250.763C416.43 250.743 416.295 250.733 416.164 250.733C415.883 250.733 415.63 250.794 415.406 250.916C415.184 251.036 415.01 251.202 414.882 251.415C414.754 251.628 414.69 251.874 414.69 252.152V256H413.147ZM418.049 256V249.455H419.524V250.567H419.6C419.737 250.192 419.963 249.899 420.278 249.689C420.593 249.476 420.97 249.369 421.407 249.369C421.85 249.369 422.224 249.477 422.528 249.693C422.835 249.906 423.051 250.197 423.176 250.567H423.244C423.389 250.203 423.633 249.913 423.977 249.697C424.323 249.479 424.734 249.369 425.208 249.369C425.811 249.369 426.302 249.56 426.683 249.94C427.063 250.321 427.254 250.876 427.254 251.607V256H425.707V251.845C425.707 251.439 425.599 251.142 425.383 250.955C425.167 250.764 424.903 250.669 424.59 250.669C424.218 250.669 423.927 250.786 423.717 251.018C423.509 251.249 423.406 251.548 423.406 251.918V256H421.893V251.781C421.893 251.443 421.791 251.173 421.586 250.972C421.384 250.77 421.12 250.669 420.794 250.669C420.572 250.669 420.37 250.726 420.188 250.839C420.007 250.95 419.862 251.108 419.754 251.312C419.646 251.514 419.592 251.75 419.592 252.02V256H418.049ZM430.846 256.132C430.431 256.132 430.058 256.058 429.726 255.911C429.396 255.76 429.135 255.538 428.941 255.246C428.751 254.953 428.656 254.592 428.656 254.163C428.656 253.794 428.724 253.489 428.86 253.247C428.997 253.006 429.183 252.812 429.419 252.668C429.655 252.523 429.92 252.413 430.216 252.339C430.514 252.263 430.822 252.207 431.14 252.173C431.524 252.134 431.835 252.098 432.074 252.067C432.312 252.033 432.485 251.982 432.593 251.913C432.704 251.842 432.76 251.733 432.76 251.585V251.56C432.76 251.239 432.664 250.99 432.474 250.814C432.284 250.638 432.01 250.55 431.652 250.55C431.274 250.55 430.974 250.632 430.753 250.797C430.534 250.962 430.386 251.156 430.309 251.381L428.869 251.176C428.983 250.778 429.17 250.446 429.431 250.179C429.693 249.909 430.012 249.707 430.39 249.574C430.768 249.438 431.186 249.369 431.643 249.369C431.958 249.369 432.272 249.406 432.585 249.48C432.897 249.554 433.183 249.676 433.441 249.847C433.7 250.014 433.907 250.243 434.064 250.533C434.223 250.822 434.302 251.185 434.302 251.619V256H432.819V255.101H432.768C432.674 255.283 432.542 255.453 432.372 255.612C432.204 255.768 431.993 255.895 431.737 255.991C431.484 256.085 431.187 256.132 430.846 256.132ZM431.247 254.999C431.556 254.999 431.825 254.937 432.052 254.815C432.28 254.69 432.454 254.526 432.576 254.321C432.701 254.116 432.764 253.893 432.764 253.652V252.881C432.716 252.92 432.633 252.957 432.517 252.991C432.403 253.026 432.275 253.055 432.133 253.081C431.991 253.107 431.851 253.129 431.711 253.149C431.572 253.169 431.451 253.186 431.349 253.2C431.119 253.232 430.913 253.283 430.731 253.354C430.549 253.425 430.406 253.524 430.301 253.652C430.196 253.777 430.143 253.939 430.143 254.138C430.143 254.422 430.247 254.636 430.454 254.781C430.662 254.926 430.926 254.999 431.247 254.999ZM437.54 252.165V256H435.997V249.455H437.472V250.567H437.549C437.699 250.2 437.939 249.909 438.269 249.693C438.601 249.477 439.012 249.369 439.5 249.369C439.952 249.369 440.345 249.466 440.681 249.659C441.019 249.852 441.28 250.132 441.465 250.499C441.652 250.865 441.745 251.31 441.742 251.832V256H440.199V252.071C440.199 251.634 440.085 251.291 439.858 251.044C439.634 250.797 439.323 250.673 438.925 250.673C438.655 250.673 438.415 250.733 438.205 250.852C437.997 250.969 437.834 251.138 437.715 251.359C437.598 251.581 437.54 251.849 437.54 252.165ZM446.309 256.128C445.656 256.128 445.094 255.984 444.626 255.697C444.16 255.411 443.8 255.014 443.548 254.509C443.298 254 443.173 253.415 443.173 252.753C443.173 252.088 443.3 251.501 443.556 250.993C443.812 250.482 444.173 250.084 444.639 249.8C445.107 249.513 445.661 249.369 446.3 249.369C446.832 249.369 447.302 249.467 447.711 249.663C448.123 249.857 448.451 250.131 448.695 250.486C448.94 250.838 449.079 251.25 449.113 251.722H447.639C447.579 251.406 447.437 251.143 447.212 250.933C446.991 250.72 446.694 250.614 446.322 250.614C446.006 250.614 445.729 250.699 445.491 250.869C445.252 251.037 445.066 251.278 444.933 251.594C444.802 251.909 444.737 252.287 444.737 252.727C444.737 253.173 444.802 253.557 444.933 253.878C445.063 254.196 445.246 254.442 445.482 254.615C445.721 254.786 446.001 254.871 446.322 254.871C446.549 254.871 446.752 254.828 446.931 254.743C447.113 254.655 447.265 254.528 447.387 254.364C447.509 254.199 447.593 253.999 447.639 253.763H449.113C449.076 254.226 448.94 254.636 448.704 254.994C448.468 255.349 448.147 255.628 447.741 255.83C447.335 256.028 446.857 256.128 446.309 256.128ZM453.421 256.128C452.765 256.128 452.198 255.991 451.721 255.719C451.247 255.443 450.882 255.054 450.626 254.551C450.37 254.045 450.242 253.45 450.242 252.766C450.242 252.092 450.37 251.501 450.626 250.993C450.884 250.482 451.245 250.084 451.708 249.8C452.171 249.513 452.715 249.369 453.34 249.369C453.744 249.369 454.124 249.435 454.482 249.565C454.843 249.693 455.161 249.892 455.437 250.162C455.715 250.432 455.934 250.776 456.093 251.193C456.252 251.608 456.332 252.102 456.332 252.676V253.149H450.967V252.109H454.853C454.85 251.814 454.786 251.551 454.661 251.321C454.536 251.088 454.362 250.905 454.137 250.771C453.916 250.638 453.657 250.571 453.362 250.571C453.046 250.571 452.769 250.648 452.531 250.801C452.292 250.952 452.106 251.151 451.973 251.398C451.842 251.642 451.775 251.911 451.772 252.203V253.111C451.772 253.491 451.842 253.818 451.981 254.091C452.12 254.361 452.315 254.568 452.565 254.713C452.815 254.855 453.107 254.926 453.443 254.926C453.667 254.926 453.87 254.895 454.052 254.832C454.234 254.767 454.392 254.672 454.525 254.547C454.659 254.422 454.759 254.267 454.828 254.082L456.268 254.244C456.177 254.625 456.004 254.957 455.748 255.241C455.495 255.523 455.171 255.741 454.776 255.898C454.382 256.051 453.93 256.128 453.421 256.128ZM464.17 249.455V250.648H460.407V249.455H464.17ZM461.336 247.886H462.879V254.031C462.879 254.239 462.91 254.398 462.973 254.509C463.038 254.616 463.123 254.69 463.228 254.73C463.333 254.77 463.45 254.79 463.578 254.79C463.674 254.79 463.762 254.783 463.842 254.768C463.924 254.754 463.987 254.741 464.029 254.73L464.289 255.936C464.207 255.964 464.089 255.996 463.936 256.03C463.785 256.064 463.6 256.084 463.382 256.089C462.995 256.101 462.647 256.043 462.338 255.915C462.028 255.784 461.782 255.582 461.6 255.31C461.421 255.037 461.333 254.696 461.336 254.287V247.886ZM468.431 256.128C467.775 256.128 467.208 255.991 466.731 255.719C466.257 255.443 465.892 255.054 465.636 254.551C465.38 254.045 465.253 253.45 465.253 252.766C465.253 252.092 465.38 251.501 465.636 250.993C465.895 250.482 466.255 250.084 466.718 249.8C467.181 249.513 467.726 249.369 468.351 249.369C468.754 249.369 469.135 249.435 469.493 249.565C469.853 249.693 470.172 249.892 470.447 250.162C470.726 250.432 470.944 250.776 471.103 251.193C471.262 251.608 471.342 252.102 471.342 252.676V253.149H465.977V252.109H469.863C469.86 251.814 469.797 251.551 469.672 251.321C469.547 251.088 469.372 250.905 469.147 250.771C468.926 250.638 468.667 250.571 468.372 250.571C468.056 250.571 467.78 250.648 467.541 250.801C467.302 250.952 467.116 251.151 466.983 251.398C466.852 251.642 466.785 251.911 466.782 252.203V253.111C466.782 253.491 466.852 253.818 466.991 254.091C467.13 254.361 467.325 254.568 467.575 254.713C467.825 254.855 468.118 254.926 468.453 254.926C468.677 254.926 468.88 254.895 469.062 254.832C469.244 254.767 469.402 254.672 469.535 254.547C469.669 254.422 469.77 254.267 469.838 254.082L471.278 254.244C471.187 254.625 471.014 254.957 470.758 255.241C470.505 255.523 470.181 255.741 469.787 255.898C469.392 256.051 468.94 256.128 468.431 256.128ZM477.964 251.185L476.558 251.338C476.518 251.196 476.449 251.062 476.349 250.938C476.253 250.812 476.122 250.712 475.957 250.635C475.792 250.558 475.591 250.52 475.352 250.52C475.031 250.52 474.761 250.589 474.542 250.729C474.327 250.868 474.22 251.048 474.223 251.27C474.22 251.46 474.29 251.615 474.432 251.734C474.577 251.854 474.815 251.952 475.148 252.028L476.264 252.267C476.883 252.401 477.344 252.612 477.645 252.902C477.949 253.192 478.102 253.571 478.105 254.04C478.102 254.452 477.981 254.815 477.743 255.131C477.507 255.443 477.179 255.687 476.758 255.864C476.338 256.04 475.855 256.128 475.31 256.128C474.508 256.128 473.864 255.96 473.375 255.625C472.886 255.287 472.595 254.817 472.501 254.214L474.006 254.07C474.074 254.365 474.219 254.588 474.44 254.739C474.662 254.889 474.95 254.964 475.305 254.964C475.672 254.964 475.966 254.889 476.187 254.739C476.412 254.588 476.524 254.402 476.524 254.18C476.524 253.993 476.452 253.838 476.307 253.716C476.165 253.594 475.943 253.5 475.642 253.435L474.525 253.2C473.898 253.07 473.433 252.849 473.132 252.54C472.831 252.227 472.682 251.832 472.685 251.355C472.682 250.952 472.791 250.602 473.013 250.307C473.237 250.009 473.548 249.778 473.946 249.616C474.346 249.452 474.808 249.369 475.331 249.369C476.098 249.369 476.702 249.533 477.142 249.859C477.585 250.186 477.859 250.628 477.964 251.185ZM482.789 249.455V250.648H479.027V249.455H482.789ZM479.956 247.886H481.498V254.031C481.498 254.239 481.53 254.398 481.592 254.509C481.657 254.616 481.743 254.69 481.848 254.73C481.953 254.77 482.069 254.79 482.197 254.79C482.294 254.79 482.382 254.783 482.461 254.768C482.544 254.754 482.606 254.741 482.649 254.73L482.909 255.936C482.826 255.964 482.708 255.996 482.555 256.03C482.405 256.064 482.22 256.084 482.001 256.089C481.615 256.101 481.267 256.043 480.957 255.915C480.647 255.784 480.402 255.582 480.22 255.31C480.041 255.037 479.953 254.696 479.956 254.287V247.886ZM484.224 256V249.455H485.766V256H484.224ZM484.999 248.526C484.755 248.526 484.545 248.445 484.368 248.283C484.192 248.118 484.104 247.92 484.104 247.69C484.104 247.457 484.192 247.26 484.368 247.098C484.545 246.933 484.755 246.851 484.999 246.851C485.246 246.851 485.457 246.933 485.63 247.098C485.806 247.26 485.894 247.457 485.894 247.69C485.894 247.92 485.806 248.118 485.63 248.283C485.457 248.445 485.246 248.526 484.999 248.526ZM489.039 252.165V256H487.496V249.455H488.971V250.567H489.048C489.198 250.2 489.438 249.909 489.768 249.693C490.1 249.477 490.511 249.369 490.999 249.369C491.451 249.369 491.844 249.466 492.18 249.659C492.518 249.852 492.779 250.132 492.964 250.499C493.151 250.865 493.244 251.31 493.241 251.832V256H491.698V252.071C491.698 251.634 491.585 251.291 491.357 251.044C491.133 250.797 490.822 250.673 490.424 250.673C490.154 250.673 489.914 250.733 489.704 250.852C489.496 250.969 489.333 251.138 489.214 251.359C489.097 251.581 489.039 251.849 489.039 252.165ZM497.8 258.591C497.246 258.591 496.77 258.516 496.372 258.365C495.974 258.217 495.655 258.018 495.413 257.768C495.172 257.518 495.004 257.241 494.91 256.938L496.3 256.601C496.362 256.729 496.453 256.855 496.572 256.98C496.692 257.108 496.852 257.213 497.054 257.295C497.258 257.381 497.515 257.423 497.825 257.423C498.263 257.423 498.625 257.317 498.912 257.104C499.199 256.893 499.342 256.547 499.342 256.064V254.824H499.265C499.186 254.983 499.069 255.146 498.916 255.314C498.765 255.482 498.565 255.622 498.315 255.736C498.068 255.849 497.757 255.906 497.382 255.906C496.879 255.906 496.423 255.788 496.014 255.553C495.608 255.314 495.284 254.959 495.042 254.487C494.804 254.013 494.685 253.419 494.685 252.706C494.685 251.987 494.804 251.381 495.042 250.886C495.284 250.389 495.609 250.013 496.018 249.757C496.427 249.499 496.883 249.369 497.386 249.369C497.77 249.369 498.085 249.435 498.332 249.565C498.582 249.693 498.781 249.848 498.929 250.03C499.077 250.209 499.189 250.378 499.265 250.537H499.351V249.455H500.872V256.107C500.872 256.666 500.738 257.129 500.471 257.496C500.204 257.862 499.839 258.136 499.376 258.318C498.913 258.5 498.388 258.591 497.8 258.591ZM497.812 254.696C498.139 254.696 498.417 254.616 498.648 254.457C498.878 254.298 499.052 254.07 499.172 253.771C499.291 253.473 499.351 253.115 499.351 252.697C499.351 252.286 499.291 251.925 499.172 251.615C499.055 251.305 498.882 251.065 498.652 250.895C498.425 250.722 498.145 250.635 497.812 250.635C497.469 250.635 497.182 250.724 496.952 250.903C496.721 251.082 496.548 251.328 496.432 251.641C496.315 251.95 496.257 252.303 496.257 252.697C496.257 253.098 496.315 253.449 496.432 253.75C496.551 254.048 496.726 254.281 496.956 254.449C497.189 254.614 497.474 254.696 497.812 254.696Z" fill="#5E6C84"/>
</svg>
